<svg preserveAspectRatio="none" width="100%" height="100%" overflow="visible" style="display: block;" viewBox="0 0 175 122" fill="none" xmlns="http://www.w3.org/2000/svg">
<path id="Rounded rectangle" d="M24 0.5H151C156.671 0.5 160.874 0.500763 164.101 0.93457C167.313 1.36646 169.483 2.21919 171.132 3.86816C172.781 5.51714 173.634 7.68709 174.065 10.8994C174.499 14.1261 174.5 18.3291 174.5 24V98C174.5 103.671 174.499 107.874 174.065 111.101C173.634 114.313 172.781 116.483 171.132 118.132C169.483 119.781 167.313 120.634 164.101 121.065C160.874 121.499 156.671 121.5 151 121.5H24C18.3291 121.5 14.1261 121.499 10.8994 121.065C7.68709 120.634 5.51714 119.781 3.86816 118.132C2.21919 116.483 1.36646 114.313 0.93457 111.101C0.500763 107.874 0.5 103.671 0.5 98V24C0.5 18.3291 0.500763 14.1261 0.93457 10.8994C1.36646 7.68709 2.21919 5.51714 3.86816 3.86816C5.51714 2.21919 7.68709 1.36646 10.8994 0.93457C14.1261 0.500763 18.3291 0.5 24 0.5Z" fill="var(--fill-0, #0F7FE5)" stroke="var(--stroke-0, black)"/>
</svg>
