<svg width="24" height="24" viewBox="0 0 24 24" fill="none" xmlns="http://www.w3.org/2000/svg">
<path d="M14.9754 3.01887L15.9352 1.28728C15.9475 1.26506 15.9553 1.24064 15.9582 1.2154C15.9611 1.19016 15.959 1.16461 15.952 1.14019C15.945 1.11578 15.9332 1.09298 15.9174 1.0731C15.9016 1.05322 15.882 1.03665 15.8598 1.02433C15.815 0.99946 15.7621 0.99343 15.7127 1.00757C15.6634 1.0217 15.6218 1.05485 15.5969 1.09972L14.6264 2.8505C13.7984 2.48751 12.9041 2.3001 12.0001 2.3001C11.096 2.3001 10.2017 2.48751 9.37368 2.8505L8.4032 1.09972C8.37833 1.05485 8.33665 1.0217 8.28734 1.00757C8.23803 0.99343 8.18512 0.99946 8.14025 1.02433C8.09539 1.0492 8.06224 1.09088 8.04811 1.14019C8.03397 1.1895 8.04 1.24241 8.06487 1.28728L9.02472 3.01888C8.11105 3.46925 7.33906 4.16255 6.79343 5.02273C6.2478 5.88291 5.94961 6.87675 5.93156 7.89523H18.0686C18.0505 6.87675 17.7523 5.88291 17.2067 5.02272C16.6611 4.16254 15.8891 3.46924 14.9754 3.01887ZM9.19915 5.67447C9.09891 5.67447 9.00093 5.64474 8.91759 5.58906C8.83424 5.53337 8.76929 5.45422 8.73093 5.36161C8.69257 5.26901 8.68253 5.1671 8.70209 5.0688C8.72164 4.97049 8.76991 4.88018 8.84079 4.80931C8.91166 4.73843 9.00197 4.69016 9.10028 4.67061C9.19859 4.65105 9.30049 4.66109 9.39309 4.69944C9.4857 4.7378 9.56485 4.80276 9.62054 4.8861C9.67623 4.96945 9.70595 5.06743 9.70595 5.16767C9.7058 5.30203 9.65236 5.43085 9.55735 5.52586C9.46233 5.62087 9.33352 5.67432 9.19915 5.67447ZM14.8009 5.67447C14.7007 5.67447 14.6027 5.64474 14.5194 5.58906C14.436 5.53337 14.3711 5.45422 14.3327 5.36161C14.2943 5.26901 14.2843 5.1671 14.3039 5.0688C14.3234 4.97049 14.3717 4.88018 14.4426 4.80931C14.5134 4.73843 14.6037 4.69016 14.7021 4.67061C14.8004 4.65105 14.9023 4.66109 14.9949 4.69944C15.0875 4.7378 15.1666 4.80276 15.2223 4.8861C15.278 4.96945 15.3077 5.06743 15.3077 5.16767C15.3076 5.30203 15.2541 5.43085 15.1591 5.52586C15.0641 5.62087 14.9353 5.67432 14.8009 5.67447ZM5.93147 17.1715C5.93147 17.5606 6.08604 17.9337 6.36118 18.2089C6.63632 18.484 7.00949 18.6386 7.3986 18.6386H8.3722V21.6395C8.37171 21.8185 8.40655 21.9958 8.4747 22.1613C8.54285 22.3268 8.64298 22.4772 8.76936 22.6039C8.89574 22.7306 9.04588 22.8312 9.21118 22.8998C9.37648 22.9684 9.55369 23.0037 9.73266 23.0037C9.91162 23.0037 10.0888 22.9684 10.2541 22.8998C10.4194 22.8312 10.5696 22.7306 10.6959 22.6039C10.8223 22.4772 10.9225 22.3268 10.9906 22.1613C11.0588 21.9958 11.0936 21.8185 11.0931 21.6395V18.6386H12.907V21.6395C12.9065 21.8185 12.9413 21.9958 13.0095 22.1613C13.0776 22.3268 13.1778 22.4772 13.3041 22.6039C13.4305 22.7306 13.5806 22.8312 13.7459 22.8998C13.9112 22.9684 14.0885 23.0037 14.2674 23.0037C14.4464 23.0037 14.6236 22.9684 14.7889 22.8998C14.9542 22.8312 15.1043 22.7306 15.2307 22.6039C15.3571 22.4772 15.4572 22.3268 15.5254 22.1613C15.5935 21.9958 15.6284 21.8185 15.6279 21.6395V18.6386H16.6015C16.9906 18.6386 17.3638 18.484 17.6389 18.2089C17.9141 17.9337 18.0686 17.5606 18.0686 17.1715V8.37533H5.93147V17.1715ZM4.06419 8.14192C3.7035 8.14233 3.3577 8.28579 3.10266 8.54084C2.84761 8.79589 2.70415 9.14169 2.70374 9.50238V15.1708C2.70326 15.3498 2.73809 15.5271 2.80624 15.6926C2.87439 15.8581 2.97452 16.0085 3.1009 16.1352C3.22728 16.2619 3.37742 16.3625 3.54272 16.4311C3.70802 16.4997 3.88523 16.535 4.0642 16.535C4.24316 16.535 4.42037 16.4997 4.58567 16.4311C4.75097 16.3625 4.90111 16.2619 5.02749 16.1352C5.15387 16.0085 5.254 15.8581 5.32215 15.6926C5.3903 15.5271 5.42514 15.3498 5.42465 15.1708V9.50238C5.42424 9.14169 5.28078 8.79588 5.02573 8.54084C4.77068 8.28579 4.42488 8.14232 4.06419 8.14192ZM19.9359 8.14192C19.5752 8.14232 19.2294 8.28579 18.9743 8.54084C18.7193 8.79588 18.5758 9.14169 18.5754 9.50238V15.1708C18.5749 15.3498 18.6098 15.5271 18.6779 15.6926C18.7461 15.8581 18.8462 16.0085 18.9726 16.1352C19.099 16.2619 19.2491 16.3625 19.4144 16.4311C19.5797 16.4997 19.7569 16.535 19.9359 16.535C20.1149 16.535 20.2921 16.4997 20.4574 16.4311C20.6227 16.3625 20.7728 16.2619 20.8992 16.1352C21.0256 16.0085 21.1257 15.8581 21.1938 15.6926C21.262 15.5271 21.2968 15.3498 21.2963 15.1708V9.50238C21.2959 9.14169 21.1525 8.79589 20.8974 8.54084C20.6424 8.28579 20.2966 8.14233 19.9359 8.14192Z" fill="#414853"/>
</svg>
