<svg width="24" height="24" viewBox="0 0 24 24" fill="none" xmlns="http://www.w3.org/2000/svg">
<path d="M21.71 16.29C21.6171 16.1963 21.5065 16.1219 21.3846 16.0711C21.2627 16.0203 21.132 15.9942 21 15.9942C20.868 15.9942 20.7373 16.0203 20.6154 16.0711C20.4936 16.1219 20.383 16.1963 20.29 16.29L18 18.59V9C18 8.20435 17.6839 7.44129 17.1213 6.87868C16.5587 6.31607 15.7957 6 15 6H5.41002L7.71002 3.71C7.80326 3.61676 7.87722 3.50607 7.92768 3.38425C7.97814 3.26243 8.00411 3.13186 8.00411 3C8.00411 2.86814 7.97814 2.73758 7.92768 2.61575C7.87722 2.49393 7.80326 2.38324 7.71002 2.29C7.61678 2.19676 7.50609 2.1228 7.38427 2.07234C7.26245 2.02188 7.13188 1.99591 7.00002 1.99591C6.86816 1.99591 6.73759 2.02188 6.61577 2.07234C6.49395 2.1228 6.38326 2.19676 6.29002 2.29L2.29002 6.29C2.19898 6.38511 2.12761 6.49725 2.08002 6.62C1.98 6.86346 1.98 7.13654 2.08002 7.38C2.12761 7.50275 2.19898 7.6149 2.29002 7.71L6.29002 11.71C6.38298 11.8037 6.49358 11.8781 6.61544 11.9289C6.7373 11.9797 6.86801 12.0058 7.00002 12.0058C7.13203 12.0058 7.26274 11.9797 7.3846 11.9289C7.50645 11.8781 7.61706 11.8037 7.71002 11.71C7.80375 11.617 7.87814 11.5064 7.92891 11.3846C7.97968 11.2627 8.00582 11.132 8.00582 11C8.00582 10.868 7.97968 10.7373 7.92891 10.6154C7.87814 10.4936 7.80375 10.383 7.71002 10.29L5.41002 8H15C15.2652 8 15.5196 8.10536 15.7071 8.2929C15.8947 8.48043 16 8.73479 16 9V18.59L13.71 16.29C13.6168 16.1968 13.5061 16.1228 13.3843 16.0723C13.2624 16.0219 13.1319 15.9959 13 15.9959C12.8682 15.9959 12.7376 16.0219 12.6158 16.0723C12.4939 16.1228 12.3833 16.1968 12.29 16.29C12.1968 16.3832 12.1228 16.4939 12.0724 16.6158C12.0219 16.7376 11.9959 16.8681 11.9959 17C11.9959 17.1319 12.0219 17.2624 12.0724 17.3843C12.1228 17.5061 12.1968 17.6168 12.29 17.71L16.29 21.71C16.3851 21.801 16.4973 21.8724 16.62 21.92C16.7397 21.9729 16.8691 22.0002 17 22.0002C17.1309 22.0002 17.2603 21.9729 17.38 21.92C17.5028 21.8724 17.6149 21.801 17.71 21.71L21.71 17.71C21.8037 17.617 21.8781 17.5064 21.9289 17.3846C21.9797 17.2627 22.0058 17.132 22.0058 17C22.0058 16.868 21.9797 16.7373 21.9289 16.6154C21.8781 16.4936 21.8037 16.383 21.71 16.29Z" fill="#414853"/>
</svg>
