<svg width="24" height="24" viewBox="0 0 24 24" fill="none" xmlns="http://www.w3.org/2000/svg">
<path d="M21.92 11.62C21.8724 11.4973 21.8011 11.3851 21.71 11.29L19.21 8.79C19.0217 8.6017 18.7663 8.49591 18.5 8.49591C18.2337 8.49591 17.9783 8.6017 17.79 8.79C17.6017 8.97831 17.4959 9.2337 17.4959 9.5C17.4959 9.7663 17.6017 10.0217 17.79 10.21L18.59 11H14C13.7348 11 13.4804 11.1054 13.2929 11.2929C13.1054 11.4804 13 11.7348 13 12C13 12.2652 13.1054 12.5196 13.2929 12.7071C13.4804 12.8946 13.7348 13 14 13H18.59L17.79 13.79C17.6963 13.883 17.6219 13.9936 17.5711 14.1154C17.5204 14.2373 17.4942 14.368 17.4942 14.5C17.4942 14.632 17.5204 14.7627 17.5711 14.8846C17.6219 15.0064 17.6963 15.117 17.79 15.21C17.883 15.3037 17.9936 15.3781 18.1154 15.4289C18.2373 15.4797 18.368 15.5058 18.5 15.5058C18.632 15.5058 18.7627 15.4797 18.8846 15.4289C19.0065 15.3781 19.1171 15.3037 19.21 15.21L21.71 12.71C21.8011 12.6149 21.8724 12.5028 21.92 12.38C22.02 12.1365 22.02 11.8635 21.92 11.62ZM10 11H5.41002L6.21002 10.21C6.39832 10.0217 6.50411 9.7663 6.50411 9.5C6.50411 9.2337 6.39832 8.97831 6.21002 8.79C6.02172 8.6017 5.76632 8.49591 5.50002 8.49591C5.23372 8.49591 4.97832 8.6017 4.79002 8.79L2.29002 11.29C2.19898 11.3851 2.12761 11.4973 2.08002 11.62C1.98 11.8635 1.98 12.1365 2.08002 12.38C2.12761 12.5028 2.19898 12.6149 2.29002 12.71L4.79002 15.21C4.88298 15.3037 4.99358 15.3781 5.11544 15.4289C5.2373 15.4797 5.36801 15.5058 5.50002 15.5058C5.63203 15.5058 5.76274 15.4797 5.8846 15.4289C6.00645 15.3781 6.11706 15.3037 6.21002 15.21C6.30375 15.117 6.37814 15.0064 6.42891 14.8846C6.47968 14.7627 6.50582 14.632 6.50582 14.5C6.50582 14.368 6.47968 14.2373 6.42891 14.1154C6.37814 13.9936 6.30375 13.883 6.21002 13.79L5.41002 13H10C10.2652 13 10.5196 12.8946 10.7071 12.7071C10.8947 12.5196 11 12.2652 11 12C11 11.7348 10.8947 11.4804 10.7071 11.2929C10.5196 11.1054 10.2652 11 10 11Z" fill="#414853"/>
</svg>
