<svg width="24" height="24" viewBox="0 0 24 24" fill="none" xmlns="http://www.w3.org/2000/svg">
<path d="M10.21 6.21L11 5.41V10C11 10.2652 11.1054 10.5196 11.2929 10.7071C11.4804 10.8946 11.7348 11 12 11C12.2652 11 12.5196 10.8946 12.7071 10.7071C12.8946 10.5196 13 10.2652 13 10V5.41L13.79 6.21C13.883 6.30373 13.9936 6.37812 14.1154 6.42889C14.2373 6.47966 14.368 6.5058 14.5 6.5058C14.632 6.5058 14.7627 6.47966 14.8846 6.42889C15.0064 6.37812 15.117 6.30373 15.21 6.21C15.3037 6.11704 15.3781 6.00644 15.4289 5.88458C15.4797 5.76272 15.5058 5.63201 15.5058 5.5C15.5058 5.36799 15.4797 5.23728 15.4289 5.11542C15.3781 4.99356 15.3037 4.88296 15.21 4.79L12.71 2.29C12.6149 2.19896 12.5028 2.12759 12.38 2.08C12.1365 1.97998 11.8635 1.97998 11.62 2.08C11.4973 2.12759 11.3851 2.19896 11.29 2.29L8.79 4.79C8.6017 4.9783 8.49591 5.2337 8.49591 5.5C8.49591 5.7663 8.6017 6.0217 8.79 6.21C8.97831 6.3983 9.2337 6.50409 9.5 6.50409C9.7663 6.50409 10.0217 6.3983 10.21 6.21ZM13.79 17.79L13 18.59V14C13 13.7348 12.8946 13.4804 12.7071 13.2929C12.5196 13.1054 12.2652 13 12 13C11.7348 13 11.4804 13.1054 11.2929 13.2929C11.1054 13.4804 11 13.7348 11 14V18.59L10.21 17.79C10.1168 17.6968 10.0061 17.6228 9.88425 17.5723C9.76243 17.5219 9.63186 17.4959 9.5 17.4959C9.36814 17.4959 9.23757 17.5219 9.11575 17.5723C8.99393 17.6228 8.88324 17.6968 8.79 17.79C8.69676 17.8832 8.6228 17.9939 8.57234 18.1158C8.52188 18.2376 8.49591 18.3681 8.49591 18.5C8.49591 18.6319 8.52188 18.7624 8.57234 18.8842C8.6228 19.0061 8.69676 19.1168 8.79 19.21L11.29 21.71C11.3851 21.801 11.4973 21.8724 11.62 21.92C11.7397 21.9729 11.8691 22.0002 12 22.0002C12.1309 22.0002 12.2603 21.9729 12.38 21.92C12.5028 21.8724 12.6149 21.801 12.71 21.71L15.21 19.21C15.3983 19.0217 15.5041 18.7663 15.5041 18.5C15.5041 18.2337 15.3983 17.9783 15.21 17.79C15.0217 17.6017 14.7663 17.4959 14.5 17.4959C14.2337 17.4959 13.9783 17.6017 13.79 17.79Z" fill="#414853"/>
</svg>
