<svg width="24" height="24" viewBox="0 0 24 24" fill="none" xmlns="http://www.w3.org/2000/svg">
<path d="M17.87 8.6C17.7955 8.42872 17.6745 8.28173 17.5207 8.17568C17.367 8.06964 17.1866 8.00878 17 8H12.42L13.69 3.26C13.7304 3.11167 13.7362 2.95602 13.7067 2.80513C13.6772 2.65425 13.6133 2.51219 13.52 2.39C13.4258 2.26764 13.3046 2.16876 13.1658 2.10109C13.027 2.03343 12.8744 1.99883 12.72 2H5.72C5.49424 1.99227 5.27251 2.0612 5.09092 2.19557C4.90934 2.32994 4.7786 2.52184 4.72 2.74L2.04 12.74C1.99923 12.8911 1.99447 13.0496 2.0261 13.2028C2.05774 13.356 2.12489 13.4997 2.22216 13.6223C2.31942 13.7448 2.44409 13.8428 2.58613 13.9084C2.72818 13.974 2.88363 14.0054 3.04 14H6.89L5.08 20.74C5.0207 20.9573 5.03652 21.1883 5.1249 21.3956C5.21329 21.6028 5.36905 21.7741 5.56696 21.8817C5.76487 21.9894 5.99332 22.027 6.2153 21.9886C6.43729 21.9502 6.63979 21.8379 6.79 21.67L17.69 9.67C17.8198 9.52788 17.9058 9.35133 17.9377 9.16153C17.9697 8.97174 17.9461 8.77676 17.87 8.6ZM8.08 17.28L9.16 13.28C9.20512 13.1295 9.21414 12.9705 9.18635 12.8159C9.15855 12.6613 9.09471 12.5154 9 12.39C8.9048 12.2663 8.78195 12.1666 8.6413 12.0988C8.50064 12.0311 8.34609 11.9973 8.19 12H4.35L6.49 4H11.42L10.15 8.74C10.1092 8.89105 10.1045 9.04957 10.1361 9.2028C10.1677 9.35603 10.2349 9.4997 10.3322 9.62225C10.4294 9.74481 10.5541 9.84283 10.6961 9.90844C10.8382 9.97404 10.9936 10.0054 11.15 10H14.72L8.08 17.28ZM19 13H18C17.2044 13 16.4413 13.3161 15.8787 13.8787C15.3161 14.4413 15 15.2043 15 16V21C15 21.2652 15.1054 21.5196 15.2929 21.7071C15.4804 21.8946 15.7348 22 16 22C16.2652 22 16.5196 21.8946 16.7071 21.7071C16.8946 21.5196 17 21.2652 17 21V19H20V21C20 21.2652 20.1054 21.5196 20.2929 21.7071C20.4804 21.8946 20.7348 22 21 22C21.2652 22 21.5196 21.8946 21.7071 21.7071C21.8946 21.5196 22 21.2652 22 21V16C22 15.2043 21.6839 14.4413 21.1213 13.8787C20.5587 13.3161 19.7956 13 19 13ZM20 17H17V16C17 15.7348 17.1054 15.4804 17.2929 15.2929C17.4804 15.1054 17.7348 15 18 15H19C19.2652 15 19.5196 15.1054 19.7071 15.2929C19.8946 15.4804 20 15.7348 20 16V17Z" fill="#414853"/>
</svg>
