<svg width="24" height="24" viewBox="0 0 24 24" fill="none" xmlns="http://www.w3.org/2000/svg">
<path d="M22 12H5V6.41016C4.99649 6.05003 5.09153 5.6958 5.27484 5.3858C5.45815 5.0758 5.72275 4.82183 6.04 4.65137C6.39081 4.46126 6.79058 4.38072 7.18764 4.42017C6.98554 5.03223 6.95683 5.68829 7.10469 6.31566C7.25255 6.94303 7.5712 7.51722 8.02535 7.97461L9.08594 9.03516C9.17877 9.12804 9.28899 9.20172 9.41031 9.25198C9.53162 9.30225 9.66165 9.32812 9.79297 9.32812C9.92429 9.32812 10.0543 9.30225 10.1756 9.25198C10.2969 9.20172 10.4072 9.12804 10.5 9.03516L14.0352 5.5C14.128 5.40717 14.2017 5.29695 14.252 5.17563C14.3023 5.05432 14.3281 4.92429 14.3281 4.79297C14.3281 4.66165 14.3023 4.53162 14.252 4.41031C14.2017 4.289 14.128 4.17877 14.0352 4.08594L12.9746 3.02539C12.3843 2.43777 11.6035 2.08034 10.773 2.01753C9.94248 1.95473 9.11682 2.19068 8.44489 2.68286C7.83906 2.44625 7.18459 2.36123 6.53841 2.4352C5.89223 2.50917 5.27391 2.73988 4.73722 3.10728C4.20052 3.47467 3.76171 3.96762 3.45895 4.54325C3.15618 5.11888 2.99863 5.75976 3 6.41016V12H2C1.73478 12 1.48043 12.1054 1.29289 12.2929C1.10536 12.4804 1 12.7348 1 13C1 13.2652 1.10536 13.5196 1.29289 13.7071C1.48043 13.8946 1.73478 14 2 14H3V17C3.0019 17.6184 3.19517 18.221 3.55327 18.7252C3.91137 19.2293 4.41674 19.6102 5 19.8157V21C5 21.2652 5.10536 21.5196 5.29289 21.7071C5.48043 21.8946 5.73478 22 6 22C6.26522 22 6.51957 21.8946 6.70711 21.7071C6.89464 21.5196 7 21.2652 7 21V20H17V21C17 21.2652 17.1054 21.5196 17.2929 21.7071C17.4804 21.8946 17.7348 22 18 22C18.2652 22 18.5196 21.8946 18.7071 21.7071C18.8946 21.5196 19 21.2652 19 21V19.8157C19.5833 19.6103 20.0886 19.2293 20.4467 18.7252C20.8048 18.221 20.9981 17.6184 21 17V14H22C22.2652 14 22.5196 13.8946 22.7071 13.7071C22.8946 13.5196 23 13.2652 23 13C23 12.7348 22.8946 12.4804 22.7071 12.2929C22.5196 12.1054 22.2652 12 22 12ZM9.43945 4.43945C9.72098 4.15866 10.1024 4.00098 10.5 4.00098C10.8976 4.00098 11.279 4.15866 11.5605 4.43945L11.9141 4.79297L9.793 6.91406L9.43948 6.56055C9.15854 6.2791 9.00075 5.89768 9.00074 5.50001C9.00074 5.10234 9.15852 4.72091 9.43945 4.43945ZM19 17C18.9998 17.2652 18.8944 17.5194 18.7069 17.7069C18.5194 17.8944 18.2652 17.9998 18 18H6C5.73484 17.9998 5.48059 17.8944 5.29309 17.7069C5.10559 17.5194 5.00018 17.2652 5 17V14H19V17Z" fill="#414853"/>
</svg>
