<svg width="24" height="24" viewBox="0 0 24 24" fill="none" xmlns="http://www.w3.org/2000/svg">
<path d="M11.0699 6.12C11.3731 6.03823 11.6859 5.99786 11.9999 6C13.0608 6 14.0782 6.42143 14.8284 7.17158C15.5785 7.92172 15.9999 8.93914 15.9999 10V11.34C15.9999 11.6052 16.1053 11.8596 16.2928 12.0471C16.4804 12.2346 16.7347 12.34 16.9999 12.34C17.2652 12.34 17.5195 12.2346 17.707 12.0471C17.8946 11.8596 17.9999 11.6052 17.9999 11.34V10C17.9985 8.58313 17.4957 7.21247 16.5806 6.13078C15.6654 5.04908 14.397 4.32615 12.9999 4.09V3C12.9999 2.73479 12.8946 2.48043 12.707 2.2929C12.5195 2.10536 12.2652 2 11.9999 2C11.7347 2 11.4804 2.10536 11.2928 2.2929C11.1053 2.48043 10.9999 2.73479 10.9999 3V4.1L10.5499 4.18C10.2927 4.24896 10.0734 4.41729 9.9402 4.64796C9.80705 4.87863 9.77099 5.15274 9.83994 5.41C9.9089 5.66726 10.0772 5.88659 10.3079 6.01974C10.5386 6.15289 10.8127 6.18896 11.0699 6.12ZM21.7099 20.29L3.70994 2.29C3.52164 2.1017 3.26624 1.99591 2.99994 1.99591C2.73364 1.99591 2.47824 2.1017 2.28994 2.29C2.10164 2.47831 1.99585 2.7337 1.99585 3C1.99585 3.2663 2.10164 3.5217 2.28994 3.71L6.40994 7.82C6.13897 8.51487 5.99993 9.25417 5.99994 10V13.18C5.41639 13.3863 4.91094 13.7681 4.55288 14.2729C4.19482 14.7778 4.00168 15.3811 3.99994 16V18C3.99994 18.2652 4.1053 18.5196 4.29283 18.7071C4.48037 18.8946 4.73472 19 4.99994 19H8.13994C8.37022 19.8474 8.87294 20.5954 9.57054 21.1287C10.2681 21.6621 11.1218 21.951 11.9999 21.951C12.878 21.951 13.7317 21.6621 14.4293 21.1287C15.1269 20.5954 15.6297 19.8474 15.8599 19H17.5899L20.2899 21.71C20.3829 21.8037 20.4935 21.8781 20.6154 21.9289C20.7372 21.9797 20.8679 22.0058 20.9999 22.0058C21.132 22.0058 21.2627 21.9797 21.3845 21.9289C21.5064 21.8781 21.617 21.8037 21.7099 21.71C21.8037 21.617 21.8781 21.5064 21.9288 21.3846C21.9796 21.2627 22.0057 21.132 22.0057 21C22.0057 20.868 21.9796 20.7373 21.9288 20.6154C21.8781 20.4936 21.8037 20.383 21.7099 20.29ZM7.99994 10C7.98468 9.81699 7.98468 9.63302 7.99994 9.45L11.5899 13H7.99994V10ZM11.9999 20C11.6509 19.9979 11.3085 19.9045 11.0068 19.7291C10.705 19.5536 10.4545 19.3023 10.2799 19H13.7199C13.5454 19.3023 13.2949 19.5536 12.9931 19.7291C12.6914 19.9045 12.349 19.9979 11.9999 20ZM5.99994 17V16C5.99994 15.7348 6.1053 15.4804 6.29283 15.2929C6.48037 15.1054 6.73472 15 6.99994 15H13.5899L15.5899 17H5.99994Z" fill="#414853"/>
</svg>
