<svg width="24" height="24" viewBox="0 0 24 24" fill="none" xmlns="http://www.w3.org/2000/svg">
<path d="M7.99171 8.00171C7.79392 8.00171 7.60058 8.06036 7.43613 8.17024C7.27169 8.28012 7.14351 8.4363 7.06783 8.61903C6.99214 8.80175 6.97233 9.00282 7.01092 9.1968C7.04951 9.39078 7.14475 9.56896 7.2846 9.70882C7.42445 9.84867 7.60263 9.94391 7.79662 9.9825C7.9906 10.0211 8.19166 10.0013 8.37439 9.92559C8.55711 9.8499 8.71329 9.72173 8.82317 9.55728C8.93306 9.39283 8.99171 9.19949 8.99171 9.00171C8.99171 8.73649 8.88635 8.48214 8.69881 8.2946C8.51128 8.10707 8.25692 8.00171 7.99171 8.00171ZM11.9912 2.002C10.0134 2.002 8.08 2.58849 6.43551 3.6873C4.79102 4.78612 3.5093 6.34791 2.75242 8.17517C1.99554 10.0024 1.79751 12.0131 2.18336 13.9529C2.56921 15.8927 3.52162 17.6745 4.92015 19.0731C6.31867 20.4716 8.1005 21.424 10.0403 21.8099C11.9801 22.1957 13.9908 21.9977 15.8181 21.2408C17.6453 20.4839 19.2071 19.2022 20.3059 17.5577C21.4047 15.9132 21.9912 13.9798 21.9912 12.002C21.9881 9.35079 20.9335 6.80906 19.0588 4.93437C17.1842 3.05968 14.6424 2.00512 11.9912 2.002ZM11.9912 20.002C10.409 20.002 8.86225 19.5328 7.54665 18.6538C6.23106 17.7747 5.20568 16.5253 4.60018 15.0635C3.99468 13.6017 3.83625 11.9931 4.14493 10.4413C4.45362 8.88943 5.21554 7.46397 6.33436 6.34515C7.45318 5.22633 8.87865 4.4644 10.4305 4.15572C11.9823 3.84704 13.5909 4.00546 15.0527 4.61096C16.5145 5.21646 17.7639 6.24184 18.643 7.55744C19.522 8.87303 19.9912 10.4197 19.9912 12.002C19.9888 14.123 19.1452 16.1564 17.6454 17.6562C16.1456 19.1559 14.1122 19.9996 11.9912 20.002ZM10.9917 10.0017C10.7939 10.0017 10.6006 10.0604 10.4361 10.1702C10.2717 10.2801 10.1435 10.4363 10.0678 10.619C9.99214 10.8018 9.97234 11.0028 10.0109 11.1968C10.0495 11.3908 10.1447 11.569 10.2846 11.7088C10.4245 11.8487 10.6026 11.9439 10.7966 11.9825C10.9906 12.0211 11.1917 12.0013 11.3744 11.9256C11.5571 11.8499 11.7133 11.7217 11.8232 11.5573C11.9331 11.3928 11.9917 11.1995 11.9917 11.0017C11.9917 10.7365 11.8863 10.4821 11.6988 10.2946C11.5113 10.1071 11.2569 10.0017 10.9917 10.0017ZM10.9917 6.00171C10.7939 6.00171 10.6006 6.06036 10.4361 6.17024C10.2717 6.28012 10.1435 6.4363 10.0678 6.61903C9.99214 6.80175 9.97234 7.00282 10.0109 7.1968C10.0495 7.39078 10.1447 7.56896 10.2846 7.70882C10.4245 7.84867 10.6026 7.94391 10.7966 7.9825C10.9906 8.02108 11.1917 8.00128 11.3744 7.92559C11.5571 7.8499 11.7133 7.72173 11.8232 7.55728C11.9331 7.39283 11.9917 7.19949 11.9917 7.00171C11.9917 6.73649 11.8863 6.48214 11.6988 6.2946C11.5113 6.10707 11.2569 6.00171 10.9917 6.00171Z" fill="#414853"/>
</svg>
