<svg width="24" height="24" viewBox="0 0 24 24" fill="none" xmlns="http://www.w3.org/2000/svg">
<path d="M21.7099 11.29L19.3599 9V5.64C19.3599 5.37478 19.2546 5.12043 19.067 4.93289C18.8795 4.74536 18.6252 4.64 18.3599 4.64H15.0499L12.7099 2.29C12.617 2.19627 12.5064 2.12188 12.3845 2.07111C12.2627 2.02034 12.132 1.9942 11.9999 1.9942C11.8679 1.9942 11.7372 2.02034 11.6154 2.07111C11.4935 2.12188 11.3829 2.19627 11.2899 2.29L8.99994 4.64H5.63994C5.37472 4.64 5.12037 4.74536 4.93283 4.93289C4.7453 5.12043 4.63994 5.37478 4.63994 5.64V9L2.28994 11.29C2.19621 11.383 2.12182 11.4936 2.07105 11.6154C2.02028 11.7373 1.99414 11.868 1.99414 12C1.99414 12.132 2.02028 12.2627 2.07105 12.3846C2.12182 12.5064 2.19621 12.617 2.28994 12.71L4.63994 15.05V18.36C4.63994 18.6252 4.7453 18.8796 4.93283 19.0671C5.12037 19.2546 5.37472 19.36 5.63994 19.36H8.99994L11.3399 21.71C11.4329 21.8037 11.5435 21.8781 11.6654 21.9289C11.7872 21.9797 11.9179 22.0058 12.0499 22.0058C12.182 22.0058 12.3127 21.9797 12.4345 21.9289C12.5564 21.8781 12.667 21.8037 12.7599 21.71L15.0999 19.36H18.4099C18.6752 19.36 18.9295 19.2546 19.117 19.0671C19.3046 18.8796 19.4099 18.6252 19.4099 18.36V15.05L21.7599 12.71C21.8505 12.6138 21.921 12.5006 21.9676 12.3769C22.0141 12.2533 22.0356 12.1216 22.031 11.9896C22.0264 11.8575 21.9956 11.7277 21.9405 11.6077C21.8854 11.4876 21.807 11.3796 21.7099 11.29ZM17.6599 13.93C17.5655 14.0226 17.4903 14.1331 17.4388 14.2549C17.3873 14.3768 17.3605 14.5077 17.3599 14.64V17.36H14.6399C14.5076 17.3605 14.3767 17.3873 14.2549 17.4388C14.133 17.4903 14.0226 17.5655 13.9299 17.66L11.9999 19.59L10.0699 17.66C9.97732 17.5655 9.86688 17.4903 9.745 17.4388C9.62313 17.3873 9.49225 17.3605 9.35994 17.36H6.63994V14.64C6.63939 14.5077 6.61259 14.3768 6.56109 14.2549C6.5096 14.1331 6.43443 14.0226 6.33994 13.93L4.40994 12L6.33994 10.07C6.43443 9.97739 6.5096 9.86694 6.56109 9.74507C6.61259 9.62319 6.63939 9.49231 6.63994 9.36V6.64H9.35994C9.49225 6.63945 9.62313 6.61265 9.745 6.56115C9.86688 6.50966 9.97732 6.43449 10.0699 6.34L11.9999 4.41L13.9299 6.34C14.0226 6.43449 14.133 6.50966 14.2549 6.56115C14.3767 6.61265 14.5076 6.63945 14.6399 6.64H17.3599V9.36C17.3605 9.49231 17.3873 9.62319 17.4388 9.74507C17.4903 9.86694 17.5655 9.97739 17.6599 10.07L19.5899 12L17.6599 13.93Z" fill="#414853"/>
</svg>
