<svg width="24" height="24" viewBox="0 0 24 24" fill="none" xmlns="http://www.w3.org/2000/svg">
<path d="M21 14H19C18.7348 14 18.4804 14.1054 18.2929 14.2929C18.1054 14.4804 18 14.7348 18 15C18 15.2652 18.1054 15.5196 18.2929 15.7071C18.4804 15.8946 18.7348 16 19 16H20V20H4V16H11C11.2652 16 11.5196 15.8946 11.7071 15.7071C11.8946 15.5196 12 15.2652 12 15C12 14.7348 11.8946 14.4804 11.7071 14.2929C11.5196 14.1054 11.2652 14 11 14H10V9C10 8.73478 9.89464 8.48043 9.70711 8.29289C9.51957 8.10536 9.26522 8 9 8H3C2.73478 8 2.48043 8.10536 2.29289 8.29289C2.10536 8.48043 2 8.73478 2 9V15V21C2 21.2652 2.10536 21.5196 2.29289 21.7071C2.48043 21.8946 2.73478 22 3 22H21C21.2652 22 21.5196 21.8946 21.7071 21.7071C21.8946 21.5196 22 21.2652 22 21V15C22 14.7348 21.8946 14.4804 21.7071 14.2929C21.5196 14.1054 21.2652 14 21 14ZM4 10H8V14H4V10ZM12.71 6.7L14 5.41V17C14 17.2652 14.1054 17.5196 14.2929 17.7071C14.4804 17.8946 14.7348 18 15 18C15.2652 18 15.5196 17.8946 15.7071 17.7071C15.8946 17.5196 16 17.2652 16 17V5.41L17.29 6.7C17.3826 6.79449 17.4931 6.86966 17.6149 6.92115C17.7368 6.97265 17.8677 6.99945 18 7C18.1316 7.00076 18.2621 6.97554 18.3839 6.92577C18.5057 6.87601 18.6166 6.80268 18.71 6.71C18.8962 6.52264 19.0008 6.26919 19.0008 6.005C19.0008 5.74081 18.8962 5.48736 18.71 5.3L15.71 2.3C15.617 2.20627 15.5064 2.13188 15.3846 2.08111C15.2627 2.03034 15.132 2.0042 15 2.0042C14.868 2.0042 14.7373 2.03034 14.6154 2.08111C14.4936 2.13188 14.383 2.20627 14.29 2.3L11.29 5.3C11.1037 5.48736 10.9992 5.74081 10.9992 6.005C10.9992 6.26919 11.1037 6.52264 11.29 6.71C11.3836 6.80308 11.4947 6.87669 11.617 6.92661C11.7392 6.97652 11.8701 7.00174 12.0021 7.00081C12.1341 6.99988 12.2646 6.97282 12.3861 6.92119C12.5076 6.86956 12.6177 6.79439 12.71 6.7Z" fill="#414853"/>
</svg>
