<svg width="24" height="24" viewBox="0 0 24 24" fill="none" xmlns="http://www.w3.org/2000/svg">
<path d="M20.9999 11C20.7347 11 20.4804 11.1054 20.2928 11.2929C20.1053 11.4804 19.9999 11.7348 19.9999 12V14.59L13.7099 8.29C13.617 8.19627 13.5064 8.12188 13.3845 8.07111C13.2627 8.02034 13.132 7.9942 12.9999 7.9942C12.8679 7.9942 12.7372 8.02034 12.6154 8.07111C12.4935 8.12188 12.3829 8.19627 12.2899 8.29L8.99994 11.59L3.70994 6.29C3.52164 6.10169 3.26624 5.99591 2.99994 5.99591C2.73364 5.99591 2.47824 6.10169 2.28994 6.29C2.10164 6.4783 1.99585 6.7337 1.99585 7C1.99585 7.2663 2.10164 7.52169 2.28994 7.71L8.28994 13.71C8.3829 13.8037 8.49351 13.8781 8.61536 13.9289C8.73722 13.9797 8.86793 14.0058 8.99994 14.0058C9.13195 14.0058 9.26266 13.9797 9.38452 13.9289C9.50638 13.8781 9.61698 13.8037 9.70994 13.71L12.9999 10.41L18.5899 16H15.9999C15.7347 16 15.4804 16.1054 15.2928 16.2929C15.1053 16.4804 14.9999 16.7348 14.9999 17C14.9999 17.2652 15.1053 17.5196 15.2928 17.7071C15.4804 17.8946 15.7347 18 15.9999 18H20.9999C21.1306 17.9984 21.2597 17.9712 21.3799 17.92C21.6243 17.8185 21.8185 17.6243 21.9199 17.38C21.9712 17.2598 21.9984 17.1307 21.9999 17V12C21.9999 11.7348 21.8946 11.4804 21.707 11.2929C21.5195 11.1054 21.2652 11 20.9999 11Z" fill="#414853"/>
</svg>
