<svg width="24" height="24" viewBox="0 0 24 24" fill="none" xmlns="http://www.w3.org/2000/svg">
<path d="M12 2C10.4679 1.99723 8.95565 2.34654 7.57996 3.02097C6.20428 3.6954 5.00196 4.67692 4.0658 5.88976C3.12964 7.1026 2.48469 8.51434 2.18072 10.016C1.87675 11.5177 1.92189 13.0691 2.31266 14.5505C2.70344 16.032 3.42938 17.4038 4.43448 18.5602C5.43957 19.7165 6.69693 20.6265 8.10951 21.2198C9.52208 21.8131 11.0521 22.0738 12.5815 21.982C14.1108 21.8901 15.5986 21.4481 16.93 20.69H17H17.05C18.9753 19.594 20.4821 17.8898 21.334 15.8447C22.1858 13.7997 22.3345 11.5297 21.7566 9.39103C21.1788 7.25237 19.9071 5.36613 18.1412 4.02841C16.3754 2.69069 14.2153 1.97722 12 2ZM13 4.07C14.76 4.29319 16.3959 5.09509 17.6504 6.34958C18.9049 7.60407 19.7068 9.23998 19.93 11H13V4.07ZM12 20C9.97453 19.9862 8.02968 19.2045 6.55796 17.8128C5.08624 16.4211 4.19723 14.523 4.07033 12.5014C3.94342 10.4798 4.58808 8.48539 5.87421 6.92056C7.16033 5.35573 8.99216 4.33701 11 4.07V12C11.004 12.1197 11.0276 12.238 11.07 12.35V12.43V12.5L15.07 19.37C14.0998 19.7853 13.0554 19.9996 12 20ZM16.83 18.36L13.73 13H19.93C19.7954 14.0546 19.4519 15.0718 18.9196 15.9921C18.3874 16.9124 17.677 17.7174 16.83 18.36Z" fill="#414853"/>
</svg>
