<svg width="24" height="24" viewBox="0 0 24 24" fill="none" xmlns="http://www.w3.org/2000/svg">
<path d="M11 12V13H9.99997C9.73476 13 9.4804 13.1054 9.29287 13.2929C9.10533 13.4804 8.99997 13.7348 8.99997 14C8.99997 14.2652 9.10533 14.5196 9.29287 14.7071C9.4804 14.8946 9.73476 15 9.99997 15H11V16C11 16.2652 11.1053 16.5196 11.2929 16.7071C11.4804 16.8946 11.7348 17 12 17C12.2652 17 12.5195 16.8946 12.7071 16.7071C12.8946 16.5196 13 16.2652 13 16V15H14C14.2652 15 14.5195 14.8946 14.7071 14.7071C14.8946 14.5196 15 14.2652 15 14C15 13.7348 14.8946 13.4804 14.7071 13.2929C14.5195 13.1054 14.2652 13 14 13H13V12C13 11.7348 12.8946 11.4804 12.7071 11.2929C12.5195 11.1054 12.2652 11 12 11C11.7348 11 11.4804 11.1054 11.2929 11.2929C11.1053 11.4804 11 11.7348 11 12ZM21.664 10.2524L12.664 2.25244C12.4811 2.08968 12.2448 1.99976 12 1.99976C11.7551 1.99976 11.5188 2.08968 11.3359 2.25244L2.33591 10.2524C2.13765 10.4286 2.01747 10.6762 2.00181 10.941C1.98615 11.2057 2.07629 11.4658 2.25241 11.6641C2.42853 11.8623 2.6762 11.9825 2.94093 11.9982C3.20566 12.0138 3.46577 11.9237 3.66403 11.7476L3.99997 11.449V21C3.99994 21.1313 4.02578 21.2614 4.07602 21.3827C4.12627 21.5041 4.19993 21.6143 4.29279 21.7072C4.38566 21.8 4.49591 21.8737 4.61725 21.9239C4.73859 21.9742 4.86864 22 4.99997 22H19C19.1313 22 19.2614 21.9742 19.3827 21.9239C19.504 21.8737 19.6143 21.8 19.7072 21.7072C19.8 21.6143 19.8737 21.5041 19.9239 21.3827C19.9742 21.2614 20 21.1313 20 21V11.449L20.3359 11.7476C20.4341 11.8348 20.5485 11.9018 20.6725 11.9448C20.7966 11.9878 20.9279 12.0059 21.059 11.9982C21.1901 11.9904 21.3184 11.9569 21.4365 11.8996C21.5546 11.8423 21.6603 11.7623 21.7475 11.6641C21.8347 11.5659 21.9018 11.4515 21.9448 11.3275C21.9878 11.2034 22.0059 11.0721 21.9981 10.941C21.9904 10.8099 21.9569 10.6816 21.8996 10.5635C21.8422 10.4454 21.7622 10.3397 21.664 10.2525V10.2524ZM18 20H5.99997V9.6712L12 4.33789L18 9.6712V20Z" fill="#414853"/>
</svg>
