<svg width="24" height="24" viewBox="0 0 24 24" fill="none" xmlns="http://www.w3.org/2000/svg">
<path d="M12 6C11.8687 5.99997 11.7386 6.02581 11.6173 6.07605C11.4959 6.12629 11.3857 6.19995 11.2928 6.29282C11.2 6.38568 11.1263 6.49593 11.0761 6.61728C11.0258 6.73862 11 6.86867 11 7V10.2676L9.90234 9.63379C9.67262 9.50134 9.3997 9.46555 9.14359 9.53427C8.88748 9.60299 8.66914 9.7706 8.53657 10.0003C8.40401 10.2299 8.36807 10.5028 8.43666 10.759C8.50525 11.0151 8.67275 11.2335 8.90234 11.3662L11.5 12.8662C11.652 12.954 11.8245 13.0002 12 13.0002C12.1756 13.0002 12.3481 12.954 12.5001 12.8662C12.6521 12.7784 12.7783 12.6521 12.8661 12.5001C12.9539 12.348 13 12.1756 13 12V7C13 6.86867 12.9742 6.73862 12.9239 6.61728C12.8737 6.49593 12.8 6.38568 12.7072 6.29282C12.6143 6.19995 12.5041 6.12629 12.3827 6.07605C12.2614 6.02581 12.1313 5.99997 12 6ZM12 2C10.0222 2 8.08879 2.58649 6.4443 3.6853C4.79981 4.78412 3.51808 6.3459 2.7612 8.17317C2.00433 10.0004 1.8063 12.0111 2.19215 13.9509C2.578 15.8907 3.53041 17.6725 4.92893 19.0711C6.32746 20.4696 8.10929 21.422 10.0491 21.8079C11.9889 22.1937 13.9996 21.9957 15.8268 21.2388C17.6541 20.4819 19.2159 19.2002 20.3147 17.5557C21.4135 15.9112 22 13.9778 22 12C21.997 9.34877 20.9424 6.80699 19.0677 4.93228C17.193 3.05758 14.6512 2.00303 12 2ZM12 20C10.4177 20 8.87103 19.5308 7.55544 18.6518C6.23984 17.7727 5.21447 16.5233 4.60896 15.0615C4.00346 13.5997 3.84504 11.9911 4.15372 10.4393C4.4624 8.88743 5.22433 7.46197 6.34315 6.34315C7.46197 5.22433 8.88743 4.4624 10.4393 4.15372C11.9911 3.84504 13.5997 4.00346 15.0615 4.60896C16.5233 5.21447 17.7727 6.23984 18.6518 7.55544C19.5308 8.87103 20 10.4177 20 12C19.9976 14.121 19.1539 16.1544 17.6542 17.6542C16.1544 19.1539 14.121 19.9976 12 20Z" fill="#414853"/>
</svg>
