<svg width="24" height="24" viewBox="0 0 24 24" fill="none" xmlns="http://www.w3.org/2000/svg">
<path d="M18.42 9.21C17.8083 7.80581 16.753 6.641 15.4157 5.89416C14.0785 5.14732 12.5333 4.85967 11.0169 5.07533C9.5005 5.29098 8.0967 5.99803 7.02072 7.08806C5.94474 8.1781 5.25596 9.59095 5.06 11.11C4.10659 11.3383 3.27022 11.9088 2.70974 12.7132C2.14925 13.5175 1.90368 14.4997 2.01966 15.4732C2.13564 16.4467 2.6051 17.3437 3.33887 17.9939C4.07264 18.644 5.01963 19.0021 6 19H17C18.1994 18.9967 19.3576 18.5624 20.2634 17.7763C21.1692 16.9902 21.7623 15.9047 21.9344 14.7177C22.1066 13.5308 21.8464 12.3215 21.2012 11.3105C20.5561 10.2994 19.569 9.55393 18.42 9.21ZM17 17H6C5.46957 17 4.96086 16.7893 4.58579 16.4142C4.21071 16.0391 4 15.5304 4 15C4 14.4696 4.21071 13.9609 4.58579 13.5858C4.96086 13.2107 5.46957 13 6 13C6.26522 13 6.51957 12.8946 6.70711 12.7071C6.89464 12.5196 7 12.2652 7 12C7.00256 10.8173 7.42429 9.67376 8.19027 8.77259C8.95625 7.87142 10.0169 7.27095 11.1838 7.07788C12.3506 6.8848 13.5481 7.11161 14.5636 7.71801C15.579 8.32441 16.3466 9.27114 16.73 10.39C16.7887 10.56 16.8921 10.711 17.0293 10.8271C17.1666 10.9433 17.3327 11.0203 17.51 11.05C18.243 11.1853 18.8994 11.5885 19.3513 12.1813C19.8032 12.774 20.0183 13.5138 19.9547 14.2564C19.891 14.999 19.5532 15.6914 19.007 16.1986C18.4608 16.7058 17.7453 16.9915 17 17Z" fill="#414853"/>
</svg>
