<svg width="24" height="24" viewBox="0 0 24 24" fill="none" xmlns="http://www.w3.org/2000/svg">
<path d="M14.29 14.19L11 17.48L9.71 16.19C9.61704 16.0963 9.50644 16.0219 9.38458 15.9711C9.26272 15.9203 9.13201 15.8942 9 15.8942C8.86799 15.8942 8.73729 15.9203 8.61543 15.9711C8.49357 16.0219 8.38297 16.0963 8.29 16.19C8.10375 16.3774 7.99921 16.6308 7.99921 16.895C7.99921 17.1592 8.10375 17.4126 8.29 17.6L10.29 19.6C10.383 19.6937 10.4936 19.7681 10.6154 19.8189C10.7373 19.8697 10.868 19.8958 11 19.8958C11.132 19.8958 11.2627 19.8697 11.3846 19.8189C11.5064 19.7681 11.617 19.6937 11.71 19.6L15.71 15.6C15.8963 15.4126 16.0008 15.1592 16.0008 14.895C16.0008 14.6308 15.8963 14.3774 15.71 14.19C15.617 14.0963 15.5064 14.0219 15.3846 13.9711C15.2627 13.9203 15.132 13.8942 15 13.8942C14.868 13.8942 14.7373 13.9203 14.6154 13.9711C14.4936 14.0219 14.383 14.0963 14.29 14.19ZM18.42 8.32C17.8083 6.91581 16.753 5.751 15.4157 5.00416C14.0785 4.25732 12.5333 3.96967 11.0169 4.18533C9.5005 4.40098 8.0967 5.10803 7.02072 6.19806C5.94474 7.2881 5.25596 8.70095 5.06 10.22C4.226 10.4269 3.4808 10.8969 2.93474 11.5604C2.38869 12.2239 2.07081 13.0456 2.02818 13.9038C1.98555 14.7621 2.22043 15.6112 2.69804 16.3256C3.17565 17.0399 3.87061 17.5814 4.68 17.87C4.80773 17.937 4.94846 17.9756 5.09251 17.9831C5.23656 17.9907 5.38054 17.9669 5.51456 17.9136C5.64857 17.8602 5.76946 17.7785 5.86892 17.674C5.96839 17.5696 6.04407 17.4448 6.09078 17.3083C6.13749 17.1718 6.15412 17.0269 6.13953 16.8834C6.12494 16.7399 6.07947 16.6012 6.00625 16.4769C5.93303 16.3526 5.83379 16.2457 5.71533 16.1633C5.59688 16.081 5.46202 16.0253 5.32 16C4.93024 15.8591 4.59387 15.6006 4.3574 15.2602C4.12093 14.9199 3.99604 14.5144 4 14.1C4 13.5696 4.21072 13.0609 4.58579 12.6858C4.96086 12.3107 5.46957 12.1 6 12.1C6.26522 12.1 6.51957 11.9946 6.70711 11.8071C6.89465 11.6196 7 11.3652 7 11.1C7.0049 9.91813 7.42829 8.7762 8.19507 7.87682C8.96185 6.97743 10.0224 6.37874 11.1887 6.18697C12.3549 5.9952 13.5513 6.22274 14.5657 6.82923C15.5801 7.43572 16.3469 8.38193 16.73 9.5C16.7887 9.66998 16.8921 9.82099 17.0293 9.93714C17.1666 10.0533 17.3327 10.1303 17.51 10.16C18.1761 10.2859 18.7799 10.6336 19.223 11.1465C19.6662 11.6595 19.9226 12.3074 19.9504 12.9846C19.9782 13.6619 19.7759 14.3287 19.3763 14.8762C18.9767 15.4238 18.4035 15.8199 17.75 16C17.4848 16.0332 17.2436 16.1703 17.0795 16.3813C16.9154 16.5923 16.8419 16.8598 16.875 17.125C16.9082 17.3902 17.0453 17.6314 17.2563 17.7955C17.4673 17.9596 17.7348 18.0332 18 18H18.25C19.3024 17.7219 20.2353 17.108 20.907 16.2515C21.5787 15.3949 21.9526 14.3426 21.9718 13.2543C21.9911 12.1659 21.6546 11.101 21.0136 10.2213C20.3725 9.3416 19.4619 8.6951 18.42 8.38V8.32Z" fill="#414853"/>
</svg>
