<svg width="24" height="24" viewBox="0 0 24 24" fill="none" xmlns="http://www.w3.org/2000/svg">
<path d="M5 18C4.80222 18 4.60888 18.0586 4.44443 18.1685C4.27998 18.2784 4.15181 18.4346 4.07612 18.6173C4.00043 18.8 3.98063 19.0011 4.01921 19.1951C4.0578 19.3891 4.15304 19.5673 4.29289 19.7071C4.43275 19.847 4.61093 19.9422 4.80491 19.9808C4.99889 20.0194 5.19996 19.9996 5.38268 19.9239C5.56541 19.8482 5.72159 19.72 5.83147 19.5556C5.94135 19.3911 6 19.1978 6 19C6 18.7348 5.89464 18.4804 5.70711 18.2929C5.51957 18.1054 5.26522 18 5 18ZM19 14H12C11.7348 14 11.4804 14.1054 11.2929 14.2929C11.1054 14.4804 11 14.7348 11 15C11 15.2652 11.1054 15.5196 11.2929 15.7071C11.4804 15.8946 11.7348 16 12 16H19C19.2652 16 19.5196 16.1054 19.7071 16.2929C19.8946 16.4804 20 16.7348 20 17C20 17.2652 19.8946 17.5196 19.7071 17.7071C19.5196 17.8946 19.2652 18 19 18C18.7348 18 18.4804 18.1054 18.2929 18.2929C18.1054 18.4804 18 18.7348 18 19C18 19.2652 18.1054 19.5196 18.2929 19.7071C18.4804 19.8946 18.7348 20 19 20C19.7956 20 20.5587 19.6839 21.1213 19.1213C21.6839 18.5587 22 17.7956 22 17C22 16.2043 21.6839 15.4413 21.1213 14.8787C20.5587 14.3161 19.7956 14 19 14ZM14 11C14 11.2652 14.1054 11.5196 14.2929 11.7071C14.4804 11.8946 14.7348 12 15 12H19C19.7956 12 20.5587 11.6839 21.1213 11.1213C21.6839 10.5587 22 9.79565 22 9C22 8.73478 21.8946 8.48043 21.7071 8.29289C21.5196 8.10535 21.2652 8 21 8C20.7348 8 20.4804 8.10535 20.2929 8.29289C20.1054 8.48043 20 8.73478 20 9C20 9.26521 19.8946 9.51957 19.7071 9.7071C19.5196 9.89464 19.2652 10 19 10H15C14.7348 10 14.4804 10.1054 14.2929 10.2929C14.1054 10.4804 14 10.7348 14 11ZM10 15C10 14.7348 9.89464 14.4804 9.70711 14.2929C9.51957 14.1054 9.26522 14 9 14H6C5.46957 14 4.96086 13.7893 4.58579 13.4142C4.21071 13.0391 4 12.5304 4 12C4 11.4696 4.21071 10.9609 4.58579 10.5858C4.96086 10.2107 5.46957 10 6 10C6.26522 10 6.51957 9.89464 6.70711 9.7071C6.89464 9.51957 7 9.26521 7 9C7.00255 7.81728 7.42429 6.67375 8.19027 5.77258C8.95625 4.87141 10.0169 4.27095 11.1837 4.07787C12.3506 3.88479 13.5481 4.1116 14.5636 4.71801C15.579 5.32441 16.3466 6.27114 16.73 7.39C16.8149 7.64195 16.9964 7.84987 17.2345 7.96802C17.4727 8.08617 17.748 8.10487 18 8.02C18.252 7.93513 18.4599 7.75365 18.578 7.51547C18.6962 7.2773 18.7149 7.00195 18.63 6.75C18.1208 5.25262 17.1195 3.97182 15.7893 3.11627C14.4591 2.26072 12.8784 1.88086 11.3047 2.03858C9.73096 2.1963 8.25705 2.8823 7.12308 3.98481C5.98911 5.08732 5.26192 6.54135 5.06 8.11C4.10659 8.33832 3.27022 8.90883 2.70974 9.71319C2.14925 10.5175 1.90368 11.4997 2.01966 12.4732C2.13564 13.4467 2.60509 14.3437 3.33887 14.9939C4.07264 15.644 5.01963 16.0021 6 16H9C9.26522 16 9.51957 15.8946 9.70711 15.7071C9.89464 15.5196 10 15.2652 10 15ZM10 11C10 11.1978 10.0586 11.3911 10.1685 11.5556C10.2784 11.72 10.4346 11.8482 10.6173 11.9239C10.8 11.9996 11.0011 12.0194 11.1951 11.9808C11.3891 11.9422 11.5673 11.847 11.7071 11.7071C11.847 11.5673 11.9422 11.3891 11.9808 11.1951C12.0194 11.0011 11.9996 10.8 11.9239 10.6173C11.8482 10.4346 11.72 10.2784 11.5556 10.1685C11.3911 10.0586 11.1978 10 11 10C10.7348 10 10.4804 10.1054 10.2929 10.2929C10.1054 10.4804 10 10.7348 10 11ZM14 18H9C8.73478 18 8.48043 18.1054 8.29289 18.2929C8.10536 18.4804 8 18.7348 8 19C8 19.2652 8.10536 19.5196 8.29289 19.7071C8.48043 19.8946 8.73478 20 9 20H14C14.2652 20 14.5196 20.1054 14.7071 20.2929C14.8946 20.4804 15 20.7348 15 21C15 21.2652 15.1054 21.5196 15.2929 21.7071C15.4804 21.8946 15.7348 22 16 22C16.2652 22 16.5196 21.8946 16.7071 21.7071C16.8946 21.5196 17 21.2652 17 21C17 20.2043 16.6839 19.4413 16.1213 18.8787C15.5587 18.3161 14.7956 18 14 18Z" fill="#414853"/>
</svg>
