<svg width="24" height="24" viewBox="0 0 24 24" fill="none" xmlns="http://www.w3.org/2000/svg">
<path d="M8.5 5.94001C9.56737 5.33525 10.7732 5.01738 12 5.01738C13.2268 5.01738 14.4326 5.33525 15.5 5.94001C15.6141 6.00612 15.7402 6.04901 15.871 6.06619C16.0018 6.08338 16.1347 6.07452 16.262 6.04013C16.3893 6.00574 16.5086 5.94649 16.613 5.86581C16.7173 5.78512 16.8047 5.68459 16.87 5.57001C17.0004 5.34039 17.0346 5.06853 16.9653 4.81374C16.896 4.55896 16.7287 4.34193 16.5 4.21001C15.1273 3.43355 13.5771 3.02548 12 3.02548C10.4229 3.02548 8.87269 3.43355 7.5 4.21001C7.27127 4.34193 7.10399 4.55896 7.03468 4.81374C6.96536 5.06853 6.99963 5.34039 7.13 5.57001C7.19533 5.68459 7.28268 5.78512 7.38703 5.86581C7.49138 5.94649 7.61066 6.00574 7.738 6.04013C7.86534 6.07452 7.99822 6.08338 8.129 6.06619C8.25978 6.04901 8.38587 6.00612 8.5 5.94001ZM18.42 11.21C18.3161 10.9655 18.1958 10.7283 18.06 10.5C17.9914 10.3874 17.9011 10.2895 17.7945 10.2119C17.6879 10.1343 17.5669 10.0785 17.4387 10.0479C17.3104 10.0172 17.1773 10.0122 17.0471 10.0331C16.9169 10.0541 16.7922 10.1006 16.68 10.17C16.4553 10.3086 16.2945 10.5304 16.2327 10.787C16.1709 11.0436 16.213 11.3143 16.35 11.54C16.5046 11.8065 16.6319 12.0879 16.73 12.38C16.7872 12.5518 16.8899 12.7049 17.0273 12.8229C17.1647 12.9409 17.3315 13.0194 17.51 13.05C18.2059 13.17 18.8371 13.5317 19.2925 14.0713C19.748 14.6109 19.9985 15.2939 20 16C20 16.7957 19.6839 17.5587 19.1213 18.1213C18.5587 18.6839 17.7956 19 17 19H5.66C5.25202 18.9372 4.87345 18.7497 4.57625 18.4633C4.27904 18.1768 4.07775 17.8054 4 17.4C3.93993 17.1061 3.94677 16.8024 4.02 16.5114C4.09324 16.2205 4.23099 15.9497 4.42307 15.7192C4.61514 15.4887 4.8566 15.3044 5.12958 15.1799C5.40255 15.0554 5.70004 14.9939 6 15C6.26522 15 6.51957 14.8946 6.70711 14.7071C6.89464 14.5196 7 14.2652 7 14C6.99799 13.1252 7.22927 12.2657 7.67 11.51C7.73612 11.3959 7.779 11.2698 7.79619 11.139C7.81337 11.0082 7.80451 10.8753 7.77012 10.748C7.73573 10.6207 7.67649 10.5014 7.5958 10.397C7.51512 10.2927 7.41459 10.2053 7.3 10.14C7.07038 10.0096 6.79852 9.97537 6.54374 10.0447C6.28895 10.114 6.07192 10.2813 5.94 10.51C5.47169 11.3073 5.17216 12.1922 5.06 13.11C4.22564 13.3132 3.47883 13.7795 2.93 14.44C2.46321 14.9882 2.15302 15.6522 2.03217 16.3619C1.91132 17.0717 1.98428 17.8009 2.24335 18.4727C2.50243 19.1445 2.93802 19.7338 3.50416 20.1787C4.07031 20.6235 4.74602 20.9072 5.46 21H5.59H17C18.1994 20.9967 19.3576 20.5624 20.2634 19.7763C21.1692 18.9902 21.7623 17.9047 21.9344 16.7177C22.1066 15.5308 21.8464 14.3215 21.2012 13.3105C20.5561 12.2994 19.569 11.5539 18.42 11.21ZM14.87 9.00001C14.87 9.00001 14.87 9.00001 14.87 8.94001C14.9218 8.87926 14.9655 8.81203 15 8.74001C15.0947 8.4933 15.0879 8.21913 14.9811 7.97741C14.8743 7.7357 14.6762 7.54608 14.43 7.45001C13.8707 7.24235 13.285 7.11443 12.69 7.07001C12.59 7.07001 12.49 7.07001 12.39 7.07001C12.1204 7.04999 11.8496 7.04999 11.58 7.07001C11.4767 7.06466 11.3733 7.06466 11.27 7.07001C10.675 7.11443 10.0893 7.24235 9.53 7.45001C9.29106 7.55366 9.10199 7.74645 9.00301 7.98737C8.90403 8.22828 8.90295 8.49831 9 8.74001C9.03407 8.8069 9.07424 8.8705 9.12 8.93001C9.11669 8.9666 9.11669 9.00341 9.12 9.04001C9.18616 9.15376 9.27413 9.25333 9.37885 9.33302C9.48357 9.41271 9.603 9.47095 9.73027 9.50439C9.85754 9.53784 9.99017 9.54583 10.1205 9.52792C10.2509 9.51001 10.3765 9.46654 10.49 9.40001C10.9486 9.14429 11.4649 9.01006 11.99 9.01006C12.5151 9.01006 13.0314 9.14429 13.49 9.40001C13.6064 9.46653 13.7349 9.50899 13.868 9.52485C14.0011 9.54071 14.136 9.52966 14.2647 9.49234C14.3935 9.45503 14.5134 9.39222 14.6174 9.30764C14.7213 9.22306 14.8073 9.11844 14.87 9.00001ZM11 12C11 12.1978 11.0586 12.3911 11.1685 12.5556C11.2784 12.72 11.4346 12.8482 11.6173 12.9239C11.8 12.9996 12.0011 13.0194 12.1951 12.9808C12.3891 12.9422 12.5673 12.847 12.7071 12.7071C12.847 12.5673 12.9422 12.3891 12.9808 12.1951C13.0194 12.0011 12.9996 11.8 12.9239 11.6173C12.8482 11.4346 12.72 11.2784 12.5556 11.1685C12.3911 11.0587 12.1978 11 12 11C11.7348 11 11.4804 11.1054 11.2929 11.2929C11.1054 11.4804 11 11.7348 11 12Z" fill="#414853"/>
</svg>
