<svg width="24" height="24" viewBox="0 0 24 24" fill="none" xmlns="http://www.w3.org/2000/svg">
<path d="M12.5 16.92H11.73L12.12 16.25C12.2526 16.0193 12.2881 15.7453 12.2187 15.4884C12.1493 15.2314 11.9807 15.0126 11.75 14.88C11.5192 14.7474 11.2453 14.7119 10.9883 14.7813C10.7314 14.8506 10.5126 15.0193 10.38 15.25L9.99998 15.92L9.61998 15.25C9.48737 15.0193 9.26853 14.8506 9.0116 14.7813C8.75468 14.7119 8.48071 14.7474 8.24998 14.88C8.01924 15.0126 7.85063 15.2314 7.78124 15.4884C7.71185 15.7453 7.74737 16.0193 7.87998 16.25L8.26998 16.92H7.49998C7.23476 16.92 6.9804 17.0254 6.79287 17.2129C6.60533 17.4004 6.49998 17.6548 6.49998 17.92C6.49998 18.1852 6.60533 18.4396 6.79287 18.6271C6.9804 18.8146 7.23476 18.92 7.49998 18.92H8.26998L7.87998 19.58C7.74737 19.8107 7.71185 20.0847 7.78124 20.3416C7.85063 20.5986 8.01924 20.8174 8.24998 20.95C8.48071 21.0826 8.75468 21.1181 9.0116 21.0487C9.26853 20.9793 9.48737 20.8107 9.61998 20.58L9.99998 19.92L10.38 20.58C10.4456 20.6942 10.5332 20.7944 10.6375 20.8749C10.7419 20.9553 10.8611 21.0144 10.9883 21.0487C11.1156 21.0831 11.2483 21.0921 11.379 21.0751C11.5097 21.0582 11.6357 21.0157 11.75 20.95C11.8642 20.8843 11.9644 20.7968 12.0448 20.6924C12.1253 20.588 12.1844 20.4688 12.2187 20.3416C12.2531 20.2144 12.262 20.0817 12.2451 19.951C12.2282 19.8203 12.1856 19.6942 12.12 19.58L11.73 18.92H12.5C12.7652 18.92 13.0195 18.8146 13.2071 18.6271C13.3946 18.4396 13.5 18.1852 13.5 17.92C13.5 17.6548 13.3946 17.4004 13.2071 17.2129C13.0195 17.0254 12.7652 16.92 12.5 16.92ZM21 7.92H20.2C20.0966 7.47129 19.921 7.04237 19.68 6.65L20.24 6.09C20.4038 5.8987 20.4894 5.65262 20.4797 5.40094C20.47 5.14927 20.3656 4.91053 20.1875 4.73243C20.0094 4.55434 19.7707 4.45001 19.519 4.44029C19.2674 4.43057 19.0213 4.51617 18.83 4.68L18.27 5.24C17.8776 4.99901 17.4487 4.82339 17 4.72V3.92C17 3.65478 16.8946 3.40043 16.7071 3.21289C16.5195 3.02535 16.2652 2.92 16 2.92C15.7348 2.92 15.4804 3.02535 15.2929 3.21289C15.1053 3.40043 15 3.65478 15 3.92V4.72C14.5539 4.82181 14.128 4.99757 13.74 5.24L13.17 4.68C12.9787 4.51617 12.7326 4.43057 12.4809 4.44029C12.2292 4.45001 11.9905 4.55434 11.8124 4.73243C11.6343 4.91053 11.53 5.14927 11.5203 5.40094C11.5105 5.65262 11.5961 5.8987 11.76 6.09L12.32 6.65C12.23 6.81 12.16 6.98 12.08 7.14C11.5658 6.99486 11.0342 6.92084 10.5 6.92C9.06623 6.91738 7.67895 7.42826 6.58934 8.36012C5.49972 9.29198 4.77981 10.5832 4.55998 12C3.8173 12.2105 3.16442 12.6593 2.70184 13.2772C2.23926 13.8952 1.99265 14.6481 1.99998 15.42C2.00035 15.9629 2.12811 16.4982 2.373 16.9828C2.61789 17.4673 2.97307 17.8877 3.40998 18.21C3.51489 18.2974 3.63659 18.3624 3.76759 18.401C3.89859 18.4396 4.0361 18.451 4.17166 18.4344C4.30721 18.4178 4.43793 18.3736 4.55576 18.3046C4.67358 18.2355 4.77602 18.1431 4.85675 18.0329C4.93748 17.9228 4.99479 17.7973 5.02515 17.6641C5.05552 17.531 5.05829 17.393 5.03329 17.2588C5.0083 17.1245 4.95607 16.9968 4.87982 16.8835C4.80358 16.7702 4.70494 16.6737 4.58998 16.6C4.40591 16.4634 4.25659 16.2854 4.15409 16.0804C4.05159 15.8754 3.9988 15.6492 3.99998 15.42C3.99998 15.0222 4.15801 14.6406 4.43932 14.3593C4.72062 14.078 5.10215 13.92 5.49998 13.92C5.76519 13.92 6.01955 13.8146 6.20708 13.6271C6.39462 13.4396 6.49998 13.1852 6.49998 12.92C6.50426 11.9757 6.8425 11.0634 7.45481 10.3445C8.06713 9.62558 8.91403 9.14651 9.84563 8.99204C10.7772 8.83757 11.7334 9.01767 12.545 9.50047C13.3566 9.98326 13.9711 10.7376 14.28 11.63C14.3386 11.8 14.442 11.951 14.5793 12.0671C14.7166 12.1833 14.8826 12.2603 15.06 12.29C15.5571 12.372 16.0143 12.6129 16.363 12.9767C16.7116 13.3405 16.933 13.8075 16.9938 14.3076C17.0546 14.8078 16.9517 15.3143 16.7004 15.751C16.4491 16.1877 16.063 16.5312 15.6 16.73C15.4789 16.7822 15.3693 16.8578 15.2776 16.9525C15.1858 17.0472 15.1137 17.1591 15.0654 17.2818C15.017 17.4045 14.9934 17.5355 14.9959 17.6674C14.9985 17.7992 15.027 17.9292 15.08 18.05C15.158 18.2289 15.2867 18.381 15.4502 18.4876C15.6137 18.5942 15.8048 18.6507 16 18.65C16.1383 18.6501 16.275 18.6194 16.4 18.56C17.1775 18.2212 17.8383 17.6615 18.3005 16.9504C18.7628 16.2393 19.006 15.4081 19 14.56C18.998 14.0259 18.8962 13.4968 18.7 13L18.83 13.13C19.0162 13.3147 19.2676 13.4189 19.53 13.42C19.6616 13.4208 19.792 13.3955 19.9139 13.3458C20.0357 13.296 20.1465 13.2227 20.24 13.13C20.3337 13.037 20.4081 12.9264 20.4589 12.8046C20.5096 12.6827 20.5358 12.552 20.5358 12.42C20.5358 12.288 20.5096 12.1573 20.4589 12.0354C20.4081 11.9136 20.3337 11.803 20.24 11.71L19.68 11.15C19.9208 10.7611 20.0964 10.3355 20.2 9.89H21C21.2652 9.89 21.5195 9.78464 21.7071 9.59711C21.8946 9.40957 22 9.15521 22 8.89C22 8.62478 21.8946 8.37043 21.7071 8.18289C21.5195 7.99535 21.2652 7.89 21 7.89V7.92ZM17.66 10.56C17.4884 10.7342 17.2846 10.8734 17.06 10.97C16.7326 10.7505 16.3757 10.5788 16 10.46C15.5329 9.46071 14.7993 8.60953 13.88 8C13.9866 7.73912 14.1428 7.5014 14.34 7.3C14.788 6.88246 15.3776 6.65028 15.99 6.65028C16.6024 6.65028 17.192 6.88246 17.64 7.3C18.0729 7.73803 18.3158 8.3291 18.3158 8.945C18.3158 9.5609 18.0729 10.152 17.64 10.59L17.66 10.56Z" fill="#414853"/>
</svg>
