<svg width="24" height="24" viewBox="0 0 24 24" fill="none" xmlns="http://www.w3.org/2000/svg">
<path d="M16.71 16.29L3.70998 3.29C3.52168 3.1017 3.26628 2.99591 2.99998 2.99591C2.73368 2.99591 2.47829 3.1017 2.28998 3.29C2.10168 3.47831 1.99589 3.7337 1.99589 4C1.99589 4.2663 2.10168 4.5217 2.28998 4.71L5.64998 8.06C5.35457 8.69347 5.15569 9.36762 5.05998 10.06C4.03437 10.2167 3.10975 10.7657 2.48129 11.5912C1.85284 12.4167 1.56972 13.4541 1.69169 14.4844C1.81367 15.5147 2.3312 16.4573 3.13504 17.1133C3.93888 17.7692 4.96614 18.0872 5.99998 18H15.59L18.29 20.71C18.3829 20.8037 18.4935 20.8781 18.6154 20.9289C18.7373 20.9797 18.868 21.0058 19 21.0058C19.132 21.0058 19.2627 20.9797 19.3846 20.9289C19.5064 20.8781 19.617 20.8037 19.71 20.71C19.8037 20.617 19.8781 20.5064 19.9289 20.3846C19.9796 20.2627 20.0058 20.132 20.0058 20C20.0058 19.868 19.9796 19.7373 19.9289 19.6154C19.8781 19.4936 19.8037 19.383 19.71 19.29L16.71 16.29ZM5.99998 16C5.46955 16 4.96084 15.7893 4.58577 15.4142C4.2107 15.0391 3.99998 14.5304 3.99998 14C3.99998 13.4696 4.2107 12.9609 4.58577 12.5858C4.96084 12.2107 5.46955 12 5.99998 12C6.2652 12 6.51955 11.8946 6.70709 11.7071C6.89462 11.5196 6.99998 11.2652 6.99998 11C7.00093 10.5296 7.06826 10.0616 7.19998 9.61L13.59 16H5.99998ZM18.42 8.22C17.8779 6.96725 16.9813 5.90032 15.8407 5.15054C14.7 4.40076 13.365 4.00084 12 4C11.2092 3.9962 10.4239 4.1316 9.67998 4.4C9.45195 4.50302 9.27082 4.68779 9.17236 4.91783C9.0739 5.14787 9.06526 5.40646 9.14815 5.64256C9.23104 5.87866 9.39942 6.0751 9.62007 6.19312C9.84072 6.31113 10.0976 6.34213 10.34 6.28C10.8731 6.0918 11.4347 5.99707 12 6C13.0436 6.00077 14.0607 6.32806 14.909 6.93598C15.7572 7.54391 16.3939 8.402 16.73 9.39C16.7871 9.56184 16.8899 9.71493 17.0273 9.83294C17.1646 9.95094 17.3315 10.0294 17.51 10.06C18.0185 10.15 18.4951 10.3697 18.8938 10.6978C19.2926 11.026 19.5998 11.4516 19.7858 11.9333C19.9719 12.415 20.0304 12.9366 19.9558 13.4475C19.8812 13.9585 19.676 14.4416 19.36 14.85C19.1965 15.0572 19.1215 15.3207 19.1515 15.583C19.1815 15.8452 19.3139 16.085 19.52 16.25C19.6959 16.3912 19.9144 16.4687 20.14 16.47C20.2902 16.4693 20.4383 16.4348 20.5733 16.369C20.7084 16.3032 20.8269 16.2079 20.92 16.09C21.4214 15.4492 21.7588 14.6958 21.903 13.895C22.0472 13.0943 21.9938 12.2705 21.7475 11.495C21.5012 10.7196 21.0694 10.016 20.4895 9.44528C19.9096 8.87456 19.1992 8.45397 18.42 8.22Z" fill="#414853"/>
</svg>
