<svg width="24" height="24" viewBox="0 0 24 24" fill="none" xmlns="http://www.w3.org/2000/svg">
<path d="M21 20H18C17.7348 20 17.4804 19.8946 17.2929 19.7071C17.1054 19.5196 17 19.2652 17 19V16C18.1936 15.989 19.3439 15.5513 20.243 14.7661C21.142 13.9809 21.7305 12.8999 21.902 11.7187C22.0735 10.5374 21.8168 9.3337 21.1781 8.32523C20.5395 7.31675 19.5612 6.57002 18.42 6.22C17.809 4.81601 16.7545 3.65108 15.4181 2.90373C14.0817 2.15638 12.5371 1.86783 11.021 2.08231C9.50489 2.29679 8.10094 3.00245 7.02427 4.09118C5.9476 5.1799 5.2576 6.59162 5.06001 8.11C4.1066 8.33832 3.27023 8.90883 2.70975 9.71319C2.14927 10.5175 1.9037 11.4997 2.01968 12.4732C2.13566 13.4467 2.60511 14.3437 3.33888 14.9939C4.07265 15.644 5.01964 16.0021 6.00001 16H7.00001V19C7.00001 19.2652 6.89466 19.5196 6.70712 19.7071C6.51958 19.8946 6.26523 20 6.00001 20H3.00001C2.7348 20 2.48044 20.1054 2.29291 20.2929C2.10537 20.4804 2.00001 20.7348 2.00001 21C2.00001 21.2652 2.10537 21.5196 2.29291 21.7071C2.48044 21.8946 2.7348 22 3.00001 22H6.00001C6.79566 22 7.55872 21.6839 8.12133 21.1213C8.68394 20.5587 9.00001 19.7957 9.00001 19V16H11V21C11 21.2652 11.1054 21.5196 11.2929 21.7071C11.4804 21.8946 11.7348 22 12 22C12.2652 22 12.5196 21.8946 12.7071 21.7071C12.8947 21.5196 13 21.2652 13 21V16H15V19C15 19.7957 15.3161 20.5587 15.8787 21.1213C16.4413 21.6839 17.2044 22 18 22H21C21.2652 22 21.5196 21.8946 21.7071 21.7071C21.8947 21.5196 22 21.2652 22 21C22 20.7348 21.8947 20.4804 21.7071 20.2929C21.5196 20.1054 21.2652 20 21 20ZM6.00001 14C5.46958 14 4.96087 13.7893 4.5858 13.4142C4.21073 13.0391 4.00001 12.5304 4.00001 12C4.00001 11.4696 4.21073 10.9609 4.5858 10.5858C4.96087 10.2107 5.46958 10 6.00001 10C6.26523 10 6.51958 9.89464 6.70712 9.70711C6.89466 9.51957 7.00001 9.26522 7.00001 9C7.00257 7.81728 7.4243 6.67375 8.19028 5.77259C8.95627 4.87142 10.0169 4.27095 11.1838 4.07788C12.3506 3.8848 13.5481 4.11161 14.5636 4.71801C15.579 5.32441 16.3466 6.27114 16.73 7.39C16.7872 7.56184 16.8899 7.71493 17.0273 7.83293C17.1647 7.95094 17.3315 8.02942 17.51 8.06C18.2042 8.17974 18.8341 8.53993 19.2893 9.07747C19.7446 9.615 19.9962 10.2956 20 11C20 11.7957 19.6839 12.5587 19.1213 13.1213C18.5587 13.6839 17.7957 14 17 14H6.00001Z" fill="#414853"/>
</svg>
