<svg width="24" height="24" viewBox="0 0 24 24" fill="none" xmlns="http://www.w3.org/2000/svg">
<path d="M21 12.5C20.9958 11.393 20.6588 10.3129 20.0329 9.39986C19.407 8.48683 18.521 7.78308 17.49 7.38C17.49 5.92131 16.9105 4.52237 15.8791 3.49092C14.8476 2.45947 13.4487 1.88 11.99 1.88C10.5313 1.88 9.13236 2.45947 8.10091 3.49092C7.06946 4.52237 6.49 5.92131 6.49 7.38C5.29711 7.84805 4.30508 8.71793 3.68521 9.83945C3.06533 10.961 2.85652 12.2637 3.09482 13.5228C3.33312 14.7819 4.00357 15.9182 4.99042 16.7357C5.97727 17.5531 7.21857 18.0003 8.5 18H8.7C8.44738 18.8703 8.02605 19.6824 7.46 20.39C7.34669 20.5372 7.2766 20.713 7.25759 20.8978C7.23859 21.0825 7.27141 21.2689 7.3524 21.4361C7.43338 21.6032 7.55931 21.7445 7.71609 21.8441C7.87286 21.9437 8.05428 21.9977 8.24 22H15.76C15.9492 22.0007 16.1348 21.9476 16.295 21.847C16.4553 21.7464 16.5838 21.6024 16.6655 21.4317C16.7471 21.261 16.7787 21.0706 16.7565 20.8827C16.7343 20.6947 16.6592 20.517 16.54 20.37C15.9763 19.6683 15.555 18.8632 15.3 18H15.5C16.9579 17.9974 18.3553 17.417 19.3862 16.3862C20.417 15.3553 20.9974 13.9579 21 12.5ZM10.06 20C10.4581 19.1926 10.7312 18.3294 10.87 17.44C11.2737 17.2535 11.6532 17.0184 12 16.74C12.3468 17.0184 12.7263 17.2535 13.13 17.44C13.2688 18.3294 13.5419 19.1926 13.94 20H10.06ZM12.78 14.7L12.7 14.62L12.62 14.54H12.55L12.37 14.45L12.19 14.39H11.81L11.63 14.45C11.5686 14.47 11.5111 14.5004 11.46 14.54H11.38L11.3 14.62L11.22 14.7C10.8683 15.1348 10.4175 15.4791 9.90543 15.7038C9.39333 15.9286 8.83482 16.0274 8.27668 15.9919C7.71855 15.9565 7.17704 15.7878 6.69752 15.5C6.218 15.2122 5.81443 14.8136 5.52062 14.3378C5.2268 13.8619 5.0513 13.3226 5.00881 12.7649C4.96631 12.2073 5.05807 11.6476 5.27639 11.1327C5.49471 10.6178 5.83324 10.1627 6.26362 9.80558C6.69399 9.44844 7.20369 9.19964 7.75 9.08C7.8054 9.05769 7.85891 9.03093 7.91 9C7.97178 8.97754 8.03192 8.95081 8.09 8.92C8.14152 8.8822 8.18849 8.83858 8.23 8.79C8.33028 8.71078 8.40362 8.60251 8.44 8.48C8.47179 8.4272 8.49539 8.36988 8.51 8.31001C8.51971 8.24369 8.51971 8.17632 8.51 8.11C8.51483 8.05344 8.51483 7.99657 8.51 7.94C8.50006 7.79017 8.50006 7.63984 8.51 7.49C8.51 6.56175 8.87875 5.67151 9.53513 5.01513C10.1915 4.35875 11.0817 3.99001 12.01 3.99001C12.9383 3.99001 13.8285 4.35875 14.4849 5.01513C15.1413 5.67151 15.51 6.56175 15.51 7.49C15.5199 7.63984 15.5199 7.79017 15.51 7.94C15.5047 7.99321 15.5047 8.0468 15.51 8.10001C15.5 8.16965 15.5 8.24036 15.51 8.31001C15.5246 8.36988 15.5482 8.4272 15.58 8.48C15.6164 8.60251 15.6897 8.71078 15.79 8.79C15.8315 8.83858 15.8785 8.8822 15.93 8.92C15.9881 8.95081 16.0482 8.97754 16.11 9C16.1614 9.0275 16.2149 9.05091 16.27 9.07C16.8163 9.18964 17.326 9.43844 17.7564 9.79558C18.1868 10.1527 18.5253 10.6078 18.7436 11.1227C18.9619 11.6376 19.0537 12.1973 19.0112 12.7549C18.9687 13.3126 18.7932 13.8519 18.4994 14.3278C18.2056 14.8036 17.802 15.2022 17.3225 15.49C16.843 15.7778 16.3015 15.9465 15.7433 15.9819C15.1852 16.0174 14.6267 15.9186 14.1146 15.6938C13.6025 15.4691 13.1517 15.1248 12.8 14.69L12.78 14.7Z" fill="#414853"/>
</svg>
