<svg width="24" height="24" viewBox="0 0 24 24" fill="none" xmlns="http://www.w3.org/2000/svg">
<path d="M20.61 19.19C21.2367 18.35 21.6668 17.3799 21.8685 16.3514C22.0702 15.323 22.0383 14.2623 21.7753 13.2478C21.5123 12.2333 21.0249 11.2907 20.349 10.4898C19.673 9.68878 18.8259 9.04982 17.87 8.62001C17.6618 7.42211 17.1833 6.28743 16.4708 5.30218C15.7584 4.31693 14.8307 3.50704 13.7583 2.93404C12.686 2.36104 11.4971 2.04001 10.282 1.99534C9.06701 1.95068 7.85778 2.18355 6.74623 2.67627C5.63468 3.16898 4.65006 3.90858 3.86719 4.83886C3.08431 5.76914 2.52378 6.86563 2.22818 8.045C1.93259 9.22438 1.9097 10.4556 2.16127 11.6452C2.41283 12.8347 2.93223 13.9513 3.67999 14.91L2.28999 16.29C2.15123 16.4306 2.05724 16.6092 2.01986 16.8032C1.98249 16.9972 2.00341 17.1979 2.07999 17.38C2.15501 17.5626 2.28241 17.719 2.44613 17.8293C2.60985 17.9396 2.80257 17.999 2.99999 18H8.68999C9.25664 19.1946 10.15 20.2043 11.2667 20.9122C12.3834 21.6201 13.6778 21.9973 15 22H21C21.1974 21.999 21.3901 21.9396 21.5539 21.8293C21.7176 21.719 21.845 21.5626 21.92 21.38C21.9966 21.1979 22.0175 20.9972 21.9801 20.8032C21.9427 20.6092 21.8487 20.4306 21.71 20.29L20.61 19.19ZM7.99999 15C8.00136 15.3349 8.02811 15.6692 8.07999 16H5.40999L5.75999 15.66C5.85372 15.567 5.92811 15.4564 5.97888 15.3346C6.02965 15.2127 6.05579 15.082 6.05579 14.95C6.05579 14.818 6.02965 14.6873 5.97888 14.5654C5.92811 14.4436 5.85372 14.333 5.75999 14.24C5.19955 13.6857 4.75524 13.0252 4.45304 12.2972C4.15085 11.5692 3.99683 10.7882 3.99999 10C3.99999 8.40871 4.63213 6.88259 5.75735 5.75737C6.88257 4.63215 8.40869 4.00001 9.99999 4.00001C11.2417 3.99255 12.4545 4.37439 13.4679 5.09187C14.4814 5.80935 15.2445 6.82638 15.65 8.00001C15.43 8.00001 15.22 8.00001 15 8.00001C13.1435 8.00001 11.363 8.73751 10.0502 10.0503C8.73749 11.363 7.99999 13.1435 7.99999 15ZM18.54 20L18.59 20.05H15C13.8433 20.0479 12.7232 19.6449 11.8303 18.9096C10.9375 18.1743 10.3272 17.1522 10.1034 16.0174C9.87961 14.8825 10.0562 13.7052 10.6031 12.686C11.1499 11.6668 12.0333 10.8687 13.1025 10.4277C14.1718 9.9867 15.361 9.93006 16.4673 10.2674C17.5737 10.6048 18.5289 11.3153 19.1701 12.278C19.8114 13.2406 20.0991 14.3958 19.9842 15.5467C19.8693 16.6976 19.3589 17.7732 18.54 18.59C18.3516 18.7746 18.2437 19.0262 18.24 19.29C18.2405 19.4223 18.2673 19.5532 18.3188 19.6751C18.3703 19.7969 18.4455 19.9074 18.54 20Z" fill="#414853"/>
</svg>
