<svg width="24" height="24" viewBox="0 0 24 24" fill="none" xmlns="http://www.w3.org/2000/svg">
<path d="M5.49994 11C5.49994 11.2652 5.6053 11.5196 5.79283 11.7071C5.98037 11.8946 6.23472 12 6.49994 12C6.76516 12 7.01951 11.8946 7.20705 11.7071C7.39458 11.5196 7.49994 11.2652 7.49994 11V5.41L8.78994 6.71C8.8829 6.80373 8.99351 6.87813 9.11536 6.92889C9.23722 6.97966 9.36793 7.0058 9.49994 7.0058C9.63195 7.0058 9.76266 6.97966 9.88452 6.92889C10.0064 6.87813 10.117 6.80373 10.2099 6.71C10.3037 6.61704 10.3781 6.50644 10.4288 6.38458C10.4796 6.26272 10.5057 6.13201 10.5057 6C10.5057 5.86799 10.4796 5.73729 10.4288 5.61543C10.3781 5.49357 10.3037 5.38297 10.2099 5.29L7.20994 2.29C7.11484 2.19896 7.00269 2.1276 6.87994 2.08C6.63648 1.97999 6.3634 1.97999 6.11994 2.08C5.99719 2.1276 5.88504 2.19896 5.78994 2.29L2.78994 5.29C2.60164 5.47831 2.49585 5.7337 2.49585 6C2.49585 6.2663 2.60164 6.5217 2.78994 6.71C2.97824 6.89831 3.23364 7.0041 3.49994 7.0041C3.76624 7.0041 4.02164 6.89831 4.20994 6.71L5.49994 5.41V11ZM18.4999 6H13.4999C13.2347 6 12.9804 6.10536 12.7928 6.2929C12.6053 6.48043 12.4999 6.73479 12.4999 7C12.4999 7.26522 12.6053 7.51957 12.7928 7.70711C12.9804 7.89465 13.2347 8 13.4999 8H18.4999C18.7652 8 19.0195 8.10536 19.207 8.2929C19.3946 8.48043 19.4999 8.73479 19.4999 9V18.72L17.9299 17.27C17.7455 17.0973 17.5026 17.0009 17.2499 17H8.49994C8.23472 17 7.98037 16.8946 7.79283 16.7071C7.6053 16.5196 7.49994 16.2652 7.49994 16V15C7.49994 14.7348 7.39458 14.4804 7.20705 14.2929C7.01951 14.1054 6.76516 14 6.49994 14C6.23472 14 5.98037 14.1054 5.79283 14.2929C5.6053 14.4804 5.49994 14.7348 5.49994 15V16C5.49994 16.7957 5.81601 17.5587 6.37862 18.1213C6.94123 18.6839 7.70429 19 8.49994 19H16.8599L19.8599 21.73C20.0444 21.9027 20.2873 21.9991 20.5399 22C20.6771 21.9985 20.8128 21.9714 20.9399 21.92C21.1188 21.8419 21.2709 21.7132 21.3776 21.5498C21.4842 21.3863 21.5406 21.1952 21.5399 21V9C21.54 8.60265 21.4611 8.20925 21.3078 7.84264C21.1546 7.47603 20.93 7.14352 20.6472 6.86441C20.3643 6.58531 20.0289 6.36517 19.6603 6.21678C19.2917 6.06839 18.8973 5.9947 18.4999 6Z" fill="#414853"/>
</svg>
