<svg width="24" height="24" viewBox="0 0 24 24" fill="none" xmlns="http://www.w3.org/2000/svg">
<path d="M19 14C18.8726 13.9669 18.74 13.9593 18.6096 13.9777C18.4793 13.996 18.3539 14.0398 18.2405 14.1067C18.1272 14.1736 18.0282 14.2622 17.9492 14.3675C17.8701 14.4727 17.8126 14.5925 17.78 14.72C17.3976 16.2285 16.5234 17.5666 15.2956 18.5228C14.0677 19.479 12.5563 19.9988 11 20H5.41002L6.05002 19.37C6.23627 19.1826 6.34081 18.9292 6.34081 18.665C6.34081 18.4008 6.23627 18.1474 6.05002 17.96C5.06751 16.9816 4.39772 15.7334 4.1256 14.3737C3.85348 13.0141 3.9913 11.6043 4.52156 10.3231C5.05183 9.04185 5.95065 7.94699 7.10404 7.17734C8.25743 6.40769 9.61342 5.99792 11 6C11.2652 6 11.5196 5.89465 11.7071 5.70711C11.8947 5.51957 12 5.26522 12 5C12 4.73479 11.8947 4.48043 11.7071 4.2929C11.5196 4.10536 11.2652 4 11 4C9.30748 4.00557 7.65082 4.48829 6.2202 5.39274C4.78959 6.2972 3.64301 7.58674 2.91209 9.11332C2.18116 10.6399 1.89553 12.3417 2.08796 14.0232C2.2804 15.7048 2.94311 17.298 4.00002 18.62L2.29002 20.29C2.15126 20.4306 2.05726 20.6092 2.01989 20.8032C1.98252 20.9972 2.00344 21.1979 2.08002 21.38C2.15504 21.5626 2.28244 21.719 2.44616 21.8293C2.60988 21.9396 2.80259 21.999 3.00002 22H11C12.9963 22.0013 14.9363 21.3388 16.5149 20.1169C18.0934 18.895 19.221 17.1829 19.72 15.25C19.7576 15.1206 19.7687 14.985 19.7526 14.8512C19.7365 14.7175 19.6936 14.5883 19.6263 14.4716C19.5591 14.3549 19.469 14.2529 19.3613 14.1719C19.2537 14.0908 19.1308 14.0324 19 14ZM21.71 5.26L18.71 2.26C18.6149 2.16896 18.5028 2.0976 18.38 2.05C18.1366 1.94999 17.8635 1.94999 17.62 2.05C17.4973 2.0976 17.3851 2.16896 17.29 2.26L14.29 5.26C14.1017 5.44831 13.9959 5.7037 13.9959 5.97C13.9959 6.23631 14.1017 6.4917 14.29 6.68C14.4783 6.86831 14.7337 6.9741 15 6.9741C15.2663 6.9741 15.5217 6.86831 15.71 6.68L17 5.41V11C17 11.2652 17.1054 11.5196 17.2929 11.7071C17.4804 11.8946 17.7348 12 18 12C18.2652 12 18.5196 11.8946 18.7071 11.7071C18.8947 11.5196 19 11.2652 19 11V5.41L20.29 6.71C20.383 6.80373 20.4936 6.87813 20.6154 6.9289C20.7373 6.97966 20.868 7.0058 21 7.0058C21.132 7.0058 21.2627 6.97966 21.3846 6.9289C21.5065 6.87813 21.6171 6.80373 21.71 6.71C21.8037 6.61704 21.8781 6.50644 21.9289 6.38458C21.9797 6.26272 22.0058 6.13202 22.0058 6C22.0058 5.86799 21.9797 5.73729 21.9289 5.61543C21.8781 5.49357 21.8037 5.38297 21.71 5.29V5.26Z" fill="#414853"/>
</svg>
