<svg width="24" height="24" viewBox="0 0 24 24" fill="none" xmlns="http://www.w3.org/2000/svg">
<path d="M21.7 2.86C21.5838 2.76602 21.4481 2.69927 21.3027 2.66466C21.1573 2.63005 21.0061 2.62846 20.86 2.66C20.4594 2.74309 20.0461 2.74337 19.6454 2.66082C19.2447 2.57828 18.8651 2.41465 18.53 2.18C18.3616 2.06166 18.1608 1.99815 17.955 1.99815C17.7492 1.99815 17.5484 2.06166 17.38 2.18C17.0449 2.41465 16.6653 2.57828 16.2646 2.66082C15.8639 2.74337 15.4506 2.74309 15.05 2.66C14.904 2.62846 14.7527 2.63005 14.6073 2.66466C14.4619 2.69927 14.3262 2.76602 14.21 2.86C14.0953 2.95305 14.0026 3.07036 13.9386 3.2035C13.8747 3.33664 13.841 3.48229 13.84 3.63V7C13.8418 7.72408 14.0159 8.43733 14.348 9.08074C14.6802 9.72415 15.1608 10.2792 15.75 10.7L17.37 11.86C17.5403 11.9829 17.745 12.049 17.955 12.049C18.165 12.049 18.3697 11.9829 18.54 11.86L20.16 10.7C20.7493 10.2792 21.2299 9.72415 21.562 9.08074C21.8941 8.43733 22.0683 7.72408 22.07 7V3.63C22.069 3.48229 22.0353 3.33664 21.9714 3.2035C21.9074 3.07036 21.8147 2.95305 21.7 2.86ZM20.07 7C20.0566 7.39301 19.9531 7.77769 19.7676 8.12443C19.5821 8.47117 19.3195 8.77071 19 9L18 9.74L16.91 9C16.5905 8.77071 16.3279 8.47117 16.1424 8.12443C15.9569 7.77769 15.8535 7.39301 15.84 7V4.72C16.5914 4.6959 17.3286 4.5082 18 4.17C18.6557 4.50271 19.3753 4.6903 20.11 4.72L20.07 7ZM18.93 14C18.6741 13.9362 18.4034 13.9761 18.1768 14.1109C17.9502 14.2458 17.786 14.4647 17.72 14.72C17.3372 16.2302 16.4615 17.5695 15.2316 18.5259C14.0018 19.4823 12.488 20.001 10.93 20H5.35001L6.00001 19.37C6.17439 19.1845 6.27147 18.9396 6.27147 18.685C6.27147 18.4304 6.17439 18.1855 6.00001 18C5.00485 17.025 4.32327 15.7752 4.04252 14.4105C3.76177 13.0459 3.89461 11.6285 4.42405 10.3398C4.95349 9.05115 5.85544 7.94975 7.01445 7.17663C8.17346 6.4035 9.53681 5.99381 10.93 6C11.1952 6 11.4496 5.89464 11.6371 5.70711C11.8247 5.51957 11.93 5.26522 11.93 5C11.93 4.73478 11.8247 4.48043 11.6371 4.29289C11.4496 4.10536 11.1952 4 10.93 4C9.23748 4.00556 7.58081 4.48828 6.1502 5.39274C4.71958 6.2972 3.573 7.58673 2.84208 9.11332C2.11116 10.6399 1.82552 12.3417 2.01796 14.0232C2.21039 15.7048 2.8731 17.298 3.93001 18.62L2.23001 20.29C2.08959 20.4293 1.99362 20.6071 1.95423 20.8009C1.91485 20.9947 1.93382 21.1958 2.00874 21.3789C2.08367 21.5619 2.21119 21.7186 2.37517 21.8292C2.53915 21.9397 2.73224 21.9992 2.93001 22H10.93C12.9263 22.0013 14.8663 21.3388 16.4449 20.1169C18.0234 18.895 19.1509 17.1829 19.65 15.25C19.6876 15.1206 19.6987 14.985 19.6826 14.8512C19.6665 14.7175 19.6236 14.5883 19.5563 14.4716C19.4891 14.3549 19.3989 14.2529 19.2913 14.1719C19.1837 14.0908 19.0608 14.0324 18.93 14Z" fill="#414853"/>
</svg>
