<svg width="24" height="24" viewBox="0 0 24 24" fill="none" xmlns="http://www.w3.org/2000/svg">
<path d="M6.77 9.15L12.21 3.71C12.3032 3.61676 12.3772 3.50607 12.4277 3.38425C12.4781 3.26243 12.5041 3.13186 12.5041 3C12.5041 2.86814 12.4781 2.73758 12.4277 2.61575C12.3772 2.49393 12.3032 2.38324 12.21 2.29C12.1168 2.19676 12.0061 2.1228 11.8843 2.07234C11.7624 2.02188 11.6319 1.99591 11.5 1.99591C11.2337 1.99591 10.9783 2.1017 10.79 2.29L6.06 7L4.21 5.17C4.0217 4.9817 3.7663 4.87591 3.5 4.87591C3.2337 4.87591 2.97831 4.9817 2.79 5.17C2.6017 5.35831 2.49591 5.6137 2.49591 5.88C2.49591 6.1463 2.6017 6.4017 2.79 6.59L5.35 9.15C5.44297 9.24373 5.55357 9.31813 5.67543 9.36889C5.79729 9.41966 5.92799 9.4458 6.06 9.4458C6.19201 9.4458 6.32272 9.41966 6.44458 9.36889C6.56644 9.31813 6.67704 9.24373 6.77 9.15ZM18.5 6H13C12.7348 6 12.4804 6.10536 12.2929 6.2929C12.1054 6.48043 12 6.73479 12 7C12 7.26522 12.1054 7.51957 12.2929 7.70711C12.4804 7.89465 12.7348 8 13 8H18.5C18.7652 8 19.0196 8.10536 19.2071 8.2929C19.3946 8.48043 19.5 8.73479 19.5 9V18.72L17.93 17.27C17.7456 17.0973 17.5026 17.0009 17.25 17H8.5C8.23479 17 7.98043 16.8946 7.7929 16.7071C7.60536 16.5196 7.5 16.2652 7.5 16V12.5C7.5 12.2348 7.39464 11.9804 7.20711 11.7929C7.01957 11.6054 6.76522 11.5 6.5 11.5C6.23479 11.5 5.98043 11.6054 5.7929 11.7929C5.60536 11.9804 5.5 12.2348 5.5 12.5V16C5.5 16.7957 5.81607 17.5587 6.37868 18.1213C6.94129 18.6839 7.70435 19 8.5 19H16.86L19.86 21.73C20.0444 21.9027 20.2874 21.9991 20.54 22C20.6772 21.9985 20.8128 21.9714 20.94 21.92C21.1189 21.8419 21.271 21.7132 21.3776 21.5498C21.4842 21.3863 21.5407 21.1952 21.54 21V9C21.54 8.60265 21.4611 8.20925 21.3079 7.84264C21.1546 7.47603 20.9301 7.14352 20.6472 6.86441C20.3644 6.58531 20.0289 6.36517 19.6603 6.21678C19.2917 6.06839 18.8973 5.9947 18.5 6Z" fill="#414853"/>
</svg>
