<svg width="24" height="24" viewBox="0 0 24 24" fill="none" xmlns="http://www.w3.org/2000/svg">
<path d="M6.57005 12C6.77846 11.9987 6.98124 11.9322 7.15005 11.81L8.77005 10.65C9.35251 10.2342 9.82891 9.68708 10.1607 9.05298C10.4925 8.41889 10.6704 7.7156 10.6801 7V3.63C10.6791 3.4823 10.6454 3.33664 10.5814 3.2035C10.5174 3.07037 10.4248 2.95306 10.3101 2.86C10.1939 2.76602 10.0581 2.69928 9.91275 2.66467C9.76739 2.63006 9.61612 2.62846 9.47005 2.66C9.06947 2.74309 8.65613 2.74337 8.25544 2.66083C7.85475 2.57828 7.47518 2.41465 7.14005 2.18C6.97266 2.06388 6.77379 2.00165 6.57005 2.00165C6.36632 2.00165 6.16745 2.06388 6.00005 2.18C5.66493 2.41465 5.28536 2.57828 4.88467 2.66083C4.48397 2.74337 4.07063 2.74309 3.67005 2.66C3.52308 2.62997 3.37123 2.63339 3.22575 2.67001C3.08028 2.70662 2.94491 2.7755 2.82966 2.87154C2.71442 2.96757 2.62226 3.0883 2.56001 3.22479C2.49776 3.36128 2.46702 3.51002 2.47005 3.66V7C2.46984 7.72336 2.64209 8.43634 2.97252 9.07982C3.30296 9.72329 3.78204 10.2787 4.37005 10.7L6.00005 11.81C6.16415 11.934 6.36438 12.0007 6.57005 12ZM4.46005 7V4.72C5.19454 4.68907 5.91393 4.50155 6.57005 4.17C7.22574 4.50272 7.94539 4.6903 8.68005 4.72V7C8.6666 7.39301 8.56314 7.7777 8.37764 8.12443C8.19213 8.47117 7.92953 8.77072 7.61005 9L6.61005 9.74L5.53005 9C5.21058 8.77072 4.94798 8.47117 4.76247 8.12443C4.57697 7.7777 4.47351 7.39301 4.46005 7ZM18.5401 6H13.5401C13.2748 6 13.0205 6.10536 12.8329 6.2929C12.6454 6.48043 12.5401 6.73479 12.5401 7C12.5401 7.26522 12.6454 7.51957 12.8329 7.70711C13.0205 7.89465 13.2748 8 13.5401 8H18.5401C18.8053 8 19.0596 8.10536 19.2472 8.2929C19.4347 8.48043 19.5401 8.73479 19.5401 9V18.72L18.0001 17.27C17.9105 17.1818 17.8042 17.1125 17.6874 17.0661C17.5706 17.0198 17.4457 16.9973 17.3201 17H8.54005C8.27484 17 8.02048 16.8946 7.83295 16.7071C7.64541 16.5196 7.54005 16.2652 7.54005 16V15C7.54005 14.7348 7.4347 14.4804 7.24716 14.2929C7.05962 14.1054 6.80527 14 6.54005 14C6.27484 14 6.02048 14.1054 5.83295 14.2929C5.64541 14.4804 5.54005 14.7348 5.54005 15V16C5.54005 16.7957 5.85612 17.5587 6.41873 18.1213C6.98134 18.6839 7.7444 19 8.54005 19H16.9001L19.9001 21.73C20.0819 21.9003 20.3209 21.9966 20.5701 22C20.7105 21.9986 20.8494 21.9715 20.9801 21.92C21.1571 21.8404 21.3071 21.7111 21.4119 21.5477C21.5166 21.3844 21.5716 21.1941 21.5701 21V9C21.5701 8.6035 21.4915 8.21093 21.3389 7.84498C21.1862 7.47904 20.9626 7.14698 20.6808 6.86801C20.399 6.58903 20.0648 6.36868 19.6973 6.2197C19.3299 6.07071 18.9365 5.99604 18.5401 6Z" fill="#414853"/>
</svg>
