<svg width="24" height="24" viewBox="0 0 24 24" fill="none" xmlns="http://www.w3.org/2000/svg">
<path d="M21.71 4.72L19.28 2.29C19.0926 2.10375 18.8392 1.99921 18.575 1.99921C18.3108 1.99921 18.0574 2.10375 17.87 2.29L12.29 7.87C12.1973 7.96344 12.124 8.07425 12.0742 8.19609C12.0245 8.31793 11.9992 8.44839 12 8.58V11C12 11.2652 12.1053 11.5196 12.2929 11.7071C12.4804 11.8946 12.7348 12 13 12H15.42C15.5516 12.0008 15.6821 11.9755 15.8039 11.9258C15.9257 11.876 16.0365 11.8027 16.13 11.71L21.71 6.13C21.8962 5.94264 22.0008 5.68919 22.0008 5.425C22.0008 5.16081 21.8962 4.90736 21.71 4.72ZM15 10H14V9L18.58 4.42L19.58 5.42L15 10ZM19 12C18.7348 12 18.4804 12.1054 18.2929 12.2929C18.1053 12.4804 18 12.7348 18 13C18 14.8565 17.2625 16.637 15.9497 17.9497C14.637 19.2625 12.8565 20 11 20H5.40999L6.04999 19.37C6.14372 19.277 6.21811 19.1664 6.26888 19.0446C6.31965 18.9227 6.34579 18.792 6.34579 18.66C6.34579 18.528 6.31965 18.3973 6.26888 18.2754C6.21811 18.1536 6.14372 18.043 6.04999 17.95C5.07092 16.971 4.40415 15.7237 4.13401 14.3658C3.86387 13.0078 4.0025 11.6003 4.53235 10.3211C5.06221 9.042 5.95949 7.94871 7.11073 7.17955C8.26197 6.41039 9.61544 5.9999 11 6C11.2652 6 11.5196 5.89464 11.7071 5.70711C11.8946 5.51957 12 5.26522 12 5C12 4.73478 11.8946 4.48043 11.7071 4.29289C11.5196 4.10536 11.2652 4 11 4C9.30745 4.00556 7.65079 4.48828 6.22017 5.39274C4.78956 6.29719 3.64298 7.58673 2.91206 9.11331C2.18113 10.6399 1.8955 12.3417 2.08793 14.0232C2.28037 15.7048 2.94308 17.298 3.99999 18.62L2.28999 20.29C2.15123 20.4306 2.05723 20.6092 2.01986 20.8032C1.98248 20.9972 2.00341 21.1979 2.07999 21.38C2.15501 21.5626 2.2824 21.7189 2.44613 21.8293C2.60985 21.9396 2.80256 21.999 2.99999 22H11C12.1819 22 13.3522 21.7672 14.4441 21.3149C15.5361 20.8626 16.5282 20.1997 17.3639 19.364C18.1997 18.5282 18.8626 17.5361 19.3149 16.4441C19.7672 15.3522 20 14.1819 20 13C20 12.7348 19.8946 12.4804 19.7071 12.2929C19.5196 12.1054 19.2652 12 19 12Z" fill="#414853"/>
</svg>
