<svg width="24" height="24" viewBox="0 0 24 24" fill="none" xmlns="http://www.w3.org/2000/svg">
<path d="M10.6599 6H16.9999C17.2652 6 17.5195 6.10536 17.707 6.2929C17.8946 6.48043 17.9999 6.73479 17.9999 7V13.34C17.9999 13.6052 18.1053 13.8596 18.2928 14.0471C18.4804 14.2346 18.7347 14.34 18.9999 14.34C19.2652 14.34 19.5195 14.2346 19.707 14.0471C19.8946 13.8596 19.9999 13.6052 19.9999 13.34V7C19.9999 6.20435 19.6839 5.44129 19.1213 4.87868C18.5587 4.31607 17.7956 4 16.9999 4H10.6599C10.3947 4 10.1404 4.10536 9.95283 4.2929C9.7653 4.48043 9.65994 4.73479 9.65994 5C9.65994 5.26522 9.7653 5.51957 9.95283 5.70711C10.1404 5.89465 10.3947 6 10.6599 6ZM21.7099 20.29L3.70994 2.29C3.52164 2.1017 3.26624 1.99591 2.99994 1.99591C2.73364 1.99591 2.47824 2.1017 2.28994 2.29C2.10164 2.47831 1.99585 2.7337 1.99585 3C1.99585 3.2663 2.10164 3.5217 2.28994 3.71L4.28994 5.71C4.09854 6.11308 3.99947 6.55379 3.99994 7V19C4.00093 19.1974 4.06033 19.3901 4.17066 19.5539C4.281 19.7176 4.43732 19.845 4.61994 19.92C4.73862 19.976 4.86876 20.0034 4.99994 20C5.13155 20.0008 5.26201 19.9755 5.38385 19.9258C5.50569 19.876 5.6165 19.8027 5.70994 19.71L8.40994 17H15.5899L20.2899 21.71C20.3829 21.8037 20.4935 21.8781 20.6154 21.9289C20.7372 21.9797 20.8679 22.0058 20.9999 22.0058C21.132 22.0058 21.2627 21.9797 21.3845 21.9289C21.5064 21.8781 21.617 21.8037 21.7099 21.71C21.8037 21.617 21.8781 21.5064 21.9288 21.3846C21.9796 21.2627 22.0057 21.132 22.0057 21C22.0057 20.868 21.9796 20.7373 21.9288 20.6154C21.8781 20.4936 21.8037 20.383 21.7099 20.29ZM7.99994 15C7.86833 14.9992 7.73787 15.0245 7.61603 15.0742C7.4942 15.124 7.38338 15.1973 7.28994 15.29L5.99994 16.59V7.41L13.5899 15H7.99994Z" fill="#414853"/>
</svg>
