<svg width="24" height="24" viewBox="0 0 24 24" fill="none" xmlns="http://www.w3.org/2000/svg">
<path d="M21.7099 20.29L15.4099 14H16.9999C17.2652 14 17.5195 13.8946 17.707 13.7071C17.8946 13.5196 17.9999 13.2652 17.9999 13C17.9999 12.7348 17.8946 12.4804 17.707 12.2929C17.5195 12.1054 17.2652 12 16.9999 12H13.4099L19.0699 6.34C19.1746 6.25036 19.2596 6.14004 19.3197 6.01597C19.3797 5.89191 19.4134 5.75677 19.4187 5.61906C19.4241 5.48134 19.4009 5.344 19.3506 5.21568C19.3003 5.08735 19.224 4.97081 19.1266 4.87335C19.0291 4.7759 18.9126 4.69964 18.7843 4.64936C18.6559 4.59909 18.5186 4.57588 18.3809 4.5812C18.2432 4.58652 18.108 4.62025 17.984 4.68028C17.8599 4.7403 17.7496 4.82532 17.6599 4.93L11.9999 10.59V7C11.9999 6.73479 11.8946 6.48043 11.707 6.2929C11.5195 6.10536 11.2652 6 10.9999 6C10.7347 6 10.4804 6.10536 10.2928 6.2929C10.1053 6.48043 9.99994 6.73479 9.99994 7V8.59L3.70994 2.29C3.6167 2.19676 3.50601 2.1228 3.38419 2.07234C3.26237 2.02188 3.1318 1.99591 2.99994 1.99591C2.86808 1.99591 2.73751 2.02188 2.61569 2.07234C2.49387 2.1228 2.38318 2.19676 2.28994 2.29C2.10164 2.47831 1.99585 2.7337 1.99585 3C1.99585 3.2663 2.10164 3.5217 2.28994 3.71L8.58994 10H6.99994C6.73472 10 6.48037 10.1054 6.29283 10.2929C6.1053 10.4804 5.99994 10.7348 5.99994 11C5.99994 11.2652 6.1053 11.5196 6.29283 11.7071C6.48037 11.8946 6.73472 12 6.99994 12H10.5899L4.92994 17.66C4.74369 17.8474 4.63915 18.1008 4.63915 18.365C4.63915 18.6292 4.74369 18.8826 4.92994 19.07C5.1173 19.2563 5.37076 19.3608 5.63494 19.3608C5.89913 19.3608 6.15258 19.2563 6.33994 19.07L11.9999 13.41V17C11.9999 17.2652 12.1053 17.5196 12.2928 17.7071C12.4804 17.8946 12.7347 18 12.9999 18C13.2652 18 13.5195 17.8946 13.707 17.7071C13.8946 17.5196 13.9999 17.2652 13.9999 17V15.41L20.2899 21.71C20.3829 21.8037 20.4935 21.8781 20.6154 21.9289C20.7372 21.9797 20.8679 22.0058 20.9999 22.0058C21.132 22.0058 21.2627 21.9797 21.3845 21.9289C21.5064 21.8781 21.617 21.8037 21.7099 21.71C21.8037 21.617 21.8781 21.5064 21.9288 21.3846C21.9796 21.2627 22.0057 21.132 22.0057 21C22.0057 20.868 21.9796 20.7373 21.9288 20.6154C21.8781 20.4936 21.8037 20.383 21.7099 20.29Z" fill="#414853"/>
</svg>
