<svg width="24" height="24" viewBox="0 0 24 24" fill="none" xmlns="http://www.w3.org/2000/svg">
<path d="M19.9999 9.67V9.5C20.006 7.79894 19.4663 6.14079 18.4601 4.76921C17.4539 3.39764 16.0343 2.38496 14.4099 1.88H14.3499C13.511 1.62423 12.6369 1.50273 11.7599 1.52C9.67177 1.63459 7.70604 2.54175 6.26394 4.05632C4.82184 5.5709 4.01208 7.57872 3.99994 9.67C3.41395 9.87614 2.9064 10.2591 2.54736 10.766C2.18832 11.2729 1.99548 11.8788 1.99548 12.5C1.99548 13.1212 2.18832 13.7271 2.54736 14.234C2.9064 14.7409 3.41395 15.1239 3.99994 15.33C4.20591 17.3048 5.13886 19.1324 6.61742 20.4576C8.09598 21.7827 10.0145 22.5107 11.9999 22.5H12.2299C14.1499 22.4071 15.9748 21.6369 17.3808 20.3261C18.7868 19.0153 19.6828 17.2487 19.9099 15.34C20.5028 15.1455 21.0203 14.771 21.3904 14.2686C21.7604 13.7662 21.9646 13.1609 21.9745 12.5371C21.9844 11.9132 21.7995 11.3017 21.4456 10.7878C21.0917 10.2739 20.5864 9.8832 19.9999 9.67ZM12.1799 20.5C10.7323 20.5419 9.31844 20.0588 8.19915 19.1398C7.07985 18.2208 6.33071 16.9281 6.08994 15.5H17.8599C17.6159 16.8519 16.9219 18.0816 15.8908 18.9893C14.8596 19.897 13.5519 20.4294 12.1799 20.5ZM18.9999 13.5H4.99994C4.73473 13.5 4.48037 13.3946 4.29284 13.2071C4.1053 13.0196 3.99994 12.7652 3.99994 12.5C3.99994 12.2348 4.1053 11.9804 4.29284 11.7929C4.48037 11.6054 4.73473 11.5 4.99994 11.5H6.99994C7.26516 11.5 7.51951 11.3946 7.70705 11.2071C7.89459 11.0196 7.99994 10.7652 7.99994 10.5C7.99994 10.2348 7.89459 9.98043 7.70705 9.79289C7.51951 9.60536 7.26516 9.5 6.99994 9.5H5.99994C6.04471 8.46261 6.34121 7.45169 6.86386 6.55447C7.38652 5.65724 8.11963 4.90066 8.99994 4.35V7.5C8.99994 7.76522 9.1053 8.01957 9.29284 8.20711C9.48037 8.39464 9.73473 8.5 9.99994 8.5C10.2652 8.5 10.5195 8.39464 10.7071 8.20711C10.8946 8.01957 10.9999 7.76522 10.9999 7.5V3.59C11.2714 3.54465 11.5451 3.5146 11.8199 3.5H11.9999C12.3351 3.50472 12.6694 3.5348 12.9999 3.59V7.5C12.9999 7.76522 13.1053 8.01957 13.2928 8.20711C13.4804 8.39464 13.7347 8.5 13.9999 8.5C14.2652 8.5 14.5195 8.39464 14.7071 8.20711C14.8946 8.01957 14.9999 7.76522 14.9999 7.5V4.32C15.4241 4.56562 15.8199 4.8574 16.1799 5.19C16.7565 5.7499 17.2147 6.41992 17.5273 7.1603C17.84 7.90068 18.0007 8.69632 17.9999 9.5H16.9999C16.7347 9.5 16.4804 9.60536 16.2928 9.79289C16.1053 9.98043 15.9999 10.2348 15.9999 10.5C15.9999 10.7652 16.1053 11.0196 16.2928 11.2071C16.4804 11.3946 16.7347 11.5 16.9999 11.5H18.9999C19.2652 11.5 19.5195 11.6054 19.7071 11.7929C19.8946 11.9804 19.9999 12.2348 19.9999 12.5C19.9999 12.7652 19.8946 13.0196 19.7071 13.2071C19.5195 13.3946 19.2652 13.5 18.9999 13.5Z" fill="#414853"/>
</svg>
