<svg width="24" height="24" viewBox="0 0 24 24" fill="none" xmlns="http://www.w3.org/2000/svg">
<path d="M21.71 13.35C21.617 13.2563 21.5064 13.1819 21.3846 13.1311C21.2627 13.0803 21.132 13.0542 21 13.0542C20.868 13.0542 20.7373 13.0803 20.6154 13.1311C20.4936 13.1819 20.383 13.2563 20.29 13.35L17.37 16.27V8.26999C17.37 7.20912 16.9486 6.19171 16.1984 5.44156C15.4483 4.69142 14.4309 4.26999 13.37 4.26999H3C2.73478 4.26999 2.48043 4.37535 2.29289 4.56288C2.10536 4.75042 2 5.00477 2 5.26999C2 5.53521 2.10536 5.78956 2.29289 5.9771C2.48043 6.16463 2.73478 6.26999 3 6.26999H13.37C13.9004 6.26999 14.4091 6.4807 14.7842 6.85578C15.1593 7.23085 15.37 7.73956 15.37 8.26999V16.27L12.45 13.35C12.263 13.1577 12.0073 13.0476 11.7391 13.0438C11.471 13.0401 11.2123 13.143 11.02 13.33C10.8277 13.517 10.7176 13.7727 10.7138 14.0408C10.7101 14.309 10.813 14.5677 11 14.76L15.62 19.39C15.7169 19.4813 15.8285 19.5556 15.95 19.61C16.0697 19.6629 16.1991 19.6902 16.33 19.6902C16.4609 19.6902 16.5903 19.6629 16.71 19.61C16.8336 19.5594 16.9458 19.4846 17.04 19.39L21.67 14.76C21.8617 14.578 21.9735 14.3275 21.981 14.0632C21.9885 13.799 21.891 13.5426 21.71 13.35Z" fill="#414853"/>
</svg>
