<svg width="24" height="24" viewBox="0 0 24 24" fill="none" xmlns="http://www.w3.org/2000/svg">
<path d="M18.69 2.00001C18.4247 2.00001 18.1704 2.10536 17.9828 2.2929C17.7953 2.48044 17.69 2.73479 17.69 3.00001V13.37C17.69 13.9004 17.4792 14.4091 17.1042 14.7842C16.7291 15.1593 16.2204 15.37 15.69 15.37H7.68995L10.61 12.45C10.7808 12.2637 10.8747 12.0195 10.8728 11.7667C10.8709 11.514 10.7733 11.2713 10.5997 11.0875C10.4261 10.9038 10.1893 10.7926 9.93702 10.7764C9.68475 10.7601 9.43569 10.84 9.23995 11L4.60996 15.66C4.51868 15.7569 4.44431 15.8685 4.38995 15.99C4.28994 16.2335 4.28994 16.5065 4.38995 16.75C4.44052 16.8736 4.51532 16.9858 4.60996 17.08L9.23995 21.71C9.42622 21.8948 9.67761 21.9989 9.93995 22C10.0716 22.0008 10.202 21.9755 10.3239 21.9258C10.4457 21.876 10.5565 21.8027 10.65 21.71C10.7437 21.617 10.8181 21.5064 10.8688 21.3846C10.9196 21.2627 10.9458 21.132 10.9458 21C10.9458 20.868 10.9196 20.7373 10.8688 20.6154C10.8181 20.4936 10.7437 20.383 10.65 20.29L7.72995 17.37H15.73C16.7908 17.37 17.8082 16.9486 18.5584 16.1984C19.3085 15.4483 19.73 14.4309 19.73 13.37V3.00001C19.7301 2.86525 19.7029 2.73186 19.6502 2.60785C19.5975 2.48384 19.5202 2.37177 19.4231 2.27837C19.3259 2.18497 19.2109 2.11217 19.0849 2.06433C18.959 2.0165 18.8246 1.99462 18.69 2.00001Z" fill="#414853"/>
</svg>
