<svg width="24" height="24" viewBox="0 0 24 24" fill="none" xmlns="http://www.w3.org/2000/svg">
<path d="M17 9.5H7.40999L8.70999 8.21C8.89829 8.0217 9.00408 7.7663 9.00408 7.5C9.00408 7.2337 8.89829 6.97831 8.70999 6.79C8.52168 6.6017 8.26629 6.49591 7.99999 6.49591C7.73369 6.49591 7.47829 6.6017 7.28999 6.79L4.28999 9.79C4.19895 9.88511 4.12758 9.99725 4.07999 10.12C3.97997 10.3635 3.97997 10.6365 4.07999 10.88C4.12758 11.0028 4.19895 11.1149 4.28999 11.21L7.28999 14.21C7.38295 14.3037 7.49355 14.3781 7.61541 14.4289C7.73727 14.4797 7.86798 14.5058 7.99999 14.5058C8.132 14.5058 8.26271 14.4797 8.38456 14.4289C8.50642 14.3781 8.61702 14.3037 8.70999 14.21C8.80372 14.117 8.87811 14.0064 8.92888 13.8846C8.97965 13.7627 9.00579 13.632 9.00579 13.5C9.00579 13.368 8.97965 13.2373 8.92888 13.1154C8.87811 12.9936 8.80372 12.883 8.70999 12.79L7.40999 11.5H17C17.2652 11.5 17.5196 11.6054 17.7071 11.7929C17.8946 11.9804 18 12.2348 18 12.5V16.5C18 16.7652 18.1053 17.0196 18.2929 17.2071C18.4804 17.3946 18.7348 17.5 19 17.5C19.2652 17.5 19.5196 17.3946 19.7071 17.2071C19.8946 17.0196 20 16.7652 20 16.5V12.5C20 11.7044 19.6839 10.9413 19.1213 10.3787C18.5587 9.81607 17.7956 9.5 17 9.5Z" fill="#414853"/>
</svg>
