<svg width="24" height="24" viewBox="0 0 24 24" fill="none" xmlns="http://www.w3.org/2000/svg">
<path d="M9.5 9C9.20333 9 8.91332 9.08797 8.66665 9.2528C8.41997 9.41762 8.22771 9.65189 8.11418 9.92597C8.00065 10.2001 7.97094 10.5017 8.02882 10.7926C8.0867 11.0836 8.22956 11.3509 8.43934 11.5607C8.64912 11.7704 8.91639 11.9133 9.20736 11.9712C9.49834 12.0291 9.79994 11.9994 10.074 11.8858C10.3481 11.7723 10.5824 11.58 10.7472 11.3334C10.912 11.0867 11 10.7967 11 10.5C11 10.1022 10.842 9.72064 10.5607 9.43934C10.2794 9.15804 9.89782 9 9.5 9ZM9 14C8.80222 14 8.60888 14.0586 8.44443 14.1685C8.27998 14.2784 8.15181 14.4346 8.07612 14.6173C8.00043 14.8 7.98063 15.0011 8.01921 15.1951C8.0578 15.3891 8.15304 15.5673 8.29289 15.7071C8.43275 15.847 8.61093 15.9422 8.80491 15.9808C8.99889 16.0194 9.19996 15.9996 9.38268 15.9239C9.56541 15.8482 9.72159 15.72 9.83147 15.5556C9.94135 15.3911 10 15.1978 10 15C10 14.7348 9.89464 14.4804 9.70711 14.2929C9.51957 14.1054 9.26522 14 9 14ZM15 8C14.8022 8 14.6089 8.05865 14.4444 8.16853C14.28 8.27841 14.1518 8.43459 14.0761 8.61732C14.0004 8.80004 13.9806 9.00111 14.0192 9.19509C14.0578 9.38907 14.153 9.56725 14.2929 9.70711C14.4327 9.84696 14.6109 9.9422 14.8049 9.98079C14.9989 10.0194 15.2 9.99957 15.3827 9.92388C15.5654 9.84819 15.7216 9.72002 15.8315 9.55557C15.9414 9.39112 16 9.19778 16 9C16 8.73478 15.8946 8.48043 15.7071 8.29289C15.5196 8.10536 15.2652 8 15 8ZM14.5 12C14.2033 12 13.9133 12.088 13.6666 12.2528C13.42 12.4176 13.2277 12.6519 13.1142 12.926C13.0006 13.2001 12.9709 13.5017 13.0288 13.7926C13.0867 14.0836 13.2296 14.3509 13.4393 14.5607C13.6491 14.7704 13.9164 14.9133 14.2074 14.9712C14.4983 15.0291 14.7999 14.9994 15.074 14.8858C15.3481 14.7723 15.5824 14.58 15.7472 14.3334C15.912 14.0867 16 13.7967 16 13.5C16 13.1022 15.842 12.7206 15.5607 12.4393C15.2794 12.158 14.8978 12 14.5 12ZM22 11H20.941C20.7526 9.31242 20.0881 7.71323 19.025 6.3891L19.7784 5.63574C19.9659 5.44822 20.0712 5.1939 20.0712 4.92871C20.0712 4.66352 19.9659 4.4092 19.7784 4.22168C19.5908 4.03416 19.3365 3.92882 19.0713 3.92882C18.8061 3.92882 18.5518 4.03416 18.3643 4.22168L17.6109 4.975C16.2868 3.91193 14.6876 3.24741 13 3.059V2C13 1.73478 12.8946 1.48043 12.7071 1.29289C12.5196 1.10536 12.2652 1 12 1C11.7348 1 11.4804 1.10536 11.2929 1.29289C11.1054 1.48043 11 1.73478 11 2V3.059C9.31242 3.24741 7.71323 3.91193 6.3891 4.975L5.63574 4.22164C5.54289 4.12879 5.43266 4.05514 5.31134 4.00489C5.19003 3.95464 5.06001 3.92878 4.9287 3.92878C4.79739 3.92879 4.66736 3.95465 4.54605 4.0049C4.42474 4.05516 4.31451 4.12881 4.22166 4.22166C4.12881 4.31451 4.05516 4.42474 4.00491 4.54606C3.95466 4.66737 3.9288 4.79739 3.9288 4.9287C3.92881 5.06001 3.95467 5.19004 4.00492 5.31135C4.05518 5.43266 4.12883 5.54289 4.22168 5.63574L4.975 6.3891C3.91193 7.71323 3.24741 9.31242 3.059 11H2C1.73478 11 1.48043 11.1054 1.29289 11.2929C1.10536 11.4804 1 11.7348 1 12C1 12.2652 1.10536 12.5196 1.29289 12.7071C1.48043 12.8946 1.73478 13 2 13H3.059C3.24741 14.6876 3.91193 16.2868 4.975 17.6109L4.22164 18.3643C4.12879 18.4571 4.05514 18.5673 4.00489 18.6886C3.95464 18.81 3.92878 18.94 3.92878 19.0713C3.92878 19.2026 3.95464 19.3326 4.00489 19.4539C4.05514 19.5752 4.12879 19.6855 4.22164 19.7783C4.40916 19.9658 4.66348 20.0712 4.92867 20.0712C5.05998 20.0712 5.19 20.0453 5.31131 19.9951C5.43262 19.9448 5.54285 19.8712 5.6357 19.7783L6.3891 19.025C7.71323 20.0881 9.31242 20.7526 11 20.941V22C11 22.2652 11.1054 22.5196 11.2929 22.7071C11.4804 22.8946 11.7348 23 12 23C12.2652 23 12.5196 22.8946 12.7071 22.7071C12.8946 22.5196 13 22.2652 13 22V20.941C14.6876 20.7526 16.2868 20.0881 17.6109 19.025L18.3643 19.7784C18.5518 19.9659 18.8061 20.0712 19.0713 20.0712C19.3365 20.0712 19.5908 19.9659 19.7783 19.7784C19.9658 19.5908 20.0712 19.3365 20.0712 19.0713C20.0712 18.8061 19.9658 18.5518 19.7783 18.3643L19.025 17.6109C20.0881 16.2868 20.7526 14.6876 20.941 13H22C22.2652 13 22.5196 12.8946 22.7071 12.7071C22.8946 12.5196 23 12.2652 23 12C23 11.7348 22.8946 11.4804 22.7071 11.2929C22.5196 11.1054 22.2652 11 22 11ZM18 13H18.9202C18.7025 14.4927 18.0087 15.8753 16.942 16.942C15.8753 18.0087 14.4927 18.7025 13 18.9202V17C13 16.7348 12.8946 16.4804 12.7071 16.2929C12.5196 16.1054 12.2652 16 12 16C11.7348 16 11.4804 16.1054 11.2929 16.2929C11.1054 16.4804 11 16.7348 11 17V18.9202C9.50726 18.7025 8.12468 18.0087 7.05799 16.942C5.9913 15.8753 5.2975 14.4927 5.07983 13H6C6.26522 13 6.51957 12.8946 6.70711 12.7071C6.89464 12.5196 7 12.2652 7 12C7 11.7348 6.89464 11.4804 6.70711 11.2929C6.51957 11.1054 6.26522 11 6 11H5.07983C5.2975 9.50726 5.9913 8.12468 7.05799 7.05799C8.12468 5.9913 9.50726 5.2975 11 5.07983V7C11 7.26522 11.1054 7.51957 11.2929 7.70711C11.4804 7.89464 11.7348 8 12 8C12.2652 8 12.5196 7.89464 12.7071 7.70711C12.8946 7.51957 13 7.26522 13 7V5.07983C14.4927 5.2975 15.8753 5.9913 16.942 7.05799C18.0087 8.12468 18.7025 9.50726 18.9202 11H18C17.7348 11 17.4804 11.1054 17.2929 11.2929C17.1054 11.4804 17 11.7348 17 12C17 12.2652 17.1054 12.5196 17.2929 12.7071C17.4804 12.8946 17.7348 13 18 13Z" fill="#414853"/>
</svg>
