<svg width="24" height="24" viewBox="0 0 24 24" fill="none" xmlns="http://www.w3.org/2000/svg">
<path d="M20 17.57C20.4954 16.7582 20.7078 15.805 20.6037 14.8596C20.4997 13.9142 20.0851 13.03 19.425 12.3454C18.7649 11.6607 17.8963 11.2142 16.9554 11.0758C16.0145 10.9374 15.0542 11.1148 14.2248 11.5803C13.3954 12.0458 12.7438 12.7732 12.3719 13.6485C12 14.5239 11.9288 15.4978 12.1694 16.418C12.4101 17.3381 12.949 18.1525 13.7018 18.7337C14.4546 19.3149 15.3789 19.6301 16.33 19.63C17.1199 19.6263 17.894 19.4086 18.57 19L20.29 20.73C20.383 20.8237 20.4936 20.8981 20.6154 20.9489C20.7373 20.9997 20.868 21.0258 21 21.0258C21.132 21.0258 21.2627 20.9997 21.3846 20.9489C21.5064 20.8981 21.617 20.8237 21.71 20.73C21.8037 20.637 21.8781 20.5264 21.9289 20.4046C21.9797 20.2827 22.0058 20.152 22.0058 20.02C22.0058 19.888 21.9797 19.7573 21.9289 19.6354C21.8781 19.5136 21.8037 19.403 21.71 19.31L20 17.57ZM18 17C17.5593 17.42 16.9738 17.6543 16.365 17.6543C15.7562 17.6543 15.1707 17.42 14.73 17C14.2983 16.5654 14.056 15.9776 14.056 15.365C14.056 14.7524 14.2983 14.1646 14.73 13.73C14.9446 13.515 15.1994 13.3445 15.48 13.2281C15.7605 13.1117 16.0613 13.0518 16.365 13.0518C16.6687 13.0518 16.9695 13.1117 17.25 13.2281C17.5306 13.3445 17.7854 13.515 18 13.73C18.4317 14.1646 18.674 14.7524 18.674 15.365C18.674 15.9776 18.4317 16.5654 18 17ZM19 3H5C4.20435 3 3.44129 3.31607 2.87868 3.87868C2.31607 4.44129 2 5.20435 2 6V15C2 15.7956 2.31607 16.5587 2.87868 17.1213C3.44129 17.6839 4.20435 18 5 18H9C9.26522 18 9.51957 17.8946 9.70711 17.7071C9.89464 17.5196 10 17.2652 10 17C10 16.7348 9.89464 16.4804 9.70711 16.2929C9.51957 16.1054 9.26522 16 9 16H5C4.73478 16 4.48043 15.8946 4.29289 15.7071C4.10536 15.5196 4 15.2652 4 15V9H20V10C20 10.2652 20.1054 10.5196 20.2929 10.7071C20.4804 10.8946 20.7348 11 21 11C21.2652 11 21.5196 10.8946 21.7071 10.7071C21.8946 10.5196 22 10.2652 22 10V6C22 5.20435 21.6839 4.44129 21.1213 3.87868C20.5587 3.31607 19.7956 3 19 3ZM20 7H4V6C4 5.73478 4.10536 5.48043 4.29289 5.29289C4.48043 5.10536 4.73478 5 5 5H19C19.2652 5 19.5196 5.10536 19.7071 5.29289C19.8946 5.48043 20 5.73478 20 6V7ZM10 11H7C6.73478 11 6.48043 11.1054 6.29289 11.2929C6.10536 11.4804 6 11.7348 6 12C6 12.2652 6.10536 12.5196 6.29289 12.7071C6.48043 12.8946 6.73478 13 7 13H10C10.2652 13 10.5196 12.8946 10.7071 12.7071C10.8946 12.5196 11 12.2652 11 12C11 11.7348 10.8946 11.4804 10.7071 11.2929C10.5196 11.1054 10.2652 11 10 11Z" fill="#414853"/>
</svg>
