<svg width="24" height="24" viewBox="0 0 24 24" fill="none" xmlns="http://www.w3.org/2000/svg">
<path d="M20.772 3.36426C20.6782 3.25037 20.5603 3.15865 20.4268 3.09568C20.2933 3.0327 20.1476 3.00003 20 3H6.00002C5.7348 3 5.48045 3.10536 5.29291 3.29289C5.10537 3.48043 5.00002 3.73478 5.00002 4C5.00002 4.26522 5.10537 4.51957 5.29291 4.70711C5.48045 4.89464 5.7348 5 6.00002 5H18.7861L18.0052 9H5.00002C4.7348 9 4.48045 9.10536 4.29291 9.29289C4.10537 9.48043 4.00002 9.73478 4.00002 10C4.00002 10.2652 4.10537 10.5196 4.29291 10.7071C4.48045 10.8946 4.7348 11 5.00002 11H17.6148L16.4522 16.9551L10.1289 18.9517L4.71877 17.2524L4.92238 16.1875C4.9721 15.9269 4.91629 15.6573 4.76721 15.4379C4.61814 15.2185 4.38801 15.0673 4.12746 15.0176C3.8669 14.9679 3.59727 15.0237 3.37786 15.1727C3.15846 15.3218 3.00726 15.5519 2.95754 15.8125L2.58742 17.7524C2.54157 17.9933 2.58575 18.2426 2.71158 18.4531C2.83741 18.6635 3.03613 18.8204 3.27002 18.894L9.8301 20.9541C10.0258 21.0155 10.2356 21.0153 10.4312 20.9536L17.6211 18.6836C17.7925 18.6294 17.9461 18.53 18.0658 18.3958C18.1855 18.2617 18.2668 18.0978 18.3013 17.9214L20.9815 4.19141C21.0097 4.04662 21.0056 3.89738 20.9694 3.75438C20.9332 3.61137 20.8658 3.47815 20.772 3.36426Z" fill="#414853"/>
</svg>
