<svg width="24" height="24" viewBox="0 0 24 24" fill="none" xmlns="http://www.w3.org/2000/svg">
<path d="M20.52 3.87C20.1075 3.00824 19.4568 2.28269 18.6448 1.77922C17.8329 1.27576 16.8937 1.01546 15.9384 1.02914C14.9831 1.04282 14.0517 1.32989 13.2545 1.8564C12.4573 2.3829 11.8276 3.12678 11.44 4H6.99999C6.20434 4 5.44128 4.31607 4.87867 4.87868C4.31606 5.44129 3.99999 6.20435 3.99999 7V11C3.99999 11.2652 4.10535 11.5196 4.29289 11.7071C4.48042 11.8946 4.73478 12 4.99999 12C5.26521 12 5.51956 11.8946 5.7071 11.7071C5.89464 11.5196 5.99999 11.2652 5.99999 11V7C5.99999 6.73478 6.10535 6.48043 6.29289 6.29289C6.48042 6.10536 6.73478 6 6.99999 6H9.77999C9.2822 6.54764 9.0044 7.25994 8.99999 8C8.99999 8.79565 9.31606 9.55871 9.87867 10.1213C10.4413 10.6839 11.2043 11 12 11H19.33C20.2007 11.0063 21.0452 10.7019 21.7117 10.1415C22.3782 9.58115 22.8231 8.8015 22.9664 7.94261C23.1098 7.08372 22.9422 6.20187 22.4938 5.45542C22.0454 4.70897 21.3456 4.14684 20.52 3.87ZM19.33 9H12C11.7348 9 11.4804 8.89464 11.2929 8.7071C11.1054 8.51957 11 8.26521 11 8C11 7.73478 11.1054 7.48043 11.2929 7.29289C11.4804 7.10536 11.7348 7 12 7C12.2652 7 12.5196 6.89464 12.7071 6.7071C12.8946 6.51957 13 6.26521 13 6C12.9919 5.28635 13.2385 4.59321 13.6955 4.04504C14.1526 3.49686 14.79 3.12957 15.4935 3.00911C16.1969 2.88866 16.9203 3.02294 17.5336 3.38783C18.147 3.75272 18.6102 4.32433 18.84 5C18.8972 5.17184 18.9999 5.32493 19.1373 5.44293C19.2747 5.56093 19.4415 5.63941 19.62 5.67C20.0111 5.73479 20.3657 5.93819 20.6191 6.24301C20.8725 6.54783 21.0077 6.93368 21 7.33C21 7.54931 20.9568 7.76647 20.8729 7.96908C20.7889 8.17169 20.6659 8.35579 20.5109 8.51087C20.3558 8.66594 20.1717 8.78895 19.9691 8.87288C19.7665 8.9568 19.5493 9 19.33 9ZM19 13C18.7348 13 18.4804 13.1054 18.2929 13.2929C18.1054 13.4804 18 13.7348 18 14V17C18 17.2652 17.8946 17.5196 17.7071 17.7071C17.5196 17.8946 17.2652 18 17 18H14.74C14.5467 17.5051 14.248 17.0582 13.8647 16.6904C13.4813 16.3226 13.0225 16.0426 12.52 15.87C12.0668 14.9083 11.3189 14.1161 10.3849 13.6084C9.4509 13.1006 8.37935 12.9038 7.32587 13.0465C6.27239 13.1892 5.2918 13.664 4.5265 14.4019C3.76119 15.1398 3.251 16.1024 3.06999 17.15C2.39278 17.3726 1.81695 17.829 1.44569 18.4376C1.07444 19.0461 0.932006 19.767 1.04393 20.471C1.15585 21.175 1.5148 21.8162 2.05648 22.2796C2.59815 22.743 3.28714 22.9984 3.99999 23H11.33C12.1862 23 13.0153 22.6998 13.6731 22.1517C14.3308 21.6036 14.7756 20.8422 14.93 20H17C17.7956 20 18.5587 19.6839 19.1213 19.1213C19.6839 18.5587 20 17.7956 20 17V14C20 13.7348 19.8946 13.4804 19.7071 13.2929C19.5196 13.1054 19.2652 13 19 13ZM11.33 21H3.99999C3.73478 21 3.48042 20.8946 3.29289 20.7071C3.10535 20.5196 2.99999 20.2652 2.99999 20C2.99999 19.7348 3.10535 19.4804 3.29289 19.2929C3.48042 19.1054 3.73478 19 3.99999 19C4.26521 19 4.51956 18.8946 4.7071 18.7071C4.89464 18.5196 4.99999 18.2652 4.99999 18C4.99192 17.2864 5.23854 16.5932 5.69555 16.045C6.15256 15.4969 6.79002 15.1296 7.49347 15.0091C8.19692 14.8887 8.92027 15.0229 9.53363 15.3878C10.147 15.7527 10.6102 16.3243 10.84 17C10.8972 17.1718 10.9999 17.3249 11.1373 17.4429C11.2747 17.5609 11.4415 17.6394 11.62 17.67C12.0111 17.7348 12.3657 17.9382 12.6191 18.243C12.8725 18.5478 13.0077 18.9337 13 19.33C13 19.5493 12.9568 19.7665 12.8729 19.9691C12.7889 20.1717 12.6659 20.3558 12.5109 20.5109C12.3558 20.6659 12.1717 20.789 11.9691 20.8729C11.7665 20.9568 11.5493 21 11.33 21Z" fill="#414853"/>
</svg>
