<svg width="24" height="24" viewBox="0 0 24 24" fill="none" xmlns="http://www.w3.org/2000/svg">
<path d="M10.6599 6H17.9999C18.2652 6 18.5195 6.10536 18.707 6.2929C18.8946 6.48043 18.9999 6.73479 18.9999 7V13C19.0011 13.1765 18.9526 13.3498 18.8599 13.5C18.7897 13.611 18.7419 13.7347 18.7195 13.8641C18.697 13.9935 18.7003 14.1261 18.7291 14.2542C18.7579 14.3824 18.8116 14.5036 18.8873 14.611C18.9629 14.7183 19.059 14.8098 19.1699 14.88C19.3265 14.9853 19.5112 15.0411 19.6999 15.04C19.8673 15.0397 20.0318 14.9975 20.1786 14.9171C20.3253 14.8367 20.4496 14.7208 20.5399 14.58C20.8405 14.1079 21.0001 13.5597 20.9999 13V7C20.9999 6.20435 20.6839 5.44129 20.1213 4.87868C19.5587 4.31607 18.7956 4 17.9999 4H10.6599C10.3947 4 10.1404 4.10536 9.95283 4.2929C9.7653 4.48043 9.65994 4.73479 9.65994 5C9.65994 5.26522 9.7653 5.51957 9.95283 5.70711C10.1404 5.89465 10.3947 6 10.6599 6ZM21.7099 20.29L5.85994 4.45L3.70994 2.29C3.6167 2.19676 3.50601 2.1228 3.38419 2.07234C3.26237 2.02188 3.1318 1.99591 2.99994 1.99591C2.86808 1.99591 2.73751 2.02188 2.61569 2.07234C2.49387 2.1228 2.38318 2.19676 2.28994 2.29C2.10164 2.47831 1.99585 2.7337 1.99585 3C1.99585 3.2663 2.10164 3.5217 2.28994 3.71L3.68994 5.1C3.24707 5.63445 3.00322 6.30592 2.99994 7V13C2.99994 13.7957 3.31601 14.5587 3.87862 15.1213C4.44123 15.6839 5.20429 16 5.99994 16H10.9999V18H6.99994C6.73472 18 6.48037 18.1054 6.29283 18.2929C6.1053 18.4804 5.99994 18.7348 5.99994 19C5.99994 19.2652 6.1053 19.5196 6.29283 19.7071C6.48037 19.8946 6.73472 20 6.99994 20H16.9999C17.2037 19.9979 17.402 19.9335 17.5682 19.8156C17.7345 19.6976 17.8607 19.5317 17.9299 19.34L20.2899 21.71C20.3829 21.8037 20.4935 21.8781 20.6154 21.9289C20.7372 21.9797 20.8679 22.0058 20.9999 22.0058C21.132 22.0058 21.2627 21.9797 21.3845 21.9289C21.5064 21.8781 21.617 21.8037 21.7099 21.71C21.8037 21.617 21.8781 21.5064 21.9288 21.3846C21.9796 21.2627 22.0057 21.132 22.0057 21C22.0057 20.868 21.9796 20.7373 21.9288 20.6154C21.8781 20.4936 21.8037 20.383 21.7099 20.29ZM5.99994 14C5.73472 14 5.48037 13.8946 5.29283 13.7071C5.1053 13.5196 4.99994 13.2652 4.99994 13V7C5.00238 6.83925 5.04355 6.68146 5.11994 6.54L12.5899 14H5.99994ZM12.9999 18V16H14.5899L16.5899 18H12.9999Z" fill="#414853"/>
</svg>
