<svg width="24" height="24" viewBox="0 0 24 24" fill="none" xmlns="http://www.w3.org/2000/svg">
<path d="M16 11.08H8C7.20435 11.08 6.44129 11.3961 5.87868 11.9587C5.31607 12.5213 5 13.2844 5 14.08V19.08C5 19.8757 5.31607 20.6387 5.87868 21.2013C6.44129 21.7639 7.20435 22.08 8 22.08H16C16.7956 22.08 17.5587 21.7639 18.1213 21.2013C18.6839 20.6387 19 19.8757 19 19.08V14.08C19 13.2844 18.6839 12.5213 18.1213 11.9587C17.5587 11.3961 16.7956 11.08 16 11.08ZM15.58 13.08L12.7 16C12.5131 16.1832 12.2618 16.2859 12 16.2859C11.7382 16.2859 11.4869 16.1832 11.3 16L8.42 13.08H15.58ZM17 19.08C17 19.3452 16.8946 19.5996 16.7071 19.7871C16.5196 19.9747 16.2652 20.08 16 20.08H8C7.73478 20.08 7.48043 19.9747 7.29289 19.7871C7.10536 19.5996 7 19.3452 7 19.08V14.49L9.88 17.37C10.4425 17.9318 11.205 18.2474 12 18.2474C12.795 18.2474 13.5575 17.9318 14.12 17.37L17 14.49V19.08ZM10.71 5.62001L11 5.33001V8.08001C11 8.34523 11.1054 8.59958 11.2929 8.78712C11.4804 8.97466 11.7348 9.08001 12 9.08001C12.2652 9.08001 12.5196 8.97466 12.7071 8.78712C12.8946 8.59958 13 8.34523 13 8.08001V5.33001L13.29 5.62001C13.3826 5.71325 13.4926 5.78734 13.6138 5.83805C13.7351 5.88877 13.8651 5.9151 13.9965 5.91557C14.1279 5.91603 14.2581 5.89061 14.3796 5.84076C14.5012 5.79091 14.6118 5.7176 14.705 5.62501C14.7982 5.53243 14.8723 5.42239 14.923 5.30118C14.9738 5.17996 15.0001 5.04994 15.0006 4.91855C15.001 4.78715 14.9756 4.65695 14.9257 4.53538C14.8759 4.41381 14.8026 4.30325 14.71 4.21001L12.71 2.21001C12.617 2.11629 12.5064 2.04189 12.3846 1.99112C12.2627 1.94035 12.132 1.91422 12 1.91422C11.868 1.91422 11.7373 1.94035 11.6154 1.99112C11.4936 2.04189 11.383 2.11629 11.29 2.21001L9.29 4.21001C9.10375 4.39738 8.99921 4.65083 8.99921 4.91501C8.99921 5.1792 9.10375 5.43265 9.29 5.62001C9.38296 5.71374 9.49356 5.78814 9.61542 5.8389C9.73728 5.88967 9.86799 5.91581 10 5.91581C10.132 5.91581 10.2627 5.88967 10.3846 5.8389C10.5064 5.78814 10.617 5.71374 10.71 5.62001Z" fill="#414853"/>
</svg>
