<svg width="24" height="24" viewBox="0 0 24 24" fill="none" xmlns="http://www.w3.org/2000/svg">
<path d="M11.29 8.79001C11.383 8.88374 11.4936 8.95814 11.6154 9.0089C11.7373 9.05967 11.868 9.08581 12 9.08581C12.132 9.08581 12.2627 9.05967 12.3846 9.0089C12.5064 8.95814 12.617 8.88374 12.71 8.79001L14.71 6.79001C14.8963 6.60265 15.0008 6.3492 15.0008 6.08501C15.0008 5.82083 14.8963 5.56738 14.71 5.38001C14.617 5.28628 14.5064 5.21189 14.3846 5.16112C14.2627 5.11035 14.132 5.08422 14 5.08422C13.868 5.08422 13.7373 5.11035 13.6154 5.16112C13.4936 5.21189 13.383 5.28628 13.29 5.38001L13 5.67001V2.92001C13 2.6548 12.8946 2.40044 12.7071 2.21291C12.5196 2.02537 12.2652 1.92001 12 1.92001C11.7348 1.92001 11.4804 2.02537 11.2929 2.21291C11.1054 2.40044 11 2.6548 11 2.92001V5.67001L10.71 5.38001C10.617 5.28628 10.5064 5.21189 10.3846 5.16112C10.2627 5.11035 10.132 5.08422 10 5.08422C9.86799 5.08422 9.73728 5.11035 9.61542 5.16112C9.49356 5.21189 9.38296 5.28628 9.29 5.38001C9.10375 5.56738 8.99921 5.82083 8.99921 6.08501C8.99921 6.3492 9.10375 6.60265 9.29 6.79001L11.29 8.79001ZM16 11.08H8C7.20435 11.08 6.44129 11.3961 5.87868 11.9587C5.31607 12.5213 5 13.2844 5 14.08V19.08C5 19.8757 5.31607 20.6387 5.87868 21.2013C6.44129 21.7639 7.20435 22.08 8 22.08H16C16.7956 22.08 17.5587 21.7639 18.1213 21.2013C18.6839 20.6387 19 19.8757 19 19.08V14.08C19 13.2844 18.6839 12.5213 18.1213 11.9587C17.5587 11.3961 16.7956 11.08 16 11.08ZM15.58 13.08L12.7 16C12.5131 16.1832 12.2618 16.2859 12 16.2859C11.7382 16.2859 11.4869 16.1832 11.3 16L8.42 13.08H15.58ZM17 19.08C17 19.3452 16.8946 19.5996 16.7071 19.7871C16.5196 19.9747 16.2652 20.08 16 20.08H8C7.73478 20.08 7.48043 19.9747 7.29289 19.7871C7.10536 19.5996 7 19.3452 7 19.08V14.49L9.88 17.37C10.4425 17.9318 11.205 18.2474 12 18.2474C12.795 18.2474 13.5575 17.9318 14.12 17.37L17 14.49V19.08Z" fill="#414853"/>
</svg>
