<svg width="24" height="24" viewBox="0 0 24 24" fill="none" xmlns="http://www.w3.org/2000/svg">
<path d="M12 6.99998C11.8022 6.99998 11.6089 7.05863 11.4444 7.16852C11.28 7.2784 11.1518 7.43458 11.0761 7.6173C11.0004 7.80003 10.9806 8.00109 11.0192 8.19508C11.0578 8.38906 11.153 8.56724 11.2929 8.70709C11.4327 8.84694 11.6109 8.94218 11.8049 8.98077C11.9989 9.01936 12.2 8.99955 12.3827 8.92386C12.5654 8.84818 12.7216 8.72 12.8315 8.55556C12.9413 8.39111 13 8.19777 13 7.99998C13 7.73477 12.8946 7.48041 12.7071 7.29288C12.5196 7.10534 12.2652 6.99998 12 6.99998ZM6.30383 16.134C6.13254 16.2329 5.99443 16.3803 5.90695 16.5577C5.81947 16.7351 5.78656 16.9345 5.81238 17.1305C5.83819 17.3266 5.92158 17.5107 6.05198 17.6594C6.18239 17.8081 6.35397 17.9148 6.54501 17.9659C6.73606 18.0171 6.93799 18.0105 7.12528 17.9469C7.31256 17.8834 7.47679 17.7657 7.59719 17.6088C7.71759 17.4518 7.78875 17.2627 7.80168 17.0654C7.81461 16.868 7.76872 16.6713 7.66983 16.5C7.53722 16.2703 7.3188 16.1027 7.06263 16.0341C6.80645 15.9654 6.53351 16.0014 6.30383 16.134ZM17.6962 16.134C17.5249 16.0351 17.3281 15.9892 17.1308 16.0021C16.9334 16.0151 16.7443 16.0862 16.5874 16.2066C16.4305 16.327 16.3128 16.4913 16.2492 16.6785C16.1856 16.8658 16.179 17.0678 16.2302 17.2588C16.2814 17.4498 16.3881 17.6214 16.5368 17.7518C16.6855 17.8822 16.8695 17.9656 17.0656 17.9914C17.2617 18.0173 17.461 17.9843 17.6384 17.8969C17.8158 17.8094 17.9633 17.6713 18.0622 17.5C18.1278 17.3863 18.1705 17.2607 18.1876 17.1305C18.2048 17.0003 18.1961 16.868 18.1621 16.7412C18.1281 16.6143 18.0695 16.4954 17.9895 16.3912C17.9096 16.2871 17.8099 16.1996 17.6962 16.134ZM20.6103 13.3428V13.3423C20.0148 12.7825 19.2891 12.3799 18.4989 12.1709C17.7087 11.962 16.8789 11.9532 16.0845 12.1455L15.665 11.3833C16.2593 10.7442 16.6755 9.9604 16.8721 9.11015C17.0687 8.2599 17.0388 7.37295 16.7855 6.53785C16.5321 5.70275 16.0641 4.94873 15.4282 4.35106C14.7923 3.75339 14.0108 3.33298 13.1616 3.13182C12.4224 2.9586 11.6536 2.95479 10.9127 3.12069C10.1718 3.28659 9.478 3.6179 8.88326 4.08982C8.29452 4.55713 7.81925 5.15168 7.49309 5.82887C7.16693 6.50607 6.99835 7.24834 7 7.99998C6.99972 9.26185 7.48347 10.4758 8.35156 11.3916L7.93311 12.1416C7.08113 11.9403 6.19119 11.9668 5.35268 12.2183C4.51416 12.4699 3.7566 12.9376 3.15608 13.5746C2.55556 14.2116 2.13323 14.9954 1.9315 15.8472C1.72977 16.6991 1.75576 17.5891 2.00684 18.4277C2.2262 19.1547 2.60733 19.8227 3.12165 20.3814C3.63597 20.9401 4.27013 21.3751 4.97656 21.6538C5.61641 21.9072 6.30192 22.0249 6.98965 21.9995C7.67738 21.9741 8.35234 21.8062 8.97177 21.5063C9.59119 21.2064 10.1416 20.7811 10.588 20.2574C11.0345 19.7337 11.3673 19.1229 11.5654 18.4639L12.4321 18.478C12.7439 19.4976 13.3746 20.3902 14.2315 21.0246C15.0884 21.659 16.1262 22.0017 17.1924 22.0024C18.2702 22.0013 19.3189 21.6531 20.1834 21.0095C21.0479 20.3658 21.6821 19.4609 21.9922 18.4287C22.2642 17.5369 22.2789 16.5863 22.0344 15.6865C21.7899 14.7867 21.2963 13.9743 20.6103 13.3428V13.3428ZM20.0815 17.8379C19.9537 18.2746 19.7284 18.6766 19.4225 19.0135C19.1167 19.3505 18.7384 19.6136 18.3161 19.783C17.8938 19.9525 17.4385 20.0238 16.9846 19.9917C16.5307 19.9596 16.09 19.8249 15.6958 19.5977C15.0455 19.2212 14.5624 18.6117 14.3442 17.8926C14.2223 17.4805 13.9706 17.1188 13.6265 16.8613C13.2824 16.6039 12.8643 16.4645 12.4346 16.4639H11.5654C11.1357 16.4645 10.7177 16.6038 10.3736 16.8612C10.0295 17.1185 9.77776 17.4801 9.65576 17.8921C9.53543 18.2859 9.33483 18.6504 9.0666 18.9628C8.79838 19.2752 8.46835 19.5286 8.09731 19.7071C7.72628 19.8856 7.32229 19.9853 6.91081 19.9999C6.49934 20.0145 6.08929 19.9437 5.70654 19.792C4.99975 19.5182 4.42317 18.9864 4.09321 18.304C3.76325 17.6217 3.70449 16.8395 3.92879 16.1155C4.15308 15.3915 4.64373 14.7795 5.30167 14.4032C5.95961 14.0268 6.73584 13.9142 7.47363 14.0879C7.88916 14.1884 8.32614 14.1509 8.71839 13.9808C9.11064 13.8108 9.4368 13.5175 9.64746 13.1455L10.083 12.3921C10.2975 12.0196 10.386 11.5879 10.3353 11.1611C10.2847 10.7343 10.0975 10.3353 9.80176 10.0234C9.52071 9.72245 9.30511 9.36647 9.16856 8.97797C9.03201 8.58947 8.97747 8.17688 9.00839 7.76624C9.03932 7.3556 9.15503 6.95583 9.34823 6.59216C9.54142 6.22849 9.8079 5.90882 10.1309 5.65331C10.7201 5.17907 11.467 4.94552 12.2215 4.99964C12.9759 5.05375 13.6819 5.39153 14.1974 5.94502C14.7129 6.49851 14.9997 7.22667 15.0001 7.98304C15.0006 8.73942 14.7146 9.4679 14.1997 10.022C13.9041 10.3342 13.717 10.7333 13.666 11.1602C13.6151 11.5872 13.7031 12.0191 13.917 12.3921L14.352 13.145C14.5635 13.5165 14.8897 13.8093 15.2818 13.9794C15.6739 14.1495 16.1107 14.1878 16.5264 14.0884C17.0354 13.9678 17.5672 13.983 18.0685 14.1325C18.5698 14.2819 19.0231 14.5604 19.3831 14.94C19.743 15.3196 19.997 15.787 20.1195 16.2956C20.2421 16.8042 20.229 17.336 20.0815 17.8379Z" fill="#414853"/>
</svg>
