<svg width="24" height="24" viewBox="0 0 24 24" fill="none" xmlns="http://www.w3.org/2000/svg">
<path d="M18 6.99998H17.65C17.8782 6.53274 17.9979 6.01996 18 5.49998C18.003 4.8033 17.7975 4.12167 17.4098 3.54281C17.0221 2.96395 16.4701 2.51436 15.8247 2.25192C15.1794 1.98947 14.4703 1.92618 13.7886 2.07019C13.107 2.2142 12.4841 2.55892 12 3.05998C11.5159 2.55892 10.893 2.2142 10.2114 2.07019C9.52975 1.92618 8.82061 1.98947 8.17525 2.25192C7.5299 2.51436 6.97786 2.96395 6.59019 3.54281C6.20252 4.12167 5.99697 4.8033 6 5.49998C6.00213 6.01996 6.12178 6.53274 6.35 6.99998H6C5.20435 6.99998 4.44129 7.31605 3.87868 7.87866C3.31607 8.44127 3 9.20433 3 9.99998V12C3 12.2652 3.10536 12.5195 3.29289 12.7071C3.48043 12.8946 3.73478 13 4 13H5V19C5 19.7956 5.31607 20.5587 5.87868 21.1213C6.44129 21.6839 7.20435 22 8 22H16C16.7956 22 17.5587 21.6839 18.1213 21.1213C18.6839 20.5587 19 19.7956 19 19V13H20C20.2652 13 20.5196 12.8946 20.7071 12.7071C20.8946 12.5195 21 12.2652 21 12V9.99998C21 9.20433 20.6839 8.44127 20.1213 7.87866C19.5587 7.31605 18.7956 6.99998 18 6.99998ZM11 20H8C7.73478 20 7.48043 19.8946 7.29289 19.7071C7.10536 19.5195 7 19.2652 7 19V13H11V20ZM11 11H5V9.99998C5 9.73476 5.10536 9.48041 5.29289 9.29287C5.48043 9.10533 5.73478 8.99998 6 8.99998H11V11ZM11 6.99998H9.5C9.20333 6.99998 8.91332 6.912 8.66665 6.74718C8.41997 6.58236 8.22771 6.34809 8.11418 6.074C8.00065 5.79991 7.97094 5.49831 8.02882 5.20734C8.0867 4.91637 8.22956 4.64909 8.43934 4.43932C8.64912 4.22954 8.91639 4.08668 9.20736 4.0288C9.49834 3.97092 9.79994 4.00063 10.074 4.11416C10.3481 4.22769 10.5824 4.41995 10.7472 4.66662C10.912 4.91329 11 5.2033 11 5.49998V6.99998ZM13 5.49998C13 5.2033 13.088 4.91329 13.2528 4.66662C13.4176 4.41995 13.6519 4.22769 13.926 4.11416C14.2001 4.00063 14.5017 3.97092 14.7926 4.0288C15.0836 4.08668 15.3509 4.22954 15.5607 4.43932C15.7704 4.64909 15.9133 4.91637 15.9712 5.20734C16.0291 5.49831 15.9994 5.79991 15.8858 6.074C15.7723 6.34809 15.58 6.58236 15.3334 6.74718C15.0867 6.912 14.7967 6.99998 14.5 6.99998H13V5.49998ZM17 19C17 19.2652 16.8946 19.5195 16.7071 19.7071C16.5196 19.8946 16.2652 20 16 20H13V13H17V19ZM19 11H13V8.99998H18C18.2652 8.99998 18.5196 9.10533 18.7071 9.29287C18.8946 9.48041 19 9.73476 19 9.99998V11Z" fill="#414853"/>
</svg>
