<svg width="24" height="24" viewBox="0 0 24 24" fill="none" xmlns="http://www.w3.org/2000/svg">
<path d="M21.9393 12.8654L20.8744 9.58564L20.8755 9.5901L20.8742 9.58501L20.8741 9.58477V9.5846L18.76 3.07594C18.7044 2.90862 18.597 2.76328 18.4535 2.66083C18.31 2.55838 18.1377 2.5041 17.9614 2.50581C17.7857 2.50483 17.6144 2.56015 17.4725 2.66367C17.3306 2.76718 17.2256 2.91344 17.1729 3.081L15.1662 9.25886H8.83437L6.82393 3.08058C6.77118 2.9131 6.66617 2.76692 6.52429 2.66348C6.38241 2.56003 6.21113 2.50475 6.03554 2.50575H6.03109C5.85476 2.5058 5.68293 2.56143 5.54002 2.66473C5.39712 2.76804 5.29042 2.91376 5.23509 3.08119L3.12685 9.58393L3.12655 9.58479V9.58491L3.12526 9.58991L3.12636 9.5854L2.05752 12.8654C1.97887 13.1058 1.97854 13.3651 2.05658 13.6057C2.13461 13.8463 2.28699 14.056 2.49178 14.2046L11.7208 20.9101L11.7251 20.9128L11.7368 20.9211L11.7258 20.9133L11.7258 20.9132L11.7277 20.9144L11.7293 20.9154L11.7295 20.9155C11.7438 20.9254 11.7586 20.9345 11.7739 20.9428L11.7801 20.9466L11.7802 20.9467L11.784 20.9488L11.787 20.95L11.7892 20.9509L11.7945 20.9531L11.8192 20.9635L11.8424 20.9732L11.8434 20.9736L11.8472 20.9752L11.8521 20.9769L11.8541 20.9774L11.8605 20.979L11.8629 20.9795C11.874 20.9829 11.8855 20.9853 11.897 20.9879L11.9103 20.9911L11.9122 20.9916L11.9166 20.9926L11.9239 20.9941L11.9297 20.9946L11.9307 20.9947H11.931C11.953 20.998 11.9751 20.9998 11.9973 21H11.9981C12.0204 20.9998 12.0426 20.998 12.0645 20.9947H12.0648L12.0659 20.9946L12.0718 20.9942L12.0791 20.9926L12.0835 20.9916L12.0854 20.9911L12.099 20.9878L12.1326 20.9796L12.1349 20.9791L12.1415 20.9775L12.1435 20.977L12.1485 20.9752L12.1523 20.9736L12.1533 20.9732L12.1778 20.963L12.2006 20.9534L12.2061 20.9511L12.2084 20.9502L12.2115 20.9489L12.2155 20.9467L12.2155 20.9466L12.2219 20.9427C12.2371 20.9345 12.2518 20.9254 12.2661 20.9156L12.2697 20.9134L12.2706 20.9128L12.2749 20.9101L21.5053 14.2045C21.71 14.0559 21.8624 13.8463 21.9403 13.6056C22.0183 13.365 22.018 13.1058 21.9393 12.8654ZM17.9673 3.68568L19.7774 9.25886H16.157L17.9673 3.68568ZM6.02981 3.68562L7.84334 9.25886H4.22302L6.02981 3.68562ZM3.04602 13.4424C3.00243 13.4107 2.97002 13.366 2.95345 13.3147C2.93688 13.2634 2.937 13.2081 2.9538 13.1569L3.74829 10.7186L9.57013 18.1826L3.04602 13.4424ZM4.54002 10.2013H8.14982L10.7232 18.1287L4.54002 10.2013ZM11.7047 20.8977L11.6993 20.8931L11.6982 20.8921L11.6877 20.8831L11.6681 20.8651L11.6697 20.8664L11.6719 20.8683C11.6854 20.8812 11.6996 20.8933 11.7145 20.9046L11.715 20.9049L11.717 20.9067L11.7047 20.8977ZM11.9982 19.0039L10.4839 14.3392L9.14052 10.2013H14.8599L11.9982 19.0039ZM12.3081 20.8831L12.2976 20.8922L12.2964 20.8933L12.2911 20.8978L12.2789 20.9068L12.2809 20.9051L12.2812 20.9048C12.2961 20.8936 12.3103 20.8816 12.3236 20.8686L12.3254 20.8672L12.3275 20.8654L12.3081 20.8831ZM15.8509 10.2013H19.4605L18.7218 11.1477L13.2738 18.1282L15.8509 10.2013ZM20.9512 13.4422L14.428 18.1811L20.2518 10.7192L21.0431 13.1564C21.06 13.2077 21.0601 13.2629 21.0436 13.3143C21.0271 13.3656 20.9947 13.4104 20.9511 13.4422H20.9512Z" fill="#414853"/>
</svg>
