<svg width="24" height="24" viewBox="0 0 24 24" fill="none" xmlns="http://www.w3.org/2000/svg">
<path d="M19.7099 16.29L5.70994 2.29C5.52164 2.1017 5.26624 1.99591 4.99994 1.99591C4.73364 1.99591 4.47824 2.1017 4.28994 2.29C4.10164 2.47831 3.99585 2.7337 3.99585 3C3.99585 3.2663 4.10164 3.5217 4.28994 3.71L6.58994 6H4.99994C4.81145 6.00054 4.62696 6.05433 4.46772 6.15518C4.30848 6.25603 4.18099 6.39983 4.09994 6.57C4.02968 6.7324 4.00377 6.91053 4.02485 7.08621C4.04594 7.2619 4.11326 7.42884 4.21994 7.57L10.9999 16.1V20H6.74994C6.48472 20 6.23037 20.1054 6.04283 20.2929C5.8553 20.4804 5.74994 20.7348 5.74994 21C5.74994 21.2652 5.8553 21.5196 6.04283 21.7071C6.23037 21.8946 6.48472 22 6.74994 22H17.2499C17.5152 22 17.7695 21.8946 17.957 21.7071C18.1446 21.5196 18.2499 21.2652 18.2499 21C18.2499 20.7348 18.1446 20.4804 17.957 20.2929C17.7695 20.1054 17.5152 20 17.2499 20H12.9999V16.1L14.6399 14.1L18.2899 17.75C18.3829 17.8437 18.4935 17.9181 18.6154 17.9689C18.7372 18.0197 18.8679 18.0458 18.9999 18.0458C19.132 18.0458 19.2627 18.0197 19.3845 17.9689C19.5064 17.9181 19.617 17.8437 19.7099 17.75C19.8099 17.6565 19.8895 17.5434 19.9439 17.4178C19.9984 17.2923 20.0265 17.1569 20.0265 17.02C20.0265 16.8831 19.9984 16.7477 19.9439 16.6222C19.8895 16.4966 19.8099 16.3835 19.7099 16.29ZM7.07994 8H8.58994L10.4799 9.89H8.58994L7.07994 8ZM11.9999 14.15L10.1899 11.89H12.4799L13.2199 12.63L11.9999 14.15ZM14.6599 8H16.9199L16.2899 8.79C16.1253 8.99599 16.0487 9.25868 16.0768 9.52088C16.1049 9.78308 16.2354 10.0236 16.4399 10.19C16.6186 10.3333 16.8409 10.411 17.0699 10.41C17.2193 10.4105 17.3669 10.3775 17.5019 10.3135C17.6369 10.2495 17.7558 10.156 17.8499 10.04L19.7799 7.62C19.8866 7.47884 19.9539 7.3119 19.975 7.13621C19.9961 6.96053 19.9702 6.7824 19.8999 6.62C19.8263 6.44048 19.7019 6.28627 19.5421 6.17618C19.3823 6.06609 19.1939 6.00488 18.9999 6H14.6599C14.3947 6 14.1404 6.10536 13.9528 6.2929C13.7653 6.48043 13.6599 6.73479 13.6599 7C13.6599 7.26522 13.7653 7.51957 13.9528 7.70711C14.1404 7.89465 14.3947 8 14.6599 8Z" fill="#414853"/>
</svg>
