<svg width="24" height="24" viewBox="0 0 24 24" fill="none" xmlns="http://www.w3.org/2000/svg">
<path d="M13.2305 2.00345C12.2254 1.96517 11.2232 2.13296 10.2854 2.49647C9.34756 2.85999 8.49406 3.41155 7.77737 4.11722C7.05408 4.81426 6.47941 5.65054 6.08802 6.57564C5.69663 7.50075 5.49661 8.49554 5.50003 9.50003V9.5303L3.59573 13.5738C3.52376 13.7261 3.49149 13.8942 3.50191 14.0624C3.51234 14.2306 3.56513 14.3934 3.65536 14.5358C3.7456 14.6781 3.87035 14.7953 4.01803 14.8764C4.16571 14.9576 4.33151 15.0001 4.50003 15H5.50003V17C5.50063 17.5303 5.71154 18.0386 6.08648 18.4136C6.46142 18.7885 6.96978 18.9994 7.50003 19H8.50003V21C8.50003 21.2652 8.60538 21.5196 8.79292 21.7071C8.98046 21.8947 9.23481 22 9.50003 22C9.76524 22 10.0196 21.8947 10.2071 21.7071C10.3947 21.5196 10.5 21.2652 10.5 21V19C10.7652 19 11.0196 18.8947 11.2071 18.7071C11.3947 18.5196 11.5 18.2652 11.5 18C11.5 17.7348 11.3947 17.4805 11.2071 17.2929C11.0196 17.1054 10.7652 17 10.5 17H7.50003V14C7.50006 13.8687 7.47422 13.7386 7.42398 13.6173C7.37373 13.496 7.30008 13.3857 7.20721 13.2928C7.11435 13.2 7.00409 13.1263 6.88275 13.0761C6.76141 13.0258 6.63136 13 6.50003 13H6.0762L7.41603 10.1558C7.48472 10.011 7.51722 9.85161 7.51075 9.69144C7.51075 9.68118 7.50099 9.51028 7.50001 9.50003C7.49742 8.76342 7.64406 8.03391 7.93106 7.35551C8.21807 6.67711 8.6395 6.06387 9.16995 5.55276C9.69971 5.0408 10.3265 4.63992 11.0134 4.37369C11.7003 4.10745 12.4335 3.98124 13.1699 4.00247C14.6302 4.09358 15.9991 4.74415 16.9918 5.81885C17.9846 6.89356 18.5248 8.30963 18.5 9.77249L16.5332 17.2774C16.4873 17.4526 16.4893 17.6369 16.5391 17.8111L17.5391 21.2774C17.5994 21.4857 17.7256 21.6688 17.8989 21.7992C18.0722 21.9297 18.2832 22.0003 18.5 22.0005C18.5939 22.0002 18.6872 21.9869 18.7774 21.961C19.0322 21.8874 19.2473 21.7156 19.3755 21.4834C19.5037 21.2512 19.5344 20.9775 19.461 20.7227L18.5371 17.5225L20.4668 10.2564C20.4886 10.1727 20.4998 10.0865 20.5 10V9.77249C20.5214 7.79073 19.7776 5.87708 18.4235 4.42993C17.0694 2.98279 15.2093 2.11364 13.2305 2.00345Z" fill="#414853"/>
</svg>
