<svg width="24" height="24" viewBox="0 0 24 24" fill="none" xmlns="http://www.w3.org/2000/svg">
<path d="M4.29291 20.2929C4.15305 20.4327 4.05781 20.6109 4.01922 20.8049C3.98063 20.9989 4.00043 21.1999 4.07612 21.3827C4.1518 21.5654 4.27997 21.7216 4.44443 21.8315C4.60888 21.9414 4.80222 22 5 22C5.19778 22 5.39113 21.9414 5.55558 21.8315C5.72003 21.7216 5.8482 21.5654 5.92388 21.3827C5.99957 21.1999 6.01937 20.9989 5.98078 20.8049C5.94219 20.6109 5.84695 20.4327 5.70709 20.2929C5.61424 20.2 5.50401 20.1263 5.38268 20.0761C5.26136 20.0258 5.13132 20 5 20C4.86868 20 4.73864 20.0258 4.61732 20.0761C4.496 20.1263 4.38576 20.2 4.29291 20.2929ZM1.29291 17.2929C1.15305 17.4327 1.05781 17.6109 1.01922 17.8049C0.98063 17.9989 1.00043 18.1999 1.07612 18.3827C1.1518 18.5654 1.27998 18.7216 1.44443 18.8315C1.60888 18.9414 1.80222 19 2 19C2.19778 19 2.39113 18.9414 2.55558 18.8315C2.72003 18.7216 2.8482 18.5654 2.92388 18.3827C2.99957 18.1999 3.01937 17.9989 2.98078 17.8049C2.94219 17.6109 2.84695 17.4327 2.70709 17.2929C2.61424 17.2 2.50401 17.1263 2.38268 17.0761C2.26136 17.0258 2.13132 17 2 17C1.86868 17 1.73864 17.0258 1.61732 17.0761C1.49599 17.1263 1.38576 17.2 1.29291 17.2929ZM5.29291 16.2922C5.15305 16.432 5.05781 16.6102 5.01922 16.8042C4.98063 16.9981 5.00043 17.1992 5.07612 17.3819C5.1518 17.5647 5.27997 17.7209 5.44443 17.8307C5.60888 17.9406 5.80222 17.9993 6 17.9993C6.19778 17.9993 6.39113 17.9406 6.55558 17.8307C6.72003 17.7209 6.8482 17.5647 6.92388 17.3819C6.99957 17.1992 7.01937 16.9981 6.98078 16.8042C6.94219 16.6102 6.84695 16.432 6.70709 16.2922C6.61424 16.1993 6.50401 16.1256 6.38268 16.0754C6.26136 16.0251 6.13132 15.9992 6 15.9992C5.86868 15.9992 5.73864 16.0251 5.61732 16.0754C5.496 16.1256 5.38576 16.1993 5.29291 16.2922ZM16.1504 2.00339C15.2046 1.97435 14.2625 2.13554 13.3802 2.47741C12.4978 2.81928 11.6931 3.33486 11.0138 3.99358C10.3344 4.65229 9.7943 5.44073 9.42539 6.31213C9.05649 7.18352 8.86633 8.12012 8.86621 9.06639V9.08197L7.0957 12.8403C7.02373 12.9927 6.99146 13.1608 7.00188 13.329C7.01231 13.4972 7.06509 13.66 7.15533 13.8023C7.24556 13.9446 7.37032 14.0618 7.518 14.143C7.66568 14.2242 7.83148 14.2667 8 14.2666H8.86621V16.0664C8.86672 16.579 9.07059 17.0706 9.4331 17.4331C9.79561 17.7956 10.2871 17.9995 10.7998 18H11.667V19.7998C11.667 20.065 11.7724 20.3193 11.9599 20.5069C12.1474 20.6944 12.4018 20.7998 12.667 20.7998C12.9322 20.7998 13.1866 20.6944 13.3741 20.5069C13.5616 20.3193 13.667 20.065 13.667 19.7998V17.9864C13.9253 17.9703 14.1672 17.8541 14.3412 17.6626C14.5153 17.471 14.6077 17.2191 14.5989 16.9604C14.5902 16.7017 14.4809 16.4567 14.2942 16.2773C14.1076 16.098 13.8584 15.9985 13.5996 16L12.7672 16.0202C12.7342 16.0116 12.7007 16.0049 12.667 16C12.6239 16.0056 12.5813 16.0142 12.5394 16.0257L10.8662 16.0664V13.2666C10.8663 13.1352 10.8404 13.0052 10.7902 12.8838C10.7399 12.7625 10.6663 12.6523 10.5734 12.5594C10.4805 12.4665 10.3703 12.3929 10.2489 12.3426C10.1276 12.2924 9.99755 12.2665 9.86622 12.2666H9.57715L10.7822 9.70749C10.8514 9.56177 10.8839 9.40135 10.877 9.2402C10.877 9.22946 10.8672 9.07761 10.8662 9.06638C10.8639 8.38792 10.9989 7.716 11.2633 7.09115C11.5276 6.46629 11.9158 5.90144 12.4043 5.43063C12.8924 4.95893 13.4699 4.58958 14.1028 4.34431C14.7358 4.09904 15.4113 3.98279 16.0898 4.00241C17.4355 4.08672 18.6968 4.68663 19.6114 5.67732C20.5259 6.668 21.0233 7.97317 21 9.32126L19.167 16.3086C19.1211 16.4836 19.1231 16.6678 19.1729 16.8418L20.1055 20.0766C20.1655 20.2851 20.2917 20.4685 20.465 20.599C20.6384 20.7295 20.8494 20.8002 21.0664 20.8003C21.1602 20.7999 21.2536 20.7866 21.3438 20.7607C21.5985 20.6872 21.8137 20.5155 21.9419 20.2834C22.0701 20.0513 22.1008 19.7777 22.0273 19.5229L21.1709 16.5537L22.9668 9.78952C22.9886 9.7058 22.9997 9.61967 23 9.53317V9.32126C23.0198 7.45431 22.3187 5.65167 21.0429 4.28858C19.767 2.92548 18.0146 2.10696 16.1504 2.00339Z" fill="#414853"/>
</svg>
