<svg width="24" height="24" viewBox="0 0 24 24" fill="none" xmlns="http://www.w3.org/2000/svg">
<path d="M11.022 1.99998H9.02205C8.75683 1.99998 8.50248 2.10534 8.31494 2.29287C8.12741 2.48041 8.02205 2.73476 8.02205 2.99998C8.02205 3.2652 8.12741 3.51955 8.31494 3.70709C8.50248 3.89462 8.75683 3.99998 9.02205 3.99998V5.99998H7.83776C7.95632 5.67975 8.01867 5.34144 8.02205 4.99998C8.02208 4.33955 7.80419 3.69756 7.40215 3.17359C7.00012 2.64963 6.43642 2.27297 5.79849 2.10204C5.16056 1.93111 4.48406 1.97546 3.87391 2.22822C3.26375 2.48097 2.75406 2.92801 2.42388 3.49998C2.35814 3.61374 2.31545 3.73933 2.29827 3.86959C2.28108 3.99984 2.28973 4.13221 2.32371 4.25913C2.35769 4.38604 2.41635 4.50502 2.49633 4.60925C2.57631 4.71349 2.67604 4.80095 2.78983 4.86663C2.90362 4.93232 3.02924 4.97493 3.1595 4.99206C3.28977 5.00918 3.42213 5.00046 3.54903 4.96641C3.67593 4.93236 3.79487 4.87365 3.89907 4.79361C4.00327 4.71358 4.09067 4.6138 4.1563 4.49998C4.24418 4.34812 4.3704 4.222 4.52234 4.13425C4.67427 4.0465 4.84659 4.0002 5.02205 3.99998C5.28726 3.99998 5.54162 4.10534 5.72916 4.29287C5.91669 4.48041 6.02205 4.73476 6.02205 4.99998C6.02205 5.2652 5.91669 5.51955 5.72916 5.70709C5.54162 5.89462 5.28726 5.99998 5.02205 5.99998C4.75683 5.99998 4.50248 6.10534 4.31494 6.29287C4.12741 6.48041 4.02205 6.73476 4.02205 6.99998C4.02205 7.2652 4.12741 7.51955 4.31494 7.70709C4.50248 7.89462 4.75683 7.99998 5.02205 7.99998C5.28726 7.99998 5.54162 8.10534 5.72916 8.29287C5.91669 8.48041 6.02205 8.73476 6.02205 8.99998C6.02205 9.2652 5.91669 9.51955 5.72916 9.70709C5.54162 9.89462 5.28726 9.99998 5.02205 9.99998C4.8466 9.99975 4.67428 9.95345 4.52235 9.8657C4.37042 9.77795 4.2442 9.65184 4.15633 9.49998C4.0907 9.38616 4.0033 9.28638 3.8991 9.20635C3.7949 9.12631 3.67596 9.0676 3.54906 9.03355C3.42216 8.9995 3.2898 8.99078 3.15953 9.00791C3.02927 9.02503 2.90365 9.06764 2.78986 9.13333C2.67607 9.19901 2.57634 9.28647 2.49636 9.39071C2.41638 9.49495 2.35772 9.61392 2.32374 9.74083C2.28976 9.86775 2.28111 10.0001 2.2983 10.1304C2.31548 10.2606 2.35817 10.3862 2.42391 10.5C2.7541 11.0719 3.26379 11.519 3.87394 11.7717C4.48408 12.0245 5.16058 12.0688 5.7985 11.8979C6.43642 11.7269 7.00011 11.3503 7.40214 10.8263C7.80417 10.3024 8.02207 9.6604 8.02205 8.99998C8.01867 8.65852 7.95634 8.32022 7.83779 7.99998H9.02205V11C9.02205 11.2652 9.12741 11.5196 9.31494 11.7071C9.50248 11.8946 9.75683 12 10.022 12C10.2873 12 10.5416 11.8946 10.7292 11.7071C10.9167 11.5196 11.022 11.2652 11.022 11V3.99998C11.2873 3.99998 11.5416 3.89462 11.7292 3.70709C11.9167 3.51955 12.022 3.2652 12.022 2.99998C12.022 2.73476 11.9167 2.48041 11.7292 2.29287C11.5416 2.10534 11.2873 1.99998 11.022 1.99998ZM14.022 6.99998H15.022C15.2872 7.00032 15.5413 7.10579 15.7288 7.29325C15.9162 7.48072 16.0217 7.73487 16.022 7.99998V8.99998C16.022 9.2652 16.1274 9.51955 16.3149 9.70709C16.5025 9.89462 16.7568 9.99998 17.022 9.99998C17.2873 9.99998 17.5416 9.89462 17.7292 9.70709C17.9167 9.51955 18.022 9.2652 18.022 8.99998V7.99998C18.0212 7.2046 17.7048 6.44204 17.1424 5.87962C16.58 5.3172 15.8174 5.00085 15.022 4.99998H14.022C13.7568 4.99998 13.5025 5.10534 13.3149 5.29287C13.1274 5.48041 13.022 5.73476 13.022 5.99998C13.022 6.2652 13.1274 6.51955 13.3149 6.70709C13.5025 6.89462 13.7568 6.99998 14.022 6.99998ZM10.022 16H9.02205C8.75694 15.9996 8.50278 15.8942 8.31532 15.7067C8.12786 15.5192 8.02239 15.2651 8.02205 15V14C8.02205 13.7348 7.91669 13.4804 7.72916 13.2929C7.54162 13.1053 7.28726 13 7.02205 13C6.75683 13 6.50248 13.1053 6.31494 13.2929C6.12741 13.4804 6.02205 13.7348 6.02205 14V15C6.02292 15.7954 6.33927 16.5579 6.90169 17.1203C7.46411 17.6828 8.22667 17.9991 9.02205 18H10.022C10.2873 18 10.5416 17.8946 10.7292 17.7071C10.9167 17.5196 11.022 17.2652 11.022 17C11.022 16.7348 10.9167 16.4804 10.7292 16.2929C10.5416 16.1053 10.2873 16 10.022 16ZM21.022 15C21.2873 15 21.5416 14.8946 21.7292 14.7071C21.9167 14.5196 22.022 14.2652 22.022 14C22.022 13.7348 21.9167 13.4804 21.7292 13.2929C21.5416 13.1053 21.2873 13 21.022 13H18.022V12.5C18.022 12.2348 17.9167 11.9804 17.7292 11.7929C17.5416 11.6053 17.2873 11.5 17.022 11.5C16.7568 11.5 16.5025 11.6053 16.3149 11.7929C16.1274 11.9804 16.022 12.2348 16.022 12.5V13H13.022C12.7568 13 12.5025 13.1053 12.3149 13.2929C12.1274 13.4804 12.022 13.7348 12.022 14C12.022 14.2652 12.1274 14.5196 12.3149 14.7071C12.5025 14.8946 12.7568 15 13.022 15H18.2063C17.9801 15.919 17.5625 16.78 16.9808 17.5267C16.7428 17.2181 16.5322 16.8893 16.3516 16.5439C16.2917 16.4271 16.2094 16.3232 16.1094 16.2382C16.0094 16.1532 15.8936 16.0887 15.7686 16.0484C15.6436 16.0082 15.512 15.9929 15.3811 16.0035C15.2503 16.0142 15.1228 16.0504 15.0059 16.1103C14.8891 16.1702 14.7852 16.2525 14.7002 16.3526C14.6152 16.4526 14.5507 16.5684 14.5104 16.6934C14.4291 16.9457 14.4514 17.2201 14.5723 17.456C14.8417 17.9765 15.163 18.4683 15.5314 18.924C14.8059 19.4508 13.9809 19.8247 13.1065 20.023C12.8478 20.08 12.6224 20.2374 12.4796 20.4605C12.3368 20.6836 12.2884 20.9542 12.3449 21.213C12.4014 21.4717 12.5582 21.6975 12.781 21.8408C13.0038 21.984 13.2744 22.0331 13.5332 21.9771C14.7879 21.6996 15.9649 21.1456 16.9782 20.3554C18.0001 21.146 19.1848 21.6997 20.4468 21.9766C20.5751 22.0049 20.7076 22.0076 20.8369 21.9847C20.9662 21.9617 21.0897 21.9135 21.2004 21.8428C21.3111 21.7721 21.4068 21.6803 21.482 21.5727C21.5572 21.465 21.6104 21.3436 21.6387 21.2154C21.667 21.0871 21.6697 20.9546 21.6468 20.8253C21.6238 20.696 21.5756 20.5724 21.5049 20.4618C21.4343 20.3511 21.3425 20.2554 21.2348 20.1802C21.1271 20.105 21.0057 20.0518 20.8775 20.0235C19.9973 19.8278 19.1654 19.4571 18.4314 18.9334C19.3561 17.7951 19.9793 16.4424 20.2438 15H21.022Z" fill="#414853"/>
</svg>
