<svg width="24" height="24" viewBox="0 0 24 24" fill="none" xmlns="http://www.w3.org/2000/svg">
<path d="M21.6641 10.2524L12.6641 2.25244C12.4812 2.08968 12.2448 1.99976 12 1.99976C11.7552 1.99976 11.5189 2.08968 11.3359 2.25244L2.33594 10.2524C2.13768 10.4286 2.0175 10.6762 2.00184 10.941C1.98618 11.2057 2.07632 11.4658 2.25244 11.6641C2.42856 11.8623 2.67623 11.9825 2.94096 11.9982C3.20569 12.0138 3.4658 11.9237 3.66406 11.7476L4 11.449V21C3.99997 21.1313 4.02581 21.2614 4.07605 21.3827C4.1263 21.5041 4.19996 21.6143 4.29282 21.7072C4.38569 21.8 4.49594 21.8737 4.61728 21.9239C4.73862 21.9742 4.86867 22 5 22H19C19.1313 22 19.2614 21.9742 19.3827 21.9239C19.5041 21.8737 19.6143 21.8 19.7072 21.7072C19.8001 21.6143 19.8737 21.5041 19.924 21.3827C19.9742 21.2614 20 21.1313 20 21V11.449L20.3359 11.7476C20.4341 11.8348 20.5485 11.9018 20.6726 11.9448C20.7966 11.9878 20.928 12.0059 21.059 11.9982C21.1901 11.9904 21.3184 11.9569 21.4365 11.8996C21.5547 11.8423 21.6604 11.7623 21.7476 11.6641C21.8348 11.5659 21.9018 11.4515 21.9448 11.3275C21.9878 11.2034 22.0059 11.0721 21.9982 10.941C21.9904 10.8099 21.9569 10.6816 21.8996 10.5635C21.8423 10.4454 21.7622 10.3397 21.6641 10.2525V10.2524ZM9.18427 20C9.38807 19.4157 9.76861 18.9092 10.2731 18.5509C10.7777 18.1925 11.3812 18 12 18C12.6188 18 13.2224 18.1925 13.7269 18.5509C14.2314 18.9092 14.6119 19.4157 14.8157 20H9.18427ZM10.5 14.5C10.5 14.2033 10.588 13.9133 10.7528 13.6666C10.9176 13.42 11.1519 13.2277 11.426 13.1142C11.7001 13.0006 12.0017 12.9709 12.2926 13.0288C12.5836 13.0867 12.8509 13.2296 13.0607 13.4393C13.2704 13.6491 13.4133 13.9164 13.4712 14.2074C13.5291 14.4983 13.4994 14.7999 13.3858 15.074C13.2723 15.3481 13.08 15.5824 12.8334 15.7472C12.5867 15.912 12.2967 16 12 16C11.6023 15.9996 11.221 15.8414 10.9398 15.5602C10.6586 15.279 10.5004 14.8977 10.5 14.5ZM18 20H16.8989C16.7607 19.337 16.4892 18.709 16.1009 18.1541C15.7126 17.5992 15.2157 17.1289 14.6403 16.7718C15.1913 16.1429 15.4966 15.3361 15.5 14.5C15.5 13.5717 15.1313 12.6815 14.4749 12.0251C13.8185 11.3687 12.9283 11 12 11C11.0717 11 10.1815 11.3687 9.52513 12.0251C8.86875 12.6815 8.5 13.5717 8.5 14.5C8.50339 15.3361 8.8087 16.1429 9.35974 16.7718C8.78429 17.1289 8.28736 17.5992 7.8991 18.1541C7.51084 18.709 7.23935 19.337 7.10107 20H6V9.6712L12 4.33789L18 9.6712V20Z" fill="#414853"/>
</svg>
