<svg width="24" height="24" viewBox="0 0 24 24" fill="none" xmlns="http://www.w3.org/2000/svg">
<path d="M18 2.77999C17.9492 2.55441 17.8218 2.35341 17.6395 2.21119C17.4571 2.06898 17.2312 1.99434 17 1.99999H7C6.76884 1.99434 6.54286 2.06898 6.36054 2.21119C6.17821 2.35341 6.0508 2.55441 6 2.77999L4 11.78C3.96689 11.9276 3.96768 12.0807 4.00232 12.228C4.03696 12.3752 4.10455 12.5127 4.2 12.63C4.29622 12.7487 4.41836 12.8438 4.55704 12.9079C4.69572 12.972 4.84725 13.0035 5 13H8.94C8.98021 13.3318 9.00025 13.6658 9 14C9.00936 16.3571 8.0854 18.622 6.43 20.3C6.29239 20.4404 6.19922 20.6182 6.16211 20.8113C6.12501 21.0043 6.14562 21.204 6.22138 21.3854C6.29714 21.5668 6.42468 21.7218 6.58806 21.8311C6.75145 21.9404 6.94342 21.9992 7.14 22H16.86C17.0566 21.9992 17.2486 21.9404 17.4119 21.8311C17.5753 21.7218 17.7029 21.5668 17.7786 21.3854C17.8544 21.204 17.875 21.0043 17.8379 20.8113C17.8008 20.6182 17.7076 20.4404 17.57 20.3C15.9146 18.622 14.9906 16.3571 15 14C14.9998 13.6658 15.0198 13.3318 15.06 13H16V15C16 15.2652 16.1054 15.5196 16.2929 15.7071C16.4804 15.8946 16.7348 16 17 16C17.2652 16 17.5196 15.8946 17.7071 15.7071C17.8946 15.5196 18 15.2652 18 15V13H19C19.1494 13.0005 19.297 12.9675 19.432 12.9035C19.567 12.8395 19.6859 12.746 19.78 12.63C19.8755 12.5127 19.943 12.3752 19.9777 12.228C20.0123 12.0807 20.0131 11.9276 19.98 11.78L18 2.77999ZM9.22 20C10.3871 18.217 11.0059 16.131 11 14C11 13.67 11 13.33 10.95 13H13.05C13.05 13.33 13 13.67 13 14C12.9941 16.131 13.6129 18.217 14.78 20H9.22ZM6.22 11L7.8 3.99999H16.2L17.75 11H6.22Z" fill="#414853"/>
</svg>
