<svg width="24" height="24" viewBox="0 0 24 24" fill="none" xmlns="http://www.w3.org/2000/svg">
<path d="M20.4717 11.9971C20.0361 11.3304 19.4436 10.7808 18.7461 10.3966C18.0486 10.0123 17.2674 9.80518 16.4712 9.79328C16.4594 9.44857 16.4158 9.10568 16.3408 8.76901C16.2796 8.51105 16.1183 8.28798 15.8926 8.14889C15.6669 8.00979 15.3952 7.96606 15.1372 8.02732C14.8792 8.08857 14.6562 8.24979 14.5171 8.47551C14.378 8.70123 14.3342 8.97297 14.3955 9.23093C14.4402 9.42865 14.4678 9.62982 14.4782 9.83225C13.3627 9.97034 12.2687 10.2464 11.2212 10.6541C11.2437 9.45029 11.298 8.24686 11.4179 7.04685L11.4562 6.66464C12.6279 6.50498 13.7902 6.28328 14.9384 6.00046L15.0585 5.97067C15.1866 5.9397 15.3073 5.88372 15.4137 5.80595C15.5201 5.72818 15.61 5.63015 15.6784 5.5175C15.7468 5.40485 15.7922 5.2798 15.8121 5.14953C15.8319 5.01927 15.8259 4.88636 15.7942 4.75845C15.7626 4.63053 15.7059 4.51014 15.6276 4.40418C15.5493 4.29822 15.4508 4.20879 15.3377 4.14103C15.2247 4.07327 15.0994 4.02851 14.9691 4.00933C14.8387 3.99015 14.7058 3.99693 14.5781 4.02927L14.456 4.05954C13.5344 4.29001 12.6004 4.46402 11.6621 4.61014L11.8134 3.09958C11.8265 2.9689 11.8137 2.83692 11.7758 2.71118C11.7379 2.58544 11.6756 2.4684 11.5924 2.36675C11.5092 2.26509 11.4069 2.18081 11.2912 2.11872C11.1754 2.05662 11.0486 2.01793 10.9179 2.00485C10.7872 1.99177 10.6553 2.00456 10.5295 2.04248C10.4038 2.08041 10.2867 2.14272 10.1851 2.22588C9.97979 2.39382 9.84961 2.63644 9.82319 2.90036L9.62699 4.85963C8.69311 4.94337 7.75664 5.00001 6.81835 5.00001C6.55314 5.00001 6.29878 5.10537 6.11125 5.2929C5.92371 5.48044 5.81835 5.73479 5.81835 6.00001C5.81835 6.26523 5.92371 6.51958 6.11125 6.70712C6.29878 6.89465 6.55314 7.00001 6.81835 7.00001C7.68889 7.00001 8.55785 6.95362 9.42516 6.88581C9.27852 8.44742 9.21071 10.0154 9.22199 11.5839C9.08778 11.6571 8.95234 11.726 8.81935 11.8032C8.13914 12.193 7.48773 12.6309 6.87013 13.1138L6.84767 13.1319C5.84457 13.9057 4.95331 14.8145 4.19923 15.8325C3.84992 16.3165 3.65267 16.8935 3.63267 17.4901C3.61267 18.0866 3.7708 18.6756 4.08691 19.1818C4.40302 19.6881 4.86278 20.0888 5.40753 20.3327C5.95228 20.5766 6.55734 20.6527 7.14552 20.5513C8.13828 20.3627 9.09565 20.0209 9.98327 19.5379C10.1067 19.7319 10.2935 19.8773 10.512 19.9492C10.7304 20.0211 10.967 20.0152 11.1816 19.9324C11.3962 19.8497 11.5755 19.6952 11.689 19.4952C11.8026 19.2953 11.8435 19.0621 11.8047 18.8355C11.7805 18.6903 11.7693 18.5435 11.7466 18.3981C12.2085 18.0411 12.6474 17.6552 13.0606 17.2427C13.8776 16.429 14.5842 15.5115 15.1623 14.5137C15.1851 14.4742 15.2044 14.4346 15.2267 14.395C15.3447 14.1845 15.4561 13.973 15.5585 13.7601C15.6123 13.649 15.6608 13.5384 15.71 13.4273C15.77 13.291 15.8272 13.1551 15.8805 13.0185C15.937 12.8748 15.9903 12.7318 16.039 12.5888C16.0713 12.4929 16.0995 12.3975 16.1284 12.3018C16.1798 12.133 16.2302 11.9647 16.2704 11.7976L16.2754 11.7798C16.7537 11.7729 17.2268 11.8799 17.6556 12.092C18.0844 12.3041 18.4565 12.6152 18.7413 12.9995C19.7598 14.7666 17.7784 17.9765 14.3243 20.1543C14.2128 20.2241 14.1162 20.3153 14.04 20.4225C13.9637 20.5297 13.9095 20.6509 13.8802 20.7792C13.8509 20.9074 13.8472 21.0402 13.8694 21.1699C13.8915 21.2995 13.939 21.4236 14.0092 21.5349C14.0793 21.6461 14.1708 21.7425 14.2782 21.8183C14.3857 21.8942 14.5071 21.9481 14.6354 21.977C14.7637 22.0059 14.8965 22.0092 15.0261 21.9866C15.1557 21.9641 15.2796 21.9162 15.3907 21.8457C19.8896 19.0098 22.0742 14.7774 20.4717 11.9971ZM6.79589 18.5825C6.60034 18.6142 6.3998 18.5873 6.21948 18.5053C6.03915 18.4233 5.8871 18.2898 5.78242 18.1216C5.67775 17.9535 5.62513 17.7581 5.63117 17.5601C5.63722 17.3621 5.70166 17.1703 5.8164 17.0088C6.46975 16.133 7.24067 15.3514 8.1074 14.6861L8.13377 14.6646C8.48765 14.3876 8.87577 14.1256 9.27777 13.8716C9.33887 15.0669 9.45062 16.2584 9.6037 17.4465C8.7466 17.9965 7.79436 18.3818 6.79589 18.5825ZM14.1257 11.9995C14.0338 12.2653 13.9283 12.5261 13.8095 12.7809C13.7539 12.8998 13.6915 13.0186 13.6293 13.1378C13.5332 13.3235 13.4297 13.5083 13.3187 13.6922C13.2341 13.8317 13.1468 13.971 13.0536 14.1096C12.6412 14.7267 12.17 15.3024 11.6465 15.8286C11.5767 15.8984 11.503 15.9619 11.4319 16.0296C11.3231 14.9646 11.2527 13.897 11.2206 12.8268C12.1584 12.396 13.1459 12.0828 14.1606 11.8945C14.149 11.9295 14.1379 11.9644 14.1257 11.9995V11.9995Z" fill="#414853"/>
</svg>
