<svg width="24" height="24" viewBox="0 0 24 24" fill="none" xmlns="http://www.w3.org/2000/svg">
<path d="M20.022 3H15.022C14.7568 3 14.5024 3.10536 14.3149 3.29289C14.1274 3.48043 14.022 3.73478 14.022 4C14.022 4.26522 14.1274 4.51957 14.3149 4.70711C14.5024 4.89464 14.7568 5 15.022 5H16.522V11H11.5721C12.2335 10.1394 12.5939 9.08538 12.5977 8C12.5976 6.89934 12.2344 5.82945 11.5644 4.95624C10.8944 4.08304 9.95491 3.45533 8.89176 3.17045C7.8286 2.88558 6.70116 2.95947 5.68428 3.38066C4.66741 3.80186 3.81792 4.54681 3.26757 5.5C3.20111 5.61372 3.15778 5.73946 3.14006 5.86998C3.12235 6.0005 3.1306 6.13324 3.16435 6.26056C3.19809 6.38788 3.25666 6.50728 3.3367 6.6119C3.41673 6.71651 3.51665 6.80428 3.63072 6.87016C3.74478 6.93604 3.87073 6.97872 4.00134 6.99577C4.13195 7.01282 4.26465 7.00388 4.3918 6.96949C4.51894 6.93509 4.63804 6.87591 4.74224 6.79534C4.84645 6.71477 4.9337 6.6144 4.99899 6.5C5.26227 6.04387 5.64097 5.66508 6.09703 5.4017C6.55309 5.13833 7.07045 4.99964 7.59711 4.99958C8.12376 4.99952 8.64115 5.1381 9.09727 5.40138C9.55339 5.66466 9.93218 6.04336 10.1955 6.49943C10.4589 6.9555 10.5976 7.47286 10.5976 7.99952C10.5977 8.52617 10.4591 9.04356 10.1958 9.49967C9.93253 9.95579 9.55382 10.3346 9.09775 10.5979C8.64167 10.8613 8.12431 11 7.59765 11C7.33244 11 7.07808 11.1054 6.89055 11.2929C6.70301 11.4804 6.59765 11.7348 6.59765 12C6.59765 12.2652 6.70301 12.5196 6.89055 12.7071C7.07808 12.8946 7.33244 13 7.59765 13C8.12424 13.0001 8.64152 13.1388 9.09751 13.4022C9.5535 13.6655 9.93214 14.0443 10.1954 14.5004C10.4586 14.9565 10.5971 15.4738 10.5971 16.0004C10.597 16.5269 10.4583 17.0442 10.195 17.5003C9.93166 17.9563 9.55294 18.3349 9.09688 18.5982C8.64083 18.8614 8.12351 19 7.59693 19C7.07034 19 6.55304 18.8613 6.09701 18.598C5.64098 18.3347 5.26229 17.956 4.99899 17.5C4.86596 17.2712 4.64765 17.1046 4.39193 17.0365C4.13621 16.9684 3.86392 17.0045 3.63477 17.1369C3.40561 17.2692 3.23828 17.487 3.16944 17.7425C3.10061 17.9981 3.13589 18.2704 3.26755 18.5C3.8179 19.4532 4.66738 20.1982 5.68426 20.6194C6.70115 21.0406 7.8286 21.1145 8.89175 20.8296C9.95491 20.5447 10.8944 19.917 11.5644 19.0438C12.2345 18.1706 12.5976 17.1007 12.5977 16C12.5939 14.9146 12.2335 13.8606 11.5721 13H16.522V20C16.522 20.2652 16.6274 20.5196 16.8149 20.7071C17.0024 20.8946 17.2568 21 17.522 21C17.7872 21 18.0416 20.8946 18.2291 20.7071C18.4166 20.5196 18.522 20.2652 18.522 20V5H20.022C20.2872 5 20.5416 4.89464 20.7291 4.70711C20.9166 4.51957 21.022 4.26522 21.022 4C21.022 3.73478 20.9166 3.48043 20.7291 3.29289C20.5416 3.10536 20.2872 3 20.022 3Z" fill="#414853"/>
</svg>
