<svg width="24" height="24" viewBox="0 0 24 24" fill="none" xmlns="http://www.w3.org/2000/svg">
<path d="M7 20H4V19.9C4 19.4 4.4 19 4.9 19C6.3 19 7.5 18.1 7.9 16.8C8.3 15.2 7.4 13.5 5.8 13.1C4.5 12.7 3.1 13.3 2.4 14.5C2.1 15 2.3 15.6 2.8 15.9C3.3 16.2 3.9 16 4.2 15.5C4.5 15 5.1 14.9 5.6 15.2C5.7 15.3 5.8 15.3 5.8 15.4C6 15.7 6 16 6 16.3C5.8 16.7 5.4 17 5 17C3.3 17 2 18.3 2 19.9V21C2 21.6 2.4 22 3 22H7C7.6 22 8 21.6 8 21C8 20.4 7.6 20 7 20ZM7 9H6V3C6 2.4 5.6 2 5 2C4.4 2 4 2.4 4 3V4H3C2.4 4 2 4.4 2 5C2 5.6 2.4 6 3 6H4V9H3C2.4 9 2 9.4 2 10C2 10.6 2.4 11 3 11H7C7.6 11 8 10.6 8 10C8 9.4 7.6 9 7 9ZM11 6H21C21.6 6 22 5.6 22 5C22 4.4 21.6 4 21 4H11C10.4 4 10 4.4 10 5C10 5.6 10.4 6 11 6ZM21 20H11C10.4 20 10 20.4 10 21C10 21.6 10.4 22 11 22H21C21.6 22 22 21.6 22 21C22 20.4 21.6 20 21 20ZM21 9H11C10.4 9 10 9.4 10 10C10 10.6 10.4 11 11 11H21C21.6 11 22 10.6 22 10C22 9.4 21.6 9 21 9ZM21 15H11C10.4 15 10 15.4 10 16C10 16.6 10.4 17 11 17H21C21.6 17 22 16.6 22 16C22 15.4 21.6 15 21 15Z" fill="#414853"/>
</svg>
