<svg width="24" height="24" viewBox="0 0 24 24" fill="none" xmlns="http://www.w3.org/2000/svg">
<path d="M10.6301 5.49003C11.6231 5.25793 12.6589 5.28276 13.6396 5.56218C14.6204 5.8416 15.5137 6.36638 16.2353 7.08698C16.9569 7.80757 17.483 8.7002 17.7637 9.68057C18.0445 10.6609 18.0708 11.6967 17.8401 12.69C17.8088 12.8181 17.8032 12.9511 17.8235 13.0813C17.8438 13.2115 17.8897 13.3365 17.9584 13.4489C18.0272 13.5614 18.1175 13.6591 18.2242 13.7365C18.3309 13.814 18.4518 13.8695 18.5801 13.9C18.6564 13.9099 18.7337 13.9099 18.8101 13.9C19.0385 13.9067 19.2623 13.8349 19.4443 13.6966C19.6262 13.5583 19.7553 13.3619 19.8101 13.14C20.1216 11.8145 20.0896 10.4315 19.7172 9.12179C19.3448 7.8121 18.6443 6.61913 17.682 5.65583C16.7197 4.69253 15.5275 3.99079 14.2182 3.61703C12.9089 3.24328 11.5259 3.20989 10.2001 3.52003C9.93484 3.58103 9.70472 3.74489 9.56032 3.97556C9.41592 4.20623 9.36906 4.48481 9.43006 4.75003C9.49106 5.01525 9.65492 5.24537 9.88559 5.38977C10.1163 5.53417 10.3948 5.58103 10.6601 5.52003L10.6301 5.49003ZM21.7101 20.07L17.4401 15.8L3.71006 2.07003C3.6171 1.9763 3.5065 1.90191 3.38464 1.85114C3.26278 1.80037 3.13207 1.77423 3.00006 1.77423C2.86805 1.77423 2.73734 1.80037 2.61548 1.85114C2.49362 1.90191 2.38302 1.9763 2.29006 2.07003C2.10381 2.25739 1.99927 2.51084 1.99927 2.77503C1.99927 3.03922 2.10381 3.29267 2.29006 3.48003L5.50006 6.69003C4.39683 8.22981 3.87575 10.1111 4.02957 11.9991C4.18339 13.887 5.00213 15.6591 6.34006 17L11.2901 21.95C11.383 22.0438 11.4936 22.1182 11.6155 22.1689C11.7373 22.2197 11.868 22.2458 12.0001 22.2458C12.1321 22.2458 12.2628 22.2197 12.3846 22.1689C12.5065 22.1182 12.6171 22.0438 12.7101 21.95L16.7101 17.95L20.2701 21.51C20.457 21.6983 20.7112 21.8046 20.9765 21.8056C21.2419 21.8065 21.4968 21.702 21.6851 21.515C21.8734 21.3281 21.9797 21.0739 21.9806 20.8086C21.9816 20.5432 21.877 20.2883 21.6901 20.1L21.7101 20.07ZM12.1201 13.31C11.8393 13.328 11.5579 13.2865 11.2942 13.1883C11.0306 13.09 10.7906 12.9373 10.5901 12.74C10.3892 12.5412 10.2327 12.302 10.131 12.0383C10.0293 11.7746 9.9847 11.4923 10.0001 11.21L12.1201 13.31ZM12.0001 19.81L7.76006 15.57C6.80044 14.6064 6.19665 13.3453 6.04767 11.9936C5.89868 10.6418 6.21334 9.27953 6.94006 8.13003L8.41006 9.60003C8.05147 10.3441 7.93201 11.1809 8.06809 11.9956C8.20416 12.8103 8.58911 13.5629 9.17006 14.15C9.54099 14.5232 9.98189 14.8195 10.4675 15.022C10.9531 15.2244 11.4739 15.3291 12.0001 15.33C12.6005 15.3273 13.1923 15.1871 13.7301 14.92L15.3101 16.5L12.0001 19.81Z" fill="#414853"/>
</svg>
