<svg width="24" height="24" viewBox="0 0 24 24" fill="none" xmlns="http://www.w3.org/2000/svg">
<path d="M19.12 2.21003C19.0024 2.11136 18.8636 2.0411 18.7145 2.00468C18.5654 1.96826 18.4099 1.96667 18.26 2.00003L10.26 4.00003C10.0381 4.05478 9.8417 4.18387 9.70342 4.36582C9.56514 4.54777 9.49335 4.77159 9.5 5.00003V15.35C9.03277 15.1218 8.51999 15.0022 8 15C7.30777 15 6.63108 15.2053 6.05551 15.5899C5.47993 15.9745 5.03133 16.5211 4.76642 17.1606C4.50152 17.8002 4.4322 18.5039 4.56725 19.1828C4.7023 19.8618 5.03564 20.4854 5.52513 20.9749C6.01461 21.4644 6.63825 21.7977 7.31719 21.9328C7.99612 22.0678 8.69985 21.9985 9.33939 21.7336C9.97893 21.4687 10.5256 21.0201 10.9101 20.4445C11.2947 19.8689 11.5 19.1923 11.5 18.5V10.78L18.74 9.00003H18.81L19 8.85003L19.15 8.75003C19.1986 8.70481 19.2421 8.65452 19.28 8.60003C19.319 8.55406 19.3526 8.50372 19.38 8.45003C19.4103 8.39396 19.4306 8.33305 19.44 8.27003C19.4504 8.20713 19.4504 8.14293 19.44 8.08003C19.4445 8.05355 19.4445 8.02651 19.44 8.00003V3.00003C19.4482 2.8529 19.4237 2.7058 19.3684 2.56923C19.3131 2.43266 19.2282 2.31 19.12 2.21003ZM8 20C7.70333 20 7.41332 19.9121 7.16665 19.7472C6.91997 19.5824 6.72771 19.3481 6.61418 19.0741C6.50065 18.8 6.47095 18.4984 6.52882 18.2074C6.5867 17.9164 6.72956 17.6491 6.93934 17.4394C7.14912 17.2296 7.41639 17.0867 7.70737 17.0288C7.99834 16.971 8.29994 17.0007 8.57403 17.1142C8.84812 17.2277 9.08238 17.42 9.24721 17.6667C9.41203 17.9133 9.5 18.2034 9.5 18.5C9.5 18.8979 9.34197 19.2794 9.06066 19.5607C8.77936 19.842 8.39783 20 8 20ZM17.5 7.22003L11.5 8.72003V5.78003L17.5 4.28003V7.22003Z" fill="#414853"/>
</svg>
