<svg width="24" height="24" viewBox="0 0 24 24" fill="none" xmlns="http://www.w3.org/2000/svg">
<path d="M18.8851 13.9928C20.6354 13.0915 21.1666 10.6432 21.1666 10.6432C21.1666 10.6432 18.8625 9.65308 17.1122 10.5576C16.3751 10.9797 15.783 11.615 15.4139 12.3801C15.452 12.0514 15.4719 11.7208 15.4735 11.3899C16.5634 10.0626 17.1267 8.38046 17.056 6.66437C16.7119 3.90131 13.7097 2 13.7097 2C13.7097 2 11.2681 4.58258 11.6154 7.34906C11.9438 8.95136 12.8372 10.3822 14.1326 11.3807C14.1258 11.7183 14.1006 12.0553 14.0571 12.3901C13.665 11.5152 12.9976 10.7924 12.1566 10.3319C10.3829 9.47943 8.10815 10.535 8.10815 10.535C8.10815 10.535 8.71143 12.9666 10.4844 13.8191C11.527 14.2302 12.6819 14.257 13.7425 13.8946C13.4277 14.9385 12.9343 15.9199 12.2842 16.7952C11.8496 15.9318 11.1424 15.2358 10.2721 14.8151C8.45886 14.0515 6.24371 15.2186 6.24371 15.2186C6.24371 15.2186 6.96448 17.6209 8.78027 18.381C9.33108 18.5978 9.92544 18.6809 10.5146 18.6235C8.85099 19.9397 6.79178 20.6558 4.67047 20.6558C4.49222 20.6558 4.32126 20.7266 4.19521 20.8526C4.06916 20.9787 3.99835 21.1496 3.99835 21.3279C3.99835 21.5061 4.06916 21.6771 4.19521 21.8031C4.32126 21.9292 4.49222 22 4.67047 22C6.17081 21.9987 7.65436 21.6843 9.02632 21.0771C10.3983 20.4698 11.6285 19.583 12.6382 18.4734C13.5652 19.2688 14.7533 19.6937 15.9744 19.6666C17.9345 19.4601 19.3147 17.3683 19.3147 17.3683C19.3147 17.3683 17.5217 15.6155 15.5649 15.8253C15.0852 15.8827 14.6224 16.0378 14.2048 16.2809C14.5885 15.5591 14.8886 14.796 15.0992 14.0062C16.3172 14.4822 17.6706 14.4774 18.8851 13.9928Z" fill="#414853"/>
</svg>
