<svg width="24" height="24" viewBox="0 0 24 24" fill="none" xmlns="http://www.w3.org/2000/svg">
<path d="M18.08 12.42L11.9 18.61C11.0898 19.33 10.0351 19.7133 8.9517 19.6814C7.86828 19.6495 6.83798 19.2049 6.07155 18.4385C5.30512 17.672 4.86049 16.6417 4.82859 15.5583C4.7967 14.4749 5.17996 13.4202 5.89998 12.61L13.9 4.61003C14.3776 4.15633 15.0112 3.90336 15.67 3.90336C16.3287 3.90336 16.9624 4.15633 17.44 4.61003C17.9053 5.08162 18.1662 5.7175 18.1662 6.38003C18.1662 7.04256 17.9053 7.67844 17.44 8.15003L10.54 15.04C10.4717 15.1136 10.3896 15.1729 10.2984 15.2147C10.2071 15.2566 10.1085 15.28 10.0083 15.2837C9.90797 15.2874 9.80794 15.2713 9.71386 15.2364C9.61979 15.2015 9.53352 15.1483 9.45998 15.08C9.38644 15.0117 9.32707 14.9296 9.28526 14.8384C9.24345 14.7472 9.22002 14.6486 9.2163 14.5483C9.21259 14.448 9.22866 14.348 9.26361 14.2539C9.29855 14.1598 9.35169 14.0736 9.41998 14L14.55 8.88003C14.7383 8.69173 14.8441 8.43633 14.8441 8.17003C14.8441 7.90373 14.7383 7.64833 14.55 7.46003C14.3617 7.27173 14.1063 7.16594 13.84 7.16594C13.5737 7.16594 13.3183 7.27173 13.13 7.46003L7.99998 12.6C7.74328 12.8547 7.53954 13.1577 7.40051 13.4916C7.26147 13.8254 7.18989 14.1834 7.18989 14.545C7.18989 14.9066 7.26147 15.2647 7.40051 15.5985C7.53954 15.9323 7.74328 16.2353 7.99998 16.49C8.52435 16.9895 9.22078 17.2681 9.94498 17.2681C10.6692 17.2681 11.3656 16.9895 11.89 16.49L18.78 9.59003C19.5749 8.73698 20.0076 7.6087 19.987 6.44289C19.9665 5.27709 19.4942 4.16478 18.6697 3.3403C17.8452 2.51582 16.7329 2.04355 15.5671 2.02298C14.4013 2.00241 13.273 2.43515 12.42 3.23003L4.41998 11.23C3.34118 12.4249 2.76501 13.9899 2.81151 15.599C2.85802 17.2081 3.52361 18.7373 4.66962 19.8678C5.81562 20.9983 7.35365 21.6431 8.96326 21.6677C10.5729 21.6924 12.1299 21.095 13.31 20L19.5 13.82C19.5932 13.7268 19.6672 13.6161 19.7176 13.4943C19.7681 13.3725 19.7941 13.2419 19.7941 13.11C19.7941 12.9782 19.7681 12.8476 19.7176 12.7258C19.6672 12.604 19.5932 12.4933 19.5 12.4C19.4067 12.3068 19.296 12.2328 19.1742 12.1824C19.0524 12.1319 18.9218 12.1059 18.79 12.1059C18.6581 12.1059 18.5275 12.1319 18.4057 12.1824C18.2839 12.2328 18.1732 12.3068 18.08 12.4V12.42Z" fill="#414853"/>
</svg>
