<svg width="24" height="24" viewBox="0 0 24 24" fill="none" xmlns="http://www.w3.org/2000/svg">
<path d="M8.50997 12.48C8.31219 12.48 8.11885 12.5387 7.9544 12.6485C7.78995 12.7584 7.66177 12.9146 7.58609 13.0973C7.5104 13.2801 7.4906 13.4811 7.52918 13.6751C7.56777 13.8691 7.66301 14.0473 7.80286 14.1871C7.94271 14.327 8.1209 14.4222 8.31488 14.4608C8.50886 14.4994 8.70992 14.4796 8.89265 14.4039C9.07538 14.3282 9.23155 14.2 9.34144 14.0356C9.45132 13.8711 9.50997 13.6778 9.50997 13.48C9.50997 13.2148 9.40461 12.9604 9.21707 12.7729C9.02954 12.5854 8.77518 12.48 8.50997 12.48ZM8.50997 8.00001C8.31219 8.00001 8.11885 8.05866 7.9544 8.16854C7.78995 8.27842 7.66177 8.4346 7.58609 8.61732C7.5104 8.80005 7.4906 9.00112 7.52918 9.1951C7.56777 9.38908 7.66301 9.56726 7.80286 9.70711C7.94271 9.84697 8.1209 9.94221 8.31488 9.98079C8.50886 10.0194 8.70992 9.99957 8.89265 9.92389C9.07538 9.8482 9.23155 9.72003 9.34144 9.55558C9.45132 9.39113 9.50997 9.19779 9.50997 9.00001C9.50997 8.73479 9.40461 8.48044 9.21707 8.2929C9.02954 8.10536 8.77518 8.00001 8.50997 8.00001ZM12 10C11.7347 10 11.4804 10.1054 11.2929 10.2929C11.1053 10.4804 11 10.7348 11 11V12C11 12.2652 11.1053 12.5196 11.2929 12.7071C11.4804 12.8947 11.7347 13 12 13C12.2652 13 12.5195 12.8947 12.7071 12.7071C12.8946 12.5196 13 12.2652 13 12V11C13 10.7348 12.8946 10.4804 12.7071 10.2929C12.5195 10.1054 12.2652 10 12 10ZM20.5 8.57001C20.155 8.37152 19.774 8.24366 19.3791 8.19387C18.9842 8.14408 18.5834 8.17336 18.2 8.28001C17.8009 8.3869 17.4293 8.57783 17.11 8.84001L5.50997 2.13001C5.35795 2.04224 5.1855 1.99603 5.00997 1.99603C4.83443 1.99603 4.66199 2.04224 4.50997 2.13001C4.3555 2.21683 4.22688 2.34314 4.13727 2.49601C4.04766 2.64888 4.00027 2.82281 3.99997 3.00001V16.17C3.40982 16.3691 2.89814 16.7504 2.53869 17.259C2.17924 17.7676 1.9906 18.3773 1.99997 19C1.99969 19.782 2.30475 20.5332 2.85018 21.0935C3.3956 21.6539 4.13826 21.9792 4.91997 22H5.49997C8.7767 21.9923 11.9931 21.1177 14.8225 19.465C17.6519 17.8123 19.9937 15.4404 21.61 12.59C21.9833 11.908 22.0772 11.1077 21.872 10.3578C21.6668 9.60789 21.1785 8.96693 20.51 8.57001H20.5ZM5.99997 4.73001L15.89 10.44C14.7928 12.0772 13.3259 13.4335 11.608 14.3993C9.88996 15.3651 7.96893 15.9135 5.99997 16V4.73001ZM19.87 11.61C18.3854 14.2257 16.2174 16.3883 13.5979 17.8662C10.9785 19.3441 8.00645 20.0817 4.99997 20C4.73475 20 4.4804 19.8947 4.29286 19.7071C4.10532 19.5196 3.99997 19.2652 3.99997 19C3.99918 18.866 4.02534 18.7332 4.07687 18.6096C4.12841 18.4859 4.20427 18.3738 4.29997 18.28C4.48783 18.0989 4.73904 17.9984 4.99997 18H5.50997C8.07768 17.999 10.5991 17.3161 12.8164 16.0212C15.0337 14.7263 16.8674 12.8658 18.13 10.63C18.1907 10.5203 18.2736 10.4245 18.3735 10.3487C18.4734 10.273 18.588 10.2189 18.71 10.19C18.9621 10.1208 19.2313 10.1531 19.46 10.28C19.6894 10.4033 19.8617 10.6113 19.9401 10.8597C20.0185 11.1081 19.997 11.3773 19.88 11.61H19.87Z" fill="#414853"/>
</svg>
