<svg width="24" height="24" viewBox="0 0 24 24" fill="none" xmlns="http://www.w3.org/2000/svg">
<path d="M22.0001 5.08002C22.0009 4.47024 21.8207 3.87393 21.4823 3.36665C21.144 2.85937 20.6626 2.46394 20.0993 2.23048C19.536 1.99701 18.916 1.93601 18.318 2.0552C17.72 2.1744 17.1708 2.46842 16.7401 2.90002L13.9301 5.71002L7.44006 3.55002C7.26727 3.49571 7.08297 3.48935 6.90685 3.53162C6.73072 3.57389 6.56938 3.6632 6.44006 3.79002L4.06006 6.15002C3.94729 6.2641 3.86362 6.40363 3.81611 6.55684C3.76859 6.71005 3.75863 6.87244 3.78707 7.03031C3.81551 7.18818 3.8815 7.33689 3.97949 7.46389C4.07747 7.59089 4.20457 7.69246 4.35006 7.76002L9.53006 10.11L6.93006 12.71L5.22006 11.85C5.03543 11.7501 4.82404 11.7108 4.61584 11.7377C4.40764 11.7647 4.2132 11.8564 4.06006 12L2.29006 13.81C2.10381 13.9974 1.99927 14.2508 1.99927 14.515C1.99927 14.7792 2.10381 15.0327 2.29006 15.22L8.78006 21.71C8.96742 21.8963 9.22087 22.0008 9.48506 22.0008C9.74925 22.0008 10.0027 21.8963 10.1901 21.71L12.0001 19.94C12.1501 19.7915 12.2494 19.5993 12.2835 19.3909C12.3176 19.1825 12.2849 18.9687 12.1901 18.78L11.3301 17.07L13.9301 14.47L16.2801 19.65C16.3476 19.7955 16.4492 19.9226 16.5762 20.0206C16.7032 20.1186 16.8519 20.1846 17.0098 20.213C17.1676 20.2414 17.33 20.2315 17.4832 20.184C17.6364 20.1365 17.776 20.0528 17.8901 19.94L20.2501 17.58C20.3769 17.4507 20.4662 17.2894 20.5085 17.1132C20.5507 16.9371 20.5444 16.7528 20.4901 16.58L18.3301 10.09L21.1001 7.26002C21.3873 6.97458 21.6148 6.63481 21.7693 6.26053C21.9238 5.88625 22.0023 5.48494 22.0001 5.08002ZM19.6801 5.85002L16.4401 9.09002C16.3132 9.21934 16.2239 9.38068 16.1817 9.5568C16.1394 9.73293 16.1458 9.91722 16.2001 10.09L18.3601 16.57L17.4601 17.47L15.1101 12.3C15.0434 12.1532 14.9421 12.0247 14.815 11.9254C14.6879 11.8262 14.5387 11.7591 14.3801 11.73C14.2201 11.7008 14.0555 11.7111 13.9004 11.7599C13.7453 11.8087 13.6045 11.8945 13.4901 12.01L9.37006 16.17C9.22215 16.3178 9.12427 16.5082 9.09019 16.7145C9.0561 16.9208 9.08754 17.1325 9.18006 17.32L10.0001 19L9.44006 19.56L4.41006 14.52L5.00006 14L6.71006 14.86C6.89755 14.9525 7.10932 14.984 7.31561 14.9499C7.52189 14.9158 7.7123 14.8179 7.86006 14.67L12.0001 10.51C12.115 10.396 12.2005 10.2558 12.2492 10.1015C12.298 9.94714 12.3086 9.78326 12.2801 9.62393C12.2516 9.4646 12.1848 9.31458 12.0855 9.18674C11.9862 9.0589 11.8574 8.95708 11.7101 8.89002L6.50006 6.54002L7.40006 5.64002L13.8801 7.80002C14.0529 7.85433 14.2372 7.86069 14.4133 7.81842C14.5894 7.77615 14.7507 7.68683 14.8801 7.56002L18.1201 4.32002C18.2197 4.21812 18.3387 4.13716 18.4701 4.08188C18.6014 4.02661 18.7425 3.99813 18.8851 3.99813C19.0276 3.99813 19.1687 4.02661 19.3 4.08188C19.4314 4.13716 19.5504 4.21812 19.6501 4.32002C19.7544 4.41666 19.8369 4.53444 19.892 4.6655C19.9472 4.79655 19.9738 4.93787 19.9701 5.08002C19.9755 5.22121 19.9526 5.36207 19.9028 5.4943C19.853 5.62654 19.7773 5.74748 19.6801 5.85002Z" fill="#414853"/>
</svg>
