<svg width="24" height="24" viewBox="0 0 24 24" fill="none" xmlns="http://www.w3.org/2000/svg">
<path d="M21.12 16.23C20.7755 14.9676 19.9498 13.8905 18.82 13.23L16.71 12L16.23 6.53003C16.2169 6.37026 16.1655 6.216 16.0802 6.08025C15.9949 5.9445 15.8783 5.83124 15.74 5.75003L12.74 4.03003C12.588 3.94226 12.4156 3.89605 12.24 3.89605C12.0645 3.89605 11.8921 3.94226 11.74 4.03003C11.5881 4.11303 11.4602 4.23408 11.3691 4.38133C11.2779 4.52858 11.2266 4.69697 11.22 4.87003L11.07 8.77003L9.32005 7.77003L6.46005 3.92003C6.34375 3.76572 6.18524 3.64841 6.00368 3.58229C5.82212 3.51617 5.6253 3.50406 5.437 3.54743C5.24871 3.5908 5.07702 3.68779 4.94268 3.82668C4.80834 3.96556 4.71712 4.14039 4.68005 4.33003L3.81005 8.94003C3.65854 9.56497 3.71184 10.2221 3.96211 10.8144C4.21237 11.4068 4.64635 11.903 5.20005 12.23L19.26 20.34C19.486 20.473 19.7552 20.5118 20.0096 20.4482C20.264 20.3846 20.4832 20.2237 20.62 20C20.9499 19.4365 21.164 18.8127 21.2499 18.1654C21.3357 17.5181 21.2916 16.8601 21.12 16.23ZM19.24 18L6.20005 10.5C6.01305 10.3859 5.86872 10.2135 5.78922 10.0093C5.70973 9.80518 5.69948 9.58057 5.76005 9.37003L6.22005 6.93003L7.88005 9.13003C7.96066 9.23948 8.06273 9.33135 8.18005 9.40003L11.53 11.34C11.6794 11.4264 11.8486 11.4727 12.0212 11.4743C12.1938 11.476 12.3638 11.4329 12.5148 11.3493C12.6658 11.2658 12.7926 11.1446 12.8829 10.9975C12.9732 10.8504 13.0239 10.6825 13.03 10.51L13.19 6.61003L14.28 7.24003L14.76 12.71C14.7743 12.8707 14.8272 13.0256 14.9143 13.1614C15.0013 13.2972 15.12 13.41 15.26 13.49L17.82 15C18.1531 15.1922 18.4448 15.4484 18.6782 15.7539C18.9116 16.0594 19.0822 16.4082 19.18 16.78C19.2916 17.177 19.3121 17.594 19.24 18Z" fill="#414853"/>
</svg>
