<svg width="24" height="24" viewBox="0 0 24 24" fill="none" xmlns="http://www.w3.org/2000/svg">
<path d="M19.79 7.13C19.6958 7.01082 19.5757 6.91466 19.4389 6.84882C19.302 6.78298 19.1519 6.74918 19 6.75H8V6.25C8.00124 5.81468 8.14449 5.39165 8.40799 5.04514C8.67148 4.69862 9.04084 4.44754 9.46 4.33C9.72928 4.58983 10.0859 4.73963 10.46 4.75H11.46C11.8578 4.75 12.2394 4.59196 12.5207 4.31066C12.802 4.02936 12.96 3.64782 12.96 3.25C12.96 2.85218 12.802 2.47064 12.5207 2.18934C12.2394 1.90804 11.8578 1.75 11.46 1.75H10.46C10.2346 1.75031 10.0121 1.80177 9.80947 1.9005C9.60681 1.99924 9.42919 2.14267 9.29 2.32C8.36826 2.48625 7.53409 2.97067 6.93287 3.68884C6.33166 4.40702 6.00152 5.31339 6 6.25V6.75H5C4.84811 6.74918 4.69802 6.78298 4.56114 6.84882C4.42426 6.91466 4.30417 7.01082 4.21 7.13C4.10982 7.24874 4.03869 7.38918 4.00224 7.5402C3.96579 7.69121 3.96502 7.84864 4 8L4.62 10.49C4.76804 11.0635 5.08255 11.5804 5.52388 11.9755C5.96522 12.3705 6.51363 12.6261 7.1 12.71L7.88 19.71H7C6.73478 19.71 6.48043 19.8154 6.29289 20.0029C6.10536 20.1904 6 20.4448 6 20.71C6 20.9752 6.10536 21.2296 6.29289 21.4171C6.48043 21.6046 6.73478 21.71 7 21.71H17C17.2652 21.71 17.5196 21.6046 17.7071 21.4171C17.8946 21.2296 18 20.9752 18 20.71C18 20.4448 17.8946 20.1904 17.7071 20.0029C17.5196 19.8154 17.2652 19.71 17 19.71H16.12L16.9 12.71C17.4822 12.6199 18.025 12.3604 18.4607 11.9639C18.8964 11.5673 19.2057 11.0512 19.35 10.48L20 8C20.035 7.84864 20.0342 7.69121 19.9978 7.5402C19.9613 7.38918 19.8902 7.24874 19.79 7.13ZM14.1 19.75H9.9L9.12 12.75H14.88L14.1 19.75ZM17.41 10C17.3552 10.2219 17.2262 10.4183 17.0442 10.5566C16.8623 10.6949 16.6384 10.7667 16.41 10.76H7.56C7.33156 10.7667 7.10774 10.6949 6.92579 10.5566C6.74384 10.4183 6.61475 10.2219 6.56 10L6.28 8.75H17.72L17.41 10Z" fill="#414853"/>
</svg>
