<svg width="24" height="24" viewBox="0 0 24 24" fill="none" xmlns="http://www.w3.org/2000/svg">
<path d="M7 10C6.80222 10 6.60888 10.0587 6.44443 10.1685C6.27998 10.2784 6.15181 10.4346 6.07612 10.6173C6.00044 10.8 5.98063 11.0011 6.01922 11.1951C6.0578 11.3891 6.15304 11.5673 6.2929 11.7071C6.43275 11.847 6.61093 11.9422 6.80491 11.9808C6.99889 12.0194 7.19996 11.9996 7.38269 11.9239C7.56541 11.8482 7.72159 11.72 7.83147 11.5556C7.94135 11.3911 8 11.1978 8 11C8 10.7348 7.89465 10.4804 7.70711 10.2929C7.51957 10.1054 7.26522 10 7 10ZM3.71 2.29C3.61676 2.19676 3.50607 2.1228 3.38425 2.07234C3.26243 2.02188 3.13186 1.99591 3 1.99591C2.86814 1.99591 2.73758 2.02188 2.61575 2.07234C2.49393 2.1228 2.38324 2.19676 2.29 2.29C2.1017 2.47831 1.99591 2.7337 1.99591 3C1.99591 3.2663 2.1017 3.5217 2.29 3.71L4.62 6C3.8919 6.09295 3.22314 6.44961 2.74031 7.00247C2.25748 7.55533 1.99409 8.26601 2 9V15C2 15.7957 2.31607 16.5587 2.87868 17.1213C3.44129 17.6839 4.20435 18 5 18H6V21C6 21.2652 6.10536 21.5196 6.2929 21.7071C6.48043 21.8946 6.73479 22 7 22H17C17.2652 22 17.5196 21.8946 17.7071 21.7071C17.8946 21.5196 18 21.2652 18 21V19.41L20.29 21.71C20.383 21.8037 20.4936 21.8781 20.6154 21.9289C20.7373 21.9797 20.868 22.0058 21 22.0058C21.132 22.0058 21.2627 21.9797 21.3846 21.9289C21.5064 21.8781 21.617 21.8037 21.71 21.71C21.8037 21.617 21.8781 21.5064 21.9289 21.3846C21.9797 21.2627 22.0058 21.132 22.0058 21C22.0058 20.868 21.9797 20.7373 21.9289 20.6154C21.8781 20.4936 21.8037 20.383 21.71 20.29L3.71 2.29ZM6 15V16H5C4.73479 16 4.48043 15.8946 4.2929 15.7071C4.10536 15.5196 4 15.2652 4 15V9C4 8.73479 4.10536 8.48043 4.2929 8.2929C4.48043 8.10536 4.73479 8 5 8H6.59L12.59 14H7C6.73479 14 6.48043 14.1054 6.2929 14.2929C6.10536 14.4804 6 14.7348 6 15ZM16 20H8V16H14.59L16 17.41V20ZM19 6H18V3C18 2.73479 17.8946 2.48043 17.7071 2.2929C17.5196 2.10536 17.2652 2 17 2H8.66C8.39479 2 8.14043 2.10536 7.9529 2.2929C7.76536 2.48043 7.66 2.73479 7.66 3C7.66 3.26522 7.76536 3.51957 7.9529 3.70711C8.14043 3.89465 8.39479 4 8.66 4H16V6H12.66C12.3948 6 12.1404 6.10536 11.9529 6.2929C11.7654 6.48043 11.66 6.73479 11.66 7C11.66 7.26522 11.7654 7.51957 11.9529 7.70711C12.1404 7.89465 12.3948 8 12.66 8H19C19.2652 8 19.5196 8.10536 19.7071 8.2929C19.8946 8.48043 20 8.73479 20 9V15C20.0055 15.0365 20.0055 15.0735 20 15.11C19.9737 15.2387 19.973 15.3713 19.998 15.5003C20.023 15.6292 20.0731 15.752 20.1455 15.8616C20.218 15.9712 20.3113 16.0654 20.4202 16.1389C20.529 16.2124 20.6513 16.2638 20.78 16.29H20.98C21.2139 16.2947 21.4421 16.2172 21.6249 16.0711C21.8076 15.9249 21.9333 15.7193 21.98 15.49C22.0008 15.3276 22.0075 15.1636 22 15V9C22 8.20435 21.6839 7.44129 21.1213 6.87868C20.5587 6.31607 19.7957 6 19 6Z" fill="#414853"/>
</svg>
