<svg width="24" height="24" viewBox="0 0 24 24" fill="none" xmlns="http://www.w3.org/2000/svg">
<path d="M15.3325 9.50001C15.3325 8.72953 15.0783 7.98058 14.6092 7.36933C14.1402 6.75807 13.4825 6.31867 12.7383 6.11926C11.9941 5.91985 11.2049 5.97158 10.493 6.26642C9.7812 6.56127 9.18655 7.08276 8.8013 7.75001C8.66885 7.97973 8.63305 8.25265 8.70177 8.50876C8.7705 8.76487 8.93811 8.98321 9.16777 9.11577C9.39742 9.24834 9.67032 9.28428 9.92647 9.21569C10.1826 9.1471 10.401 8.9796 10.5337 8.75001C10.6656 8.52219 10.8549 8.333 11.0829 8.20138C11.3108 8.06975 11.5693 8.00031 11.8325 8.00001C12.2304 8.00001 12.6119 8.15804 12.8932 8.43935C13.1745 8.72065 13.3325 9.10218 13.3325 9.50001C13.3325 9.89783 13.1745 10.2794 12.8932 10.5607C12.6119 10.842 12.2304 11 11.8325 11H11.8301C11.7659 11.0064 11.7025 11.0194 11.6408 11.0387C11.5735 11.0457 11.5069 11.0593 11.4422 11.0794C11.3872 11.1093 11.3351 11.1444 11.2867 11.1842C11.2293 11.2155 11.175 11.2522 11.1247 11.294C11.0797 11.3476 11.0405 11.4058 11.0076 11.4677C10.9712 11.5128 10.9389 11.561 10.911 11.6118C10.8892 11.6808 10.8749 11.7518 10.8681 11.8237C10.8507 11.8812 10.8388 11.9403 10.8325 12V13L10.8349 13.0114L10.836 13.5024C10.8367 13.7672 10.9423 14.0209 11.1298 14.2079C11.3172 14.3949 11.5712 14.5 11.836 14.5H11.8384C12.1036 14.4993 12.3577 14.3934 12.5448 14.2054C12.7319 14.0174 12.8366 13.7628 12.836 13.4976L12.8344 12.8362C13.554 12.6223 14.1855 12.1823 14.6355 11.5814C15.0854 10.9805 15.3298 10.2507 15.3325 9.50001ZM11.1299 16.29C10.9895 16.4293 10.8935 16.607 10.8541 16.8008C10.8148 16.9946 10.8337 17.1957 10.9086 17.3787C10.9835 17.5617 11.1109 17.7185 11.2749 17.829C11.4388 17.9396 11.6319 17.9991 11.8296 18C12.0948 17.9978 12.3491 17.894 12.5401 17.71C12.7257 17.5203 12.8296 17.2655 12.8296 17C12.8296 16.7346 12.7257 16.4798 12.5401 16.2901C12.3486 16.1117 12.0967 16.0125 11.835 16.0125C11.5733 16.0124 11.3214 16.1116 11.1299 16.29Z" fill="#414853"/>
</svg>
