<svg width="24" height="24" viewBox="0 0 24 24" fill="none" xmlns="http://www.w3.org/2000/svg">
<path d="M22.6011 2.06199C22.5559 1.89071 22.4662 1.73447 22.3409 1.60923C22.2157 1.48398 22.0595 1.39422 21.8882 1.3491C19.8368 0.816284 17.6767 0.873671 15.6565 1.51465C13.6363 2.15562 11.8382 3.35413 10.4692 4.97216L9.3543 6.29599L6.7495 5.66751C6.11624 5.44673 5.42449 5.46256 4.80198 5.71205C4.17948 5.96155 3.66828 6.42787 3.36278 7.02489L1.16259 10.9248C1.0855 11.0614 1.04163 11.2142 1.03452 11.3709C1.02741 11.5276 1.05727 11.6838 1.12167 11.8268C1.18608 11.9698 1.28323 12.0957 1.40527 12.1942C1.52732 12.2927 1.67083 12.3612 1.82421 12.394L4.89696 13.0527C4.63667 13.845 4.45081 14.6599 4.34179 15.4868C4.32203 15.6387 4.33742 15.7931 4.38677 15.9381C4.43613 16.0831 4.51813 16.2149 4.62645 16.3232L7.72655 19.4233C7.81937 19.5162 7.92959 19.5899 8.0509 19.6401C8.17221 19.6904 8.30224 19.7163 8.43355 19.7163C8.46236 19.7163 8.49117 19.7148 8.52047 19.7124C9.36581 19.6364 10.2009 19.4722 11.012 19.2224L11.6557 22.2256C11.6886 22.3789 11.7571 22.5224 11.8556 22.6444C11.9542 22.7664 12.0801 22.8635 12.2231 22.9279C12.3661 22.9923 12.5222 23.0221 12.6789 23.0151C12.8355 23.008 12.9883 22.9642 13.125 22.8872L17.0302 20.6845C17.5799 20.3506 18.0092 19.8506 18.2564 19.2569C18.5035 18.6631 18.5556 18.0061 18.4052 17.3808L17.7365 14.6218L18.9736 13.4843C20.5977 12.1192 21.8008 10.321 22.4429 8.29894C23.0851 6.27686 23.1399 4.11401 22.6011 2.06199ZM3.57226 10.7231L5.12841 7.96337C5.22507 7.77601 5.38974 7.63273 5.58867 7.56291C5.78759 7.49309 6.00569 7.50202 6.19823 7.58788L7.91564 8.00408L7.26564 8.77587C6.6494 9.51444 6.11641 10.3187 5.67632 11.174L3.57226 10.7231ZM16.0425 18.9453L13.3267 20.477L12.8972 18.4723C13.7678 18.0382 14.5789 17.4937 15.3105 16.8525L16.0541 16.1688L16.4575 17.8334C16.5098 18.039 16.4981 18.2556 16.424 18.4543C16.3498 18.653 16.2167 18.8243 16.0425 18.9453ZM17.6567 11.98L13.9722 15.3662C12.5137 16.6275 10.7148 17.4292 8.80175 17.6704L6.39745 15.2661C6.72037 13.3481 7.54917 11.551 8.79833 10.0601L10.4767 8.06743C10.5046 8.03818 10.5307 8.0072 10.5548 7.97467L11.9897 6.27099C13.0507 5.01788 14.4252 4.06879 15.973 3.52063C17.5207 2.97247 19.1862 2.84487 20.7993 3.15087C21.1127 4.76908 20.9865 6.44173 20.4338 7.99459C19.881 9.54744 18.9221 10.9237 17.6567 11.98ZM16.7337 5.81623C16.4371 5.81623 16.1471 5.9042 15.9004 6.06902C15.6537 6.23384 15.4614 6.46811 15.3479 6.7422C15.2344 7.01629 15.2047 7.31789 15.2626 7.60886C15.3204 7.89983 15.4633 8.16711 15.6731 8.37688C15.8829 8.58666 16.1501 8.72953 16.4411 8.7874C16.7321 8.84528 17.0337 8.81558 17.3078 8.70204C17.5819 8.58851 17.8161 8.39625 17.9809 8.14958C18.1458 7.90291 18.2337 7.6129 18.2337 7.31623C18.2337 7.11923 18.195 6.92417 18.1196 6.74217C18.0442 6.56017 17.9337 6.39481 17.7944 6.25551C17.6551 6.11622 17.4897 6.00573 17.3077 5.93036C17.1257 5.85498 16.9307 5.81619 16.7337 5.81621L16.7337 5.81623Z" fill="#414853"/>
</svg>
