<svg width="24" height="24" viewBox="0 0 24 24" fill="none" xmlns="http://www.w3.org/2000/svg">
<path d="M2.88 16.88C2.58525 17.1546 2.34884 17.4859 2.18488 17.8538C2.02091 18.2218 1.93274 18.6191 1.92563 19.0219C1.91853 19.4247 1.99262 19.8248 2.14351 20.1984C2.29439 20.5719 2.51897 20.9113 2.80385 21.1962C3.08872 21.481 3.42806 21.7056 3.80161 21.8565C4.17516 22.0074 4.57528 22.0815 4.97809 22.0744C5.3809 22.0673 5.77816 21.9791 6.14615 21.8151C6.51415 21.6512 6.84535 21.4147 7.12 21.12C7.6818 20.5575 7.99736 19.795 7.99736 19C7.99736 18.205 7.6818 17.4425 7.12 16.88C6.54772 16.337 5.7889 16.0343 5 16.0343C4.2111 16.0343 3.45228 16.337 2.88 16.88ZM5.71 19.71C5.61704 19.8037 5.50644 19.8781 5.38458 19.9289C5.26272 19.9797 5.13201 20.0058 5 20.0058C4.86799 20.0058 4.73728 19.9797 4.61542 19.9289C4.49356 19.8781 4.38296 19.8037 4.29 19.71C4.19627 19.617 4.12188 19.5064 4.07111 19.3846C4.02034 19.2627 3.9942 19.132 3.9942 19C3.9942 18.868 4.02034 18.7373 4.07111 18.6154C4.12188 18.4936 4.19627 18.383 4.29 18.29C4.38296 18.1963 4.49356 18.1219 4.61542 18.0711C4.73728 18.0203 4.86799 17.9942 5 17.9942C5.13201 17.9942 5.26272 18.0203 5.38458 18.0711C5.50644 18.1219 5.61704 18.1963 5.71 18.29C5.80373 18.383 5.87812 18.4936 5.92889 18.6154C5.97966 18.7373 6.0058 18.868 6.0058 19C6.0058 19.132 5.97966 19.2627 5.92889 19.3846C5.87812 19.5064 5.80373 19.617 5.71 19.71ZM5 12C4.73478 12 4.48043 12.1054 4.29289 12.2929C4.10536 12.4804 4 12.7348 4 13C4 13.2652 4.10536 13.5196 4.29289 13.7071C4.48043 13.8946 4.73478 14 5 14C6.32608 14 7.59785 14.5268 8.53553 15.4645C9.47322 16.4021 10 17.6739 10 19C10 19.2652 10.1054 19.5196 10.2929 19.7071C10.4804 19.8946 10.7348 20 11 20C11.2652 20 11.5196 19.8946 11.7071 19.7071C11.8946 19.5196 12 19.2652 12 19C12 17.1435 11.2625 15.363 9.94975 14.0503C8.63699 12.7375 6.85652 12 5 12ZM5 8C4.73478 8 4.48043 8.10536 4.29289 8.29289C4.10536 8.48043 4 8.73478 4 9C4 9.26522 4.10536 9.51957 4.29289 9.70711C4.48043 9.89464 4.73478 10 5 10C7.38695 10 9.67613 10.9482 11.364 12.636C13.0518 14.3239 14 16.6131 14 19C14 19.2652 14.1054 19.5196 14.2929 19.7071C14.4804 19.8946 14.7348 20 15 20C15.2652 20 15.5196 19.8946 15.7071 19.7071C15.8946 19.5196 16 19.2652 16 19C16 16.0826 14.8411 13.2847 12.7782 11.2218C10.7153 9.15893 7.91738 8 5 8Z" fill="#414853"/>
</svg>
