<svg width="24" height="24" viewBox="0 0 24 24" fill="none" xmlns="http://www.w3.org/2000/svg">
<path d="M18 7H15.79C15.5974 6.27179 15.257 5.59101 14.79 5H18C18.2652 5 18.5196 4.89464 18.7071 4.70711C18.8946 4.51957 19 4.26522 19 4C19 3.73478 18.8946 3.48043 18.7071 3.29289C18.5196 3.10536 18.2652 3 18 3H6.99999C6.73477 3 6.48042 3.10536 6.29288 3.29289C6.10534 3.48043 5.99999 3.73478 5.99999 4C5.99999 4.26522 6.10534 4.51957 6.29288 4.70711C6.48042 4.89464 6.73477 5 6.99999 5H10.5C11.1602 5.00232 11.8063 5.19134 12.3637 5.54523C12.9211 5.89913 13.367 6.40346 13.65 7H6.99999C6.73477 7 6.48042 7.10536 6.29288 7.29289C6.10534 7.48043 5.99999 7.73478 5.99999 8C5.99999 8.26522 6.10534 8.51957 6.29288 8.70711C6.48042 8.89464 6.73477 9 6.99999 9H14C13.8801 9.8306 13.4658 10.5905 12.8325 11.1411C12.1992 11.6918 11.3892 11.9966 10.55 12H6.99999C6.95344 11.9953 6.90654 11.9953 6.85999 12C6.79372 11.9897 6.72625 11.9897 6.65999 12C6.59182 12.0232 6.52771 12.057 6.46999 12.1L6.34999 12.17C6.29521 12.2195 6.24803 12.2768 6.20999 12.34C6.17649 12.3843 6.14641 12.4311 6.11999 12.48C6.11109 12.5397 6.11109 12.6003 6.11999 12.66C6.04873 12.7597 6.00712 12.8776 5.99999 13C5.99531 13.0465 5.99531 13.0935 5.99999 13.14C5.98967 13.2063 5.98967 13.2737 5.99999 13.34C6.0232 13.4082 6.05694 13.4723 6.09999 13.53C6.09999 13.53 6.09999 13.61 6.16999 13.65L12.17 20.65C12.3424 20.8516 12.5878 20.9764 12.8522 20.997C13.1166 21.0177 13.3784 20.9324 13.58 20.76C13.7816 20.5876 13.9064 20.3422 13.927 20.0778C13.9476 19.8134 13.8624 19.5516 13.69 19.35L9.17999 14H10.5C11.876 14.0057 13.2042 13.4954 14.2225 12.5697C15.2407 11.6441 15.8749 10.3704 16 9H18C18.2652 9 18.5196 8.89464 18.7071 8.70711C18.8946 8.51957 19 8.26522 19 8C19 7.73478 18.8946 7.48043 18.7071 7.29289C18.5196 7.10536 18.2652 7 18 7Z" fill="#414853"/>
</svg>
