<svg width="24" height="24" viewBox="0 0 24 24" fill="none" xmlns="http://www.w3.org/2000/svg">
<path d="M14 15H12C11.7348 15 11.4804 15.1054 11.2929 15.2929C11.1053 15.4805 11 15.7348 11 16C11 16.2652 11.1053 16.5196 11.2929 16.7071C11.4804 16.8947 11.7348 17 12 17H14C14.2652 17 14.5195 16.8947 14.7071 16.7071C14.8946 16.5196 15 16.2652 15 16C15 15.7348 14.8946 15.4805 14.7071 15.2929C14.5195 15.1054 14.2652 15 14 15ZM16 8.00003V5.00003C16 4.73481 15.8946 4.48046 15.7071 4.29292C15.5195 4.10538 15.2652 4.00003 15 4.00003H14V3.00003H15C15.2652 3.00003 15.5195 2.89467 15.7071 2.70713C15.8946 2.5196 16 2.26524 16 2.00003C16 1.73481 15.8946 1.48046 15.7071 1.29292C15.5195 1.10538 15.2652 1.00003 15 1.00003H10.2358C9.37761 0.99715 8.53576 1.23478 7.80573 1.68597C7.07569 2.13716 6.48667 2.78386 6.10544 3.55276C5.98757 3.78991 5.96857 4.06414 6.05261 4.31529C6.13666 4.56644 6.31689 4.77399 6.55377 4.89243C6.79064 5.01087 7.06483 5.03052 7.31617 4.94707C7.56752 4.86363 7.7755 4.68389 7.8945 4.4473C8.11055 4.01139 8.44443 3.64475 8.85825 3.38894C9.27208 3.13313 9.74931 2.9984 10.2358 3.00003H12V4.00003H11C10.7348 4.00003 10.4804 4.10538 10.2929 4.29292C10.1053 4.48046 9.99997 4.73481 9.99997 5.00003V8.00003C9.20459 8.00089 8.44203 8.31724 7.87961 8.87966C7.31719 9.44209 7.00084 10.2046 6.99997 11V20C7.00084 20.7954 7.31719 21.558 7.87961 22.1204C8.44203 22.6828 9.20459 22.9992 9.99997 23H16C16.7954 22.9992 17.5579 22.6828 18.1203 22.1204C18.6828 21.558 18.9991 20.7954 19 20V11C18.9991 10.2046 18.6828 9.44209 18.1203 8.87966C17.5579 8.31724 16.7954 8.00089 16 8.00003ZM12 6.00003H14V8.00003H12V6.00003ZM17 20C16.9996 20.2651 16.8942 20.5193 16.7067 20.7068C16.5192 20.8942 16.2651 20.9997 16 21H9.99997C9.73486 20.9997 9.48071 20.8942 9.29325 20.7068C9.10579 20.5193 9.00032 20.2651 8.99997 20V11C9.00032 10.7349 9.10579 10.4808 9.29325 10.2933C9.48071 10.1058 9.73486 10.0004 9.99997 10H16C16.2651 10.0004 16.5192 10.1058 16.7067 10.2933C16.8942 10.4808 16.9996 10.7349 17 11V20Z" fill="#414853"/>
</svg>
