<svg width="24" height="24" viewBox="0 0 24 24" fill="none" xmlns="http://www.w3.org/2000/svg">
<path d="M11.2899 9.71C11.3829 9.80373 11.4935 9.87812 11.6154 9.92889C11.7372 9.97966 11.8679 10.0058 11.9999 10.0058C12.132 10.0058 12.2627 9.97966 12.3845 9.92889C12.5064 9.87812 12.617 9.80373 12.7099 9.71L17.7099 4.71C17.8982 4.5217 18.004 4.2663 18.004 4C18.004 3.7337 17.8982 3.47831 17.7099 3.29C17.5216 3.1017 17.2662 2.99591 16.9999 2.99591C16.7336 2.99591 16.4782 3.1017 16.2899 3.29L11.9999 7.59L7.70994 3.29C7.52164 3.1017 7.26624 2.99591 6.99994 2.99591C6.73364 2.99591 6.47825 3.1017 6.28994 3.29C6.10164 3.47831 5.99585 3.7337 5.99585 4C5.99585 4.2663 6.10164 4.5217 6.28994 4.71L11.2899 9.71ZM12.7099 14.29C12.617 14.1963 12.5064 14.1219 12.3845 14.0711C12.2627 14.0203 12.132 13.9942 11.9999 13.9942C11.8679 13.9942 11.7372 14.0203 11.6154 14.0711C11.4935 14.1219 11.3829 14.1963 11.2899 14.29L6.28994 19.29C6.10164 19.4783 5.99585 19.7337 5.99585 20C5.99585 20.2663 6.10164 20.5217 6.28994 20.71C6.47825 20.8983 6.73364 21.0041 6.99994 21.0041C7.26624 21.0041 7.52164 20.8983 7.70994 20.71L11.9999 16.41L16.2899 20.71C16.3829 20.8037 16.4935 20.8781 16.6154 20.9289C16.7372 20.9797 16.8679 21.0058 16.9999 21.0058C17.132 21.0058 17.2627 20.9797 17.3845 20.9289C17.5064 20.8781 17.617 20.8037 17.7099 20.71C17.8037 20.617 17.8781 20.5064 17.9288 20.3846C17.9796 20.2627 18.0057 20.132 18.0057 20C18.0057 19.868 17.9796 19.7373 17.9288 19.6154C17.8781 19.4936 17.8037 19.383 17.7099 19.29L12.7099 14.29Z" fill="#414853"/>
</svg>
