<svg width="24" height="24" viewBox="0 0 24 24" fill="none" xmlns="http://www.w3.org/2000/svg">
<path d="M19.07 4.92996C18.1475 3.97486 17.0441 3.21303 15.824 2.68894C14.604 2.16485 13.2918 1.88899 11.964 1.87745C10.6362 1.86591 9.31941 2.11893 8.09045 2.62174C6.86148 3.12455 5.74497 3.86708 4.80604 4.80601C3.86711 5.74493 3.12458 6.86145 2.62177 8.09042C2.11896 9.31938 1.86595 10.6362 1.87748 11.964C1.88902 13.2918 2.16488 14.604 2.68897 15.824C3.21306 17.044 3.97489 18.1475 4.92999 19.07C5.85246 20.0251 6.9559 20.7869 8.17594 21.311C9.39598 21.8351 10.7082 22.1109 12.036 22.1225C13.3638 22.134 14.6806 21.881 15.9095 21.3782C17.1385 20.8754 18.255 20.1328 19.1939 19.1939C20.1329 18.255 20.8754 17.1385 21.3782 15.9095C21.881 14.6805 22.134 13.3637 22.1225 12.0359C22.111 10.7082 21.8351 9.39595 21.311 8.17591C20.7869 6.95587 20.0251 5.85243 19.07 4.92996ZM18.23 6.99996H12.76L15.11 4.64996C16.3253 5.16846 17.3961 5.97501 18.23 6.99996ZM8.99999 4.59996C10.2271 4.1088 11.5553 3.92348 12.87 4.05996L8.99999 7.92996V4.59996ZM6.99999 5.76996V11.24L5.18999 9.42996L4.64999 8.88996C5.16849 7.67464 5.97504 6.60382 6.99999 5.76996ZM4.59999 15C4.10766 13.7731 3.92229 12.4447 4.05999 11.13L7.92999 15H4.59999ZM5.76999 17H11.24L8.88999 19.35C7.67467 18.8315 6.60385 18.0249 5.76999 17ZM15 19.4C13.7731 19.8919 12.4447 20.0772 11.13 19.94L15 16.07V19.4ZM15 13.24L13.24 15H10.75L8.99999 13.24V10.76L10.76 8.99996H13.24L15 10.76V13.24ZM17 18.24V12.76L19.35 15.11C18.8315 16.3253 18.0249 17.3961 17 18.23V18.24ZM16.07 8.99996H19.4C19.8919 10.2269 20.0773 11.5552 19.94 12.87L16.07 8.99996Z" fill="#414853"/>
</svg>
