<svg width="24" height="24" viewBox="0 0 24 24" fill="none" xmlns="http://www.w3.org/2000/svg">
<path d="M22 11C21.9957 10.9468 21.9957 10.8932 22 10.84C22 10.56 21.92 10.28 21.87 10C21.6871 9.17151 21.3945 8.37112 21 7.62C20.3263 6.24172 19.3446 5.03691 18.1308 4.0988C16.917 3.16068 15.5036 2.51441 14 2.21L13.16 2.08H13H12.71H12.63L12 2C11.66 2 11.32 2 11 2H10.84L9.99999 2.2C8.08003 2.59369 6.31809 3.54289 4.93312 4.92964C3.54815 6.31639 2.60122 8.07954 2.20999 10C2.15999 10.28 2.11999 10.56 2.07999 10.84C2.08426 10.8932 2.08426 10.9468 2.07999 11C2.07999 11.33 2.07999 11.67 2.07999 12C2.07999 12.33 2.07999 12.68 2.07999 13C2.08426 13.0532 2.08426 13.1068 2.07999 13.16C2.07999 13.44 2.15999 13.72 2.20999 14C2.36745 14.8246 2.63308 15.6249 2.99999 16.38C3.67363 17.7583 4.65535 18.9631 5.86918 19.9012C7.08301 20.8393 8.4964 21.4856 9.99999 21.79L10.84 21.92L11 22H11.34H11.48C11.66 22 11.83 22 12.01 22C12.35 22 12.69 22 13.01 21.95H13.17L14 21.8C15.9199 21.4063 17.6819 20.4571 19.0668 19.0704C20.4518 17.6836 21.3988 15.9205 21.79 14C21.84 13.72 21.88 13.44 21.92 13.16C21.9418 13.1044 21.9686 13.0508 22 13C22 12.67 22.05 12.33 22.05 12C22.05 11.67 22 11.32 22 11ZM13.16 4.1L13.66 4.17C15.4678 4.55587 17.0861 5.55586 18.24 7H11.42L13.16 4.1ZM10.42 4.18L10.82 4.12L7.37999 10L5.69999 7.08C6.86361 5.58833 8.51821 4.5573 10.37 4.17L10.42 4.18ZM4.58999 15C4.40929 14.5568 4.26872 14.0983 4.16999 13.63C4.16999 13.41 4.08999 13.18 4.06999 12.95C4.06517 12.9101 4.06517 12.8699 4.06999 12.83C4.01665 12.2913 4.01665 11.7487 4.06999 11.21C4.06517 11.1701 4.06517 11.1299 4.06999 11.09C4.06999 10.86 4.12999 10.63 4.16999 10.41C4.25796 9.96303 4.38511 9.52467 4.54999 9.1L7.99999 15H4.58999ZM10.89 19.91L10.39 19.84C8.56268 19.4623 6.92489 18.4577 5.75999 17H12.58L10.89 19.91ZM10.27 15L8.53999 12L10.27 9H13.73L15.46 12L13.73 15H10.27ZM13.63 19.83L13.23 19.89L16.62 14L18.3 16.92C17.1364 18.4117 15.4818 19.4427 13.63 19.83ZM19.96 12.83C19.9648 12.8699 19.9648 12.9101 19.96 12.95C19.96 13.18 19.9 13.41 19.86 13.63C19.7698 14.0634 19.6426 14.4883 19.48 14.9L16 9H19.37C19.5507 9.44318 19.6912 9.90169 19.79 10.37C19.79 10.59 19.87 10.82 19.89 11.05C19.8948 11.0899 19.8948 11.1301 19.89 11.17C19.9433 11.7087 19.9433 12.2513 19.89 12.79L19.96 12.83Z" fill="#414853"/>
</svg>
