<svg width="24" height="24" viewBox="0 0 24 24" fill="none" xmlns="http://www.w3.org/2000/svg">
<path d="M21 11H19.8157C19.6119 10.4157 19.2314 9.90924 18.7269 9.55088C18.2224 9.19252 17.6188 9 17 9C16.3812 9 15.7776 9.19252 15.2731 9.55088C14.7686 9.90924 14.3881 10.4157 14.1843 11H9.81573C9.61193 10.4157 9.23139 9.90924 8.72687 9.55088C8.22235 9.19252 7.61884 9 7 9C6.38116 9 5.77765 9.19252 5.27313 9.55088C4.76861 9.90924 4.38807 10.4157 4.18427 11H3C2.73478 11 2.48043 11.1054 2.29289 11.2929C2.10536 11.4804 2 11.7348 2 12C2 12.2652 2.10536 12.5196 2.29289 12.7071C2.48043 12.8947 2.73478 13 3 13H4.18433C4.3881 13.5843 4.76863 14.0908 5.27315 14.4492C5.77766 14.8076 6.38118 15.0001 7.00003 15.0001C7.61888 15.0001 8.22239 14.8076 8.72691 14.4492C9.23143 14.0908 9.61196 13.5843 9.81573 13H14.1843C14.3881 13.5843 14.7686 14.0908 15.2731 14.4492C15.7777 14.8076 16.3812 15.0001 17 15.0001C17.6189 15.0001 18.2224 14.8076 18.7269 14.4492C19.2314 14.0908 19.612 13.5843 19.8157 13H21C21.2652 13 21.5196 12.8947 21.7071 12.7071C21.8946 12.5196 22 12.2652 22 12C22 11.7348 21.8946 11.4804 21.7071 11.2929C21.5196 11.1054 21.2652 11 21 11ZM7 13C6.80222 13 6.60888 12.9414 6.44443 12.8315C6.27998 12.7216 6.15181 12.5654 6.07612 12.3827C6.00043 12.2 5.98063 11.9989 6.01921 11.8049C6.0578 11.6109 6.15304 11.4328 6.29289 11.2929C6.43275 11.153 6.61093 11.0578 6.80491 11.0192C6.99889 10.9806 7.19996 11.0004 7.38268 11.0761C7.56541 11.1518 7.72159 11.28 7.83147 11.4444C7.94135 11.6089 8 11.8022 8 12C7.99966 12.2651 7.89419 12.5193 7.70673 12.7067C7.51927 12.8942 7.26511 12.9997 7 13ZM17 13C16.8022 13 16.6089 12.9414 16.4444 12.8315C16.28 12.7216 16.1518 12.5654 16.0761 12.3827C16.0004 12.2 15.9806 11.9989 16.0192 11.8049C16.0578 11.6109 16.153 11.4328 16.2929 11.2929C16.4327 11.153 16.6109 11.0578 16.8049 11.0192C16.9989 10.9806 17.2 11.0004 17.3827 11.0761C17.5654 11.1518 17.7216 11.28 17.8315 11.4444C17.9414 11.6089 18 11.8022 18 12C17.9997 12.2651 17.8942 12.5193 17.7067 12.7067C17.5193 12.8942 17.2651 12.9997 17 13Z" fill="#414853"/>
</svg>
