<svg width="24" height="24" viewBox="0 0 24 24" fill="none" xmlns="http://www.w3.org/2000/svg">
<path d="M21 11H17.8157C17.6119 10.4157 17.2314 9.90924 16.7269 9.55088C16.2224 9.19252 15.6188 9 15 9C14.3812 9 13.7776 9.19252 13.2731 9.55088C12.7686 9.90924 12.3881 10.4157 12.1843 11H3C2.73478 11 2.48043 11.1054 2.29289 11.2929C2.10536 11.4804 2 11.7348 2 12C2 12.2652 2.10536 12.5196 2.29289 12.7071C2.48043 12.8947 2.73478 13 3 13H12.1843C12.3881 13.5843 12.7686 14.0908 13.2731 14.4492C13.7777 14.8076 14.3812 15.0001 15 15.0001C15.6189 15.0001 16.2224 14.8076 16.7269 14.4492C17.2314 14.0908 17.612 13.5843 17.8157 13H21C21.2652 13 21.5196 12.8947 21.7071 12.7071C21.8946 12.5196 22 12.2652 22 12C22 11.7348 21.8946 11.4804 21.7071 11.2929C21.5196 11.1054 21.2652 11 21 11ZM15 13C14.8022 13 14.6089 12.9414 14.4444 12.8315C14.28 12.7216 14.1518 12.5654 14.0761 12.3827C14.0004 12.2 13.9806 11.9989 14.0192 11.8049C14.0578 11.6109 14.153 11.4328 14.2929 11.2929C14.4327 11.153 14.6109 11.0578 14.8049 11.0192C14.9989 10.9806 15.2 11.0004 15.3827 11.0761C15.5654 11.1518 15.7216 11.28 15.8315 11.4444C15.9414 11.6089 16 11.8022 16 12C15.9997 12.2651 15.8942 12.5193 15.7067 12.7067C15.5193 12.8942 15.2651 12.9997 15 13Z" fill="#414853"/>
</svg>
