<svg width="24" height="24" viewBox="0 0 24 24" fill="none" xmlns="http://www.w3.org/2000/svg">
<path d="M22 9.67002C21.9368 9.48711 21.822 9.32645 21.6693 9.20753C21.5167 9.0886 21.3328 9.01652 21.14 9.00002L15.45 8.17002L12.9 3.00002C12.8181 2.83095 12.6902 2.68837 12.5311 2.5886C12.3719 2.48883 12.1878 2.43591 12 2.43591C11.8121 2.43591 11.6281 2.48883 11.4689 2.5886C11.3097 2.68837 11.1819 2.83095 11.1 3.00002L8.54998 8.16002L2.85998 9.00002C2.6749 9.02633 2.5009 9.10399 2.35773 9.22418C2.21455 9.34438 2.10794 9.5023 2.04998 9.68002C1.99692 9.8537 1.99216 10.0385 2.03621 10.2147C2.08025 10.3909 2.17144 10.5517 2.29998 10.68L6.42998 14.68L5.42998 20.36C5.3896 20.5484 5.40453 20.7445 5.47296 20.9247C5.54139 21.1048 5.66041 21.2613 5.81571 21.3754C5.971 21.4895 6.15595 21.5563 6.34831 21.5678C6.54066 21.5792 6.73224 21.5349 6.89998 21.44L12 18.77L17.1 21.44C17.2403 21.5192 17.3988 21.5606 17.56 21.56C17.7718 21.5608 17.9784 21.4942 18.15 21.37C18.3051 21.2589 18.4252 21.1057 18.4961 20.9285C18.567 20.7513 18.5857 20.5575 18.55 20.37L17.55 14.69L21.68 10.69C21.8244 10.5677 21.9311 10.4069 21.9877 10.2264C22.0444 10.0458 22.0486 9.8529 22 9.67002ZM11 17L7.76998 18.7L8.48998 14.5C8.51622 14.3408 8.50354 14.1776 8.45305 14.0244C8.40255 13.8712 8.31572 13.7324 8.19998 13.62L5.19998 10.62L9.40998 10.01C9.57198 9.98749 9.72598 9.92556 9.85848 9.82968C9.99098 9.73379 10.0979 9.60686 10.17 9.46002L11 7.73002V17ZM15.8 13.62C15.6842 13.7324 15.5974 13.8712 15.5469 14.0244C15.4964 14.1776 15.4837 14.3408 15.51 14.5L16.23 18.7L13 17V7.73002L13.88 9.52002C13.952 9.66686 14.059 9.79379 14.1915 9.88968C14.324 9.98556 14.478 10.0475 14.64 10.07L18.85 10.68L15.8 13.62Z" fill="#414853"/>
</svg>
