<svg width="24" height="24" viewBox="0 0 24 24" fill="none" xmlns="http://www.w3.org/2000/svg">
<path d="M8.70016 3.99996H18.3227L19.9843 8.15432C19.9456 8.66943 19.7086 9.14944 19.3232 9.49335C18.9377 9.83726 18.4339 10.0183 17.9177 9.99826C17.4015 9.97826 16.9132 9.75883 16.5556 9.38613C16.1979 9.01343 15.9987 8.51652 16 7.99996C16 7.73474 15.8946 7.48039 15.7071 7.29285C15.5195 7.10531 15.2652 6.99996 15 6.99996C14.7347 6.99996 14.4804 7.10531 14.2928 7.29285C14.1053 7.48039 14 7.73474 14 7.99996C14.0027 8.2427 13.9571 8.48357 13.8657 8.70846C13.8156 8.82984 13.7899 8.9599 13.79 9.09122C13.7902 9.22253 13.8163 9.35253 13.8667 9.47378C13.9171 9.59503 13.9909 9.70516 14.0839 9.79787C14.1769 9.89058 14.2873 9.96406 14.4087 10.0141C14.4656 10.0312 14.524 10.0428 14.5831 10.049C14.9353 10.6418 15.4353 11.1332 16.0341 11.4752C16.633 11.8171 17.3103 11.9979 18 12V13.2998C18 13.565 18.1053 13.8193 18.2928 14.0069C18.4804 14.1944 18.7347 14.2998 19 14.2998C19.2652 14.2998 19.5195 14.1944 19.7071 14.0069C19.8946 13.8193 20 13.565 20 13.2998V11.4435C20.5997 11.0981 21.0991 10.6025 21.4491 10.0055C21.7991 9.40851 21.9876 8.73065 21.996 8.03866C21.9964 8.02932 21.9987 8.02066 21.9988 8.01125L22 7.99996C21.9937 7.94202 21.9821 7.88477 21.9654 7.82896C21.9604 7.76096 21.9481 7.6937 21.9287 7.62834L19.9287 2.62834C19.8543 2.44284 19.7261 2.28385 19.5606 2.17185C19.3951 2.05986 19.1998 1.99999 19 1.99996H8.70016C8.43494 1.99996 8.18059 2.10531 7.99305 2.29285C7.80551 2.48039 7.70016 2.73474 7.70016 2.99996C7.70016 3.26517 7.80551 3.51953 7.99305 3.70706C8.18059 3.8946 8.43494 3.99996 8.70016 3.99996ZM22.707 21.293L19.7739 18.3598C19.7287 18.3029 19.6772 18.2513 19.6202 18.2062L9.66996 8.25596C9.61196 8.17721 9.54241 8.10766 9.46367 8.04966L5.18215 3.76809C5.14361 3.72152 5.10078 3.67869 5.05422 3.64016L2.70696 1.29296C2.51887 1.10825 2.26545 1.00529 2.00183 1.00648C1.73822 1.00767 1.48574 1.11292 1.29933 1.29933C1.11292 1.48574 1.00767 1.73822 1.00648 2.00183C1.00529 2.26545 1.10825 2.51887 1.29296 2.70696L3.25649 4.67055L2.07863 7.61062L2.07851 7.61092L2.07174 7.62792C2.05385 7.68944 2.04222 7.7526 2.03701 7.81646C2.01863 7.87625 2.00622 7.93772 1.99996 7.99996L2.00112 8.0115L2.00362 8.03591C2.01165 8.72839 2.19997 9.40682 2.55004 10.0044C2.9001 10.6019 3.39983 11.0979 3.99996 11.4435V21C3.99996 21.2652 4.10531 21.5195 4.29285 21.7071C4.48039 21.8946 4.73474 22 4.99996 22H19C19.2035 21.9992 19.402 21.9359 19.5684 21.8187C19.7348 21.7014 19.8612 21.5359 19.9304 21.3444L21.293 22.707C21.481 22.8917 21.7345 22.9946 21.9981 22.9934C22.2617 22.9922 22.5142 22.887 22.7006 22.7006C22.887 22.5142 22.9922 22.2617 22.9934 21.9981C22.9946 21.7345 22.8917 21.481 22.707 21.293ZM4.01552 8.15371L4.79372 6.20778L7.66996 9.08401C7.49157 9.36526 7.24486 9.59676 6.95285 9.75692C6.66083 9.91708 6.33301 10.0007 5.99996 9.99996C5.49751 9.99852 5.0141 9.80762 4.64624 9.46538C4.27839 9.12314 4.05315 8.65474 4.01552 8.15371ZM8.99996 15V20H5.99996V12C6.59527 12.0015 7.18328 11.8689 7.72032 11.612C8.25737 11.3551 8.72966 10.9806 9.10213 10.5162L12.5859 14H9.99996C9.73474 14 9.48039 14.1053 9.29285 14.2928C9.10531 14.4804 8.99996 14.7347 8.99996 15ZM13 20H11V16H13V20ZM18 20H15V16.414L18 19.414V20Z" fill="#414853"/>
</svg>
