<svg width="24" height="24" viewBox="0 0 24 24" fill="none" xmlns="http://www.w3.org/2000/svg">
<path d="M11.58 16.5H10.32L11.18 15C11.2523 14.8862 11.3009 14.7589 11.3228 14.6258C11.3447 14.4927 11.3395 14.3566 11.3074 14.2256C11.2753 14.0946 11.217 13.9714 11.1361 13.8635C11.0552 13.7556 10.9533 13.6652 10.8365 13.5977C10.7198 13.5302 10.5905 13.4871 10.4567 13.4708C10.3228 13.4545 10.187 13.4655 10.0575 13.5031C9.92793 13.5407 9.80734 13.6041 9.70295 13.6895C9.59855 13.7749 9.51251 13.8805 9.44999 14L7.71999 17C7.63248 17.1516 7.58628 17.3235 7.58601 17.4985C7.58574 17.6735 7.63142 17.8455 7.71848 17.9974C7.80554 18.1492 7.93092 18.2756 8.0821 18.3638C8.23329 18.452 8.40497 18.4989 8.57999 18.5H9.85L8.99999 20C8.86739 20.2307 8.83187 20.5047 8.90126 20.7616C8.97065 21.0185 9.13926 21.2374 9.36999 21.37C9.60073 21.5026 9.8747 21.5381 10.1316 21.4687C10.3885 21.3993 10.6074 21.2307 10.74 21L12.47 18C12.5578 17.848 12.604 17.6755 12.604 17.5C12.604 17.3244 12.5578 17.152 12.47 17C12.3802 16.8444 12.2502 16.7158 12.0936 16.6279C11.937 16.5399 11.7596 16.4957 11.58 16.5ZM21.7 7.56998C21.5795 7.45165 21.4311 7.36575 21.2685 7.32028C21.1058 7.27482 20.9344 7.27128 20.77 7.30998C20.5534 7.35949 20.3322 7.3863 20.11 7.38998C19.3143 7.38998 18.5513 7.07391 17.9887 6.5113C17.4261 5.94869 17.11 5.18563 17.11 4.38998C17.1129 4.17104 17.1397 3.95308 17.19 3.73998C17.2297 3.57491 17.2268 3.40244 17.1814 3.23883C17.1361 3.07521 17.0498 2.92584 16.9307 2.80479C16.8117 2.68374 16.6638 2.59499 16.5009 2.54691C16.3381 2.49883 16.1657 2.49301 16 2.52998C15.0047 2.74972 14.102 3.27254 13.4161 4.02648C12.7302 4.78042 12.2949 5.72841 12.17 6.73998C11.6268 6.58475 11.065 6.50401 10.5 6.49998C9.05885 6.49916 7.66556 7.01708 6.57487 7.95904C5.48417 8.901 4.76896 10.2041 4.55999 11.63C3.8517 11.8239 3.22265 12.2364 2.76236 12.8086C2.30208 13.3808 2.03402 14.0836 1.99636 14.817C1.95869 15.5504 2.15333 16.277 2.55257 16.8934C2.95181 17.5098 3.5353 17.9845 4.21999 18.25C4.34425 18.309 4.47936 18.3418 4.61685 18.3462C4.75435 18.3507 4.89129 18.3267 5.0191 18.2758C5.14691 18.2249 5.26285 18.1482 5.35965 18.0505C5.45646 17.9527 5.53206 17.836 5.58172 17.7077C5.63139 17.5795 5.65404 17.4423 5.64828 17.3048C5.64251 17.1674 5.60845 17.0326 5.54822 16.9089C5.48798 16.7852 5.40288 16.6753 5.29822 16.586C5.19357 16.4967 5.07162 16.43 4.93999 16.39C4.61784 16.2593 4.35107 16.0208 4.1853 15.7152C4.01954 15.4096 3.96507 15.0559 4.0312 14.7146C4.09734 14.3733 4.27997 14.0656 4.54788 13.844C4.81579 13.6225 5.15234 13.5009 5.49999 13.5C5.76521 13.5 6.01957 13.3946 6.2071 13.2071C6.39464 13.0196 6.49999 12.7652 6.49999 12.5C6.49999 11.4391 6.92142 10.4217 7.67157 9.67155C8.42171 8.92141 9.43913 8.49998 10.5 8.49998C11.276 8.49936 12.0347 8.72906 12.68 9.15998C13.4069 9.63815 13.9581 10.3403 14.25 11.16C14.3072 11.3318 14.4099 11.4849 14.5473 11.6029C14.6847 11.7209 14.8515 11.7994 15.03 11.83C15.5474 11.9216 16.0187 12.1854 16.3672 12.5786C16.7158 12.9718 16.9213 13.4712 16.9502 13.9959C16.9792 14.5206 16.83 15.0396 16.5268 15.4688C16.2235 15.8979 15.7842 16.212 15.28 16.36C15.0148 16.3958 14.7746 16.5355 14.6124 16.7483C14.4502 16.9612 14.3792 17.2298 14.415 17.495C14.4508 17.7602 14.5905 18.0003 14.8033 18.1625C15.0162 18.3248 15.2848 18.3958 15.55 18.36C15.6394 18.3745 15.7306 18.3745 15.82 18.36C16.7365 18.1075 17.5444 17.5604 18.1191 16.8032C18.6939 16.0459 19.0034 15.1206 19 14.17C19.0039 13.4731 18.8356 12.7861 18.51 12.17C19.3688 11.9302 20.1466 11.4624 20.7611 10.8162C21.3755 10.1701 21.8036 9.36973 22 8.49998C22.0337 8.33225 22.0239 8.15867 21.9713 7.99584C21.9188 7.83301 21.8254 7.68639 21.7 7.56998ZM17.11 10.39C16.9702 10.4013 16.8298 10.4013 16.69 10.39C16.4716 10.2404 16.2408 10.1099 16 9.99998C15.5901 9.10182 14.965 8.31867 14.18 7.71998C14.18 7.59998 14.18 7.46998 14.18 7.34998C14.18 6.91666 14.2738 6.48847 14.4551 6.09488C14.6363 5.70129 14.9007 5.35164 15.23 5.06998C15.3848 6.13683 15.8803 7.12507 16.6426 7.88736C17.4049 8.64964 18.3931 9.14514 19.46 9.29998C19.1746 9.6457 18.8154 9.92307 18.4087 10.1117C18.002 10.3003 17.5583 10.3954 17.11 10.39Z" fill="#414853"/>
</svg>
