<svg width="24" height="24" viewBox="0 0 24 24" fill="none" xmlns="http://www.w3.org/2000/svg">
<path d="M15.53 14.13C15.437 14.0362 15.3264 13.9618 15.2046 13.9111C15.0827 13.8603 14.952 13.8342 14.82 13.8342C14.688 13.8342 14.5573 13.8603 14.4354 13.9111C14.3136 13.9618 14.203 14.0362 14.11 14.13C13.9237 14.3173 13.8192 14.5708 13.8192 14.835C13.8192 15.0991 13.9237 15.3526 14.11 15.54L20.29 21.72C20.383 21.8137 20.4936 21.8881 20.6154 21.9389C20.7373 21.9896 20.868 22.0158 21 22.0158C21.132 22.0158 21.2627 21.9896 21.3846 21.9389C21.5064 21.8881 21.617 21.8137 21.71 21.72C21.8962 21.5326 22.0008 21.2791 22.0008 21.015C22.0008 20.7508 21.8962 20.4973 21.71 20.31L15.53 14.13ZM16.76 11.64C17.5554 11.6393 18.3179 11.3227 18.88 10.76L21.71 7.92996C21.8962 7.7426 22.0008 7.48915 22.0008 7.22496C22.0008 6.96078 21.8962 6.70733 21.71 6.51996C21.617 6.42624 21.5064 6.35184 21.3846 6.30107C21.2627 6.2503 21.132 6.22417 21 6.22417C20.868 6.22417 20.7373 6.2503 20.6154 6.30107C20.4936 6.35184 20.383 6.42624 20.29 6.51996L17.46 9.34996C17.2726 9.53622 17.0192 9.64076 16.755 9.64076C16.4908 9.64076 16.2374 9.53622 16.05 9.34996L19.59 5.80996C19.7762 5.6226 19.8808 5.36915 19.8808 5.10496C19.8808 4.84078 19.7762 4.58733 19.59 4.39996C19.497 4.30624 19.3864 4.23184 19.2646 4.18107C19.1427 4.1303 19.012 4.10417 18.88 4.10417C18.748 4.10417 18.6173 4.1303 18.4954 4.18107C18.3736 4.23184 18.263 4.30624 18.17 4.39996L14.64 7.92996C14.4537 7.7426 14.3492 7.48915 14.3492 7.22496C14.3492 6.96078 14.4537 6.70733 14.64 6.51996L17.46 3.68996C17.5647 3.60032 17.6497 3.49 17.7097 3.36593C17.7697 3.24187 17.8035 3.10674 17.8088 2.96902C17.8141 2.8313 17.7909 2.69397 17.7406 2.56564C17.6904 2.43732 17.6141 2.32077 17.5166 2.22331C17.4192 2.12586 17.3026 2.0496 17.1743 1.99933C17.046 1.94905 16.9087 1.92585 16.7709 1.93117C16.6332 1.93648 16.4981 1.97021 16.374 2.03024C16.25 2.09026 16.1396 2.17528 16.05 2.27996L13.22 5.10996C12.6582 5.67247 12.3426 6.43496 12.3426 7.22996C12.3426 8.02497 12.6582 8.78746 13.22 9.34996L12 10.59L10.44 9.04996C10.8827 8.25092 11.0502 7.32836 10.9164 6.42469C10.7827 5.52103 10.3552 4.68651 9.7 4.04996C8.26 2.60996 4.53 0.999964 2.77 2.78996C1.01 4.57996 2.6 8.26996 4 9.71996C4.78183 10.5046 5.83298 10.9622 6.94 11H7.08C7.75612 10.9903 8.41799 10.8042 9 10.46L10.57 12L2.29 20.28C2.19742 20.3732 2.1241 20.4838 2.07425 20.6053C2.0244 20.7269 1.99898 20.8571 1.99944 20.9885C1.99991 21.1199 2.02625 21.2499 2.07696 21.3711C2.12767 21.4923 2.20176 21.6024 2.295 21.695C2.38824 21.7875 2.4988 21.8609 2.62037 21.9107C2.74194 21.9606 2.87214 21.986 3.00353 21.9855C3.13493 21.9851 3.26494 21.9587 3.38616 21.908C3.50738 21.8573 3.61742 21.7832 3.71 21.69L12.71 12.69L14.63 10.77C14.9103 11.048 15.2428 11.268 15.6083 11.4173C15.9738 11.5666 16.3652 11.6422 16.76 11.64ZM8.43 8.43996C8.24265 8.6262 8.01907 8.772 7.7731 8.86832C7.52712 8.96465 7.26399 9.00945 7 8.99996C6.4154 8.97479 5.86336 8.72386 5.46 8.29996C4.38 7.21996 3.62 4.76996 4.19 4.19996C4.37932 4.05715 4.61324 3.98626 4.85 3.99996C6.12629 4.10169 7.33433 4.61792 8.29 5.46996C8.69827 5.84768 8.94175 6.37072 8.96794 6.92631C8.99413 7.48189 8.80093 8.02551 8.43 8.43996Z" fill="#414853"/>
</svg>
