<svg width="24" height="24" viewBox="0 0 24 24" fill="none" xmlns="http://www.w3.org/2000/svg">
<path d="M7.71 6.28994L3.71 2.28994C3.61676 2.1967 3.50607 2.12274 3.38425 2.07228C3.26243 2.02182 3.13186 1.99585 3 1.99585C2.86814 1.99585 2.73758 2.02182 2.61575 2.07228C2.49393 2.12274 2.38324 2.1967 2.29 2.28994C2.1017 2.47824 1.99591 2.73364 1.99591 2.99994C1.99591 3.26624 2.1017 3.52164 2.29 3.70994L4.62 5.99994C3.8919 6.09289 3.22314 6.44955 2.74031 7.00241C2.25748 7.55527 1.99409 8.26595 2 8.99994V14.9999C2 15.7956 2.31607 16.5587 2.87868 17.1213C3.44129 17.6839 4.20435 17.9999 5 17.9999H14C14.6941 17.9967 15.3656 17.7528 15.9 17.3099L20.29 21.7099C20.383 21.8037 20.4936 21.8781 20.6154 21.9288C20.7373 21.9796 20.868 22.0057 21 22.0057C21.132 22.0057 21.2627 21.9796 21.3846 21.9288C21.5064 21.8781 21.617 21.8037 21.71 21.7099C21.8037 21.617 21.8781 21.5064 21.9289 21.3845C21.9797 21.2627 22.0058 21.132 22.0058 20.9999C22.0058 20.8679 21.9797 20.7372 21.9289 20.6154C21.8781 20.4935 21.8037 20.3829 21.71 20.2899L7.71 6.28994ZM14 15.9999H5C4.73479 15.9999 4.48043 15.8946 4.2929 15.707C4.10536 15.5195 4 15.2652 4 14.9999V8.99994C4 8.73472 4.10536 8.48037 4.2929 8.29283C4.48043 8.1053 4.73479 7.99994 5 7.99994H6.59L14.46 15.8799C14.3185 15.9563 14.1608 15.9975 14 15.9999ZM21.53 7.14994C21.378 7.06217 21.2055 7.01597 21.03 7.01597C20.8545 7.01597 20.682 7.06217 20.53 7.14994L17 8.88994C16.9715 8.11351 16.6429 7.37841 16.0834 6.83938C15.5238 6.30035 14.777 5.99942 14 5.99994H12.66C12.3948 5.99994 12.1404 6.1053 11.9529 6.29283C11.7654 6.48037 11.66 6.73472 11.66 6.99994C11.66 7.26516 11.7654 7.51951 11.9529 7.70705C12.1404 7.89458 12.3948 7.99994 12.66 7.99994H14C14.2652 7.99994 14.5196 8.1053 14.7071 8.29283C14.8946 8.48037 15 8.73472 15 8.99994V10.4999C14.9963 10.5632 14.9963 10.6267 15 10.6899C15.0059 10.7588 15.0228 10.8264 15.05 10.8899C15.05 10.8899 15.1 10.9499 15.12 10.9899C15.1607 11.0661 15.2111 11.1367 15.27 11.1999C15.27 11.1999 15.37 11.2599 15.42 11.2999L15.59 11.4099C15.6663 11.4204 15.7437 11.4204 15.82 11.4099C15.8666 11.4146 15.9135 11.4146 15.96 11.4099C16.0233 11.4137 16.0867 11.4137 16.15 11.4099C16.2189 11.404 16.2864 11.3871 16.35 11.3599L20 9.61994V15.3399C20 15.6052 20.1054 15.8595 20.2929 16.047C20.4804 16.2346 20.7348 16.3399 21 16.3399C21.2652 16.3399 21.5196 16.2346 21.7071 16.047C21.8946 15.8595 22 15.6052 22 15.3399V7.99994C22.0003 7.83 21.9574 7.66277 21.8751 7.51405C21.7929 7.36532 21.6741 7.24001 21.53 7.14994Z" fill="#414853"/>
</svg>
