<svg width="24" height="24" viewBox="0 0 24 24" fill="none" xmlns="http://www.w3.org/2000/svg">
<path d="M10.1694 5.23633C10.4431 5.16784 10.7204 5.11481 11 5.07751V6.34814C11 6.61335 11.1054 6.86771 11.2929 7.05524C11.4804 7.24278 11.7348 7.34814 12 7.34814C12.2652 7.34814 12.5196 7.24278 12.7071 7.05524C12.8946 6.86771 13 6.61335 13 6.34814V5.07114C14.4968 5.28382 15.8833 5.97908 16.9491 7.05136L16.9497 7.05228L16.951 7.05319C18.017 8.12209 18.7082 9.50748 18.921 11.002H18C17.7348 11.002 17.4804 11.1074 17.2929 11.2949C17.1054 11.4824 17 11.7368 17 12.002C17 12.2672 17.1054 12.5216 17.2929 12.7091C17.4804 12.8966 17.7348 13.002 18 13.002H18.922C18.8838 13.2803 18.8303 13.5563 18.7617 13.8287C18.7289 13.9558 18.7215 14.0882 18.7399 14.2182C18.7583 14.3482 18.8021 14.4733 18.8689 14.5864C18.9356 14.6995 19.024 14.7983 19.1289 14.8773C19.2338 14.9562 19.3533 15.0137 19.4805 15.0464C19.5621 15.0677 19.6461 15.0784 19.7305 15.0782C19.9521 15.078 20.1675 15.0042 20.3426 14.8684C20.5178 14.7325 20.6429 14.5423 20.6982 14.3277C20.8079 13.8919 20.8869 13.4489 20.9345 13.002H22C22.2652 13.002 22.5196 12.8966 22.7071 12.7091C22.8946 12.5216 23 12.2672 23 12.002C23 11.7368 22.8946 11.4824 22.7071 11.2949C22.5196 11.1074 22.2652 11.002 22 11.002H20.9407C20.7548 9.3135 20.0913 7.71301 19.028 6.38824L19.7783 5.63818C19.8711 5.54533 19.9448 5.4351 19.995 5.31379C20.0453 5.19248 20.0712 5.06245 20.0712 4.93115C20.0712 4.79984 20.0453 4.66982 19.995 4.54851C19.9448 4.42719 19.8711 4.31697 19.7783 4.22412C19.6855 4.13127 19.5752 4.05762 19.4539 4.00737C19.3326 3.95712 19.2026 3.93126 19.0713 3.93126C18.94 3.93126 18.8099 3.95712 18.6886 4.00737C18.5673 4.05762 18.4571 4.13127 18.3642 4.22412L17.6114 4.97675C16.2875 3.91412 14.6876 3.25176 13 3.06763V1.99805C13 1.73283 12.8946 1.47848 12.7071 1.29094C12.5196 1.1034 12.2652 0.998047 12 0.998047C11.7348 0.998047 11.4804 1.1034 11.2929 1.29094C11.1054 1.47848 11 1.73283 11 1.99805V3.06372C10.5518 3.11068 10.1074 3.18958 9.67041 3.2998C9.41444 3.36673 9.19543 3.53238 9.06136 3.76046C8.92728 3.98854 8.88906 4.26047 8.95508 4.51668C9.0211 4.77288 9.18597 4.99248 9.41358 5.12736C9.64118 5.26225 9.91297 5.30143 10.1694 5.23633H10.1694ZM14 9.002C14 9.19978 14.0586 9.39312 14.1685 9.55757C14.2784 9.72202 14.4346 9.85019 14.6173 9.92588C14.8 10.0016 15.0011 10.0214 15.1951 9.98278C15.3891 9.9442 15.5673 9.84896 15.7071 9.7091C15.847 9.56925 15.9422 9.39107 15.9808 9.19709C16.0194 9.00311 15.9996 8.80204 15.9239 8.61931C15.8482 8.43659 15.72 8.28041 15.5556 8.17053C15.3911 8.06065 15.1978 8.002 15 8.002C14.7348 8.002 14.4804 8.10735 14.2929 8.29489C14.1054 8.48243 14 8.73678 14 9.002ZM18.3772 16.9651L18.3696 16.9537L18.3578 16.9458L2.707 1.29492C2.51916 1.10897 2.26533 1.00496 2.00102 1.00564C1.7367 1.00631 1.48341 1.11161 1.29652 1.29852C1.10963 1.48542 1.00434 1.73872 1.00368 2.00303C1.00302 2.26734 1.10704 2.52116 1.293 2.709L4.97189 6.3879C3.90852 7.71274 3.24504 9.31337 3.05927 11.002H2C1.73478 11.002 1.48043 11.1074 1.29289 11.2949C1.10536 11.4824 1 11.7368 1 12.002C1 12.2672 1.10536 12.5216 1.29289 12.7091C1.48043 12.8966 1.73478 13.002 2 13.002H3.06006C3.24629 14.6904 3.90925 16.2909 4.97144 17.6165L4.22168 18.3663C4.12883 18.4591 4.05518 18.5693 4.00493 18.6906C3.95468 18.812 3.92882 18.942 3.92882 19.0733C3.92882 19.2046 3.95468 19.3346 4.00493 19.4559C4.05518 19.5772 4.12883 19.6875 4.22168 19.7803C4.4092 19.9678 4.66352 20.0732 4.92871 20.0732C5.06002 20.0732 5.19004 20.0473 5.31135 19.9971C5.43266 19.9468 5.54289 19.8732 5.63574 19.7803L6.38562 19.0304C7.71148 20.0915 9.31195 20.7533 11 20.9385V22.002C11 22.2672 11.1054 22.5216 11.2929 22.7091C11.4804 22.8966 11.7348 23.002 12 23.002C12.2652 23.002 12.5196 22.8966 12.7071 22.7091C12.8946 22.5216 13 22.2672 13 22.002V20.9385C14.6881 20.7533 16.2885 20.0915 17.6144 19.0304L21.293 22.709C21.4808 22.8949 21.7347 22.999 21.999 22.9983C22.2633 22.9976 22.5166 22.8923 22.7035 22.7054C22.8904 22.5185 22.9957 22.2652 22.9963 22.0009C22.997 21.7366 22.893 21.4827 22.707 21.2949L18.3772 16.9651ZM13 18.9189V17.002C13 16.7368 12.8946 16.4824 12.7071 16.2949C12.5196 16.1074 12.2652 16.002 12 16.002C11.7348 16.002 11.4804 16.1074 11.2929 16.2949C11.1054 16.4824 11 16.7368 11 17.002V18.919C9.508 18.7082 8.12417 18.0206 7.055 16.9588L7.0503 16.9517L7.04347 16.9472C5.98084 15.8781 5.29204 14.4943 5.07971 13.002H6C6.26522 13.002 6.51957 12.8966 6.70711 12.7091C6.89464 12.5216 7 12.2672 7 12.002C7 11.7368 6.89464 11.4824 6.70711 11.2949C6.51957 11.1074 6.26522 11.002 6 11.002H5.0788C5.24397 9.84564 5.69821 8.74965 6.39948 7.81549L8.25305 9.66907C8.06015 9.9575 7.97326 10.3039 8.0072 10.6492C8.04114 10.9946 8.1938 11.3174 8.43916 11.5628C8.68452 11.8082 9.00739 11.9608 9.35272 11.9948C9.69805 12.0287 10.0445 11.9418 10.3329 11.7489L16.1858 17.6018C15.2512 18.3012 14.1556 18.7541 13 18.9189ZM9 14.002C8.80222 14.002 8.60888 14.0606 8.44443 14.1705C8.27998 14.2804 8.15181 14.4366 8.07612 14.6193C8.00043 14.802 7.98063 15.0031 8.01921 15.1971C8.0578 15.3911 8.15304 15.5693 8.29289 15.7091C8.43275 15.849 8.61093 15.9442 8.80491 15.9828C8.99889 16.0214 9.19996 16.0016 9.38268 15.9259C9.56541 15.8502 9.72159 15.722 9.83147 15.5576C9.94135 15.3931 10 15.1998 10 15.002C10 14.7368 9.89464 14.4824 9.70711 14.2949C9.51957 14.1074 9.26522 14.002 9 14.002Z" fill="#414853"/>
</svg>
