<svg width="24" height="24" viewBox="0 0 24 24" fill="none" xmlns="http://www.w3.org/2000/svg">
<path d="M21.7099 20.2899L3.70994 2.28994C3.52164 2.10164 3.26624 1.99585 2.99994 1.99585C2.73364 1.99585 2.47824 2.10164 2.28994 2.28994C2.10164 2.47824 1.99585 2.73364 1.99585 2.99994C1.99585 3.26624 2.10164 3.52164 2.28994 3.70994L6.28994 7.70994C5.02098 9.66935 4.32799 11.9458 4.28994 14.2799C4.30043 16.3224 5.11578 18.2785 6.55914 19.7237C8.00249 21.1689 9.95745 21.9868 11.9999 21.9999C13.117 22.0048 14.2215 21.7647 15.2357 21.2965C16.2499 20.8283 17.1491 20.1433 17.8699 19.2899L20.2899 21.7099C20.3829 21.8037 20.4935 21.8781 20.6154 21.9288C20.7372 21.9796 20.8679 22.0057 20.9999 22.0057C21.132 22.0057 21.2627 21.9796 21.3845 21.9288C21.5064 21.8781 21.617 21.8037 21.7099 21.7099C21.8037 21.617 21.8781 21.5064 21.9288 21.3845C21.9796 21.2627 22.0057 21.132 22.0057 20.9999C22.0057 20.8679 21.9796 20.7372 21.9288 20.6154C21.8781 20.4935 21.8037 20.3829 21.7099 20.2899ZM11.9999 19.9999C10.4758 19.9973 9.01476 19.3906 7.937 18.3129C6.85924 17.2351 6.25259 15.7741 6.24994 14.2499C6.28426 12.4473 6.79115 10.6853 7.71994 9.13994L16.4599 17.8699C15.9255 18.5386 15.2467 19.0776 14.4742 19.4465C13.7018 19.8154 12.8559 20.0046 11.9999 19.9999ZM10.8499 5.23994C11.2999 4.81994 11.6999 4.48994 11.9999 4.23994C13.4299 5.35994 17.1299 8.66994 17.6799 13.1199C17.7094 13.3639 17.8277 13.5884 18.0121 13.7507C18.1965 13.913 18.4343 14.0017 18.6799 13.9999H18.7999C19.0622 13.9674 19.3009 13.8324 19.4639 13.6244C19.627 13.4164 19.701 13.1524 19.6699 12.8899C18.8899 6.45994 12.8199 2.33994 12.5699 2.16994C12.4046 2.05817 12.2095 1.99843 12.0099 1.99843C11.8103 1.99843 11.6153 2.05817 11.4499 2.16994C10.761 2.6617 10.1061 3.1996 9.48994 3.77994C9.31683 3.96493 9.2204 4.20872 9.22011 4.46207C9.21982 4.71542 9.3157 4.95944 9.48838 5.14482C9.66107 5.3302 9.89768 5.44312 10.1504 5.46078C10.4031 5.47844 10.6532 5.39951 10.8499 5.23994Z" fill="#414853"/>
</svg>
