<svg width="24" height="24" viewBox="0 0 24 24" fill="none" xmlns="http://www.w3.org/2000/svg">
<path d="M12 13C12.5933 13 13.1734 12.824 13.6667 12.4944C14.1601 12.1647 14.5446 11.6962 14.7716 11.148C14.9987 10.5998 15.0581 9.99662 14.9424 9.41468C14.8266 8.83274 14.5409 8.29819 14.1213 7.87863C13.7018 7.45907 13.1672 7.17335 12.5853 7.0576C12.0033 6.94184 11.4001 7.00125 10.8519 7.22831C10.3038 7.45538 9.83523 7.83989 9.50559 8.33324C9.17594 8.82659 9 9.40661 9 9.99995C9 10.7956 9.31607 11.5587 9.87868 12.1213C10.4413 12.6839 11.2043 13 12 13ZM12 8.99995C12.1978 8.99995 12.3911 9.0586 12.5556 9.16848C12.72 9.27836 12.8482 9.43454 12.9239 9.61727C12.9996 9.79999 13.0194 10.0011 12.9808 10.195C12.9422 10.389 12.847 10.5672 12.7071 10.7071C12.5673 10.8469 12.3891 10.9422 12.1951 10.9807C12.0011 11.0193 11.8 10.9995 11.6173 10.9238C11.4346 10.8481 11.2784 10.72 11.1685 10.5555C11.0586 10.3911 11 10.1977 11 9.99995C11 9.73474 11.1054 9.48038 11.2929 9.29284C11.4804 9.10531 11.7348 8.99995 12 8.99995ZM21.59 18.16C21.1017 16.5405 20.2106 15.0713 19 13.89C19.6739 12.672 20.0183 11.2993 19.9992 9.90754C19.9802 8.51575 19.5984 7.153 18.8914 5.95396C18.1845 4.75491 17.177 3.76106 15.9684 3.0706C14.7598 2.38014 13.3919 2.01697 12 2.01697C10.6081 2.01697 9.24023 2.38014 8.03163 3.0706C6.82302 3.76106 5.81548 4.75491 5.10856 5.95396C4.40163 7.153 4.01978 8.51575 4.00075 9.90754C3.98171 11.2993 4.32613 12.672 5 13.89C3.78231 15.0674 2.8871 16.5376 2.4 18.16C2.26983 18.6048 2.24452 19.0738 2.32607 19.5302C2.40761 19.9865 2.59379 20.4177 2.87 20.79C3.15141 21.1685 3.5181 21.4753 3.94031 21.6855C4.36252 21.8958 4.82835 22.0035 5.3 22H18.7C19.17 22.0019 19.6338 21.8934 20.0541 21.6833C20.4745 21.4731 20.8396 21.1671 21.12 20.79C21.3962 20.4177 21.5824 19.9865 21.6639 19.5302C21.7455 19.0738 21.7202 18.6048 21.59 18.16ZM12 3.99995C13.1867 3.99995 14.3467 4.35185 15.3334 5.01113C16.3201 5.67042 17.0891 6.60749 17.5433 7.70385C17.9974 8.80021 18.1162 10.0066 17.8847 11.1705C17.6532 12.3344 17.0818 13.4035 16.2426 14.2426C15.4035 15.0817 14.3344 15.6532 13.1705 15.8847C12.0067 16.1162 10.8003 15.9974 9.7039 15.5432C8.60754 15.0891 7.67047 14.3201 7.01118 13.3334C6.35189 12.3467 6 11.1866 6 9.99995C6 8.40865 6.63214 6.88253 7.75736 5.75731C8.88257 4.63209 10.4087 3.99995 12 3.99995ZM19.52 19.59C19.4259 19.7187 19.3024 19.8231 19.1597 19.8945C19.0171 19.9658 18.8595 20.0019 18.7 20H5.3C5.14053 20.0019 4.98289 19.9658 4.84024 19.8945C4.6976 19.8231 4.57408 19.7187 4.48 19.59C4.39008 19.4661 4.3298 19.3232 4.30379 19.1724C4.27779 19.0216 4.28675 18.8668 4.33 18.7199C4.68896 17.5112 5.33382 16.4067 6.21 15.5C6.9571 16.2835 7.85547 16.9073 8.85071 17.3335C9.84595 17.7597 10.9173 17.9795 12 17.9795C13.0827 17.9795 14.154 17.7597 15.1493 17.3335C16.1445 16.9073 17.0429 16.2835 17.79 15.5C18.6662 16.4067 19.311 17.5112 19.67 18.7199C19.7132 18.8668 19.7222 19.0216 19.6962 19.1724C19.6702 19.3232 19.6099 19.4661 19.52 19.59Z" fill="#414853"/>
</svg>
