<svg width="24" height="24" viewBox="0 0 24 24" fill="none" xmlns="http://www.w3.org/2000/svg">
<path d="M21 2H19H18.91H18.7L18.54 2.07L18.37 2.18C18.3218 2.21819 18.2782 2.26181 18.24 2.31C18.2009 2.3595 18.1674 2.41316 18.14 2.47C18.1051 2.52599 18.0782 2.58657 18.06 2.65V2.74L17.38 6H16.24L13.12 2.89C12.5501 2.34243 11.7904 2.03663 11 2.03663C10.2096 2.03663 9.44994 2.34243 8.88 2.89L5.76 6H3C2.82379 5.9993 2.65052 6.04517 2.49775 6.13298C2.34497 6.22078 2.2181 6.3474 2.13 6.5C2.04223 6.65202 1.99603 6.82446 1.99603 7C1.99603 7.17554 2.04223 7.34798 2.13 7.5L6.13 14.5L5.36 16C5.2402 15.9902 5.1198 15.9902 5 16C4.40666 16 3.82664 16.1759 3.33329 16.5056C2.83994 16.8352 2.45542 17.3038 2.22836 17.8519C2.0013 18.4001 1.94189 19.0033 2.05764 19.5853C2.1734 20.1672 2.45912 20.7018 2.87868 21.1213C3.29824 21.5409 3.83279 21.8266 4.41473 21.9424C4.99667 22.0581 5.59987 21.9987 6.14805 21.7716C6.69623 21.5446 7.16476 21.1601 7.49441 20.6667C7.82405 20.1734 8 19.5933 8 19C7.99682 18.2227 7.69209 17.477 7.15 16.92L8.15 14.92L9.53 14.78L13.47 20.69C13.7454 21.1056 14.1223 21.444 14.5651 21.6732C15.0078 21.9024 15.5017 22.0149 16 22C16.3863 21.9992 16.7692 21.9281 17.13 21.79C17.7741 21.5395 18.312 21.0743 18.6527 20.473C18.9934 19.8718 19.1161 19.1713 19 18.49L18 13L19.79 4H21C21.2652 4 21.5196 3.89464 21.7071 3.70711C21.8946 3.51957 22 3.26522 22 3C22 2.73478 21.8946 2.48043 21.7071 2.29289C21.5196 2.10536 21.2652 2 21 2ZM5 20C4.80222 20 4.60888 19.9414 4.44443 19.8315C4.27998 19.7216 4.15181 19.5654 4.07612 19.3827C4.00043 19.2 3.98063 18.9989 4.01921 18.8049C4.0578 18.6109 4.15304 18.4327 4.29289 18.2929C4.43275 18.153 4.61093 18.0578 4.80491 18.0192C4.99889 17.9806 5.19996 18.0004 5.38268 18.0761C5.56541 18.1518 5.72159 18.28 5.83147 18.4444C5.94135 18.6089 6 18.8022 6 19C6 19.2652 5.89464 19.5196 5.70711 19.7071C5.51957 19.8946 5.26522 20 5 20ZM10.3 4.29C10.4869 4.10677 10.7382 4.00414 11 4.00414C11.2618 4.00414 11.5131 4.10677 11.7 4.29L13.41 6H8.59L10.3 4.29ZM7.55 12.94L4.72 8H17L16.18 12.08L7.55 12.94ZM16.36 19.94C16.1467 20.0237 15.9111 20.0317 15.6927 19.9625C15.4743 19.8933 15.2862 19.7512 15.16 19.56L11.82 14.56L16.19 14.13L17 18.82C17.0401 19.0507 16.9981 19.2881 16.8811 19.491C16.7642 19.6938 16.5798 19.8492 16.36 19.93V19.94Z" fill="#414853"/>
</svg>
