<svg width="24" height="24" viewBox="0 0 24 24" fill="none" xmlns="http://www.w3.org/2000/svg">
<path d="M8.89999 17C8.70221 17 8.50887 17.0587 8.34442 17.1685C8.17997 17.2784 8.0518 17.4346 7.97611 17.6173C7.90043 17.8001 7.88062 18.0011 7.91921 18.1951C7.95779 18.3891 8.05303 18.5673 8.19289 18.7071C8.33274 18.847 8.51092 18.9422 8.7049 18.9808C8.89888 19.0194 9.09995 18.9996 9.28268 18.9239C9.4654 18.8482 9.62158 18.72 9.73146 18.5556C9.84134 18.3911 9.89999 18.1978 9.89999 18C9.89999 17.7348 9.79464 17.4804 9.6071 17.2929C9.41956 17.1054 9.16521 17 8.89999 17ZM5.89999 17C5.70221 17 5.50887 17.0587 5.34442 17.1685C5.17997 17.2784 5.0518 17.4346 4.97611 17.6173C4.90043 17.8001 4.88062 18.0011 4.91921 18.1951C4.95779 18.3891 5.05303 18.5673 5.19289 18.7071C5.33274 18.847 5.51092 18.9422 5.7049 18.9808C5.89888 19.0194 6.09995 18.9996 6.28268 18.9239C6.4654 18.8482 6.62158 18.72 6.73146 18.5556C6.84134 18.3911 6.89999 18.1978 6.89999 18C6.89999 17.7348 6.79464 17.4804 6.6071 17.2929C6.41956 17.1054 6.16521 17 5.89999 17ZM11.9 17C11.7022 17 11.5089 17.0587 11.3444 17.1685C11.18 17.2784 11.0518 17.4346 10.9761 17.6173C10.9004 17.8001 10.8806 18.0011 10.9192 18.1951C10.9578 18.3891 11.053 18.5673 11.1929 18.7071C11.3327 18.847 11.5109 18.9422 11.7049 18.9808C11.8989 19.0194 12.1 18.9996 12.2827 18.9239C12.4654 18.8482 12.6216 18.72 12.7315 18.5556C12.8413 18.3911 12.9 18.1978 12.9 18C12.9 17.7348 12.7946 17.4804 12.6071 17.2929C12.4196 17.1054 12.1652 17 11.9 17ZM15 8.50001C15.0879 8.34848 15.2141 8.22269 15.3659 8.13525C15.5177 8.04781 15.6898 8.00179 15.865 8.00179C16.0402 8.00179 16.2123 8.04781 16.3641 8.13525C16.5159 8.22269 16.6421 8.34848 16.73 8.50001C16.8619 8.72875 17.0789 8.89602 17.3337 8.96534C17.5885 9.03465 17.8604 9.00039 18.09 8.87001C18.2079 8.8081 18.3123 8.72325 18.397 8.62043C18.4818 8.51761 18.5451 8.39891 18.5833 8.27128C18.6215 8.14366 18.6338 8.00969 18.6195 7.87725C18.6052 7.7448 18.5645 7.61655 18.5 7.50001C18.2369 7.04305 17.8581 6.66349 17.4017 6.39957C16.9452 6.13564 16.4273 5.99668 15.9 5.99668C15.3727 5.99668 14.8548 6.13564 14.3983 6.39957C13.9419 6.66349 13.563 7.04305 13.3 7.50001C13.2156 7.72089 13.2121 7.96455 13.2903 8.18771C13.3685 8.41088 13.5232 8.59912 13.7271 8.71901C13.9309 8.83891 14.1706 8.88269 14.4036 8.8426C14.6367 8.80251 14.848 8.68113 15 8.50001ZM22 5.50001C21.3853 4.4369 20.5018 3.5542 19.4381 2.94052C18.3744 2.32684 17.168 2.00378 15.94 2.00378C14.712 2.00378 13.5056 2.32684 12.4419 2.94052C11.3782 3.5542 10.4947 4.4369 9.87999 5.50001C9.81387 5.61415 9.77099 5.74024 9.75381 5.87101C9.73662 6.00179 9.74548 6.13468 9.77987 6.26202C9.81426 6.38936 9.87351 6.50864 9.95419 6.61298C10.0349 6.71733 10.1354 6.80468 10.25 6.87001C10.3876 6.94836 10.5418 6.99292 10.7 7.00001C10.8762 7.00071 11.0495 6.95484 11.2022 6.86704C11.355 6.77923 11.4819 6.65262 11.57 6.50001C12.0089 5.73998 12.64 5.10885 13.4001 4.67004C14.1602 4.23124 15.0224 4.00023 15.9 4.00023C16.7776 4.00023 17.6398 4.23124 18.3999 4.67004C19.16 5.10885 19.7911 5.73998 20.23 6.50001C20.2953 6.6146 20.3827 6.71513 20.487 6.79582C20.5914 6.8765 20.7106 6.93575 20.838 6.97014C20.9653 7.00453 21.0982 7.01339 21.229 6.9962C21.3598 6.97902 21.4859 6.93613 21.6 6.87001C21.7171 6.80723 21.8205 6.72175 21.9042 6.61854C21.9879 6.51534 22.0502 6.39649 22.0874 6.26894C22.1247 6.14139 22.1361 6.0077 22.1211 5.87568C22.1061 5.74365 22.0649 5.61594 22 5.50001ZM17.9 14H16.9V11C16.9 10.7348 16.7946 10.4804 16.6071 10.2929C16.4196 10.1054 16.1652 10 15.9 10C15.6348 10 15.3804 10.1054 15.1929 10.2929C15.0054 10.4804 14.9 10.7348 14.9 11V14H4.89999C4.10434 14 3.34128 14.3161 2.77867 14.8787C2.21606 15.4413 1.89999 16.2044 1.89999 17V19C1.89999 19.7957 2.21606 20.5587 2.77867 21.1213C3.34128 21.6839 4.10434 22 4.89999 22H17.9C18.6956 22 19.4587 21.6839 20.0213 21.1213C20.5839 20.5587 20.9 19.7957 20.9 19V17C20.9 16.2044 20.5839 15.4413 20.0213 14.8787C19.4587 14.3161 18.6956 14 17.9 14ZM18.9 19C18.9 19.2652 18.7946 19.5196 18.6071 19.7071C18.4196 19.8947 18.1652 20 17.9 20H4.89999C4.63478 20 4.38042 19.8947 4.19289 19.7071C4.00535 19.5196 3.89999 19.2652 3.89999 19V17C3.89999 16.7348 4.00535 16.4804 4.19289 16.2929C4.38042 16.1054 4.63478 16 4.89999 16H17.9C18.1652 16 18.4196 16.1054 18.6071 16.2929C18.7946 16.4804 18.9 16.7348 18.9 17V19Z" fill="#414853"/>
</svg>
