<svg width="24" height="24" viewBox="0 0 24 24" fill="none" xmlns="http://www.w3.org/2000/svg">
<path d="M12 19H6.99999C6.73478 19 6.48042 19.1054 6.29289 19.2929C6.10535 19.4804 5.99999 19.7348 5.99999 20C5.99999 20.2652 6.10535 20.5196 6.29289 20.7071C6.48042 20.8947 6.73478 21 6.99999 21H12C12.2641 21.0035 12.5165 21.11 12.7032 21.2968C12.89 21.4836 12.9965 21.7359 13 22C13 22.2652 13.1053 22.5196 13.2929 22.7071C13.4804 22.8947 13.7348 23 14 23C14.2652 23 14.5196 22.8947 14.7071 22.7071C14.8946 22.5196 15 22.2652 15 22C14.9991 21.2046 14.6828 20.4421 14.1204 19.8797C13.5579 19.3172 12.7954 19.0009 12 19ZM14 9.00002C14.1978 9.00002 14.3911 8.94137 14.5556 8.83149C14.72 8.7216 14.8482 8.56543 14.9239 8.3827C14.9996 8.19997 15.0194 7.99891 14.9808 7.80493C14.9422 7.61095 14.847 7.43276 14.7071 7.29291C14.5672 7.15306 14.3891 7.05782 14.1951 7.01923C14.0011 6.98065 13.8 7.00045 13.6173 7.07614C13.4346 7.15182 13.2784 7.28 13.1685 7.44445C13.0586 7.6089 13 7.80224 13 8.00002C13 8.26523 13.1053 8.51959 13.2929 8.70712C13.4804 8.89466 13.7348 9.00002 14 9.00002ZM18 9.00002H20C20.7954 8.99915 21.5579 8.6828 22.1204 8.12038C22.6828 7.55796 22.9991 6.7954 23 6.00002C23 5.7348 22.8946 5.48045 22.7071 5.29291C22.5196 5.10537 22.2652 5.00002 22 5.00002C21.7348 5.00002 21.4804 5.10537 21.2929 5.29291C21.1053 5.48045 21 5.7348 21 6.00002C20.9965 6.26415 20.89 6.51648 20.7032 6.70326C20.5165 6.89005 20.2641 6.99653 20 7.00002H18C17.7348 7.00002 17.4804 7.10537 17.2929 7.29291C17.1053 7.48045 17 7.7348 17 8.00002C17 8.26523 17.1053 8.51959 17.2929 8.70712C17.4804 8.89466 17.7348 9.00002 18 9.00002ZM20 15H17.8387C18.4125 14.1023 18.8023 13.0995 18.9853 12.0498C19.0146 11.8791 18.9991 11.7037 18.9403 11.5408C18.8815 11.3779 18.7814 11.2331 18.6498 11.1204C18.5182 11.0078 18.3596 10.9313 18.1895 10.8984C18.0195 10.8655 17.8438 10.8773 17.6797 10.9326C17.0614 11.1427 16.4128 11.25 15.7598 11.25C14.1545 11.2494 12.6151 10.6122 11.4791 9.47802C10.3431 8.34387 9.70337 6.80544 9.70019 5.20022C9.70693 4.84868 9.73957 4.49812 9.79784 4.15139C9.82395 3.98178 9.80594 3.80831 9.74554 3.64769C9.68514 3.48706 9.5844 3.3447 9.45301 3.23431C9.32163 3.12392 9.16403 3.04923 8.9954 3.01743C8.82677 2.98563 8.65279 2.99779 8.49022 3.05275C7.33099 3.43946 6.27528 4.08559 5.40349 4.94194C4.53169 5.79828 3.86679 6.84227 3.45941 7.9944C3.05204 9.14653 2.91293 10.3764 3.05268 11.5904C3.19243 12.8045 3.60736 13.9706 4.26586 15H2.99999C2.73478 15 2.48042 15.1054 2.29289 15.2929C2.10535 15.4804 1.99999 15.7348 1.99999 16C1.99999 16.2652 2.10535 16.5196 2.29289 16.7071C2.48042 16.8947 2.73478 17 2.99999 17H7.99999C8.26521 17 8.51956 16.8947 8.7071 16.7071C8.89464 16.5196 8.99999 16.2652 8.99999 16C8.99999 15.7348 8.89464 15.4804 8.7071 15.2929C8.51956 15.1054 8.26521 15 7.99999 15H6.8305C6.18287 14.3717 5.68456 13.606 5.37233 12.7594C5.06011 11.9128 4.94194 11.0068 5.02653 10.1085C5.11112 9.2101 5.39633 8.34218 5.8611 7.56874C6.32587 6.79529 6.95836 6.13606 7.7119 5.63967C7.82811 7.69587 8.7265 9.62973 10.2229 11.0448C11.7193 12.4598 13.7003 13.2488 15.7598 13.25C16.0233 13.2502 16.2866 13.2372 16.5488 13.211C16.238 13.8801 15.807 14.4865 15.2773 15H12C11.7348 15 11.4804 15.1054 11.2929 15.2929C11.1053 15.4804 11 15.7348 11 16C11 16.2652 11.1053 16.5196 11.2929 16.7071C11.4804 16.8947 11.7348 17 12 17H20C20.2652 17 20.5196 17.1054 20.7071 17.2929C20.8946 17.4804 21 17.7348 21 18C21 18.2652 20.8946 18.5196 20.7071 18.7071C20.5196 18.8947 20.2652 19 20 19C19.7348 19 19.4804 19.1054 19.2929 19.2929C19.1053 19.4804 19 19.7348 19 20C19 20.2652 19.1053 20.5196 19.2929 20.7071C19.4804 20.8947 19.7348 21 20 21C20.7956 21 21.5587 20.6839 22.1213 20.1213C22.6839 19.5587 23 18.7957 23 18C23 17.2044 22.6839 16.4413 22.1213 15.8787C21.5587 15.3161 20.7956 15 20 15ZM2.62011 19.0801C2.49887 19.1307 2.38722 19.2017 2.29003 19.2901C2.10538 19.4805 2.00146 19.7348 1.99999 20C1.99828 20.1647 2.03769 20.3272 2.11465 20.4728C2.1916 20.6184 2.30367 20.7425 2.44069 20.8338C2.57772 20.9252 2.73537 20.9809 2.89937 20.9959C3.06336 21.011 3.22852 20.9848 3.37987 20.9199C3.501 20.8692 3.61263 20.7982 3.70999 20.71C3.80297 20.6168 3.87648 20.506 3.92627 20.3841C3.97605 20.2622 4.00111 20.1317 3.99999 20C3.99608 19.7353 3.89253 19.4818 3.70999 19.29C3.56926 19.1515 3.39071 19.0576 3.19679 19.0203C3.00287 18.9829 2.80224 19.0037 2.62011 19.0801Z" fill="#414853"/>
</svg>
