<svg width="24" height="24" viewBox="0 0 24 24" fill="none" xmlns="http://www.w3.org/2000/svg">
<path d="M3.66675 11.9998C3.6662 15.1931 5.49042 18.1058 8.36353 19.4995L4.38818 8.60846C3.91162 9.67548 3.66583 10.8311 3.66675 11.9998ZM12.1465 12.7287L9.64575 19.9939C11.3246 20.4883 13.1165 20.4418 14.7675 19.861C14.7443 19.8245 14.7243 19.7861 14.7078 19.7461L12.1465 12.7287ZM17.6257 11.5795C17.6146 10.7645 17.3767 9.96875 16.9387 9.28137C16.4908 8.71783 16.2075 8.04138 16.1201 7.32684C16.0999 6.53271 16.7255 5.87158 17.5195 5.8479C17.5565 5.8479 17.5915 5.85236 17.6274 5.85461C14.2344 2.74658 8.96436 2.97766 5.85638 6.37061C5.55566 6.69885 5.2818 7.05066 5.03735 7.42267C5.23291 7.42889 5.41724 7.4328 5.57361 7.4328C6.44507 7.4328 7.79468 7.32678 7.79468 7.32678C7.98462 7.3158 8.14752 7.46088 8.15851 7.65082C8.16919 7.83551 8.03204 7.99567 7.8479 8.01355C7.8479 8.01355 7.39624 8.06641 6.89429 8.09271L9.92871 17.1192L11.7527 11.6499L10.4543 8.09277C10.0054 8.06646 9.58032 8.01361 9.58032 8.01361C9.39099 7.9953 9.25232 7.82696 9.27057 7.63763C9.28839 7.45336 9.44861 7.31616 9.63336 7.32684C9.63336 7.32684 11.0092 7.43286 11.8279 7.43286C12.6994 7.43286 14.0492 7.32684 14.0492 7.32684C14.2391 7.31573 14.4022 7.46069 14.4133 7.65057C14.4241 7.83551 14.2867 7.99591 14.1024 8.01361C14.1024 8.01361 13.6503 8.06647 13.1487 8.09277L16.1602 17.0505L17.0198 14.3265C17.3555 13.4456 17.5597 12.52 17.6257 11.5795ZM19.3688 8.85889C19.3543 9.88562 19.139 10.8997 18.7349 11.8436L16.1897 19.2025C20.0933 16.9318 21.4781 11.9651 19.3127 8.00208C19.3506 8.28607 19.3693 8.57233 19.3688 8.85889ZM12 2.00012C6.47717 2.00012 2 6.47729 2 12.0001C2 17.523 6.47717 22.0001 12 22.0001C17.5228 22.0001 22 17.523 22 12.0001C22 6.47729 17.5228 2.00012 12 2.00012ZM15.6587 20.6616C12.7322 21.9001 9.37787 21.574 6.74475 19.7951C5.23328 18.7747 4.05011 17.3379 3.33838 15.6588C2.09961 12.7324 2.42578 9.37787 4.20508 6.74487C5.22534 5.23327 6.66211 4.04998 8.34131 3.33856C11.2678 2.1001 14.6221 2.42615 17.2553 4.20508C18.7667 5.22553 19.9499 6.66229 20.6616 8.34137C21.9004 11.2678 21.5742 14.6223 19.7949 17.2553C18.7747 18.7669 17.3379 19.9502 15.6587 20.6616Z" fill="#414853"/>
</svg>
