<svg width="24" height="24" viewBox="0 0 24 24" fill="none" xmlns="http://www.w3.org/2000/svg">
<path d="M18 5.00001H19V6.00001C19 6.26522 19.1054 6.51958 19.2929 6.70711C19.4804 6.89465 19.7348 7.00001 20 7.00001C20.2652 7.00001 20.5196 6.89465 20.7071 6.70711C20.8946 6.51958 21 6.26522 21 6.00001V5.00001H22C22.2652 5.00001 22.5196 4.89465 22.7071 4.70711C22.8946 4.51958 23 4.26522 23 4.00001C23 3.73479 22.8946 3.48044 22.7071 3.2929C22.5196 3.10536 22.2652 3.00001 22 3.00001H21V2.00001C21 1.73479 20.8946 1.48044 20.7071 1.2929C20.5196 1.10536 20.2652 1.00001 20 1.00001C19.7348 1.00001 19.4804 1.10536 19.2929 1.2929C19.1054 1.48044 19 1.73479 19 2.00001V3.00001H18C17.7348 3.00001 17.4804 3.10536 17.2929 3.2929C17.1054 3.48044 17 3.73479 17 4.00001C17 4.26522 17.1054 4.51958 17.2929 4.70711C17.4804 4.89465 17.7348 5.00001 18 5.00001ZM11 9.00001C11 9.26522 11.1054 9.51958 11.2929 9.70711C11.4804 9.89465 11.7348 10 12 10C12.2652 10 12.5196 9.89465 12.7071 9.70711C12.8946 9.51958 13 9.26522 13 9.00001C13 8.73479 13.1054 8.48044 13.2929 8.2929C13.4804 8.10536 13.7348 8.00001 14 8.00001H15C15.2652 8.00001 15.5196 8.10536 15.7071 8.2929C15.8946 8.48044 16 8.73479 16 9.00001V10C16 10.2652 15.8946 10.5196 15.7071 10.7071C15.5196 10.8947 15.2652 11 15 11H14.5C14.2348 11 13.9804 11.1054 13.7929 11.2929C13.6054 11.4804 13.5 11.7348 13.5 12C13.5 12.2652 13.6054 12.5196 13.7929 12.7071C13.9804 12.8947 14.2348 13 14.5 13H15C15.2652 13 15.5196 13.1054 15.7071 13.2929C15.8946 13.4804 16 13.7348 16 14V15C16 15.2652 15.8946 15.5196 15.7071 15.7071C15.5196 15.8947 15.2652 16 15 16H14C13.7348 16 13.4804 15.8947 13.2929 15.7071C13.1054 15.5196 13 15.2652 13 15C13 14.7348 12.8946 14.4804 12.7071 14.2929C12.5196 14.1054 12.2652 14 12 14C11.7348 14 11.4804 14.1054 11.2929 14.2929C11.1054 14.4804 11 14.7348 11 15C11 15.7957 11.3161 16.5587 11.8787 17.1213C12.4413 17.6839 13.2044 18 14 18H15C15.7957 18 16.5587 17.6839 17.1213 17.1213C17.6839 16.5587 18 15.7957 18 15V14C17.9956 13.26 17.7178 12.5476 17.22 12C17.7178 11.4524 17.9956 10.7401 18 10V9.00001C18 8.20436 17.6839 7.4413 17.1213 6.87869C16.5587 6.31608 15.7957 6.00001 15 6.00001H14C13.2044 6.00001 12.4413 6.31608 11.8787 6.87869C11.3161 7.4413 11 8.20436 11 9.00001ZM7 7.00001V17C7 17.2652 7.10536 17.5196 7.2929 17.7071C7.48043 17.8947 7.73479 18 8 18C8.26522 18 8.51958 17.8947 8.70711 17.7071C8.89465 17.5196 9 17.2652 9 17V7.00001C9 6.73479 8.89465 6.48044 8.70711 6.2929C8.51958 6.10536 8.26522 6.00001 8 6.00001C7.73479 6.00001 7.48043 6.10536 7.2929 6.2929C7.10536 6.48044 7 6.73479 7 7.00001ZM21.6 9.00001C21.4713 9.02625 21.349 9.07759 21.2402 9.1511C21.1313 9.2246 21.038 9.31884 20.9656 9.42842C20.8931 9.538 20.843 9.66077 20.818 9.78973C20.793 9.91869 20.7937 10.0513 20.82 10.18C21.2104 12.0762 20.979 14.0478 20.1601 15.802C19.3412 17.5563 17.9785 18.9997 16.2741 19.9181C14.5698 20.8364 12.6148 21.1807 10.6993 20.8999C8.78381 20.619 7.00992 19.728 5.64097 18.359C4.27202 16.9901 3.38099 15.2162 3.10014 13.3007C2.81929 11.3852 3.16359 9.43018 4.08194 7.72587C5.00028 6.02156 6.44372 4.6588 8.19798 3.83989C9.95224 3.02098 11.9238 2.78957 13.82 3.18001C14.0852 3.23305 14.3606 3.17856 14.5857 3.02854C14.8107 2.87851 14.967 2.64522 15.02 2.38001C15.073 2.11479 15.0186 1.83937 14.8685 1.61432C14.7185 1.38928 14.4852 1.23305 14.22 1.18001C13.4882 1.04366 12.7442 0.983338 12 1.00001C9.82441 1.00001 7.69767 1.64515 5.88873 2.85384C4.07979 4.06254 2.66989 5.7805 1.83733 7.79049C1.00477 9.80048 0.786929 12.0122 1.21137 14.146C1.6358 16.2798 2.68345 18.2398 4.22183 19.7782C5.76021 21.3166 7.72022 22.3642 9.85401 22.7886C11.9878 23.2131 14.1995 22.9952 16.2095 22.1627C18.2195 21.3301 19.9375 19.9202 21.1462 18.1113C22.3549 16.3023 23 14.1756 23 12C23.0021 11.2611 22.9284 10.5239 22.78 9.80001C22.7561 9.6695 22.7064 9.54507 22.6338 9.43396C22.5613 9.32284 22.4674 9.22727 22.3576 9.15282C22.2478 9.07836 22.1242 9.0265 21.9942 9.00027C21.8641 8.97403 21.7301 8.97394 21.6 9.00001Z" fill="#414853"/>
</svg>
