<svg width="24" height="24" viewBox="0 0 24 24" fill="none" xmlns="http://www.w3.org/2000/svg">
<path d="M7 15.14C7.03156 15.2952 7.08903 15.4439 7.17 15.58C7.48915 16.3595 7.96186 17.0669 8.56 17.66C9.16156 18.255 9.87084 18.7301 10.65 19.06C11.4506 19.4101 12.3162 19.5873 13.19 19.58C14.067 19.5863 14.9355 19.4092 15.74 19.06C16.5161 18.7299 17.222 18.2547 17.82 17.66C18.423 17.0668 18.9023 16.3598 19.23 15.58C19.5556 14.7598 19.712 13.8822 19.69 13C19.6879 12.1216 19.5147 11.2521 19.18 10.44C18.8521 9.66323 18.3728 8.95955 17.77 8.37C17.1651 7.75765 16.4439 7.27236 15.6488 6.94264C14.8537 6.61293 14.0007 6.44543 13.14 6.45C12.2518 6.45866 11.3745 6.6457 10.56 7C10.1389 7.18712 9.73695 7.41487 9.36 7.68C8.94851 7.95306 8.56647 8.26808 8.22 8.62V3.23H17.27C17.49 3.23 17.61 3.02 17.61 2.61C17.61 2.2 17.48 2 17.26 2H7.47C7.41338 1.99724 7.35688 2.00752 7.30486 2.03006C7.25285 2.0526 7.2067 2.08679 7.17 2.13C7.13148 2.16775 7.10099 2.2129 7.08037 2.26274C7.05975 2.31257 7.04942 2.36607 7.05 2.42V10C7.05344 10.0597 7.07057 10.1178 7.10004 10.1698C7.12952 10.2218 7.17056 10.2664 7.22 10.3C7.34274 10.3877 7.48235 10.449 7.63 10.48C7.77008 10.5232 7.91992 10.5232 8.06 10.48C8.14487 10.4551 8.2257 10.418 8.3 10.37C8.35278 10.3187 8.39973 10.2616 8.44 10.2C8.69408 9.83997 8.98206 9.5051 9.3 9.2C9.79132 8.69441 10.3812 8.29508 11.0331 8.02674C11.6851 7.7584 12.3851 7.62677 13.09 7.64C13.8019 7.63044 14.508 7.76858 15.1637 8.04569C15.8195 8.3228 16.4107 8.73287 16.9 9.25C17.4033 9.73568 17.8029 10.3184 18.0745 10.963C18.346 11.6076 18.484 12.3006 18.48 13C18.474 13.6869 18.3347 14.3661 18.07 15C17.8117 15.6685 17.422 16.2785 16.9239 16.7938C16.4258 17.3091 15.8294 17.7192 15.17 18C14.5161 18.2668 13.8162 18.4027 13.11 18.4C12.1576 18.4075 11.2221 18.1477 10.41 17.65V13C10.4148 12.3356 10.6681 11.6971 11.12 11.21C11.3654 10.9214 11.6726 10.6915 12.0188 10.5375C12.3649 10.3834 12.7413 10.3091 13.12 10.32C13.4901 10.3046 13.8592 10.3669 14.2037 10.503C14.5482 10.6391 14.8604 10.8459 15.12 11.11C15.368 11.3567 15.5625 11.6519 15.6915 11.977C15.8206 12.3022 15.8813 12.6504 15.87 13C15.8714 13.3627 15.8004 13.7221 15.6613 14.0571C15.5222 14.3921 15.3178 14.6961 15.0599 14.9512C14.802 15.2063 14.4958 15.4074 14.1593 15.5429C13.8228 15.6783 13.4627 15.7453 13.1 15.74H12.76L12.39 15.67H12.24C12.03 15.61 11.87 15.77 11.75 16.15C11.63 16.53 11.68 16.75 11.89 16.83C12.2957 16.9506 12.7168 17.0113 13.14 17.01C13.661 17.0167 14.1779 16.9173 14.6593 16.7179C15.1407 16.5185 15.5764 16.2232 15.94 15.85C16.3209 15.4817 16.6208 15.038 16.8205 14.5473C17.0202 14.0566 17.1154 13.5296 17.1 13C17.1106 12.4814 17.0129 11.9664 16.8131 11.4877C16.6134 11.009 16.316 10.5773 15.94 10.22C15.577 9.8467 15.1411 9.55199 14.6594 9.35417C14.1778 9.15634 13.6606 9.05962 13.14 9.07C12.6165 9.06042 12.0966 9.15743 11.6118 9.35513C11.127 9.55283 10.6875 9.84708 10.32 10.22C9.96349 10.5512 9.67846 10.9518 9.48242 11.3972C9.28638 11.8426 9.18347 12.3234 9.18 12.81V16.61C8.70382 16.0652 8.33713 15.4336 8.1 14.75C8.02 14.54 7.8 14.5 7.43 14.62C7.06 14.74 6.88 14.91 6.95 15.11L7 15.14ZM13.25 4.14C12.1041 4.11639 10.966 4.33446 9.91 4.78C9.85208 4.78424 9.79744 4.80852 9.75547 4.84867C9.7135 4.88881 9.68681 4.94232 9.68 5C9.68459 5.14749 9.71505 5.29304 9.77 5.43C9.91 5.78 10.07 5.91 10.27 5.84C11.2042 5.47674 12.1977 5.29024 13.2 5.29C14.2595 5.28125 15.309 5.49592 16.28 5.92C17.1237 6.28761 17.9034 6.78719 18.59 7.4C18.613 7.42483 18.6408 7.44472 18.6718 7.45847C18.7027 7.47222 18.7361 7.47955 18.77 7.48C18.86 7.48 19.01 7.38 19.2 7.19L19.39 7C19.4307 6.93763 19.4516 6.86444 19.45 6.79C19.4437 6.71293 19.4079 6.64129 19.35 6.59C18.5866 5.8721 17.6988 5.2994 16.73 4.9C15.6168 4.4108 14.4159 4.15226 13.2 4.14H13.25ZM11.64 14.05C11.6474 14.1162 11.6692 14.18 11.7037 14.237C11.7383 14.294 11.7848 14.3428 11.84 14.38C11.9286 14.4835 12.0543 14.5482 12.19 14.56C12.2523 14.5628 12.3133 14.5413 12.36 14.5L13.09 13.77L13.79 14.45C13.8148 14.4826 13.8465 14.5093 13.8828 14.5283C13.9191 14.5473 13.9591 14.5581 14 14.56C14.139 14.5422 14.2669 14.4747 14.36 14.37C14.56 14.16 14.59 13.98 14.43 13.82L13.73 13.12L14.47 12.38C14.59 12.26 14.55 12.09 14.34 11.89C14.13 11.69 13.94 11.62 13.81 11.75L13.08 12.47L12.36 11.73C12.3154 11.7002 12.2636 11.683 12.21 11.68C12.0762 11.7032 11.9553 11.7743 11.87 11.88C11.64 12.1 11.59 12.26 11.71 12.38L12.45 13.12L11.71 13.84C11.6463 13.8935 11.6038 13.968 11.59 14.05H11.64ZM19.57 18.62C19.4628 18.515 19.3374 18.4303 19.2 18.37C19.1514 18.3551 19.0996 18.3538 19.0503 18.3661C19.001 18.3785 18.9559 18.404 18.92 18.44L18.85 18.51C18.1285 19.2279 17.2766 19.8015 16.34 20.2C14.8887 20.8107 13.2885 20.9761 11.743 20.6752C10.1974 20.3743 8.77618 19.6206 7.66 18.51C6.90994 17.8029 6.31415 16.9483 5.91 16C5.68203 15.4283 5.5112 14.8354 5.4 14.23C5.4 14.02 5.15 13.94 4.77 14C4.39 14.06 4.21 14.2 4.24 14.4C4.34824 15.1262 4.54991 15.8355 4.84 16.51C5.30768 17.5939 5.98772 18.5732 6.84 19.39C7.66254 20.2401 8.64459 20.9197 9.73 21.39C10.851 21.8599 12.0545 22.1013 13.27 22.1C14.4851 22.0974 15.6879 21.8561 16.81 21.39C17.8954 20.9197 18.8775 20.2401 19.7 19.39L19.76 19.33C19.85 19.11 19.78 18.89 19.52 18.62H19.57Z" fill="#414853"/>
</svg>
