<svg width="24" height="24" viewBox="0 0 24 24" fill="none" xmlns="http://www.w3.org/2000/svg">
<path d="M17 7C16.5376 5.79576 15.7816 4.72618 14.8007 3.88847C13.8198 3.05077 12.645 2.47152 11.3833 2.20337C10.1215 1.93522 8.8127 1.98667 7.57587 2.35306C6.33905 2.71945 5.21341 3.38915 4.30128 4.30128C3.38915 5.21341 2.71945 6.33905 2.35306 7.57587C1.98667 8.8127 1.93522 10.1215 2.20337 11.3833C2.47152 12.645 3.05077 13.8198 3.88847 14.8007C4.72618 15.7816 5.79576 16.5376 7 17C7.46236 18.2042 8.21837 19.2738 9.1993 20.1115C10.1802 20.9492 11.355 21.5285 12.6167 21.7966C13.8785 22.0648 15.1873 22.0133 16.4241 21.6469C17.6609 21.2806 18.7866 20.6109 19.6987 19.6987C20.6109 18.7866 21.2806 17.6609 21.6469 16.4241C22.0133 15.1873 22.0648 13.8785 21.7966 12.6167C21.5285 11.355 20.9492 10.1802 20.1115 9.1993C19.2738 8.21837 18.2042 7.46236 17 7ZM15.4 8.6C15.4722 8.97573 15.509 9.3574 15.51 9.74C15.5079 10.1913 15.4542 10.6409 15.35 11.08L12.91 8.66C13.3491 8.55576 13.7987 8.50208 14.25 8.5C14.6326 8.50095 15.0143 8.53778 15.39 8.61L15.4 8.6ZM14.46 13C14.0614 13.5674 13.5674 14.0614 13 14.46L9.54 11C9.93864 10.4326 10.4326 9.93864 11 9.54L14.46 13ZM6.46 14.46C5.7672 13.9808 5.18816 13.3552 4.76384 12.6274C4.33952 11.8997 4.08028 11.0876 4.00446 10.2486C3.92865 9.40963 4.03811 8.56424 4.3251 7.77223C4.61209 6.98021 5.0696 6.26094 5.66527 5.66527C6.26094 5.0696 6.98021 4.61209 7.77223 4.3251C8.56424 4.03811 9.40963 3.92865 10.2486 4.00446C11.0876 4.08028 11.8997 4.33952 12.6274 4.76384C13.3552 5.18816 13.9808 5.7672 14.46 6.46H14.21C12.1554 6.47322 10.1899 7.30075 8.74454 8.76108C7.2992 10.2214 6.49201 12.1954 6.5 14.25C6.5 14.33 6.51 14.42 6.51 14.5L6.46 14.46ZM8.56 15.35C8.48778 14.9743 8.45095 14.5926 8.45 14.21C8.45208 13.7587 8.50576 13.3091 8.61 12.87L11.04 15.3C10.6009 15.4042 10.1513 15.4579 9.7 15.46C9.33531 15.4692 8.97052 15.4458 8.61 15.39L8.56 15.35ZM14.25 20C13.314 19.9982 12.3926 19.7688 11.5651 19.3316C10.7375 18.8943 10.0288 18.2623 9.5 17.49H9.75C11.8029 17.4874 13.7711 16.6714 15.2236 15.2207C16.6762 13.77 17.4947 11.8029 17.5 9.75C17.5 9.67 17.5 9.58 17.5 9.5C18.5158 10.193 19.2827 11.1933 19.6881 12.3543C20.0936 13.5152 20.1161 14.7755 19.7525 15.9502C19.3889 17.1249 18.6583 18.1521 17.668 18.881C16.6776 19.6099 15.4797 20.0021 14.25 20Z" fill="#414853"/>
</svg>
