<svg width="24" height="24" viewBox="0 0 24 24" fill="none" xmlns="http://www.w3.org/2000/svg">
<path d="M11.2899 17.71C11.3829 17.8037 11.4935 17.8781 11.6154 17.9289C11.7372 17.9797 11.8679 18.0058 11.9999 18.0058C12.132 18.0058 12.2627 17.9797 12.3845 17.9289C12.5064 17.8781 12.617 17.8037 12.7099 17.71C12.7983 17.6128 12.8693 17.5012 12.9199 17.38C12.9728 17.2603 13.0002 17.1309 13.0002 17C13.0002 16.8691 12.9728 16.7397 12.9199 16.62C12.8693 16.4988 12.7983 16.3872 12.7099 16.29C12.617 16.1963 12.5064 16.1219 12.3845 16.0711C12.2627 16.0203 12.132 15.9942 11.9999 15.9942C11.8679 15.9942 11.7372 16.0203 11.6154 16.0711C11.4935 16.1219 11.3829 16.1963 11.2899 16.29C11.2016 16.3872 11.1306 16.4988 11.0799 16.62C11.027 16.7397 10.9997 16.8691 10.9997 17C10.9997 17.1309 11.027 17.2603 11.0799 17.38C11.1306 17.5012 11.2016 17.6128 11.2899 17.71ZM8.65994 4H15.9999C16.2652 4 16.5195 4.10536 16.707 4.2929C16.8946 4.48043 16.9999 4.73479 16.9999 5V12.34C16.9999 12.6052 17.1053 12.8596 17.2928 13.0471C17.4804 13.2346 17.7347 13.34 17.9999 13.34C18.2652 13.34 18.5195 13.2346 18.707 13.0471C18.8946 12.8596 18.9999 12.6052 18.9999 12.34V5C18.9999 4.20435 18.6839 3.44129 18.1213 2.87868C17.5587 2.31607 16.7956 2 15.9999 2H8.65994C8.39472 2 8.14037 2.10536 7.95283 2.2929C7.7653 2.48043 7.65994 2.73479 7.65994 3C7.65994 3.26522 7.7653 3.51957 7.95283 3.70711C8.14037 3.89465 8.39472 4 8.65994 4ZM21.7099 20.29L3.70994 2.29C3.52164 2.1017 3.26624 1.99591 2.99994 1.99591C2.73364 1.99591 2.47824 2.1017 2.28994 2.29C2.10164 2.47831 1.99585 2.7337 1.99585 3C1.99585 3.2663 2.10164 3.5217 2.28994 3.71L4.99994 6.41V19C4.99994 19.7957 5.31601 20.5587 5.87862 21.1213C6.44123 21.6839 7.20429 22 7.99994 22H15.9999C16.5888 21.9995 17.1645 21.8257 17.6553 21.5003C18.1461 21.1749 18.5303 20.7122 18.7599 20.17L20.2899 21.71C20.3829 21.8037 20.4935 21.8781 20.6154 21.9289C20.7372 21.9797 20.8679 22.0058 20.9999 22.0058C21.132 22.0058 21.2627 21.9797 21.3845 21.9289C21.5064 21.8781 21.617 21.8037 21.7099 21.71C21.8037 21.617 21.8781 21.5064 21.9288 21.3846C21.9796 21.2627 22.0057 21.132 22.0057 21C22.0057 20.868 21.9796 20.7373 21.9288 20.6154C21.8781 20.4936 21.8037 20.383 21.7099 20.29ZM16.9999 19C16.9999 19.2652 16.8946 19.5196 16.707 19.7071C16.5195 19.8946 16.2652 20 15.9999 20H7.99994C7.73472 20 7.48037 19.8946 7.29283 19.7071C7.1053 19.5196 6.99994 19.2652 6.99994 19V8.41L16.9999 18.41V19Z" fill="#414853"/>
</svg>
