<svg width="24" height="24" viewBox="0 0 24 24" fill="none" xmlns="http://www.w3.org/2000/svg">
<path d="M12.71 12.54C12.6171 12.4463 12.5065 12.3719 12.3846 12.3211C12.2627 12.2703 12.132 12.2442 12 12.2442C11.868 12.2442 11.7373 12.2703 11.6154 12.3211C11.4936 12.3719 11.383 12.4463 11.29 12.54L8.29002 15.54C8.09641 15.7283 7.98554 15.9858 7.98179 16.2559C7.97804 16.5259 8.08172 16.7864 8.27002 16.98C8.45833 17.1736 8.71583 17.2845 8.98588 17.2882C9.25593 17.292 9.51641 17.1883 9.71002 17L12 14.66L14.29 17C14.383 17.0937 14.4936 17.1681 14.6154 17.2189C14.7373 17.2697 14.868 17.2958 15 17.2958C15.132 17.2958 15.2627 17.2697 15.3846 17.2189C15.5065 17.1681 15.6171 17.0937 15.71 17C15.8038 16.907 15.8781 16.7964 15.9289 16.6746C15.9797 16.5527 16.0058 16.422 16.0058 16.29C16.0058 16.158 15.9797 16.0273 15.9289 15.9054C15.8781 15.7836 15.8038 15.673 15.71 15.58L12.71 12.54ZM9.71002 11.46L12 9.16L14.29 11.46C14.383 11.5537 14.4936 11.6281 14.6154 11.6789C14.7373 11.7297 14.868 11.7558 15 11.7558C15.132 11.7558 15.2627 11.7297 15.3846 11.6789C15.5065 11.6281 15.6171 11.5537 15.71 11.46C15.8038 11.367 15.8781 11.2564 15.9289 11.1346C15.9797 11.0127 16.0058 10.882 16.0058 10.75C16.0058 10.618 15.9797 10.4873 15.9289 10.3654C15.8781 10.2436 15.8038 10.133 15.71 10.04L12.71 7.04C12.6171 6.94627 12.5065 6.87188 12.3846 6.82111C12.2627 6.77034 12.132 6.7442 12 6.7442C11.868 6.7442 11.7373 6.77034 11.6154 6.82111C11.4936 6.87188 11.383 6.94627 11.29 7.04L8.29002 10.04C8.10172 10.2283 7.99593 10.4837 7.99593 10.75C7.99593 11.0163 8.10172 11.2717 8.29002 11.46C8.47833 11.6483 8.73372 11.7541 9.00002 11.7541C9.26632 11.7541 9.52172 11.6483 9.71002 11.46Z" fill="#414853"/>
</svg>
