<svg width="24" height="24" viewBox="0 0 24 24" fill="none" xmlns="http://www.w3.org/2000/svg">
<path d="M20.67 5.85C20.2655 5.61167 19.8045 5.48598 19.335 5.48598C18.8655 5.48598 18.4045 5.61167 18 5.85L14 8.15C13.9991 7.68224 13.8753 7.22293 13.6411 6.81806C13.4068 6.41318 13.0703 6.07695 12.6653 5.84303C12.2602 5.6091 11.8008 5.4857 11.333 5.48517C10.8653 5.48464 10.4056 5.607 10 5.84L3.33001 9.69C2.92519 9.92465 2.58914 10.2616 2.35553 10.667C2.12193 11.0724 1.99896 11.5321 1.99896 12C1.99896 12.4679 2.12193 12.9276 2.35553 13.333C2.58914 13.7384 2.92519 14.0754 3.33001 14.31L10 18.16C10.4056 18.3953 10.8661 18.5193 11.335 18.5193C11.8039 18.5193 12.2645 18.3953 12.67 18.16C13.076 17.9268 13.413 17.5902 13.6466 17.1844C13.8802 16.7786 14.0022 16.3182 14 15.85L18 18.16C18.4046 18.3934 18.8629 18.5175 19.33 18.52C19.8019 18.5201 20.265 18.3922 20.67 18.15C21.0759 17.9192 21.413 17.5845 21.6468 17.1803C21.8805 16.7761 22.0024 16.3169 22 15.85V8.15C22.0024 7.68308 21.8805 7.22392 21.6468 6.81971C21.413 6.41549 21.0759 6.0808 20.67 5.85ZM12 15.85C12.0015 15.9673 11.9717 16.0828 11.9137 16.1848C11.8557 16.2867 11.7716 16.3714 11.67 16.43C11.5675 16.4869 11.4522 16.5168 11.335 16.5168C11.2178 16.5168 11.1025 16.4869 11 16.43L4.33001 12.58C4.22827 12.5212 4.14379 12.4366 4.08506 12.3348C4.02633 12.233 3.99542 12.1175 3.99542 12C3.99542 11.8825 4.02633 11.767 4.08506 11.6652C4.14379 11.5634 4.22827 11.4788 4.33001 11.42L11 7.57C11.1019 7.5112 11.2174 7.48024 11.335 7.48024C11.4526 7.48024 11.5682 7.5112 11.67 7.57C11.7716 7.62863 11.8557 7.71328 11.9137 7.81522C11.9717 7.91716 12.0015 8.03272 12 8.15V15.85ZM20 15.85C19.9978 15.966 19.9654 16.0794 19.9061 16.1792C19.8469 16.2789 19.7627 16.3616 19.6619 16.4191C19.5611 16.4765 19.4471 16.5068 19.3311 16.507C19.2151 16.5071 19.101 16.4772 19 16.42L14 13.54V10.46L19 7.58C19.101 7.52283 19.2151 7.49286 19.3311 7.49302C19.4471 7.49319 19.5611 7.52348 19.6619 7.58094C19.7627 7.6384 19.8469 7.72105 19.9061 7.82081C19.9654 7.92056 19.9978 8.03399 20 8.15V15.85Z" fill="#414853"/>
</svg>
