<svg width="24" height="24" viewBox="0 0 24 24" fill="none" xmlns="http://www.w3.org/2000/svg">
<path d="M8.81998 11.29C8.72625 11.383 8.65186 11.4936 8.60109 11.6154C8.55032 11.7373 8.52418 11.868 8.52418 12C8.52418 12.132 8.55032 12.2627 8.60109 12.3846C8.65186 12.5064 8.72625 12.617 8.81998 12.71C9.00735 12.8963 9.2608 13.0008 9.52498 13.0008C9.78917 13.0008 10.0426 12.8963 10.23 12.71C10.3237 12.617 10.3981 12.5064 10.4489 12.3846C10.4996 12.2627 10.5258 12.132 10.5258 12C10.5258 11.868 10.4996 11.7373 10.4489 11.6154C10.3981 11.4936 10.3237 11.383 10.23 11.29C10.0426 11.1038 9.78917 10.9992 9.52498 10.9992C9.2608 10.9992 9.00735 11.1038 8.81998 11.29ZM11.29 13.77C11.1037 13.9574 10.9992 14.2108 10.9992 14.475C10.9992 14.7392 11.1037 14.9926 11.29 15.18C11.3829 15.2737 11.4935 15.3481 11.6154 15.3989C11.7373 15.4497 11.868 15.4758 12 15.4758C12.132 15.4758 12.2627 15.4497 12.3846 15.3989C12.5064 15.3481 12.617 15.2737 12.71 15.18C12.8962 14.9926 13.0008 14.7392 13.0008 14.475C13.0008 14.2108 12.8962 13.9574 12.71 13.77C12.617 13.6763 12.5064 13.6019 12.3846 13.5511C12.2627 13.5003 12.132 13.4742 12 13.4742C11.868 13.4742 11.7373 13.5003 11.6154 13.5511C11.4935 13.6019 11.3829 13.6763 11.29 13.77ZM20.29 3.77C19.2022 2.67323 17.7333 2.03826 16.1891 1.99728C14.6449 1.9563 13.1444 2.51247 12 3.55C10.8608 2.52458 9.37245 1.97398 7.84021 2.01117C6.30796 2.04836 4.84804 2.67052 3.75998 3.75C2.679 4.83984 2.05683 6.30254 2.02149 7.83715C1.98615 9.37176 2.54032 10.8616 3.56998 12C2.80016 12.8606 2.29502 13.9251 2.11519 15.0657C1.93537 16.2063 2.08849 17.3746 2.55618 18.4304C3.02388 19.4861 3.78627 20.3845 4.75189 21.0176C5.7175 21.6508 6.84531 21.9919 7.99998 22C9.48021 22.0016 10.9073 21.4486 12 20.45C13.1397 21.4784 14.6302 22.0308 16.1648 21.9936C17.6994 21.9564 19.1614 21.3324 20.25 20.25C21.3296 19.1589 21.9499 17.6955 21.9834 16.1609C22.0169 14.6263 21.461 13.1372 20.43 12C21.461 10.8628 22.0169 9.37374 21.9834 7.83915C21.9499 6.30455 21.3296 4.84114 20.25 3.75L20.29 3.77ZM18.83 5.17C19.5254 5.88539 19.9284 6.83484 19.9598 7.83205C19.9913 8.82925 19.649 9.80221 19 10.56L13.44 5C14.2044 4.36574 15.1744 4.03291 16.1672 4.06422C17.16 4.09554 18.1071 4.48883 18.83 5.17ZM5.16998 18.83C4.47455 18.1146 4.07157 17.1652 4.04012 16.168C4.00867 15.1708 4.35101 14.1978 4.99998 13.44L10.6 19.04C9.82709 19.678 8.8464 20.0093 7.84494 19.9705C6.84347 19.9318 5.89129 19.5258 5.16998 18.83ZM18.83 18.83C18.0707 19.5562 17.0606 19.9614 16.01 19.9614C14.9594 19.9614 13.9492 19.5562 13.19 18.83L5.18998 10.83C4.44498 10.0806 4.02681 9.06674 4.02681 8.01C4.02681 6.95326 4.44498 5.93945 5.18998 5.19C5.93943 4.445 6.95324 4.02683 8.00998 4.02683C9.06673 4.02683 10.0805 4.445 10.83 5.19L18.83 13.19C19.575 13.9395 19.9932 14.9533 19.9932 16.01C19.9932 17.0667 19.575 18.0806 18.83 18.83ZM13.77 11.29C13.6763 11.383 13.6019 11.4936 13.5511 11.6154C13.5003 11.7373 13.4742 11.868 13.4742 12C13.4742 12.132 13.5003 12.2627 13.5511 12.3846C13.6019 12.5064 13.6763 12.617 13.77 12.71C13.9573 12.8963 14.2108 13.0008 14.475 13.0008C14.7392 13.0008 14.9926 12.8963 15.18 12.71C15.2737 12.617 15.3481 12.5064 15.3989 12.3846C15.4496 12.2627 15.4758 12.132 15.4758 12C15.4758 11.868 15.4496 11.7373 15.3989 11.6154C15.3481 11.4936 15.2737 11.383 15.18 11.29C14.9926 11.1038 14.7392 10.9992 14.475 10.9992C14.2108 10.9992 13.9573 11.1038 13.77 11.29ZM11.29 8.82C11.1037 9.00736 10.9992 9.26082 10.9992 9.525C10.9992 9.78919 11.1037 10.0426 11.29 10.23C11.3829 10.3237 11.4935 10.3981 11.6154 10.4489C11.7373 10.4997 11.868 10.5258 12 10.5258C12.132 10.5258 12.2627 10.4997 12.3846 10.4489C12.5064 10.3981 12.617 10.3237 12.71 10.23C12.8962 10.0426 13.0008 9.78919 13.0008 9.525C13.0008 9.26082 12.8962 9.00736 12.71 8.82C12.617 8.72627 12.5064 8.65188 12.3846 8.60111C12.2627 8.55034 12.132 8.5242 12 8.5242C11.868 8.5242 11.7373 8.55034 11.6154 8.60111C11.4935 8.65188 11.3829 8.72627 11.29 8.82Z" fill="#414853"/>
</svg>
