<svg width="24" height="24" viewBox="0 0 24 24" fill="none" xmlns="http://www.w3.org/2000/svg">
<path d="M13.41 12L17.21 8.21C17.3037 8.11704 17.3781 8.00644 17.4289 7.88458C17.4797 7.76272 17.5058 7.63201 17.5058 7.5C17.5058 7.36799 17.4797 7.23728 17.4289 7.11542C17.3781 6.99356 17.3037 6.88296 17.21 6.79L12.71 2.29C12.6149 2.19896 12.5028 2.12759 12.38 2.08C12.1365 1.97998 11.8635 1.97998 11.62 2.08C11.3757 2.18147 11.1815 2.37565 11.08 2.62C11.0288 2.74022 11.0016 2.86932 11 3V9.59L8.21 6.79C8.11676 6.69676 8.00607 6.6228 7.88425 6.57234C7.76243 6.52188 7.63186 6.49591 7.5 6.49591C7.36814 6.49591 7.23758 6.52188 7.11575 6.57234C6.99393 6.6228 6.88324 6.69676 6.79 6.79C6.69676 6.88324 6.6228 6.99393 6.57234 7.11575C6.52188 7.23757 6.49591 7.36814 6.49591 7.5C6.49591 7.63186 6.52188 7.76243 6.57234 7.88425C6.6228 8.00607 6.69676 8.11676 6.79 8.21L10.59 12L6.79 15.79C6.69676 15.8832 6.6228 15.9939 6.57234 16.1158C6.52188 16.2376 6.49591 16.3681 6.49591 16.5C6.49591 16.6319 6.52188 16.7624 6.57234 16.8842C6.6228 17.0061 6.69676 17.1168 6.79 17.21C6.88324 17.3032 6.99393 17.3772 7.11575 17.4277C7.23758 17.4781 7.36814 17.5041 7.5 17.5041C7.63186 17.5041 7.76243 17.4781 7.88425 17.4277C8.00607 17.3772 8.11676 17.3032 8.21 17.21L11 14.41V21C11.0016 21.1307 11.0288 21.2598 11.08 21.38C11.1815 21.6243 11.3757 21.8185 11.62 21.92C11.7397 21.9729 11.8691 22.0002 12 22.0002C12.1309 22.0002 12.2603 21.9729 12.38 21.92C12.5028 21.8724 12.6149 21.801 12.71 21.71L17.21 17.21C17.3037 17.117 17.3781 17.0064 17.4289 16.8846C17.4797 16.7627 17.5058 16.632 17.5058 16.5C17.5058 16.368 17.4797 16.2373 17.4289 16.1154C17.3781 15.9936 17.3037 15.883 17.21 15.79L13.41 12ZM13 5.41L15.09 7.5L13 9.59V5.41ZM13 18.59V14.41L15.09 16.5L13 18.59Z" fill="#414853"/>
</svg>
