<svg width="24" height="24" viewBox="0 0 24 24" fill="none" xmlns="http://www.w3.org/2000/svg">
<path d="M8.66999 4.23C8.83187 4.27256 9.00184 4.2738 9.16433 4.23362C9.32681 4.19343 9.47661 4.11311 9.59999 4H14.7L13.43 8.74C13.3895 8.88832 13.3838 9.04398 13.4133 9.19487C13.4428 9.34575 13.5067 9.48781 13.6 9.61C13.6932 9.73101 13.8128 9.82908 13.9497 9.89669C14.0867 9.96429 14.2373 9.99963 14.39 10H18L16.87 11.24C16.6927 11.4365 16.6006 11.6952 16.6137 11.9595C16.6268 12.2237 16.7442 12.4721 16.94 12.65C17.1234 12.8167 17.3622 12.9094 17.61 12.91C17.7495 12.9097 17.8875 12.8801 18.0149 12.8233C18.1424 12.7665 18.2565 12.6836 18.35 12.58L21 9.67C21.1313 9.52468 21.217 9.344 21.2466 9.15038C21.2761 8.95677 21.2481 8.75875 21.1661 8.58089C21.0841 8.40304 20.9517 8.25318 20.7853 8.14991C20.6188 8.04664 20.4258 7.99452 20.23 8H15.69L17 3.26C17.0391 3.11092 17.0431 2.95483 17.0119 2.80391C16.9807 2.653 16.915 2.51134 16.82 2.39C16.7238 2.2649 16.5993 2.16435 16.4568 2.09656C16.3143 2.02878 16.1578 1.99569 16 2H8.99999C8.77423 1.99227 8.5525 2.0612 8.37092 2.19557C8.18933 2.32994 8.05859 2.52184 7.99999 2.74V3C7.92835 3.25192 7.9584 3.52189 8.08369 3.75189C8.20897 3.98189 8.41949 4.15356 8.66999 4.23ZM21.67 20.29L3.66999 2.29C3.47538 2.14812 3.2361 2.08125 2.99613 2.10167C2.75616 2.12208 2.53162 2.22842 2.36377 2.40113C2.19592 2.57385 2.09604 2.80133 2.08249 3.04179C2.06893 3.28225 2.14262 3.51952 2.28999 3.71L6.60999 8L5.34999 12.74C5.31093 12.8891 5.30685 13.0452 5.33807 13.1961C5.3693 13.347 5.43498 13.4887 5.52999 13.61C5.62315 13.731 5.74279 13.8291 5.87973 13.8967C6.01667 13.9643 6.16728 13.9996 6.31999 14H10.16L8.34999 20.74C8.29137 20.9574 8.30786 21.1883 8.39679 21.3952C8.48572 21.6021 8.64189 21.7729 8.83999 21.88C8.98742 21.9596 9.15247 22.0008 9.31999 22C9.45954 21.9997 9.59747 21.9701 9.72491 21.9133C9.85236 21.8565 9.9665 21.7736 10.06 21.67L14.91 16.33L20.29 21.71C20.383 21.8037 20.4936 21.8781 20.6154 21.9289C20.7373 21.9797 20.868 22.0058 21 22.0058C21.132 22.0058 21.2627 21.9797 21.3846 21.9289C21.5064 21.8781 21.617 21.8037 21.71 21.71C21.8037 21.617 21.8781 21.5064 21.9289 21.3846C21.9797 21.2627 22.0058 21.132 22.0058 21C22.0058 20.868 21.9797 20.7373 21.9289 20.6154C21.8781 20.4936 21.8037 20.383 21.71 20.29H21.67ZM7.61999 12L8.24999 9.66L10.59 12H7.61999ZM11.35 17.28L12.35 13.72L13.55 14.91L11.35 17.28Z" fill="#414853"/>
</svg>
