<svg width="24" height="24" viewBox="0 0 24 24" fill="none" xmlns="http://www.w3.org/2000/svg">
<path d="M11.66 7H15V8C15 8.26521 15.1054 8.51957 15.2929 8.70711C15.4804 8.89464 15.7348 9 16 9C16.2652 9 16.5196 8.89464 16.7071 8.70711C16.8946 8.51957 17 8.26521 17 8V7H18C18.2652 7 18.5196 7.10536 18.7071 7.29289C18.8946 7.48043 19 7.73478 19 8V11H17.66C17.3948 11 17.1404 11.1054 16.9529 11.2929C16.7654 11.4804 16.66 11.7348 16.66 12C16.66 12.2652 16.7654 12.5196 16.9529 12.7071C17.1404 12.8946 17.3948 13 17.66 13H19V14.34C19 14.6052 19.1054 14.8596 19.2929 15.0471C19.4804 15.2346 19.7348 15.34 20 15.34C20.2652 15.34 20.5196 15.2346 20.7071 15.0471C20.8946 14.8596 21 14.6052 21 14.34V8C21 7.20435 20.6839 6.44129 20.1213 5.87868C19.5587 5.31607 18.7957 5 18 5H17V4C17 3.73478 16.8946 3.48043 16.7071 3.29289C16.5196 3.10536 16.2652 3 16 3C15.7348 3 15.4804 3.10536 15.2929 3.29289C15.1054 3.48043 15 3.73478 15 4V5H11.66C11.3948 5 11.1404 5.10536 10.9529 5.29289C10.7654 5.48043 10.66 5.73478 10.66 6C10.66 6.26521 10.7654 6.51957 10.9529 6.70711C11.1404 6.89464 11.3948 7 11.66 7ZM21.71 20.29L20.11 18.69L3.71 2.29C3.61676 2.19676 3.50607 2.1228 3.38425 2.07234C3.26243 2.02188 3.13186 1.99591 3 1.99591C2.86814 1.99591 2.73758 2.02188 2.61575 2.07234C2.49393 2.1228 2.38324 2.19676 2.29 2.29C2.1017 2.4783 1.99591 2.7337 1.99591 3C1.99591 3.2663 2.1017 3.52169 2.29 3.71L4.2 5.61C3.82876 5.88842 3.52717 6.24918 3.31895 6.66389C3.11073 7.07859 3.00155 7.53595 3 8V18C3 18.7956 3.31607 19.5587 3.87868 20.1213C4.44129 20.6839 5.20435 21 6 21H18C18.447 20.9973 18.8877 20.8949 19.29 20.7L20.29 21.7C20.383 21.7937 20.4936 21.8681 20.6154 21.9189C20.7373 21.9697 20.868 21.9958 21 21.9958C21.132 21.9958 21.2627 21.9697 21.3846 21.9189C21.5064 21.8681 21.617 21.7937 21.71 21.7C21.8963 21.5126 22.0008 21.2592 22.0008 20.995C22.0008 20.7308 21.8963 20.4774 21.71 20.29ZM5 8C5.00213 7.7962 5.06648 7.59791 5.18444 7.4317C5.3024 7.26548 5.46833 7.13928 5.66 7.07L9.59 11H5V8ZM6 19C5.73479 19 5.48043 18.8946 5.2929 18.7071C5.10536 18.5196 5 18.2652 5 18V13H11.59L17.59 19H6Z" fill="#414853"/>
</svg>
