<svg width="24" height="24" viewBox="0 0 24 24" fill="none" xmlns="http://www.w3.org/2000/svg">
<path d="M19.5 4.5C18.5398 3.54005 17.2377 3.00077 15.88 3.00077C14.5223 3.00077 13.2202 3.54005 12.26 4.5L4.5 12.26C4.01315 12.7328 3.62515 13.2977 3.35858 13.9218C3.09201 14.546 2.95218 15.2169 2.94722 15.8955C2.94226 16.5741 3.07227 17.247 3.32969 17.875C3.58711 18.5029 3.96681 19.0734 4.4467 19.5533C4.92658 20.0332 5.49709 20.4129 6.12504 20.6703C6.75299 20.9277 7.42585 21.0577 8.1045 21.0528C8.78315 21.0478 9.45404 20.908 10.0782 20.6414C10.7023 20.3748 11.2672 19.9869 11.74 19.5L19.5 11.74C20.4599 10.7798 20.9992 9.47772 20.9992 8.12C20.9992 6.76228 20.4599 5.46016 19.5 4.5ZM10.32 18.09C9.72403 18.6533 8.93506 18.9672 8.115 18.9672C7.29493 18.9672 6.50597 18.6533 5.91 18.09C5.32804 17.5037 5.00146 16.7111 5.00146 15.885C5.00146 15.0589 5.32804 14.2663 5.91 13.68L9.09 10.5L13.5 14.91L10.32 18.09ZM18.09 10.32L14.91 13.5L10.5 9.09L13.68 5.91C14.271 5.35632 15.0542 5.05415 15.8639 5.06735C16.6737 5.08056 17.4466 5.40811 18.0192 5.98077C18.5919 6.55342 18.9194 7.32631 18.9326 8.13606C18.9459 8.94582 18.6437 9.72897 18.09 10.32Z" fill="#414853"/>
</svg>
