<svg width="24" height="24" viewBox="0 0 24 24" fill="none" xmlns="http://www.w3.org/2000/svg">
<path d="M19.29 3.71C19.383 3.80373 19.4936 3.87812 19.6154 3.92889C19.7373 3.97966 19.868 4.0058 20 4.0058C20.132 4.0058 20.2627 3.97966 20.3846 3.92889C20.5065 3.87812 20.6171 3.80373 20.71 3.71C20.7983 3.6128 20.8694 3.50118 20.92 3.38C20.9713 3.25978 20.9984 3.13068 21 3C21.0008 2.86839 20.9756 2.73793 20.9258 2.61609C20.876 2.49425 20.8027 2.38344 20.71 2.29L20.56 2.17C20.5043 2.13215 20.4437 2.10189 20.38 2.08C20.1979 2.00342 19.9972 1.9825 19.8032 2.01987C19.6092 2.05724 19.4306 2.15124 19.29 2.29C19.1973 2.38344 19.124 2.49425 19.0742 2.61609C19.0245 2.73793 18.9993 2.86839 19 3C19.0016 3.13068 19.0288 3.25978 19.08 3.38C19.1307 3.50118 19.2017 3.6128 19.29 3.71ZM20 5C19.7348 5 19.4804 5.10536 19.2929 5.29289C19.1054 5.48043 19 5.73478 19 6V10C19 10.2652 19.1054 10.5196 19.2929 10.7071C19.4804 10.8946 19.7348 11 20 11C20.2652 11 20.5196 10.8946 20.7071 10.7071C20.8947 10.5196 21 10.2652 21 10V6C21 5.73478 20.8947 5.48043 20.7071 5.29289C20.5196 5.10536 20.2652 5 20 5ZM20.06 13C19.7976 12.9689 19.5335 13.043 19.3255 13.206C19.1175 13.369 18.9825 13.6077 18.95 13.87C18.7379 15.5633 17.9145 17.1209 16.6346 18.2497C15.3548 19.3786 13.7066 20.001 12 20H6.41002L7.05002 19.37C7.23627 19.1826 7.34081 18.9292 7.34081 18.665C7.34081 18.4008 7.23627 18.1474 7.05002 17.96C6.06751 16.9816 5.39772 15.7334 5.1256 14.3737C4.85348 13.0141 4.9913 11.6043 5.52156 10.323C6.05183 9.04184 6.95065 7.94698 8.10404 7.17733C9.25743 6.40768 10.6134 5.99791 12 6C13.2261 5.99814 14.4307 6.32258 15.49 6.94C15.7156 7.04195 15.971 7.05661 16.2068 6.98112C16.4425 6.90564 16.6419 6.74538 16.7664 6.53136C16.8908 6.31734 16.9314 6.06478 16.8804 5.82254C16.8293 5.5803 16.6902 5.3656 16.49 5.22C15.1291 4.41969 13.5788 3.99843 12 4C10.3075 4.00556 8.65082 4.48828 7.2202 5.39274C5.78959 6.29719 4.64301 7.58673 3.91209 9.11331C3.18116 10.6399 2.89553 12.3417 3.08796 14.0232C3.2804 15.7048 3.94311 17.298 5.00002 18.62L3.29002 20.29C3.15126 20.4306 3.05726 20.6092 3.01989 20.8032C2.98252 20.9972 3.00344 21.1979 3.08002 21.38C3.15504 21.5626 3.28244 21.7189 3.44616 21.8293C3.60988 21.9396 3.80259 21.999 4.00002 22H12C14.193 22 16.3105 21.1993 17.9548 19.7483C19.5991 18.2973 20.6571 16.2959 20.93 14.12C20.9468 13.9893 20.9376 13.8565 20.9029 13.7294C20.8682 13.6022 20.8088 13.4832 20.7279 13.3791C20.6471 13.275 20.5464 13.1879 20.4318 13.1229C20.3172 13.0578 20.1908 13.0161 20.06 13Z" fill="#414853"/>
</svg>
