<svg width="24" height="24" viewBox="0 0 24 24" fill="none" xmlns="http://www.w3.org/2000/svg">
<path d="M22.5 14.5C22.5 13.9696 22.2893 13.4609 21.9142 13.0858C21.5391 12.7107 21.0304 12.5 20.5 12.5H14.5C13.9696 12.5 13.4609 12.7107 13.0858 13.0858C12.7107 13.4609 12.5 13.9696 12.5 14.5H9.49999V11.5H11.83C12.699 11.5014 13.5402 11.1936 14.203 10.6317C14.8658 10.0697 15.3071 9.2902 15.4478 8.43267C15.5885 7.57513 15.4195 6.69551 14.971 5.95117C14.5226 5.20683 13.8239 4.64635 13 4.37C12.5427 3.41644 11.7949 2.63242 10.8639 2.13065C9.93303 1.62888 8.86699 1.4352 7.81907 1.57744C6.77114 1.71968 5.7953 2.19052 5.03182 2.92229C4.26834 3.65405 3.75654 4.60905 3.56999 5.65C2.89278 5.87258 2.31695 6.32904 1.94569 6.93759C1.57444 7.54614 1.43201 8.267 1.54393 8.97102C1.65585 9.67503 2.0148 10.3162 2.55648 10.7796C3.09815 11.243 3.78714 11.4984 4.49999 11.5H7.49999V19.5C7.49999 19.7652 7.60535 20.0196 7.79289 20.2071C7.98042 20.3946 8.23478 20.5 8.49999 20.5H12.5C12.5 21.0304 12.7107 21.5391 13.0858 21.9142C13.4609 22.2893 13.9696 22.5 14.5 22.5H20.5C21.0304 22.5 21.5391 22.2893 21.9142 21.9142C22.2893 21.5391 22.5 21.0304 22.5 20.5V18.5C22.4963 18.1478 22.3997 17.8029 22.22 17.5C22.3997 17.1971 22.4963 16.8522 22.5 16.5V14.5ZM4.49999 9.5C4.23478 9.5 3.98042 9.39464 3.79289 9.20711C3.60535 9.01957 3.49999 8.76522 3.49999 8.5C3.49999 8.23478 3.60535 7.98043 3.79289 7.79289C3.98042 7.60536 4.23478 7.5 4.49999 7.5C4.76521 7.5 5.01956 7.39464 5.2071 7.20711C5.39464 7.01957 5.49999 6.76522 5.49999 6.5C5.49192 5.78636 5.73854 5.09321 6.19555 4.54504C6.65256 3.99686 7.29002 3.62957 7.99347 3.50912C8.69692 3.38866 9.42027 3.52294 10.0336 3.88783C10.647 4.25272 11.1102 4.82433 11.34 5.5C11.3987 5.66998 11.5021 5.82099 11.6393 5.93714C11.7766 6.05329 11.9427 6.13028 12.12 6.16C12.5128 6.22502 12.8688 6.42988 13.1225 6.7368C13.3761 7.04371 13.5102 7.43198 13.5 7.83C13.5 8.27291 13.324 8.69768 13.0109 9.01087C12.6977 9.32405 12.2729 9.5 11.83 9.5H4.49999ZM12.5 18.5H9.49999V16.5H12.5C12.5037 16.8522 12.6002 17.1971 12.78 17.5C12.6002 17.8029 12.5037 18.1478 12.5 18.5ZM14.5 20.5V18.5H20.5V20.5H14.5ZM14.5 16.5V14.5H20.5V16.5H14.5Z" fill="#414853"/>
</svg>
