<svg width="24" height="24" viewBox="0 0 24 24" fill="none" xmlns="http://www.w3.org/2000/svg">
<path d="M12.71 18.79C12.6128 18.7017 12.5012 18.6306 12.38 18.58C12.1979 18.5034 11.9972 18.4825 11.8032 18.5199C11.6092 18.5573 11.4306 18.6512 11.29 18.79C11.1073 18.9816 11.0037 19.2352 11 19.5C10.9993 19.6316 11.0245 19.7621 11.0742 19.8839C11.124 20.0057 11.1973 20.1166 11.29 20.21C11.3872 20.2983 11.4988 20.3694 11.62 20.42C11.8017 20.4927 12.0008 20.5106 12.1926 20.4712C12.3843 20.4319 12.5603 20.3371 12.6987 20.1987C12.8371 20.0603 12.9319 19.8843 12.9712 19.6926C13.0106 19.5008 12.9928 19.3017 12.92 19.12C12.8724 18.9973 12.8011 18.8851 12.71 18.79ZM12 12.5C11.7348 12.5 11.4804 12.6054 11.2929 12.7929C11.1054 12.9804 11 13.2348 11 13.5V16.5C11 16.7652 11.1054 17.0196 11.2929 17.2071C11.4804 17.3946 11.7348 17.5 12 17.5C12.2652 17.5 12.5196 17.3946 12.7071 17.2071C12.8947 17.0196 13 16.7652 13 16.5V13.5C13 13.2348 12.8947 12.9804 12.7071 12.7929C12.5196 12.6054 12.2652 12.5 12 12.5ZM18.42 7.71C17.8083 6.30581 16.753 5.141 15.4157 4.39416C14.0785 3.64732 12.5333 3.35967 11.0169 3.57533C9.50051 3.79098 8.09671 4.49803 7.02073 5.58806C5.94475 6.6781 5.25597 8.09095 5.06001 9.61C4.1066 9.83833 3.27023 10.4088 2.70975 11.2132C2.14927 12.0175 1.9037 12.9997 2.01968 13.9732C2.13566 14.9467 2.60511 15.8437 3.33888 16.4939C4.07265 17.144 5.01964 17.5021 6.00001 17.5H8.00001C8.26523 17.5 8.51958 17.3946 8.70712 17.2071C8.89466 17.0196 9.00001 16.7652 9.00001 16.5C9.00001 16.2348 8.89466 15.9804 8.70712 15.7929C8.51958 15.6054 8.26523 15.5 8.00001 15.5H6.00001C5.46958 15.5 4.96087 15.2893 4.5858 14.9142C4.21073 14.5391 4.00001 14.0304 4.00001 13.5C4.00001 12.9696 4.21073 12.4609 4.5858 12.0858C4.96087 11.7107 5.46958 11.5 6.00001 11.5C6.26523 11.5 6.51958 11.3946 6.70712 11.2071C6.89466 11.0196 7.00001 10.7652 7.00001 10.5C7.00257 9.31728 7.4243 8.17376 8.19028 7.27259C8.95627 6.37142 10.0169 5.77095 11.1838 5.57788C12.3506 5.3848 13.5481 5.61161 14.5636 6.21801C15.579 6.82441 16.3466 7.77114 16.73 8.89C16.7887 9.05998 16.8921 9.21099 17.0294 9.32714C17.1666 9.44329 17.3327 9.52028 17.51 9.55C18.243 9.68526 18.8994 10.0885 19.3513 10.6813C19.8033 11.274 20.0183 12.0138 19.9547 12.7564C19.891 13.499 19.5532 14.1914 19.007 14.6986C18.4608 15.2058 17.7453 15.4915 17 15.5H16C15.7348 15.5 15.4804 15.6054 15.2929 15.7929C15.1054 15.9804 15 16.2348 15 16.5C15 16.7652 15.1054 17.0196 15.2929 17.2071C15.4804 17.3946 15.7348 17.5 16 17.5H17C18.1994 17.4967 19.3576 17.0624 20.2634 16.2763C21.1692 15.4902 21.7623 14.4047 21.9345 13.2177C22.1066 12.0308 21.8464 10.8215 21.2012 9.81046C20.5561 8.7994 19.569 8.05393 18.42 7.71Z" fill="#414853"/>
</svg>
