<svg width="24" height="24" viewBox="0 0 24 24" fill="none" xmlns="http://www.w3.org/2000/svg">
<path d="M12.5599 12.67C12.3946 12.5582 12.1995 12.4985 11.9999 12.4985C11.8003 12.4985 11.6053 12.5582 11.4399 12.67C11.3299 12.75 8.74994 14.53 8.74994 17.25C8.74994 18.112 9.09235 18.9386 9.70184 19.5481C10.3113 20.1576 11.138 20.5 11.9999 20.5C12.8619 20.5 13.6885 20.1576 14.298 19.5481C14.9075 18.9386 15.2499 18.112 15.2499 17.25C15.2499 14.5 12.6699 12.74 12.5599 12.67ZM11.9999 18.5C11.6684 18.5 11.3505 18.3683 11.1161 18.1339C10.8816 17.8995 10.7499 17.5815 10.7499 17.25C10.8322 16.3019 11.2806 15.4231 11.9999 14.8C12.7236 15.4197 13.1729 16.3004 13.2499 17.25C13.2499 17.5815 13.1182 17.8995 12.8838 18.1339C12.6494 18.3683 12.3315 18.5 11.9999 18.5ZM18.4199 7.72C17.8089 6.31601 16.7544 5.15108 15.418 4.40373C14.0816 3.65638 12.537 3.36783 11.0209 3.58231C9.50482 3.79679 8.10087 4.50245 7.0242 5.59118C5.94753 6.6799 5.25753 8.09162 5.05994 9.61C4.13911 9.83596 3.32848 10.3817 2.77263 11.1498C2.21679 11.9179 1.95188 12.8586 2.02515 13.8039C2.09842 14.7492 2.50511 15.6377 3.17268 16.311C3.84025 16.9844 4.72529 17.3986 5.66994 17.48H5.74994C6.00186 17.4808 6.24481 17.3865 6.4302 17.2159C6.6156 17.0454 6.72979 16.8111 6.74994 16.56C6.76088 16.4286 6.74572 16.2963 6.70533 16.1708C6.66495 16.0453 6.60014 15.929 6.51463 15.8286C6.42912 15.7282 6.32461 15.6457 6.2071 15.5859C6.08959 15.5261 5.96141 15.4901 5.82994 15.48C5.33294 15.4376 4.86971 15.211 4.53115 14.8447C4.19258 14.4784 4.00312 13.9988 3.99994 13.5C3.99994 12.9696 4.21065 12.4609 4.58573 12.0858C4.9608 11.7107 5.46951 11.5 5.99994 11.5C6.26516 11.5 6.51951 11.3946 6.70705 11.2071C6.89458 11.0196 6.99994 10.7652 6.99994 10.5C7.0025 9.31728 7.42423 8.17375 8.19021 7.27259C8.95619 6.37142 10.0168 5.77095 11.1837 5.57788C12.3505 5.3848 13.5481 5.61161 14.5635 6.21801C15.5789 6.82441 16.3465 7.77114 16.7299 8.89C16.7871 9.06184 16.8899 9.21493 17.0272 9.33293C17.1646 9.45094 17.3314 9.52942 17.5099 9.56C18.163 9.67944 18.758 10.0121 19.2017 10.5059C19.6454 10.9998 19.9128 11.6268 19.962 12.2889C20.0111 12.9509 19.8393 13.6106 19.4734 14.1645C19.1075 14.7185 18.5682 15.1354 17.9399 15.35C17.6971 15.4394 17.4985 15.6195 17.3856 15.8523C17.2728 16.0851 17.2546 16.3526 17.3348 16.5986C17.4151 16.8446 17.5876 17.0499 17.816 17.1713C18.0445 17.2928 18.3111 17.321 18.5599 17.25C19.5669 16.9139 20.4408 16.266 21.055 15.4001C21.6693 14.5342 21.9919 13.4953 21.9763 12.4338C21.9607 11.3723 21.6077 10.3433 20.9683 9.49583C20.3289 8.64836 19.4364 8.0264 18.4199 7.72Z" fill="#414853"/>
</svg>
