<svg width="24" height="24" viewBox="0 0 24 24" fill="none" xmlns="http://www.w3.org/2000/svg">
<path d="M14 15.5H11V14.5C10.9942 14.2752 11.0644 14.0551 11.1991 13.8751C11.3339 13.6951 11.5254 13.5658 11.7426 13.508C11.9599 13.4502 12.1904 13.4673 12.3967 13.5566C12.6031 13.6458 12.7733 13.8021 12.88 14C13.0169 14.2264 13.238 14.3893 13.4948 14.453C13.7515 14.5167 14.0231 14.4761 14.25 14.34C14.4683 14.2034 14.6255 13.9878 14.6888 13.7382C14.7522 13.4886 14.7168 13.2242 14.59 13C14.4612 12.7854 14.3067 12.5872 14.13 12.41C13.853 12.1247 13.522 11.8974 13.1564 11.7411C12.7907 11.5849 12.3976 11.503 12 11.5C11.2043 11.5 10.4413 11.8161 9.87867 12.3787C9.31607 12.9413 9 13.7044 9 14.5V15.68C8.33863 15.92 7.78264 16.3848 7.42922 16.9931C7.07581 17.6015 6.94746 18.3147 7.0666 19.0081C7.18574 19.7015 7.5448 20.331 8.081 20.7865C8.61721 21.242 9.29645 21.4945 10 21.5H14C14.7956 21.5 15.5587 21.1839 16.1213 20.6213C16.6839 20.0587 17 19.2957 17 18.5C17 17.7044 16.6839 16.9413 16.1213 16.3787C15.5587 15.8161 14.7956 15.5 14 15.5ZM14 19.5H10C9.73478 19.5 9.48043 19.3946 9.29289 19.2071C9.10535 19.0196 9 18.7652 9 18.5C9 18.2348 9.10535 17.9804 9.29289 17.7929C9.48043 17.6054 9.73478 17.5 10 17.5H14C14.2652 17.5 14.5196 17.6054 14.7071 17.7929C14.8946 17.9804 15 18.2348 15 18.5C15 18.7652 14.8946 19.0196 14.7071 19.2071C14.5196 19.3946 14.2652 19.5 14 19.5ZM18.42 6.72C17.809 5.31601 16.7545 4.15108 15.4181 3.40373C14.0817 2.65638 12.5371 2.36783 11.021 2.58231C9.50487 2.79679 8.10092 3.50245 7.02425 4.59118C5.94758 5.6799 5.25758 7.09162 5.06 8.61C4.22221 8.81405 3.4728 9.28337 2.92344 9.948C2.37409 10.6126 2.05421 11.437 2.01149 12.2982C1.96877 13.1594 2.20548 14.0114 2.68636 14.7271C3.16724 15.4428 3.86652 15.984 4.68 16.27C4.78371 16.3019 4.89148 16.3188 5 16.32C5.26521 16.3624 5.53642 16.2978 5.75397 16.1402C5.97151 15.9827 6.11756 15.7452 6.16 15.48C6.20243 15.2148 6.13777 14.9436 5.98024 14.726C5.82271 14.5085 5.58521 14.3624 5.32 14.32C4.94291 14.1839 4.61543 13.9376 4.38005 13.613C4.14467 13.2885 4.01226 12.9007 4 12.5C4 11.9696 4.21071 11.4609 4.58578 11.0858C4.96085 10.7107 5.46956 10.5 6 10.5C6.26521 10.5 6.51957 10.3946 6.7071 10.2071C6.89464 10.0196 7 9.76522 7 9.5C7.00255 8.31728 7.42428 7.17375 8.19027 6.27259C8.95625 5.37142 10.0169 4.77095 11.1837 4.57788C12.3506 4.3848 13.5481 4.61161 14.5636 5.21801C15.579 5.82441 16.3466 6.77114 16.73 7.89C16.7872 8.06184 16.8899 8.21493 17.0273 8.33293C17.1647 8.45094 17.3315 8.52942 17.51 8.56C18.1113 8.66884 18.6651 8.95873 19.0972 9.39089C19.5293 9.82304 19.8191 10.3768 19.9278 10.9782C20.0366 11.5796 19.9591 12.1998 19.7057 12.7559C19.4523 13.312 19.0351 13.7775 18.51 14.09C18.2793 14.2226 18.1106 14.4414 18.0413 14.6984C17.9719 14.9553 18.0074 15.2293 18.14 15.46C18.2726 15.6907 18.4914 15.8594 18.7484 15.9287C19.0053 15.9981 19.2793 15.9626 19.51 15.83C20.2682 15.3899 20.8974 14.7582 21.3344 13.9982C21.7715 13.2382 22.001 12.3767 22 11.5C21.997 10.4241 21.647 9.37794 21.002 8.51681C20.3571 7.65568 19.4516 7.02555 18.42 6.72Z" fill="#414853"/>
</svg>
