<svg width="24" height="24" viewBox="0 0 24 24" fill="none" xmlns="http://www.w3.org/2000/svg">
<path d="M12 17C11.8022 17 11.6089 17.0587 11.4444 17.1685C11.28 17.2784 11.1518 17.4346 11.0761 17.6173C11.0005 17.8 10.9806 18.0011 11.0192 18.1951C11.0578 18.3891 11.1531 18.5673 11.2929 18.7071C11.4328 18.847 11.6109 18.9422 11.8049 18.9808C11.9989 19.0194 12.2 18.9996 12.3827 18.9239C12.5654 18.8482 12.7216 18.72 12.8315 18.5556C12.9414 18.3911 13 18.1978 13 18C13 17.7348 12.8947 17.4804 12.7071 17.2929C12.5196 17.1054 12.2652 17 12 17ZM8.00002 11C7.80224 11 7.6089 11.0587 7.44445 11.1685C7.28 11.2784 7.15183 11.4346 7.07614 11.6173C7.00045 11.8 6.98065 12.0011 7.01923 12.1951C7.05782 12.3891 7.15306 12.5673 7.29291 12.7071C7.43277 12.847 7.61095 12.9422 7.80493 12.9808C7.99891 13.0194 8.19998 12.9996 8.3827 12.9239C8.56543 12.8482 8.72161 12.72 8.83149 12.5556C8.94137 12.3911 9.00002 12.1978 9.00002 12C9.00002 11.7348 8.89466 11.4804 8.70713 11.2929C8.51959 11.1054 8.26524 11 8.00002 11ZM12 13C11.8022 13 11.6089 13.0587 11.4444 13.1685C11.28 13.2784 11.1518 13.4346 11.0761 13.6173C11.0005 13.8 10.9806 14.0011 11.0192 14.1951C11.0578 14.3891 11.1531 14.5673 11.2929 14.7071C11.4328 14.847 11.6109 14.9422 11.8049 14.9808C11.9989 15.0194 12.2 14.9996 12.3827 14.9239C12.5654 14.8482 12.7216 14.72 12.8315 14.5556C12.9414 14.3911 13 14.1978 13 14C13 13.7348 12.8947 13.4804 12.7071 13.2929C12.5196 13.1054 12.2652 13 12 13ZM8.00002 19C7.80224 19 7.6089 19.0586 7.44445 19.1685C7.28 19.2784 7.15183 19.4346 7.07614 19.6173C7.00045 19.8 6.98065 20.0011 7.01923 20.1951C7.05782 20.3891 7.15306 20.5673 7.29291 20.7071C7.43277 20.847 7.61095 20.9422 7.80493 20.9808C7.99891 21.0194 8.19998 20.9996 8.3827 20.9239C8.56543 20.8482 8.72161 20.72 8.83149 20.5556C8.94137 20.3911 9.00002 20.1978 9.00002 20C9.00002 19.7348 8.89466 19.4804 8.70713 19.2929C8.51959 19.1054 8.26524 19 8.00002 19ZM8.00002 15C7.80224 15 7.6089 15.0587 7.44445 15.1685C7.28 15.2784 7.15183 15.4346 7.07614 15.6173C7.00045 15.8 6.98065 16.0011 7.01923 16.1951C7.05782 16.3891 7.15306 16.5673 7.29291 16.7071C7.43277 16.847 7.61095 16.9422 7.80493 16.9808C7.99891 17.0194 8.19998 16.9996 8.3827 16.9239C8.56543 16.8482 8.72161 16.72 8.83149 16.5556C8.94137 16.3911 9.00002 16.1978 9.00002 16C9.00002 15.7348 8.89466 15.4804 8.70713 15.2929C8.51959 15.1054 8.26524 15 8.00002 15ZM16 15C15.8022 15 15.6089 15.0587 15.4444 15.1685C15.28 15.2784 15.1518 15.4346 15.0761 15.6173C15.0005 15.8 14.9806 16.0011 15.0192 16.1951C15.0578 16.3891 15.1531 16.5673 15.2929 16.7071C15.4328 16.847 15.6109 16.9422 15.8049 16.9808C15.9989 17.0194 16.2 16.9996 16.3827 16.9239C16.5654 16.8482 16.7216 16.72 16.8315 16.5556C16.9414 16.3911 17 16.1978 17 16C17 15.7348 16.8947 15.4804 16.7071 15.2929C16.5196 15.1054 16.2652 15 16 15ZM12 9C11.8022 9 11.6089 9.05865 11.4444 9.16853C11.28 9.27841 11.1518 9.43459 11.0761 9.61732C11.0005 9.80004 10.9806 10.0011 11.0192 10.1951C11.0578 10.3891 11.1531 10.5673 11.2929 10.7071C11.4328 10.847 11.6109 10.9422 11.8049 10.9808C11.9989 11.0194 12.2 10.9996 12.3827 10.9239C12.5654 10.8482 12.7216 10.72 12.8315 10.5556C12.9414 10.3911 13 10.1978 13 10C13 9.73479 12.8947 9.48043 12.7071 9.29289C12.5196 9.10536 12.2652 9 12 9ZM16 11C15.8022 11 15.6089 11.0587 15.4444 11.1685C15.28 11.2784 15.1518 11.4346 15.0761 11.6173C15.0005 11.8 14.9806 12.0011 15.0192 12.1951C15.0578 12.3891 15.1531 12.5673 15.2929 12.7071C15.4328 12.847 15.6109 12.9422 15.8049 12.9808C15.9989 13.0194 16.2 12.9996 16.3827 12.9239C16.5654 12.8482 16.7216 12.72 16.8315 12.5556C16.9414 12.3911 17 12.1978 17 12C17 11.7348 16.8947 11.4804 16.7071 11.2929C16.5196 11.1054 16.2652 11 16 11ZM18.42 6.22C17.809 4.81601 16.7545 3.65108 15.4181 2.90373C14.0817 2.15638 12.5371 1.86783 11.021 2.08231C9.50489 2.29679 8.10095 3.00245 7.02427 4.09118C5.9476 5.1799 5.25761 6.59162 5.06002 8.11C4.18743 8.32097 3.41118 8.81933 2.85615 9.52491C2.30111 10.2305 1.99957 11.1023 2.00002 12C1.99823 12.5664 2.11677 13.1268 2.34777 13.6439C2.57878 14.1611 2.91699 14.6233 3.34002 15C3.43738 15.0935 3.55266 15.1663 3.67892 15.2141C3.80518 15.2619 3.9398 15.2836 4.07467 15.2779C4.20955 15.2723 4.34188 15.2393 4.46369 15.1812C4.5855 15.123 4.69428 15.0408 4.78346 14.9394C4.87264 14.8381 4.94037 14.7197 4.98259 14.5915C5.0248 14.4633 5.04062 14.3279 5.02909 14.1934C5.01755 14.0589 4.97891 13.9281 4.91548 13.8089C4.85205 13.6898 4.76515 13.5847 4.66002 13.5C4.45032 13.3108 4.28309 13.0792 4.16933 12.8207C4.05557 12.5622 3.99787 12.2825 4.00002 12C4.00002 11.4696 4.21073 10.9609 4.58581 10.5858C4.96088 10.2107 5.46959 10 6.00002 10C6.26524 10 6.51959 9.89464 6.70713 9.70711C6.89466 9.51957 7.00002 9.26522 7.00002 9C7.00257 7.81728 7.42431 6.67375 8.19029 5.77259C8.95627 4.87142 10.0169 4.27095 11.1838 4.07788C12.3506 3.8848 13.5482 4.11161 14.5636 4.71801C15.579 5.32441 16.3466 6.27114 16.73 7.39C16.7872 7.56184 16.8899 7.71493 17.0273 7.83293C17.1647 7.95094 17.3315 8.02942 17.51 8.06C18.2042 8.17974 18.8341 8.53993 19.2893 9.07747C19.7446 9.615 19.9962 10.2956 20 11C20.0153 11.7363 19.7509 12.451 19.26 13C19.1004 13.1988 19.0227 13.4511 19.0429 13.7053C19.063 13.9594 19.1795 14.1963 19.3686 14.3674C19.5576 14.5386 19.8048 14.631 20.0597 14.6259C20.3147 14.6208 20.558 14.5186 20.74 14.34C21.2908 13.7106 21.6749 12.953 21.8572 12.1367C22.0394 11.3204 22.0139 10.4714 21.7831 9.66744C21.5523 8.86351 21.1234 8.13033 20.5359 7.53503C19.9483 6.93974 19.2209 6.50135 18.42 6.26V6.22ZM16 19C15.8022 19 15.6089 19.0586 15.4444 19.1685C15.28 19.2784 15.1518 19.4346 15.0761 19.6173C15.0005 19.8 14.9806 20.0011 15.0192 20.1951C15.0578 20.3891 15.1531 20.5673 15.2929 20.7071C15.4328 20.847 15.6109 20.9422 15.8049 20.9808C15.9989 21.0194 16.2 20.9996 16.3827 20.9239C16.5654 20.8482 16.7216 20.72 16.8315 20.5556C16.9414 20.3911 17 20.1978 17 20C17 19.7348 16.8947 19.4804 16.7071 19.2929C16.5196 19.1054 16.2652 19 16 19Z" fill="#414853"/>
</svg>
