<svg width="24" height="24" viewBox="0 0 24 24" fill="none" xmlns="http://www.w3.org/2000/svg">
<path d="M21.7 9.07C21.5795 8.95167 21.4311 8.86577 21.2684 8.82031C21.1058 8.77484 20.9343 8.7713 20.77 8.81C20.5535 8.86002 20.3322 8.88684 20.11 8.89C19.3143 8.89 18.5513 8.57393 17.9887 8.01132C17.4261 7.44871 17.11 6.68565 17.11 5.89C17.1131 5.66778 17.14 5.44654 17.19 5.23C17.2287 5.06564 17.2251 4.89416 17.1797 4.73154C17.1342 4.56892 17.0483 4.42046 16.93 4.3C16.8136 4.17462 16.667 4.08119 16.5041 4.02867C16.3413 3.97614 16.1677 3.96627 16 4C15.0047 4.21974 14.102 4.74256 13.4161 5.4965C12.7302 6.25044 12.2949 7.19843 12.17 8.21C11.6254 8.0649 11.0636 7.99426 10.5 8C9.05884 7.99918 7.66555 8.5171 6.57486 9.45906C5.48417 10.401 4.76895 11.7041 4.55999 13.13C3.74618 13.3582 3.04244 13.8732 2.57875 14.5799C2.11506 15.2865 1.92274 16.1371 2.03732 16.9745C2.1519 17.8119 2.56563 18.5795 3.2021 19.1356C3.83858 19.6918 4.65479 19.9988 5.49999 20H14.67C15.8184 20 16.9197 19.5438 17.7318 18.7318C18.5438 17.9197 19 16.8184 19 15.67C19.0039 14.9732 18.8356 14.2861 18.51 13.67C19.3688 13.4302 20.1466 12.9624 20.7611 12.3163C21.3755 11.6701 21.8036 10.8697 22 10C22.0337 9.83227 22.0238 9.65869 21.9713 9.49586C21.9188 9.33303 21.8254 9.18641 21.7 9.07ZM14.7 18H5.49999C5.10216 18 4.72063 17.842 4.43933 17.5607C4.15802 17.2794 3.99999 16.8978 3.99999 16.5C3.99999 16.1022 4.15802 15.7206 4.43933 15.4393C4.72063 15.158 5.10216 15 5.49999 15C5.7652 15 6.01956 14.8946 6.20709 14.7071C6.39463 14.5196 6.49999 14.2652 6.49999 14C6.50245 13.2811 6.69862 12.5762 7.06784 11.9593C7.43706 11.3425 7.96569 10.8366 8.59813 10.4948C9.23057 10.153 9.94344 9.98793 10.6617 10.017C11.38 10.0461 12.0772 10.2682 12.68 10.66C13.41 11.1348 13.9621 11.8382 14.25 12.66C14.3071 12.8318 14.4099 12.9849 14.5473 13.1029C14.6846 13.2209 14.8515 13.2994 15.03 13.33C15.3366 13.3536 15.6356 13.4374 15.9099 13.5766C16.1841 13.7158 16.4283 13.9076 16.6284 14.1412C16.8285 14.3747 16.9806 14.6454 17.0761 14.9377C17.1716 15.2301 17.2086 15.5384 17.185 15.845C17.1613 16.1516 17.0775 16.4506 16.9384 16.7249C16.7992 16.9991 16.6073 17.2433 16.3738 17.4434C16.1403 17.6435 15.8696 17.7956 15.5773 17.8911C15.2849 17.9866 14.9766 18.0236 14.67 18H14.7ZM17.14 11.89C17.0002 11.9013 16.8598 11.9013 16.72 11.89C16.4892 11.7664 16.2484 11.6627 16 11.58C15.588 10.6831 14.9633 9.90046 14.18 9.3C14.18 9.18 14.18 9.05 14.18 8.93C14.18 8.49668 14.2738 8.06849 14.4551 7.6749C14.6363 7.28131 14.9007 6.93166 15.23 6.65C15.3848 7.71686 15.8803 8.7051 16.6426 9.46738C17.4049 10.2297 18.3931 10.7252 19.46 10.88C19.1669 11.2111 18.8043 11.4734 18.398 11.648C17.9918 11.8226 17.5519 11.9052 17.11 11.89H17.14Z" fill="#414853"/>
</svg>
