<svg width="24" height="24" viewBox="0 0 24 24" fill="none" xmlns="http://www.w3.org/2000/svg">
<path d="M8.50001 14C8.23479 14 7.98044 14.1054 7.7929 14.2929C7.60536 14.4804 7.50001 14.7348 7.50001 15V16C7.50001 16.2652 7.60536 16.5196 7.7929 16.7071C7.98044 16.8946 8.23479 17 8.50001 17C8.76522 17 9.01958 16.8946 9.20711 16.7071C9.39465 16.5196 9.50001 16.2652 9.50001 16V15C9.50001 14.7348 9.39465 14.4804 9.20711 14.2929C9.01958 14.1054 8.76522 14 8.50001 14ZM8.50001 19C8.23479 19 7.98044 19.1054 7.7929 19.2929C7.60536 19.4804 7.50001 19.7348 7.50001 20V21C7.50001 21.2652 7.60536 21.5196 7.7929 21.7071C7.98044 21.8946 8.23479 22 8.50001 22C8.76522 22 9.01958 21.8946 9.20711 21.7071C9.39465 21.5196 9.50001 21.2652 9.50001 21V20C9.50001 19.7348 9.39465 19.4804 9.20711 19.2929C9.01958 19.1054 8.76522 19 8.50001 19ZM21.7 7.07C21.5785 6.95003 21.4284 6.86315 21.2639 6.81764C21.0993 6.77212 20.9259 6.7695 20.76 6.81C20.5469 6.86031 20.3289 6.88713 20.11 6.89C19.3144 6.89 18.5513 6.57393 17.9887 6.01132C17.4261 5.44871 17.11 4.68565 17.11 3.89C17.1132 3.66779 17.14 3.44654 17.19 3.23C17.2287 3.06564 17.2252 2.89416 17.1797 2.73154C17.1342 2.56892 17.0483 2.42046 16.93 2.3C16.8136 2.17462 16.667 2.08119 16.5041 2.02867C16.3413 1.97614 16.1677 1.96627 16 2C15.0047 2.21974 14.102 2.74256 13.4161 3.4965C12.7302 4.25044 12.2949 5.19843 12.17 6.21C11.6254 6.0649 11.0636 5.99426 10.5 6C9.05886 5.99918 7.66557 6.5171 6.57488 7.45906C5.48419 8.40102 4.76897 9.70409 4.56001 11.13C3.86364 11.3239 3.2444 11.7287 2.78734 12.2887C2.33028 12.8487 2.05784 13.5365 2.00743 14.2576C1.95701 14.9787 2.13111 15.6978 2.5058 16.3159C2.88049 16.9341 3.43739 17.4211 4.10001 17.71C4.22744 17.7605 4.36295 17.7876 4.50001 17.79C4.7312 17.7919 4.95591 17.7136 5.13589 17.5685C5.31586 17.4233 5.43999 17.2203 5.48715 16.994C5.5343 16.7676 5.50157 16.532 5.39452 16.327C5.28747 16.1221 5.11272 15.9606 4.90001 15.87C4.6317 15.7557 4.40314 15.5647 4.24302 15.321C4.0829 15.0772 3.99836 14.7916 4.00001 14.5C4.00001 14.1022 4.15804 13.7206 4.43935 13.4393C4.72065 13.158 5.10218 13 5.50001 13C5.76522 13 6.01958 12.8946 6.20711 12.7071C6.39465 12.5196 6.50001 12.2652 6.50001 12C6.50001 10.9391 6.92143 9.92172 7.67158 9.17157C8.42172 8.42143 9.43914 8 10.5 8C11.2727 8.00076 12.0278 8.23043 12.67 8.66C13.4 9.13485 13.9521 9.83815 14.24 10.66C14.2972 10.8318 14.3999 10.9849 14.5373 11.1029C14.6747 11.2209 14.8415 11.2994 15.02 11.33C15.5013 11.3803 15.9549 11.5799 16.3172 11.9008C16.6794 12.2217 16.9323 12.6479 17.0403 13.1196C17.1483 13.5914 17.1061 14.0851 16.9195 14.5316C16.733 14.9782 16.4115 15.3553 16 15.61C15.8897 15.6822 15.7947 15.7755 15.7204 15.8844C15.6461 15.9934 15.5941 16.1159 15.5671 16.2449C15.5402 16.374 15.539 16.5071 15.5635 16.6367C15.588 16.7662 15.6378 16.8897 15.71 17C15.7822 17.1103 15.8755 17.2053 15.9844 17.2796C16.0934 17.3539 16.2159 17.406 16.3449 17.4329C16.474 17.4598 16.6071 17.4611 16.7367 17.4365C16.8662 17.412 16.9897 17.3622 17.1 17.29C17.691 16.8904 18.1738 16.3507 18.5053 15.719C18.8369 15.0873 19.0068 14.3834 19 13.67C19.0039 12.9732 18.8356 12.2861 18.51 11.67C19.3688 11.4302 20.1467 10.9624 20.7611 10.3163C21.3755 9.67013 21.8036 8.86975 22 8C22.0337 7.83227 22.0239 7.65869 21.9713 7.49586C21.9188 7.33303 21.8254 7.18641 21.7 7.07ZM17.11 9.89C16.9702 9.90083 16.8298 9.90083 16.69 9.89C16.4702 9.75417 16.2394 9.63708 16 9.54C15.5881 8.64314 14.9633 7.86046 14.18 7.26C14.18 7.14 14.18 7.01 14.18 6.89C14.18 6.45668 14.2738 6.02849 14.4551 5.6349C14.6363 5.24131 14.9007 4.89166 15.23 4.61C15.3848 5.67686 15.8803 6.6651 16.6426 7.42738C17.4049 8.18966 18.3932 8.68516 19.46 8.84C19.1707 9.17842 18.8098 9.44822 18.4033 9.62983C17.9969 9.81144 17.5551 9.90032 17.11 9.89ZM12.5 13C12.2348 13 11.9804 13.1054 11.7929 13.2929C11.6054 13.4804 11.5 13.7348 11.5 14V15C11.5 15.2652 11.6054 15.5196 11.7929 15.7071C11.9804 15.8946 12.2348 16 12.5 16C12.7652 16 13.0196 15.8946 13.2071 15.7071C13.3946 15.5196 13.5 15.2652 13.5 15V14C13.5 13.7348 13.3946 13.4804 13.2071 13.2929C13.0196 13.1054 12.7652 13 12.5 13ZM12.5 18C12.2348 18 11.9804 18.1054 11.7929 18.2929C11.6054 18.4804 11.5 18.7348 11.5 19V20C11.5 20.2652 11.6054 20.5196 11.7929 20.7071C11.9804 20.8946 12.2348 21 12.5 21C12.7652 21 13.0196 20.8946 13.2071 20.7071C13.3946 20.5196 13.5 20.2652 13.5 20V19C13.5 18.7348 13.3946 18.4804 13.2071 18.2929C13.0196 18.1054 12.7652 18 12.5 18Z" fill="#414853"/>
</svg>
