<svg width="24" height="24" viewBox="0 0 24 24" fill="none" xmlns="http://www.w3.org/2000/svg">
<path d="M18.42 8.22C17.809 6.81601 16.7545 5.65108 15.4181 4.90373C14.0817 4.15638 12.5371 3.86783 11.021 4.08231C9.50487 4.29679 8.10092 5.00245 7.02425 6.09118C5.94758 7.1799 5.25759 8.59162 5.06 10.11C4.10658 10.3383 3.27022 10.9088 2.70973 11.7132C2.14925 12.5175 1.90368 13.4997 2.01966 14.4732C2.13564 15.4467 2.60509 16.3437 3.33886 16.9939C4.07264 17.644 5.01963 18.0021 6 18C6.26521 18 6.51957 17.8946 6.7071 17.7071C6.89464 17.5196 7 17.2652 7 17C7 16.7348 6.89464 16.4804 6.7071 16.2929C6.51957 16.1054 6.26521 16 6 16C5.46956 16 4.96086 15.7893 4.58578 15.4142C4.21071 15.0391 4 14.5304 4 14C4 13.4696 4.21071 12.9609 4.58578 12.5858C4.96086 12.2107 5.46956 12 6 12C6.26521 12 6.51957 11.8946 6.7071 11.7071C6.89464 11.5196 7 11.2652 7 11C7.00255 9.81728 7.42428 8.67376 8.19027 7.77259C8.95625 6.87142 10.0169 6.27095 11.1837 6.07788C12.3506 5.8848 13.5481 6.11161 14.5636 6.71801C15.579 7.32441 16.3466 8.27114 16.73 9.39C16.7872 9.56184 16.8899 9.71493 17.0273 9.83294C17.1647 9.95094 17.3315 10.0294 17.51 10.06C18.1761 10.1859 18.7799 10.5336 19.223 11.0465C19.6662 11.5595 19.9226 12.2074 19.9504 12.8846C19.9782 13.5619 19.7759 14.2287 19.3763 14.7762C18.9767 15.3238 18.4035 15.7199 17.75 15.9C17.4927 15.9663 17.2724 16.1321 17.1373 16.3609C17.0023 16.5897 16.9637 16.8627 17.03 17.12C17.0963 17.3773 17.2621 17.5976 17.4909 17.7327C17.7197 17.8677 17.9927 17.9063 18.25 17.84C19.3024 17.5619 20.2353 16.948 20.907 16.0915C21.5787 15.2349 21.9526 14.1826 21.9718 13.0943C21.9911 12.0059 21.6546 10.941 21.0136 10.0613C20.3725 9.1816 19.4619 8.5351 18.42 8.22ZM14.71 14.29C14.617 14.1963 14.5064 14.1219 14.3846 14.0711C14.2627 14.0203 14.132 13.9942 14 13.9942C13.868 13.9942 13.7373 14.0203 13.6154 14.0711C13.4936 14.1219 13.383 14.1963 13.29 14.29L12 15.59L10.71 14.29C10.5217 14.1017 10.2663 13.9959 10 13.9959C9.7337 13.9959 9.4783 14.1017 9.29 14.29C9.10169 14.4783 8.99591 14.7337 8.99591 15C8.99591 15.2663 9.10169 15.5217 9.29 15.71L10.59 17L9.29 18.29C9.19627 18.383 9.12187 18.4936 9.07111 18.6154C9.02034 18.7373 8.9942 18.868 8.9942 19C8.9942 19.132 9.02034 19.2627 9.07111 19.3846C9.12187 19.5064 9.19627 19.617 9.29 19.71C9.38296 19.8037 9.49356 19.8781 9.61542 19.9289C9.73728 19.9797 9.86799 20.0058 10 20.0058C10.132 20.0058 10.2627 19.9797 10.3846 19.9289C10.5064 19.8781 10.617 19.8037 10.71 19.71L12 18.41L13.29 19.71C13.383 19.8037 13.4936 19.8781 13.6154 19.9289C13.7373 19.9797 13.868 20.0058 14 20.0058C14.132 20.0058 14.2627 19.9797 14.3846 19.9289C14.5064 19.8781 14.617 19.8037 14.71 19.71C14.8037 19.617 14.8781 19.5064 14.9289 19.3846C14.9797 19.2627 15.0058 19.132 15.0058 19C15.0058 18.868 14.9797 18.7373 14.9289 18.6154C14.8781 18.4936 14.8037 18.383 14.71 18.29L13.41 17L14.71 15.71C14.8037 15.617 14.8781 15.5064 14.9289 15.3846C14.9797 15.2627 15.0058 15.132 15.0058 15C15.0058 14.868 14.9797 14.7373 14.9289 14.6154C14.8781 14.4936 14.8037 14.383 14.71 14.29Z" fill="#414853"/>
</svg>
