<svg width="24" height="24" viewBox="0 0 24 24" fill="none" xmlns="http://www.w3.org/2000/svg">
<path d="M19 14C18.8726 13.9669 18.74 13.9593 18.6096 13.9777C18.4793 13.996 18.3539 14.0398 18.2405 14.1067C18.1272 14.1736 18.0282 14.2622 17.9492 14.3675C17.8701 14.4727 17.8126 14.5925 17.78 14.72C17.3976 16.2285 16.5234 17.5666 15.2956 18.5228C14.0677 19.479 12.5563 19.9988 11 20H5.41002L6.05002 19.37C6.23627 19.1826 6.34081 18.9292 6.34081 18.665C6.34081 18.4008 6.23627 18.1474 6.05002 17.96C5.17411 17.0876 4.54486 15.9988 4.22627 14.8043C3.90768 13.6098 3.91112 12.3522 4.23622 11.1595C4.56133 9.96675 5.19651 8.88139 6.07717 8.01378C6.95784 7.14617 8.05256 6.52726 9.25002 6.22C9.3774 6.18717 9.49707 6.12957 9.60219 6.05049C9.70731 5.97141 9.79583 5.8724 9.86269 5.75911C9.92955 5.64583 9.97344 5.52048 9.99185 5.39023C10.0103 5.25998 10.0028 5.12738 9.97002 5C9.90371 4.74274 9.73793 4.52235 9.50913 4.38733C9.39585 4.32047 9.2705 4.27658 9.14025 4.25816C9.01 4.23975 8.8774 4.24717 8.75002 4.28C7.29702 4.65884 5.9619 5.39521 4.86628 6.42203C3.77066 7.44884 2.94937 8.73347 2.47721 10.1589C2.00506 11.5843 1.89705 13.1052 2.16302 14.583C2.429 16.0609 3.06051 17.4487 4.00002 18.62L2.29002 20.29C2.15126 20.4306 2.05726 20.6092 2.01989 20.8032C1.98252 20.9972 2.00344 21.1979 2.08002 21.38C2.15504 21.5626 2.28244 21.7189 2.44616 21.8293C2.60988 21.9396 2.80259 21.999 3.00002 22H11C12.9963 22.0013 14.9363 21.3388 16.5149 20.1169C18.0934 18.895 19.221 17.1829 19.72 15.25C19.7576 15.1206 19.7687 14.985 19.7526 14.8512C19.7365 14.7175 19.6936 14.5883 19.6263 14.4716C19.5591 14.3548 19.469 14.2529 19.3613 14.1719C19.2537 14.0908 19.1308 14.0324 19 14ZM20.54 3.46C19.7232 2.64108 18.6477 2.1307 17.4967 2.0158C16.3458 1.9009 15.1906 2.18859 14.228 2.82985C13.2653 3.47112 12.5548 4.4263 12.2174 5.53267C11.8801 6.63903 11.9367 7.82815 12.3777 8.89744C12.8187 9.96673 13.6168 10.8501 14.636 11.3969C15.6553 11.9438 16.8325 12.1204 17.9674 11.8966C19.1022 11.6728 20.1243 11.0625 20.8596 10.1697C21.5949 9.27683 21.998 8.15666 22 7C22.0012 6.34295 21.8729 5.69211 21.6223 5.08469C21.3718 4.47727 21.004 3.92519 20.54 3.46ZM14 7C14 6.20435 14.3161 5.44129 14.8787 4.87868C15.4413 4.31607 16.2044 4 17 4C17.447 4.00265 17.8877 4.10514 18.29 4.3L14.29 8.3C14.0972 7.89387 13.9981 7.44959 14 7ZM19.12 9.12C18.6748 9.54325 18.1131 9.82368 17.5072 9.92525C16.9014 10.0268 16.279 9.9449 15.72 9.69L19.72 5.69C19.9109 6.09998 20.0066 6.54781 20 7C19.9993 7.79538 19.6828 8.55793 19.12 9.12Z" fill="#414853"/>
</svg>
