<svg width="24" height="24" viewBox="0 0 24 24" fill="none" xmlns="http://www.w3.org/2000/svg">
<path d="M12 8.35C11.4286 8.05705 10.7798 7.95062 10.1448 8.04569C9.50975 8.14077 8.92052 8.43256 8.46 8.88C7.8982 9.4425 7.58264 10.205 7.58264 11C7.58264 11.795 7.8982 12.5575 8.46 13.12L11.29 16C11.383 16.0937 11.4936 16.1681 11.6154 16.2189C11.7373 16.2697 11.868 16.2958 12 16.2958C12.132 16.2958 12.2627 16.2697 12.3846 16.2189C12.5064 16.1681 12.617 16.0937 12.71 16L15.54 13.17C16.1018 12.6075 16.4174 11.845 16.4174 11.05C16.4174 10.255 16.1018 9.4925 15.54 8.93C15.0852 8.47439 14.4988 8.17326 13.8635 8.06918C13.2283 7.9651 12.5764 8.06333 12 8.35ZM14.12 11.71L12 13.83L9.88 11.71C9.78627 11.617 9.71188 11.5064 9.66111 11.3846C9.61034 11.2627 9.58421 11.132 9.58421 11C9.58421 10.868 9.61034 10.7373 9.66111 10.6154C9.71188 10.4936 9.78627 10.383 9.88 10.29C10.0674 10.1037 10.3208 9.99921 10.585 9.99921C10.8492 9.99921 11.1026 10.1037 11.29 10.29C11.383 10.3837 11.4936 10.4581 11.6154 10.5089C11.7373 10.5597 11.868 10.5858 12 10.5858C12.132 10.5858 12.2627 10.5597 12.3846 10.5089C12.5064 10.4581 12.617 10.3837 12.71 10.29C12.8974 10.1037 13.1508 9.99921 13.415 9.99921C13.6792 9.99921 13.9326 10.1037 14.12 10.29C14.2137 10.383 14.2881 10.4936 14.3389 10.6154C14.3897 10.7373 14.4158 10.868 14.4158 11C14.4158 11.132 14.3897 11.2627 14.3389 11.3846C14.2881 11.5064 14.2137 11.617 14.12 11.71ZM12 2C10.6868 2 9.38642 2.25866 8.17317 2.7612C6.95991 3.26375 5.85752 4.00035 4.92894 4.92893C3.05357 6.8043 2 9.34784 2 12C1.99126 14.3091 2.7908 16.5485 4.26 18.33L2.26 20.33C2.12125 20.4706 2.02725 20.6492 1.98988 20.8432C1.9525 21.0372 1.97342 21.2379 2.05 21.42C2.13306 21.5999 2.26771 21.7511 2.43685 21.8544C2.60599 21.9577 2.802 22.0083 3 22H12C14.6522 22 17.1957 20.9464 19.0711 19.0711C20.9464 17.1957 22 14.6522 22 12C22 9.34784 20.9464 6.8043 19.0711 4.92893C17.1957 3.05357 14.6522 2 12 2ZM12 20H5.41L6.34 19.07C6.52625 18.8826 6.6308 18.6292 6.6308 18.365C6.6308 18.1008 6.52625 17.8474 6.34 17.66C5.03059 16.352 4.21518 14.6305 4.03269 12.7888C3.85021 10.947 4.31195 9.09901 5.33923 7.55952C6.36652 6.02004 7.89579 4.88436 9.66652 4.34597C11.4372 3.80759 13.3399 3.8998 15.0502 4.60691C16.7606 5.31402 18.1729 6.59227 19.0464 8.22389C19.92 9.85551 20.2009 11.7395 19.8411 13.555C19.4814 15.3705 18.5033 17.005 17.0735 18.1802C15.6438 19.3554 13.8508 19.9985 12 20Z" fill="#414853"/>
</svg>
