<svg width="24" height="24" viewBox="0 0 24 24" fill="none" xmlns="http://www.w3.org/2000/svg">
<path d="M18.5 5.5H14.5C14.2348 5.5 13.9804 5.60536 13.7929 5.79289C13.6054 5.98043 13.5 6.23478 13.5 6.5C13.5 6.76522 13.6054 7.01957 13.7929 7.20711C13.9804 7.39464 14.2348 7.5 14.5 7.5H18.5C18.7652 7.5 19.0196 7.60536 19.2071 7.79289C19.3946 7.98043 19.5 8.23478 19.5 8.5V18.22L17.93 16.77C17.7456 16.5973 17.5026 16.5009 17.25 16.5H8.5C8.23478 16.5 7.98043 16.3946 7.79289 16.2071C7.60536 16.0196 7.5 15.7652 7.5 15.5V14.5C7.5 14.2348 7.39464 13.9804 7.20711 13.7929C7.01957 13.6054 6.76522 13.5 6.5 13.5C6.23478 13.5 5.98043 13.6054 5.79289 13.7929C5.60536 13.9804 5.5 14.2348 5.5 14.5V15.5C5.5 16.2956 5.81607 17.0587 6.37868 17.6213C6.94129 18.1839 7.70435 18.5 8.5 18.5H16.86L19.86 21.23C20.0444 21.4027 20.2874 21.4991 20.54 21.5C20.6772 21.4985 20.8128 21.4714 20.94 21.42C21.1189 21.3419 21.271 21.2132 21.3776 21.0497C21.4842 20.8863 21.5407 20.6952 21.54 20.5V8.5C21.54 8.10264 21.4611 7.70924 21.3079 7.34263C21.1546 6.97603 20.9301 6.64352 20.6472 6.36441C20.3644 6.08531 20.0289 5.86517 19.6603 5.71678C19.2917 5.56839 18.8973 5.4947 18.5 5.5ZM9.08 12.5H11.5C11.7652 12.5 12.0196 12.3946 12.2071 12.2071C12.3946 12.0196 12.5 11.7652 12.5 11.5V9.08C12.5008 8.94839 12.4755 8.81793 12.4258 8.69609C12.376 8.57425 12.3027 8.46344 12.21 8.37L6.63 2.79C6.44264 2.60375 6.18919 2.49921 5.925 2.49921C5.66081 2.49921 5.40736 2.60375 5.22 2.79L2.79 5.22C2.60375 5.40736 2.49921 5.66081 2.49921 5.925C2.49921 6.18919 2.60375 6.44264 2.79 6.63L8.37 12.21C8.46344 12.3027 8.57425 12.376 8.69609 12.4258C8.81793 12.4755 8.94839 12.5008 9.08 12.5ZM5.92 4.91L10.5 9.49V10.49H9.5L4.91 5.92L5.92 4.91Z" fill="#414853"/>
</svg>
