<svg width="24" height="24" viewBox="0 0 24 24" fill="none" xmlns="http://www.w3.org/2000/svg">
<path d="M19 14C18.8726 13.9669 18.7399 13.9593 18.6096 13.9777C18.4793 13.996 18.3539 14.0398 18.2405 14.1067C18.1272 14.1736 18.0281 14.2622 17.9491 14.3675C17.8701 14.4727 17.8126 14.5925 17.78 14.72C17.3976 16.2285 16.5234 17.5666 15.2956 18.5228C14.0677 19.479 12.5562 19.9988 11 20H5.40999L6.04999 19.37C6.23624 19.1826 6.34078 18.9292 6.34078 18.665C6.34078 18.4008 6.23624 18.1474 6.04999 17.96C5.17408 17.0876 4.54483 15.9988 4.22624 14.8043C3.90765 13.6098 3.91108 12.3522 4.23619 11.1595C4.5613 9.96676 5.19648 8.8814 6.07714 8.01379C6.95781 7.14617 8.05253 6.52727 9.24999 6.22C9.37737 6.18717 9.49704 6.12957 9.60216 6.05049C9.70728 5.97142 9.7958 5.87241 9.86266 5.75912C9.92952 5.64583 9.97341 5.52048 9.99182 5.39024C10.0102 5.25999 10.0028 5.12738 9.96999 5C9.90368 4.74274 9.7379 4.52236 9.5091 4.38733C9.39582 4.32047 9.27047 4.27658 9.14022 4.25817C9.00997 4.23975 8.87737 4.24717 8.74999 4.28C7.29699 4.65885 5.96187 5.39522 4.86625 6.42203C3.77063 7.44885 2.94934 8.73347 2.47718 10.1589C2.00502 11.5843 1.89702 13.1052 2.16299 14.583C2.42897 16.0609 3.06047 17.4487 3.99999 18.62L2.28999 20.29C2.15123 20.4306 2.05723 20.6092 2.01986 20.8032C1.98248 20.9972 2.00341 21.1979 2.07999 21.38C2.15501 21.5626 2.2824 21.7189 2.44613 21.8293C2.60985 21.9396 2.80256 21.999 2.99999 22H11C12.9962 22.0013 14.9363 21.3388 16.5148 20.1169C18.0934 18.895 19.2209 17.1829 19.72 15.25C19.7576 15.1206 19.7687 14.985 19.7526 14.8512C19.7365 14.7175 19.6936 14.5883 19.6263 14.4716C19.5591 14.3549 19.4689 14.2529 19.3613 14.1719C19.2537 14.0908 19.1308 14.0324 19 14ZM21 2C20.7348 2 20.4804 2.10536 20.2929 2.2929C20.1053 2.48043 20 2.73479 20 3C19.2442 2.43202 18.3429 2.08995 17.4006 2.01347C16.4583 1.937 15.5136 2.12924 14.6761 2.56792C13.8386 3.00659 13.1427 3.67371 12.669 4.49189C12.1953 5.31007 11.9633 6.24579 11.9998 7.19049C12.0364 8.1352 12.3401 9.05017 12.8756 9.82929C13.4111 10.6084 14.1565 11.2197 15.0254 11.5924C15.8943 11.965 16.851 12.0836 17.7846 11.9345C18.7182 11.7854 19.5904 11.3747 20.3 10.75C20.4176 10.671 20.5171 10.568 20.5919 10.4477C20.6666 10.3273 20.715 10.1925 20.7337 10.0521C20.7525 9.91168 20.7412 9.76889 20.7006 9.63317C20.66 9.49745 20.591 9.37191 20.4982 9.26486C20.4055 9.15781 20.291 9.07169 20.1624 9.01221C20.0338 8.95273 19.8941 8.92124 19.7525 8.91984C19.6108 8.91843 19.4705 8.94714 19.3407 9.00406C19.211 9.06098 19.0949 9.14481 19 9.25C18.6364 9.57062 18.2006 9.79836 17.7298 9.91374C17.259 10.0291 16.7672 10.0287 16.2966 9.91251C15.826 9.79632 15.3906 9.56782 15.0276 9.24658C14.6646 8.92534 14.3848 8.52093 14.2123 8.06795C14.0397 7.61497 13.9795 7.12692 14.0367 6.64558C14.094 6.16424 14.267 5.70394 14.541 5.30409C14.8151 4.90423 15.1819 4.57673 15.6101 4.34962C16.0384 4.12251 16.5153 4.00254 17 4C17.4211 4.00085 17.8372 4.09034 18.2214 4.26263C18.6056 4.43492 18.9493 4.68616 19.23 5H18C17.7348 5 17.4804 5.10536 17.2929 5.2929C17.1053 5.48043 17 5.73479 17 6C17 6.26522 17.1053 6.51957 17.2929 6.70711C17.4804 6.89465 17.7348 7 18 7H21C21.2652 7 21.5196 6.89465 21.7071 6.70711C21.8946 6.51957 22 6.26522 22 6V3C22 2.73479 21.8946 2.48043 21.7071 2.2929C21.5196 2.10536 21.2652 2 21 2Z" fill="#414853"/>
</svg>
