<svg width="24" height="24" viewBox="0 0 24 24" fill="none" xmlns="http://www.w3.org/2000/svg">
<path d="M10.4999 5.5C10.2347 5.5 9.98037 5.60536 9.79283 5.7929C9.6053 5.98043 9.49994 6.23479 9.49994 6.5V8.09L3.70994 2.29C3.6167 2.19676 3.50601 2.1228 3.38419 2.07234C3.26237 2.02188 3.1318 1.99591 2.99994 1.99591C2.86808 1.99591 2.73751 2.02188 2.61569 2.07234C2.49387 2.1228 2.38318 2.19676 2.28994 2.29C2.10164 2.47831 1.99585 2.7337 1.99585 3C1.99585 3.2663 2.10164 3.5217 2.28994 3.71L8.08994 9.5H6.49994C6.23472 9.5 5.98037 9.60536 5.79283 9.7929C5.6053 9.98043 5.49994 10.2348 5.49994 10.5C5.49994 10.7652 5.6053 11.0196 5.79283 11.2071C5.98037 11.3946 6.23472 11.5 6.49994 11.5H10.4999C10.6306 11.4984 10.7597 11.4712 10.8799 11.42C11.1243 11.3185 11.3185 11.1244 11.4199 10.88C11.4712 10.7598 11.4984 10.6307 11.4999 10.5V6.5C11.4999 6.23479 11.3946 5.98043 11.207 5.7929C11.0195 5.60536 10.7652 5.5 10.4999 5.5ZM21.7099 20.29L15.9099 14.5H17.4999C17.7652 14.5 18.0195 14.3946 18.207 14.2071C18.3946 14.0196 18.4999 13.7652 18.4999 13.5C18.4999 13.2348 18.3946 12.9804 18.207 12.7929C18.0195 12.6054 17.7652 12.5 17.4999 12.5H13.4999C13.3693 12.5016 13.2402 12.5288 13.1199 12.58C12.8756 12.6815 12.6814 12.8757 12.5799 13.12C12.5287 13.2402 12.5015 13.3693 12.4999 13.5V17.5C12.4999 17.7652 12.6053 18.0196 12.7928 18.2071C12.9804 18.3946 13.2347 18.5 13.4999 18.5C13.7652 18.5 14.0195 18.3946 14.207 18.2071C14.3946 18.0196 14.4999 17.7652 14.4999 17.5V15.91L20.2899 21.71C20.3829 21.8037 20.4935 21.8781 20.6154 21.9289C20.7372 21.9797 20.8679 22.0058 20.9999 22.0058C21.132 22.0058 21.2627 21.9797 21.3845 21.9289C21.5064 21.8781 21.617 21.8037 21.7099 21.71C21.8037 21.617 21.8781 21.5064 21.9288 21.3846C21.9796 21.2627 22.0057 21.132 22.0057 21C22.0057 20.868 21.9796 20.7373 21.9288 20.6154C21.8781 20.4936 21.8037 20.383 21.7099 20.29Z" fill="#414853"/>
</svg>
