<svg width="24" height="24" viewBox="0 0 24 24" fill="none" xmlns="http://www.w3.org/2000/svg">
<path d="M21 4.30999H11.63C10.3039 4.30999 9.03215 4.83677 8.09447 5.77446C7.15678 6.71214 6.63 7.98391 6.63 9.30999V16.31L3.71 13.35C3.61704 13.2563 3.50644 13.1819 3.38458 13.1311C3.26272 13.0803 3.13201 13.0542 3 13.0542C2.86799 13.0542 2.73728 13.0803 2.61542 13.1311C2.49356 13.1819 2.38296 13.2563 2.29 13.35C2.10375 13.5374 1.99921 13.7908 1.99921 14.055C1.99921 14.3192 2.10375 14.5726 2.29 14.76L6.92 19.39C7.01421 19.4846 7.12641 19.5594 7.25 19.61C7.3697 19.6629 7.49913 19.6902 7.63 19.6902C7.76087 19.6902 7.8903 19.6629 8.01 19.61C8.13153 19.5556 8.24308 19.4813 8.34 19.39L13 14.76C13.1638 14.5687 13.2494 14.3226 13.2397 14.0709C13.23 13.8193 13.1257 13.5805 12.9476 13.4024C12.7695 13.2243 12.5307 13.12 12.2791 13.1103C12.0274 13.1006 11.7813 13.1862 11.59 13.35L8.63 16.27V9.26999C8.63 8.47434 8.94607 7.71128 9.50868 7.14867C10.0713 6.58606 10.8343 6.26999 11.63 6.26999H21C21.2652 6.26999 21.5196 6.16463 21.7071 5.9771C21.8946 5.78956 22 5.53521 22 5.26999C22 5.00477 21.8946 4.75042 21.7071 4.56288C21.5196 4.37535 21.2652 4.26999 21 4.26999V4.30999Z" fill="#414853"/>
</svg>
