<svg width="24" height="24" viewBox="0 0 24 24" fill="none" xmlns="http://www.w3.org/2000/svg">
<path d="M14.69 6.63H7.68999L10.61 3.71C10.7037 3.61704 10.7781 3.50644 10.8289 3.38458C10.8796 3.26272 10.9058 3.13201 10.9058 3C10.9058 2.86799 10.8796 2.73728 10.8289 2.61542C10.7781 2.49356 10.7037 2.38296 10.61 2.29C10.4226 2.10375 10.1692 1.99921 9.90499 1.99921C9.6408 1.99921 9.38735 2.10375 9.19999 2.29L4.60999 6.92C4.51536 7.01421 4.44055 7.12641 4.38999 7.25C4.28997 7.49346 4.28997 7.76654 4.38999 8.01C4.44434 8.13153 4.51871 8.24308 4.60999 8.34L9.23999 13C9.42462 13.1884 9.67622 13.2962 9.93999 13.3C10.1386 13.3012 10.3331 13.2431 10.4986 13.1333C10.6641 13.0235 10.7932 12.8669 10.8694 12.6835C10.9455 12.5 10.9653 12.2981 10.9263 12.1033C10.8872 11.9086 10.791 11.7299 10.65 11.59L7.72999 8.63H14.73C15.5256 8.63 16.2887 8.94607 16.8513 9.50868C17.4139 10.0713 17.73 10.8343 17.73 11.63V21C17.73 21.2652 17.8353 21.5196 18.0229 21.7071C18.2104 21.8946 18.4648 22 18.73 22C18.9952 22 19.2496 21.8946 19.4371 21.7071C19.6246 21.5196 19.73 21.2652 19.73 21V11.63C19.73 10.97 19.5994 10.3165 19.3456 9.7073C19.0918 9.09805 18.7199 8.54507 18.2514 8.08025C17.7829 7.61543 17.2269 7.24797 16.6157 6.99906C16.0044 6.75015 15.35 6.62472 14.69 6.63Z" fill="#414853"/>
</svg>
