<svg width="24" height="24" viewBox="0 0 24 24" fill="none" xmlns="http://www.w3.org/2000/svg">
<path d="M19.61 7.25C19.5594 7.12641 19.4846 7.01421 19.39 6.92L14.76 2.29C14.5726 2.10375 14.3192 1.99921 14.055 1.99921C13.7908 1.99921 13.5374 2.10375 13.35 2.29C13.2563 2.38296 13.1819 2.49356 13.1311 2.61542C13.0803 2.73728 13.0542 2.86799 13.0542 3C13.0542 3.13201 13.0803 3.26272 13.1311 3.38458C13.1819 3.50644 13.2563 3.61704 13.35 3.71L16.27 6.63H8.27C7.20914 6.63 6.19172 7.05143 5.44158 7.80157C4.69143 8.55172 4.27 9.56913 4.27 10.63V21C4.27 21.2652 4.37536 21.5196 4.5629 21.7071C4.75043 21.8946 5.00479 22 5.27 22C5.53522 22 5.78957 21.8946 5.97711 21.7071C6.16465 21.5196 6.27 21.2652 6.27 21V10.63C6.27 10.0996 6.48072 9.59086 6.85579 9.21579C7.23086 8.84071 7.73957 8.63 8.27 8.63H16.27L13.35 11.55C13.209 11.6899 13.1128 11.8686 13.0737 12.0633C13.0347 12.2581 13.0545 12.46 13.1306 12.6435C13.2068 12.8269 13.3359 12.9835 13.5014 13.0933C13.6669 13.2031 13.8614 13.2612 14.06 13.26C14.3238 13.2562 14.5754 13.1484 14.76 12.96L19.39 8.34C19.4822 8.24007 19.5566 8.12507 19.61 8C19.7073 7.75947 19.7073 7.49053 19.61 7.25Z" fill="#414853"/>
</svg>
