<svg width="24" height="24" viewBox="0 0 24 24" fill="none" xmlns="http://www.w3.org/2000/svg">
<path d="M9.70994 10.21L11.9999 7.91L14.2899 10.21C14.3829 10.3037 14.4935 10.3781 14.6154 10.4289C14.7372 10.4797 14.8679 10.5058 14.9999 10.5058C15.132 10.5058 15.2627 10.4797 15.3845 10.4289C15.5064 10.3781 15.617 10.3037 15.7099 10.21C15.8037 10.117 15.8781 10.0064 15.9288 9.88458C15.9796 9.76272 16.0057 9.63201 16.0057 9.5C16.0057 9.36799 15.9796 9.23728 15.9288 9.11542C15.8781 8.99356 15.8037 8.88296 15.7099 8.79L12.7099 5.79C12.617 5.69627 12.5064 5.62188 12.3845 5.57111C12.2627 5.52034 12.132 5.4942 11.9999 5.4942C11.8679 5.4942 11.7372 5.52034 11.6154 5.57111C11.4935 5.62188 11.3829 5.69627 11.2899 5.79L8.28994 8.79C8.10164 8.9783 7.99585 9.2337 7.99585 9.5C7.99585 9.7663 8.10164 10.0217 8.28994 10.21C8.47825 10.3983 8.73364 10.5041 8.99994 10.5041C9.26624 10.5041 9.52164 10.3983 9.70994 10.21ZM14.2899 14.79L11.9999 17.09L9.70994 14.79C9.6167 14.6968 9.50601 14.6228 9.38419 14.5723C9.26237 14.5219 9.1318 14.4959 8.99994 14.4959C8.86808 14.4959 8.73751 14.5219 8.61569 14.5723C8.49387 14.6228 8.38318 14.6968 8.28994 14.79C8.1967 14.8832 8.12274 14.9939 8.07228 15.1158C8.02182 15.2376 7.99585 15.3681 7.99585 15.5C7.99585 15.6319 8.02182 15.7624 8.07228 15.8842C8.12274 16.0061 8.1967 16.1168 8.28994 16.21L11.2899 19.21C11.3829 19.3037 11.4935 19.3781 11.6154 19.4289C11.7372 19.4797 11.8679 19.5058 11.9999 19.5058C12.132 19.5058 12.2627 19.4797 12.3845 19.4289C12.5064 19.3781 12.617 19.3037 12.7099 19.21L15.7099 16.21C15.8982 16.0217 16.004 15.7663 16.004 15.5C16.004 15.2337 15.8982 14.9783 15.7099 14.79C15.5216 14.6017 15.2662 14.4959 14.9999 14.4959C14.7336 14.4959 14.4782 14.6017 14.2899 14.79Z" fill="#414853"/>
</svg>
