<svg width="24" height="24" viewBox="0 0 24 24" fill="none" xmlns="http://www.w3.org/2000/svg">
<path d="M21.71 9.29L17.71 5.29C17.6168 5.19676 17.5061 5.1228 17.3843 5.07234C17.2624 5.02188 17.1319 4.99591 17 4.99591C16.7337 4.99591 16.4783 5.1017 16.29 5.29C16.1017 5.47831 15.9959 5.7337 15.9959 6C15.9959 6.2663 16.1017 6.5217 16.29 6.71L18.59 9H7C6.73479 9 6.48043 9.10536 6.2929 9.2929C6.10536 9.48043 6 9.73479 6 10C6 10.2652 6.10536 10.5196 6.2929 10.7071C6.48043 10.8946 6.73479 11 7 11H21C21.1974 10.999 21.3901 10.9396 21.5539 10.8293C21.7176 10.7189 21.845 10.5626 21.92 10.38C21.9966 10.1979 22.0175 9.99718 21.9801 9.80319C21.9428 9.6092 21.8488 9.43063 21.71 9.29ZM17 13H3C2.80258 13.001 2.60986 13.0604 2.44614 13.1707C2.28242 13.2811 2.15502 13.4374 2.08 13.62C2.00342 13.8021 1.9825 14.0028 2.01987 14.1968C2.05725 14.3908 2.15124 14.5694 2.29 14.71L6.29 18.71C6.38297 18.8037 6.49357 18.8781 6.61543 18.9289C6.73728 18.9797 6.86799 19.0058 7 19.0058C7.13201 19.0058 7.26272 18.9797 7.38458 18.9289C7.50644 18.8781 7.61704 18.8037 7.71 18.71C7.80373 18.617 7.87812 18.5064 7.92889 18.3846C7.97966 18.2627 8.0058 18.132 8.0058 18C8.0058 17.868 7.97966 17.7373 7.92889 17.6154C7.87812 17.4936 7.80373 17.383 7.71 17.29L5.41 15H17C17.2652 15 17.5196 14.8946 17.7071 14.7071C17.8946 14.5196 18 14.2652 18 14C18 13.7348 17.8946 13.4804 17.7071 13.2929C17.5196 13.1054 17.2652 13 17 13Z" fill="#414853"/>
</svg>
