<svg width="24" height="24" viewBox="0 0 24 24" fill="none" xmlns="http://www.w3.org/2000/svg">
<path d="M13.2 15C13 15.1 12.8 15.1 12.6 15.2C12.5 15 12.4 14.8 12.3 14.7C11.5 14 10.3 13.9 9.3 14.5C8.5 15 8 16 8 17C8 17.5 8.5 18 9 17.9C9.5 17.9 10 17.4 10 16.9C10 16.6 10.1 16.4 10.3 16.2C10.4 16.2 10.5 16.1 10.6 16.1C10.3 16.7 10.5 17.4 11.1 17.8C11.3 17.9 11.4 17.9 11.6 17.9C12 17.9 12.4 17.7 12.7 17.4C12.8 17.3 13 17.2 13.2 17.1C13.3 17.5 13.7 17.9 14.2 17.9H15C15.6 17.9 16 17.5 16 16.9C16 16.4 15.6 16 15.1 15.9C15 15.7 15 15.6 14.8 15.4C14.5 15.1 13.8 14.9 13.2 15ZM20 8.89999C20 8.79999 20 8.69999 19.9 8.59999V8.49999C19.9 8.39999 19.8 8.29999 19.7 8.19999L13.7 2.19999C13.6 2.09999 13.5 2.09999 13.4 1.99999H13.3C13.2 1.99999 13.1 1.99999 13 1.89999C13 1.89999 13 1.89999 12.9 1.89999H7C5.3 1.99999 4 3.29999 4 4.99999V19C4 20.7 5.3 22 7 22H17C18.7 22 20 20.7 20 19V8.89999C20 8.99999 20 8.99999 20 8.89999ZM14 5.39999L16.6 7.99999H15C14.4 7.99999 14 7.59999 14 6.99999V5.39999ZM18 19C18 19.6 17.6 20 17 20H7C6.4 20 6 19.6 6 19V4.99999C6 4.39999 6.4 3.99999 7 3.99999H12V6.99999C12 8.69999 13.3 9.99999 15 9.99999H18V19ZM9 9.99999H10C10.6 9.99999 11 9.59999 11 8.99999C11 8.39999 10.6 7.99999 10 7.99999H9C8.4 7.99999 8 8.39999 8 8.99999C8 9.59999 8.4 9.99999 9 9.99999Z" fill="#414853"/>
</svg>
