<svg width="24" height="24" viewBox="0 0 24 24" fill="none" xmlns="http://www.w3.org/2000/svg">
<path d="M18.93 11.67C18.934 11.6368 18.934 11.6032 18.93 11.57C18.1847 9.79159 16.7746 8.37434 15 7.62V4H16C16.2652 4 16.5196 3.89464 16.7071 3.70711C16.8946 3.51957 17 3.26522 17 3C17 2.73478 16.8946 2.48043 16.7071 2.29289C16.5196 2.10536 16.2652 2 16 2H7.99998C7.73476 2 7.48041 2.10536 7.29287 2.29289C7.10534 2.48043 6.99998 2.73478 6.99998 3C6.99998 3.26522 7.10534 3.51957 7.29287 3.70711C7.48041 3.89464 7.73476 4 7.99998 4H8.99998V7.62C7.23106 8.39469 5.83505 9.83017 5.10998 11.62C5.106 11.6532 5.106 11.6868 5.10998 11.72C4.63842 12.8595 4.45511 14.0976 4.57627 15.3248C4.69743 16.5521 5.11933 17.7305 5.80461 18.7557C6.4899 19.7809 7.41741 20.6214 8.50502 21.2026C9.59264 21.7839 10.8068 22.0879 12.04 22.0879C13.2732 22.0879 14.4873 21.7839 15.5749 21.2026C16.6626 20.6214 17.5901 19.7809 18.2753 18.7557C18.9606 17.7305 19.3825 16.5521 19.5037 15.3248C19.6249 14.0976 19.4415 12.8595 18.97 11.72L18.93 11.67ZM10.31 9.26C10.5105 9.19463 10.6852 9.06755 10.8091 8.89693C10.933 8.72631 10.9998 8.52088 11 8.31V4H13V8.31C13.0001 8.52088 13.0669 8.72631 13.1909 8.89693C13.3148 9.06755 13.4895 9.19463 13.69 9.26C14.6868 9.58279 15.5689 10.1871 16.23 11H7.76998C8.43104 10.1871 9.31317 9.58279 10.31 9.26ZM12 20C10.5421 19.9974 9.14469 19.417 8.11381 18.3862C7.08293 17.3553 6.50262 15.9579 6.49998 14.5C6.5016 13.9921 6.57568 13.487 6.71998 13H17.28C17.4243 13.487 17.4984 13.9921 17.5 14.5C17.4973 15.9579 16.917 17.3553 15.8861 18.3862C14.8553 19.417 13.4579 19.9974 12 20ZM14 16C13.8022 16 13.6089 16.0586 13.4444 16.1685C13.28 16.2784 13.1518 16.4346 13.0761 16.6173C13.0004 16.8 12.9806 17.0011 13.0192 17.1951C13.0578 17.3891 13.153 17.5673 13.2929 17.7071C13.4327 17.847 13.6109 17.9422 13.8049 17.9808C13.9989 18.0194 14.1999 17.9996 14.3827 17.9239C14.5654 17.8482 14.7216 17.72 14.8314 17.5556C14.9413 17.3911 15 17.1978 15 17C15 16.7348 14.8946 16.4804 14.7071 16.2929C14.5196 16.1054 14.2652 16 14 16ZM9.99998 15C9.8022 15 9.60886 15.0586 9.44441 15.1685C9.27996 15.2784 9.15179 15.4346 9.0761 15.6173C9.00041 15.8 8.98061 16.0011 9.01919 16.1951C9.05778 16.3891 9.15302 16.5673 9.29287 16.7071C9.43273 16.847 9.61091 16.9422 9.80489 16.9808C9.99887 17.0194 10.1999 16.9996 10.3827 16.9239C10.5654 16.8482 10.7216 16.72 10.8314 16.5556C10.9413 16.3911 11 16.1978 11 16C11 15.7348 10.8946 15.4804 10.7071 15.2929C10.5196 15.1054 10.2652 15 9.99998 15Z" fill="#414853"/>
</svg>
