<svg width="24" height="24" viewBox="0 0 24 24" fill="none" xmlns="http://www.w3.org/2000/svg">
<path d="M20.67 9.69L14 5.84C13.5944 5.607 13.1348 5.48464 12.667 5.48517C12.1992 5.4857 11.7398 5.60911 11.3348 5.84303C10.9297 6.07695 10.5932 6.41319 10.359 6.81806C10.1247 7.22294 10.0009 7.68225 10 8.15L6.00004 5.84C5.59444 5.607 5.13476 5.48464 4.667 5.48517C4.19924 5.4857 3.73983 5.60911 3.33477 5.84303C2.92971 6.07695 2.59321 6.41319 2.35896 6.81806C2.12471 7.22294 2.00094 7.68225 2.00004 8.15V15.85C1.9976 16.3169 2.11951 16.7761 2.35325 17.1803C2.58699 17.5845 2.92413 17.9192 3.33004 18.15C3.73504 18.3922 4.19813 18.5201 4.67004 18.52C5.13711 18.5175 5.59547 18.3934 6.00004 18.16L10 15.85C9.99789 16.3182 10.1198 16.7786 10.3535 17.1844C10.5871 17.5902 10.924 17.9268 11.33 18.16C11.7356 18.3953 12.1961 18.5193 12.665 18.5193C13.1339 18.5193 13.5945 18.3953 14 18.16L20.67 14.31C21.0749 14.0754 21.4109 13.7384 21.6445 13.333C21.8781 12.9276 22.0011 12.4679 22.0011 12C22.0011 11.5321 21.8781 11.0724 21.6445 10.667C21.4109 10.2616 21.0749 9.92465 20.67 9.69ZM10 13.54L5.00004 16.42C4.89907 16.4772 4.78498 16.5071 4.66896 16.507C4.55293 16.5068 4.43893 16.4765 4.33812 16.4191C4.23732 16.3616 4.15316 16.2789 4.0939 16.1792C4.03464 16.0794 4.00229 15.966 4.00004 15.85V8.15C4.00229 8.034 4.03464 7.92056 4.0939 7.82081C4.15316 7.72106 4.23732 7.63841 4.33812 7.58095C4.43893 7.52349 4.55293 7.49319 4.66896 7.49303C4.78498 7.49286 4.89907 7.52283 5.00004 7.58L10 10.46V13.54ZM19.67 12.54L13 16.43C12.8976 16.4869 12.7823 16.5168 12.665 16.5168C12.5478 16.5168 12.4325 16.4869 12.33 16.43C12.2285 16.3714 12.1443 16.2867 12.0863 16.1848C12.0283 16.0828 11.9985 15.9673 12 15.85V8.15C11.9985 8.03273 12.0283 7.91717 12.0863 7.81523C12.1443 7.71328 12.2285 7.62864 12.33 7.57C12.435 7.51451 12.5513 7.48373 12.67 7.48C12.7862 7.479 12.9004 7.51015 13 7.57L19.67 11.42C19.7718 11.4788 19.8563 11.5634 19.915 11.6652C19.9737 11.767 20.0046 11.8825 20.0046 12C20.0046 12.1175 19.9737 12.233 19.915 12.3348C19.8563 12.4366 19.7718 12.5212 19.67 12.58V12.54Z" fill="#414853"/>
</svg>
