<svg width="24" height="24" viewBox="0 0 24 24" fill="none" xmlns="http://www.w3.org/2000/svg">
<path d="M8.00001 11H16C16.1477 10.999 16.2934 10.9654 16.4265 10.9014C16.5596 10.8374 16.677 10.7447 16.77 10.63C16.8678 10.5176 16.9391 10.3847 16.9789 10.2411C17.0187 10.0974 17.0259 9.94676 17 9.80002L16 4.80002C15.9533 4.57074 15.8276 4.36512 15.6449 4.21895C15.4621 4.07277 15.234 3.9953 15 4.00002H9.00001C8.76606 3.9953 8.53787 4.07277 8.35515 4.21895C8.17243 4.36512 8.04676 4.57074 8.00001 4.80002L7.00001 9.80002C6.97138 9.94529 6.97537 10.0951 7.01169 10.2386C7.048 10.3822 7.11574 10.5158 7.21001 10.63C7.30518 10.7474 7.42571 10.8416 7.56253 10.9057C7.69936 10.9698 7.84893 11.002 8.00001 11ZM9.82001 6.00002H14.18L14.78 9.00002H9.22001L9.82001 6.00002ZM22 13.8C21.9533 13.5707 21.8276 13.3651 21.6449 13.2189C21.4621 13.0728 21.234 12.9953 21 13H15C14.7661 12.9953 14.5379 13.0728 14.3551 13.2189C14.1724 13.3651 14.0468 13.5707 14 13.8L13 18.8C12.9714 18.9453 12.9754 19.0951 13.0117 19.2386C13.048 19.3822 13.1157 19.5158 13.21 19.63C13.3052 19.7474 13.4257 19.8416 13.5625 19.9057C13.6994 19.9698 13.8489 20.002 14 20H22C22.1477 19.999 22.2934 19.9654 22.4265 19.9014C22.5596 19.8374 22.677 19.7447 22.77 19.63C22.8678 19.5175 22.9391 19.3847 22.9789 19.241C23.0187 19.0974 23.0259 18.9468 23 18.8L22 13.8ZM15.22 18L15.82 15H20.18L20.78 18H15.22ZM9.00001 13H3.00001C2.76606 12.9953 2.53787 13.0728 2.35515 13.2189C2.17243 13.3651 2.04676 13.5707 2.00001 13.8L1.00001 18.8C0.971382 18.9453 0.975372 19.0951 1.01169 19.2386C1.048 19.3822 1.11574 19.5158 1.21001 19.63C1.30518 19.7474 1.42571 19.8416 1.56253 19.9057C1.69936 19.9698 1.84893 20.002 2.00001 20H10C10.1477 19.999 10.2934 19.9654 10.4265 19.9014C10.5596 19.8374 10.677 19.7447 10.77 19.63C10.8678 19.5175 10.9391 19.3847 10.9789 19.241C11.0187 19.0974 11.0259 18.9468 11 18.8L10 13.8C9.95325 13.5707 9.82758 13.3651 9.64486 13.2189C9.46214 13.0728 9.23395 12.9953 9.00001 13ZM3.22001 18L3.82001 15H8.18001L8.78001 18H3.22001Z" fill="#414853"/>
</svg>
