<svg width="24" height="24" viewBox="0 0 24 24" fill="none" xmlns="http://www.w3.org/2000/svg">
<path d="M9.21 10.54C9.39736 10.7263 9.65081 10.8308 9.915 10.8308C10.1792 10.8308 10.4326 10.7263 10.62 10.54C10.8062 10.3526 10.9108 10.0992 10.9108 9.835C10.9108 9.57081 10.8062 9.31736 10.62 9.13C10.0477 8.58699 9.28889 8.28428 8.5 8.28428C7.7111 8.28428 6.95228 8.58699 6.38 9.13C6.27532 9.21965 6.19029 9.32997 6.13027 9.45403C6.07025 9.57809 6.03652 9.71323 6.0312 9.85095C6.02588 9.98867 6.04908 10.126 6.09936 10.2543C6.14963 10.3826 6.22589 10.4992 6.32335 10.5967C6.4208 10.6941 6.53735 10.7704 6.66567 10.8206C6.794 10.8709 6.93133 10.8941 7.06905 10.8888C7.20677 10.8835 7.3419 10.8497 7.46597 10.7897C7.59003 10.7297 7.70035 10.6447 7.79 10.54C7.88296 10.4463 7.99356 10.3719 8.11542 10.3211C8.23728 10.2703 8.36798 10.2442 8.5 10.2442C8.63201 10.2442 8.76271 10.2703 8.88457 10.3211C9.00643 10.3719 9.11703 10.4463 9.21 10.54ZM12 2C10.0222 2 8.08879 2.58649 6.44429 3.6853C4.7998 4.78412 3.51808 6.3459 2.7612 8.17317C2.00433 10.0004 1.80629 12.0111 2.19214 13.9509C2.578 15.8907 3.5304 17.6725 4.92893 19.0711C6.32745 20.4696 8.10928 21.422 10.0491 21.8079C11.9889 22.1937 13.9996 21.9957 15.8268 21.2388C17.6541 20.4819 19.2159 19.2002 20.3147 17.5557C21.4135 15.9112 22 13.9778 22 12C22 10.6868 21.7413 9.38642 21.2388 8.17317C20.7362 6.95991 19.9996 5.85752 19.0711 4.92893C18.1425 4.00035 17.0401 3.26375 15.8268 2.7612C14.6136 2.25866 13.3132 2 12 2ZM12 20C10.4177 20 8.87103 19.5308 7.55543 18.6518C6.23984 17.7727 5.21446 16.5233 4.60896 15.0615C4.00346 13.5997 3.84503 11.9911 4.15371 10.4393C4.4624 8.88743 5.22432 7.46197 6.34314 6.34315C7.46196 5.22433 8.88743 4.4624 10.4393 4.15372C11.9911 3.84504 13.5997 4.00346 15.0615 4.60896C16.5233 5.21447 17.7727 6.23984 18.6518 7.55544C19.5308 8.87103 20 10.4177 20 12C20 14.1217 19.1571 16.1566 17.6569 17.6569C16.1566 19.1571 14.1217 20 12 20ZM15 9C14.8022 9 14.6089 9.05865 14.4444 9.16853C14.28 9.27841 14.1518 9.43459 14.0761 9.61732C14.0004 9.80004 13.9806 10.0011 14.0192 10.1951C14.0578 10.3891 14.153 10.5673 14.2929 10.7071C14.4327 10.847 14.6109 10.9422 14.8049 10.9808C14.9989 11.0194 15.2 10.9996 15.3827 10.9239C15.5654 10.8482 15.7216 10.72 15.8315 10.5556C15.9413 10.3911 16 10.1978 16 10C16 9.73478 15.8946 9.48043 15.7071 9.29289C15.5196 9.10536 15.2652 9 15 9ZM15 13H9C8.73478 13 8.48043 13.1054 8.29289 13.2929C8.10535 13.4804 8 13.7348 8 14C8 14.2652 8.10535 14.5196 8.29289 14.7071C8.48043 14.8946 8.73478 15 9 15C9 15.7956 9.31607 16.5587 9.87868 17.1213C10.4413 17.6839 11.2043 18 12 18C12.7956 18 13.5587 17.6839 14.1213 17.1213C14.6839 16.5587 15 15.7956 15 15C15.2652 15 15.5196 14.8946 15.7071 14.7071C15.8946 14.5196 16 14.2652 16 14C16 13.7348 15.8946 13.4804 15.7071 13.2929C15.5196 13.1054 15.2652 13 15 13ZM12 16C11.7348 16 11.4804 15.8946 11.2929 15.7071C11.1054 15.5196 11 15.2652 11 15H13C13 15.2652 12.8946 15.5196 12.7071 15.7071C12.5196 15.8946 12.2652 16 12 16Z" fill="#414853"/>
</svg>
