<svg width="24" height="24" viewBox="0 0 24 24" fill="none" xmlns="http://www.w3.org/2000/svg">
<path d="M20 13.17V13C20.001 11.93 19.7873 10.8707 19.3716 9.88478C18.956 8.89884 18.3467 8.00631 17.58 7.26C16.6849 6.38898 15.5946 5.74442 14.4 5.38H14.35C13.5124 5.11613 12.6381 4.98784 11.76 5C9.66838 5.1148 7.69977 6.02476 6.25715 7.5436C4.81454 9.06243 4.00705 11.0753 3.99999 13.17C3.33166 13.4051 2.7681 13.8691 2.40912 14.4799C2.05015 15.0908 1.91893 15.8089 2.0387 16.5072C2.15848 17.2055 2.52151 17.8388 3.06352 18.2951C3.60552 18.7513 4.29151 19.0011 4.99999 19H19C19.7085 19.0011 20.3945 18.7513 20.9365 18.2951C21.4785 17.8388 21.8415 17.2055 21.9613 16.5072C22.0811 15.8089 21.9498 15.0908 21.5909 14.4799C21.2319 13.8691 20.6683 13.4051 20 13.17ZM19 17H4.99999C4.73477 17 4.48042 16.8946 4.29288 16.7071C4.10535 16.5196 3.99999 16.2652 3.99999 16C3.99999 15.7348 4.10535 15.4804 4.29288 15.2929C4.48042 15.1054 4.73477 15 4.99999 15H6.99999C7.26521 15 7.51956 14.8946 7.7071 14.7071C7.89463 14.5196 7.99999 14.2652 7.99999 14C7.99999 13.7348 7.89463 13.4804 7.7071 13.2929C7.51956 13.1054 7.26521 13 6.99999 13H5.99999C6.0456 11.9628 6.34245 10.9522 6.86503 10.0551C7.38761 9.15803 8.12026 8.40129 8.99999 7.85V11C8.99999 11.2652 9.10535 11.5196 9.29288 11.7071C9.48042 11.8946 9.73477 12 9.99999 12C10.2652 12 10.5196 11.8946 10.7071 11.7071C10.8946 11.5196 11 11.2652 11 11V7.09C11.2714 7.04465 11.5452 7.0146 11.82 7H12C12.3357 7.00307 12.6704 7.03654 13 7.1V11C13 11.2652 13.1053 11.5196 13.2929 11.7071C13.4804 11.8946 13.7348 12 14 12C14.2652 12 14.5196 11.8946 14.7071 11.7071C14.8946 11.5196 15 11.2652 15 11V7.82C15.4242 8.06562 15.8199 8.35739 16.18 8.69C16.7565 9.24989 17.2147 9.91992 17.5274 10.6603C17.84 11.4007 18.0007 12.1963 18 13H17C16.7348 13 16.4804 13.1054 16.2929 13.2929C16.1053 13.4804 16 13.7348 16 14C16 14.2652 16.1053 14.5196 16.2929 14.7071C16.4804 14.8946 16.7348 15 17 15H19C19.2652 15 19.5196 15.1054 19.7071 15.2929C19.8946 15.4804 20 15.7348 20 16C20 16.2652 19.8946 16.5196 19.7071 16.7071C19.5196 16.8946 19.2652 17 19 17Z" fill="#414853"/>
</svg>
