<svg width="24" height="24" viewBox="0 0 24 24" fill="none" xmlns="http://www.w3.org/2000/svg">
<path d="M13.2305 2.00342C12.2254 1.96479 11.223 2.13241 10.2851 2.49595C9.34729 2.85948 8.49382 3.41123 7.77734 4.11719C7.05829 4.81021 6.4861 5.64087 6.09485 6.55969C5.7036 7.47851 5.5013 8.46668 5.5 9.46533L3.65625 12.4629C3.55697 12.6184 3.50287 12.7984 3.5 12.9829V13.0234C3.50264 13.1422 3.52645 13.2596 3.57031 13.3701L5.00977 17.2427C5.02246 17.2768 5.03711 17.3095 5.05277 17.3418C5.30052 17.8413 5.68324 18.2614 6.15754 18.5544C6.63185 18.8475 7.17878 19.0019 7.73633 19H8.5V21C8.5 21.2652 8.60536 21.5196 8.79289 21.7071C8.98043 21.8946 9.23478 22 9.5 22C9.76522 22 10.0196 21.8946 10.2071 21.7071C10.3946 21.5196 10.5 21.2652 10.5 21V19H12.4969L12.5 19.0005C12.6093 19.0003 12.7179 18.9821 12.8213 18.9468L16.5215 17.6905C16.5249 17.731 16.5308 17.7713 16.5391 17.811L17.5391 21.2773C17.5993 21.4857 17.7256 21.6688 17.8989 21.7992C18.0722 21.9296 18.2831 22.0003 18.5 22.0005C18.5938 22.0002 18.6872 21.9868 18.7773 21.9609C19.0322 21.8873 19.2473 21.7155 19.3755 21.4833C19.5037 21.2511 19.5344 20.9775 19.4609 20.7227L18.5371 17.5225L20.4668 10.2563C20.4886 10.1726 20.4997 10.0865 20.5 10V9.77246C20.5214 7.7907 19.7776 5.87705 18.4235 4.42991C17.0694 2.98276 15.2093 2.11362 13.2305 2.00342ZM11.5 17H7.73633C7.55803 17.0006 7.38283 16.9533 7.22907 16.8631C7.07532 16.7728 6.94865 16.6428 6.86233 16.4868L5.93848 14H11.5V17ZM17.023 15.4086L13.5 16.6046V13.7209L17.8448 12.2726L17.023 15.4086ZM18.4351 10.0202C18.3503 10.0196 18.2657 10.03 18.1836 10.0513L12.3374 12H6.28906L7.36328 10.2534C7.46702 10.0848 7.51834 9.88922 7.51074 9.69142C7.51074 9.68116 7.50098 9.51026 7.5 9.50001C7.49741 8.7634 7.64404 8.0339 7.93105 7.35549C8.21805 6.67709 8.63948 6.06384 9.16992 5.55273C9.69953 5.04056 10.3263 4.63954 11.0132 4.37329C11.7002 4.10704 12.4335 3.98095 13.1699 4.00244C14.6301 4.09355 15.999 4.74412 16.9918 5.81883C17.9845 6.89353 18.5247 8.30961 18.5 9.77246L18.4351 10.0202Z" fill="#414853"/>
</svg>
