<svg width="24" height="24" viewBox="0 0 24 24" fill="none" xmlns="http://www.w3.org/2000/svg">
<path d="M20.16 4.61C19.0983 3.548 17.6907 2.90232 16.1932 2.79038C14.6957 2.67843 13.2078 3.10766 12 4C10.7276 3.05363 9.14396 2.62451 7.56789 2.79903C5.99182 2.97356 4.54041 3.73877 3.50594 4.94058C2.47148 6.14239 1.93079 7.69152 1.99277 9.27601C2.05475 10.8605 2.71479 12.3627 3.83997 13.48L11.29 20.94C11.3829 21.0337 11.4935 21.1081 11.6154 21.1589C11.7373 21.2097 11.868 21.2358 12 21.2358C12.132 21.2358 12.2627 21.2097 12.3845 21.1589C12.5064 21.1081 12.617 21.0337 12.71 20.94L20.16 13.48C20.7426 12.8977 21.2048 12.2063 21.5202 11.4454C21.8355 10.6844 21.9979 9.86873 21.9979 9.045C21.9979 8.22127 21.8355 7.40561 21.5202 6.64463C21.2048 5.88365 20.7426 5.19227 20.16 4.61ZM18.75 12.06L12 18.81L5.24997 12.06C4.47539 11.3035 4.01791 10.2805 3.97052 9.1988C3.92313 8.11713 4.28938 7.05799 4.99483 6.23666C5.70029 5.41533 6.69201 4.89342 7.76844 4.77702C8.84488 4.66062 9.92524 4.95846 10.79 5.61L9.07997 9.61C9.02054 9.74028 8.98979 9.8818 8.98979 10.025C8.98979 10.1682 9.02054 10.3097 9.07997 10.44C9.14348 10.5701 9.23449 10.6849 9.34672 10.7764C9.45895 10.8679 9.58971 10.934 9.72997 10.97L12.5 11.67L11.1 14.56C11.0419 14.6781 11.0078 14.8066 10.9995 14.9379C10.9913 15.0693 11.009 15.201 11.0517 15.3255C11.0945 15.45 11.1614 15.5648 11.2486 15.6634C11.3358 15.762 11.4416 15.8424 11.56 15.9C11.6971 15.9664 11.8476 16.0006 12 16C12.1874 16.0004 12.3711 15.9481 12.5303 15.8491C12.6894 15.75 12.8175 15.6083 12.9 15.44L14.9 11.44C14.9639 11.3057 14.9971 11.1588 14.9971 11.01C14.9971 10.8612 14.9639 10.7143 14.9 10.58C14.8339 10.4459 14.7399 10.3275 14.6244 10.2326C14.5088 10.1378 14.3744 10.0687 14.23 10.03L11.4 9.32L12.85 5.93C13.6629 5.14496 14.7543 4.71499 15.8842 4.73468C17.0141 4.75437 18.0899 5.22211 18.875 6.035C19.66 6.84789 20.09 7.93934 20.0703 9.06924C20.0506 10.1991 19.5829 11.275 18.77 12.06H18.75Z" fill="#414853"/>
</svg>
