<svg width="24" height="24" viewBox="0 0 24 24" fill="none" xmlns="http://www.w3.org/2000/svg">
<path d="M15 7C14.8687 6.99997 14.7386 7.02581 14.6173 7.07605C14.4959 7.12629 14.3857 7.19995 14.2928 7.29282C14.2 7.38568 14.1263 7.49593 14.0761 7.61728C14.0258 7.73862 14 7.86867 14 8V11H10V8C10 7.73478 9.89465 7.48043 9.70711 7.29289C9.51957 7.10536 9.26522 7 9 7C8.73479 7 8.48043 7.10536 8.2929 7.29289C8.10536 7.48043 8 7.73478 8 8V16C8 16.2652 8.10536 16.5196 8.2929 16.7071C8.48043 16.8946 8.73479 17 9 17C9.26522 17 9.51957 16.8946 9.70711 16.7071C9.89465 16.5196 10 16.2652 10 16V13H14V16C14 16.2652 14.1054 16.5196 14.2929 16.7071C14.4804 16.8946 14.7348 17 15 17C15.2652 17 15.5196 16.8946 15.7071 16.7071C15.8946 16.5196 16 16.2652 16 16V8C16 7.86867 15.9742 7.73862 15.924 7.61728C15.8737 7.49593 15.8001 7.38568 15.7072 7.29282C15.6143 7.19995 15.5041 7.12629 15.3827 7.07605C15.2614 7.02581 15.1313 6.99997 15 7ZM12 2C10.0222 2 8.08879 2.58649 6.4443 3.6853C4.79981 4.78412 3.51809 6.3459 2.76121 8.17317C2.00433 10.0004 1.8063 12.0111 2.19215 13.9509C2.578 15.8907 3.53041 17.6725 4.92894 19.0711C6.32746 20.4696 8.10929 21.422 10.0491 21.8079C11.9889 22.1937 13.9996 21.9957 15.8268 21.2388C17.6541 20.4819 19.2159 19.2002 20.3147 17.5557C21.4135 15.9112 22 13.9778 22 12C21.997 9.34877 20.9424 6.80699 19.0677 4.93228C17.193 3.05758 14.6512 2.00303 12 2ZM12 20C10.4178 20 8.87104 19.5308 7.55544 18.6518C6.23985 17.7727 5.21447 16.5233 4.60897 15.0615C4.00347 13.5997 3.84504 11.9911 4.15372 10.4393C4.4624 8.88743 5.22433 7.46197 6.34315 6.34315C7.46197 5.22433 8.88743 4.4624 10.4393 4.15372C11.9911 3.84504 13.5997 4.00346 15.0615 4.60896C16.5233 5.21447 17.7727 6.23984 18.6518 7.55544C19.5308 8.87103 20 10.4177 20 12C19.9976 14.121 19.1539 16.1544 17.6542 17.6542C16.1544 19.1539 14.121 19.9976 12 20Z" fill="#414853"/>
</svg>
