<svg width="24" height="24" viewBox="0 0 24 24" fill="none" xmlns="http://www.w3.org/2000/svg">
<path d="M15 6C14.8687 5.99997 14.7386 6.02581 14.6173 6.07605C14.4959 6.12629 14.3857 6.19995 14.2928 6.29282C14.2 6.38568 14.1263 6.49593 14.0761 6.61728C14.0258 6.73862 14 6.86867 14 7V11H10V7C10 6.73478 9.89464 6.48043 9.70711 6.29289C9.51957 6.10536 9.26522 6 9 6C8.73478 6 8.48043 6.10536 8.29289 6.29289C8.10536 6.48043 8 6.73478 8 7V17C8 17.2652 8.10536 17.5196 8.29289 17.7071C8.48043 17.8946 8.73478 18 9 18C9.26522 18 9.51957 17.8946 9.70711 17.7071C9.89464 17.5196 10 17.2652 10 17V13H14V17C14 17.2652 14.1054 17.5196 14.2929 17.7071C14.4804 17.8946 14.7348 18 15 18C15.2652 18 15.5196 17.8946 15.7071 17.7071C15.8946 17.5196 16 17.2652 16 17V7C16 6.86867 15.9742 6.73862 15.9239 6.61728C15.8737 6.49593 15.8 6.38568 15.7072 6.29282C15.6143 6.19995 15.5041 6.12629 15.3827 6.07605C15.2614 6.02581 15.1313 5.99997 15 6ZM19 2H5C4.20462 2.00087 3.44206 2.31722 2.87964 2.87964C2.31722 3.44206 2.00087 4.20462 2 5V19C2.00087 19.7954 2.31722 20.5579 2.87964 21.1204C3.44206 21.6828 4.20462 21.9991 5 22H19C19.7954 21.9991 20.5579 21.6828 21.1204 21.1204C21.6828 20.5579 21.9991 19.7954 22 19V5C21.9991 4.20462 21.6828 3.44206 21.1204 2.87964C20.5579 2.31722 19.7954 2.00087 19 2ZM20 19C19.9997 19.2651 19.8943 19.5193 19.7068 19.7068C19.5193 19.8943 19.2651 19.9997 19 20H5C4.73486 19.9997 4.48066 19.8943 4.29319 19.7068C4.10571 19.5193 4.00026 19.2651 4 19V5C4.00026 4.73486 4.10571 4.48066 4.29319 4.29319C4.48066 4.10571 4.73486 4.00026 5 4H19C19.2651 4.00026 19.5193 4.10571 19.7068 4.29319C19.8943 4.48066 19.9997 4.73486 20 5V19Z" fill="#414853"/>
</svg>
