<svg width="24" height="24" viewBox="0 0 24 24" fill="none" xmlns="http://www.w3.org/2000/svg">
<path d="M21.4678 2.3252C21.3741 2.22276 21.2601 2.14094 21.1331 2.08496C21.0061 2.02897 20.8688 2.00004 20.73 2H3.27C3.1312 2.00005 2.99393 2.02899 2.86692 2.08497C2.73991 2.14095 2.62593 2.22274 2.53225 2.32515C2.43856 2.42757 2.36721 2.54835 2.32274 2.67984C2.27826 2.81132 2.26163 2.95061 2.27391 3.08887L3.79391 20.0889C3.81194 20.2914 3.89134 20.4837 4.02152 20.64C4.15169 20.7962 4.32643 20.909 4.52242 20.9634L11.7226 22.9634C11.8097 22.9877 11.8998 23 11.9902 23C12.0805 22.9999 12.1703 22.9878 12.2573 22.9639L19.4771 20.9639C19.6731 20.9095 19.8479 20.7965 19.9782 20.6402C20.1084 20.4839 20.1879 20.2915 20.2061 20.0889L21.726 3.08887C21.7384 2.95062 21.7217 2.81133 21.6773 2.67986C21.6328 2.54838 21.5615 2.4276 21.4678 2.3252ZM18.2754 19.2212L11.9907 20.9624L5.72461 19.2217L4.36328 4H19.6367L18.2754 19.2212ZM7.81982 13H14.7148L14.3877 16.271L11.8198 17.188L8.65625 16.0581C8.53252 16.0137 8.40125 15.9942 8.26996 16.0006C8.13867 16.007 8.00993 16.0392 7.8911 16.0954C7.77227 16.1516 7.66568 16.2307 7.57744 16.3281C7.48919 16.4255 7.421 16.5394 7.37679 16.6632C7.33258 16.787 7.3132 16.9182 7.31976 17.0495C7.32632 17.1808 7.3587 17.3095 7.41503 17.4283C7.47137 17.547 7.55057 17.6535 7.64809 17.7417C7.74562 17.8298 7.85956 17.8978 7.9834 17.9419L11.4834 19.1919C11.701 19.2694 11.9387 19.2694 12.1562 19.1919L15.6562 17.9419C15.8345 17.8782 15.991 17.7652 16.1076 17.6161C16.2242 17.467 16.2961 17.2879 16.3149 17.0996L16.8149 12.0996C16.8288 11.9606 16.8133 11.8202 16.7696 11.6875C16.7259 11.5549 16.6549 11.4328 16.5611 11.3292C16.4674 11.2256 16.353 11.1428 16.2253 11.0861C16.0977 11.0294 15.9595 11.0001 15.8198 11H8.72461L8.4248 8H16.3198C16.585 8 16.8394 7.89464 17.0269 7.70711C17.2144 7.51957 17.3198 7.26522 17.3198 7C17.3198 6.73478 17.2144 6.48043 17.0269 6.29289C16.8394 6.10536 16.585 6 16.3198 6H7.3198C7.1801 6.00009 7.04197 6.02943 6.91429 6.08613C6.78661 6.14283 6.67223 6.22563 6.57849 6.32921C6.48475 6.4328 6.41374 6.55486 6.37003 6.68754C6.32632 6.82023 6.31087 6.9606 6.32469 7.09961L6.82469 12.0996C6.84942 12.3464 6.96493 12.5751 7.14882 12.7415C7.3327 12.9079 7.57184 13 7.81982 13Z" fill="#414853"/>
</svg>
