<svg width="24" height="24" viewBox="0 0 24 24" fill="none" xmlns="http://www.w3.org/2000/svg">
<path d="M21.9 9.60002C21.7 9.10002 21.1 8.90002 20.6 9.10002L17.7 10.5L15.6 8.40002L13.5 6.30002L14.9 3.40002C15.1 2.90002 14.9 2.30002 14.4 2.10002C13.9 1.90002 13.3 2.10002 13.1 2.60002L11.6 5.70002L5.2 6.70002C4.8 6.80002 4.5 7.10002 4.4 7.50002L2 19.1C1.9 19.4 2 19.8 2.3 20L4 21.7C4.2 21.9 4.5 22 4.7 22C4.8 22 4.8 22 4.9 22L16.5 19.6C16.9 19.5 17.2 19.2 17.3 18.8L18.3 12.4L21.4 10.9C21.9 10.7 22.1 10.1 21.9 9.60002ZM15.4 17.8L5.6 19.8L9.3 16.1C10.8 16.8 12.6 16.2 13.3 14.7C14 13.2 13.4 11.4 11.9 10.7C10.8 10.2 9.4 10.4 8.5 11.3C7.6 12.2 7.4 13.6 7.9 14.7L4.2 18.4L6.2 8.60002L12 7.60002L14.2 9.80002L16.4 12L15.4 17.8ZM9.6 13.4C9.6 13.1 9.7 12.9 9.9 12.7C10.3 12.3 10.9 12.3 11.3 12.7C11.7 13.1 11.7 13.7 11.3 14.1C10.9 14.5 10.3 14.5 9.9 14.1C9.7 13.9 9.6 13.6 9.6 13.4Z" fill="#414853"/>
</svg>
