<svg width="24" height="24" viewBox="0 0 24 24" fill="none" xmlns="http://www.w3.org/2000/svg">
<path d="M19 13C18.7348 13 18.4804 13.1054 18.2929 13.2929C18.1054 13.4805 18 13.7348 18 14V14.39L16.52 12.91C15.9974 12.3916 15.2911 12.1006 14.555 12.1006C13.8189 12.1006 13.1126 12.3916 12.59 12.91L11.89 13.61L9.41 11.12C8.87783 10.6201 8.17514 10.3418 7.445 10.3418C6.71486 10.3418 6.01217 10.6201 5.48 11.12L4 12.61V7.00003C4 6.73481 4.10536 6.48045 4.29289 6.29292C4.48043 6.10538 4.73478 6.00003 5 6.00003H9C9.26522 6.00003 9.51957 5.89467 9.70711 5.70713C9.89464 5.5196 10 5.26524 10 5.00003C10 4.73481 9.89464 4.48045 9.70711 4.29292C9.51957 4.10538 9.26522 4.00003 9 4.00003H5C4.20435 4.00003 3.44129 4.3161 2.87868 4.8787C2.31607 5.44131 2 6.20438 2 7.00003V19C2 19.7957 2.31607 20.5587 2.87868 21.1213C3.44129 21.684 4.20435 22 5 22H17C17.7956 22 18.5587 21.684 19.1213 21.1213C19.6839 20.5587 20 19.7957 20 19V14C20 13.7348 19.8946 13.4805 19.7071 13.2929C19.5196 13.1054 19.2652 13 19 13ZM5 20C4.73478 20 4.48043 19.8947 4.29289 19.7071C4.10536 19.5196 4 19.2652 4 19V15.43L6.9 12.54C7.04691 12.4 7.24206 12.3219 7.445 12.3219C7.64794 12.3219 7.84309 12.4 7.99 12.54L11.16 15.71L15.45 20H5ZM18 19C17.9936 19.1937 17.931 19.3813 17.82 19.54L13.31 15L14.01 14.31C14.0817 14.2369 14.1673 14.1787 14.2617 14.139C14.3561 14.0994 14.4576 14.0789 14.56 14.0789C14.6624 14.0789 14.7639 14.0994 14.8583 14.139C14.9527 14.1787 15.0383 14.2369 15.11 14.31L18 17.22V19ZM21.71 10.29L20 8.57002C20.4239 7.88043 20.645 7.08541 20.6381 6.27598C20.6311 5.46656 20.3964 4.67545 19.9607 3.99324C19.525 3.31103 18.906 2.7653 18.1746 2.41852C17.4432 2.07175 16.6289 1.93796 15.825 2.03247C15.0211 2.12698 14.26 2.44597 13.629 2.95291C12.9979 3.45985 12.5224 4.13426 12.2568 4.8989C11.9912 5.66355 11.9464 6.48754 12.1273 7.27651C12.3083 8.06548 12.7077 8.78754 13.28 9.36002C14.0745 10.1595 15.1529 10.6124 16.28 10.62C17.0861 10.6301 17.8791 10.4154 18.57 10L20.29 11.73C20.383 11.8238 20.4936 11.8981 20.6154 11.9489C20.7373 11.9997 20.868 12.0258 21 12.0258C21.132 12.0258 21.2627 11.9997 21.3846 11.9489C21.5064 11.8981 21.617 11.8238 21.71 11.73C21.8068 11.6367 21.8838 11.5249 21.9363 11.4012C21.9889 11.2775 22.016 11.1444 22.016 11.01C22.016 10.8756 21.9889 10.7426 21.9363 10.6189C21.8838 10.4951 21.8068 10.3833 21.71 10.29ZM18 8.00003C17.6762 8.32603 17.2628 8.54853 16.8123 8.63931C16.3619 8.73008 15.8946 8.68504 15.4698 8.50991C15.045 8.33477 14.6817 8.03742 14.4261 7.65556C14.1705 7.2737 14.034 6.82454 14.034 6.36503C14.034 5.90551 14.1705 5.45635 14.4261 5.07449C14.6817 4.69263 15.045 4.39528 15.4698 4.22014C15.8946 4.04501 16.3619 3.99997 16.8123 4.09074C17.2628 4.18152 17.6762 4.40402 18 4.73003C18.4317 5.16466 18.674 5.75241 18.674 6.36503C18.674 6.97764 18.4317 7.56539 18 8.00003Z" fill="#414853"/>
</svg>
