<svg width="24" height="24" viewBox="0 0 24 24" fill="none" xmlns="http://www.w3.org/2000/svg">
<path d="M21 4.00781H17C16.7348 4.00781 16.4804 4.11317 16.2929 4.3007C16.1054 4.48824 16 4.74259 16 5.00781C16 5.27303 16.1054 5.52738 16.2929 5.71492C16.4804 5.90245 16.7348 6.00781 17 6.00781H21C21.2652 6.00781 21.5196 5.90245 21.7071 5.71492C21.8946 5.52738 22 5.27303 22 5.00781C22 4.74259 21.8946 4.48824 21.7071 4.3007C21.5196 4.11317 21.2652 4.00781 21 4.00781ZM19 8C18.7348 8 18.4804 8.10536 18.2929 8.29289C18.1054 8.48043 18 8.73478 18 9V14.3916L16.5195 12.9111C15.9983 12.3909 15.2919 12.0987 14.5554 12.0987C13.819 12.0987 13.1126 12.3909 12.5913 12.9111L11.8933 13.6091L9.40723 11.123C8.88656 10.6031 8.18085 10.3111 7.44507 10.3111C6.70929 10.3111 6.00358 10.6031 5.48291 11.123L4 12.606V7C4.00034 6.73489 4.10581 6.48073 4.29327 6.29327C4.48073 6.10581 4.73489 6.00034 5 6H13C13.2652 6 13.5196 5.89464 13.7071 5.70711C13.8946 5.51957 14 5.26522 14 5C14 4.73478 13.8946 4.48043 13.7071 4.29289C13.5196 4.10536 13.2652 4 13 4H5C4.20462 4.00087 3.44206 4.31722 2.87964 4.87964C2.31722 5.44206 2.00087 6.20462 2 7V19C2.00087 19.7954 2.31722 20.5579 2.87964 21.1204C3.44206 21.6828 4.20462 21.9991 5 22H17C17.7954 21.9991 18.5579 21.6828 19.1204 21.1204C19.6828 20.5579 19.9991 19.7954 20 19V9C20 8.73478 19.8946 8.48043 19.7071 8.29289C19.5196 8.10536 19.2652 8 19 8ZM5 20C4.73489 19.9997 4.48073 19.8942 4.29327 19.7067C4.10581 19.5193 4.00034 19.2651 4 19V15.4341L6.897 12.5371C7.04529 12.3974 7.24135 12.3195 7.4451 12.3195C7.64884 12.3195 7.8449 12.3974 7.99319 12.5371L11.1612 15.7042C11.1697 15.7134 11.1728 15.726 11.1816 15.7348L15.4471 20H5ZM18 19C17.995 19.1928 17.9328 19.3797 17.8212 19.5371L13.3074 15.0232L14.0054 14.3252C14.1515 14.1798 14.3493 14.0981 14.5554 14.0981C14.7616 14.0981 14.9593 14.1798 15.1055 14.3252L18 17.2197V19Z" fill="#414853"/>
</svg>
