<svg width="24" height="24" viewBox="0 0 24 24" fill="none" xmlns="http://www.w3.org/2000/svg">
<path d="M22.13 2.35997C22.0138 2.26599 21.8781 2.19925 21.7327 2.16464C21.5873 2.13002 21.4361 2.12843 21.29 2.15997C20.9111 2.2444 20.5184 2.24612 20.1387 2.16501C19.7591 2.0839 19.4014 1.92187 19.09 1.68997C18.9187 1.56482 18.7121 1.49738 18.5 1.49738C18.2879 1.49738 18.0813 1.56482 17.91 1.68997C17.5986 1.92187 17.2409 2.0839 16.8613 2.16501C16.4816 2.24612 16.0889 2.2444 15.71 2.15997C15.5639 2.12843 15.4127 2.13002 15.2673 2.16464C15.1219 2.19925 14.9862 2.26599 14.87 2.35997C14.754 2.45409 14.6605 2.57301 14.5965 2.70799C14.5325 2.84297 14.4995 2.99058 14.5 3.13997V6.44997C14.4992 7.16707 14.665 7.87455 14.9843 8.51663C15.3036 9.15872 15.7677 9.71786 16.34 10.15L17.91 11.31C18.0813 11.4351 18.2879 11.5026 18.5 11.5026C18.7121 11.5026 18.9187 11.4351 19.09 11.31L20.66 10.15C21.2323 9.71786 21.6964 9.15872 22.0157 8.51663C22.335 7.87455 22.5008 7.16707 22.5 6.44997V3.13997C22.5005 2.99058 22.4675 2.84297 22.4035 2.70799C22.3395 2.57301 22.246 2.45409 22.13 2.35997ZM20.5 6.44997C20.5047 6.85169 20.417 7.24912 20.2436 7.61152C20.0702 7.97392 19.8158 8.29159 19.5 8.53997L18.5 9.25997L17.5 8.53997C17.1842 8.29159 16.9298 7.97392 16.7564 7.61152C16.583 7.24912 16.4953 6.85169 16.5 6.44997V4.21997C17.198 4.18738 17.8805 4.0031 18.5 3.67997C19.1195 4.0031 19.802 4.18738 20.5 4.21997V6.44997ZM18.5 13.5C18.2348 13.5 17.9804 13.6053 17.7929 13.7929C17.6054 13.9804 17.5 14.2348 17.5 14.5V14.89L16 13.41C15.7426 13.1509 15.4364 12.9452 15.0992 12.8049C14.7619 12.6646 14.4003 12.5923 14.035 12.5923C13.6697 12.5923 13.3081 12.6646 12.9708 12.8049C12.6336 12.9452 12.3274 13.1509 12.07 13.41L11.37 14.11L8.91 11.62C8.38012 11.1156 7.67657 10.8343 6.945 10.8343C6.21343 10.8343 5.50988 11.1156 4.98 11.62L3.5 13.1V7.49997C3.5 7.23476 3.60536 6.9804 3.79289 6.79287C3.98043 6.60533 4.23478 6.49997 4.5 6.49997H11.5C11.7652 6.49997 12.0196 6.39462 12.2071 6.20708C12.3946 6.01954 12.5 5.76519 12.5 5.49997C12.5 5.23476 12.3946 4.9804 12.2071 4.79287C12.0196 4.60533 11.7652 4.49997 11.5 4.49997H4.5C3.70435 4.49997 2.94129 4.81604 2.37868 5.37865C1.81607 5.94126 1.5 6.70432 1.5 7.49997V19.5C1.5 20.2956 1.81607 21.0587 2.37868 21.6213C2.94129 22.1839 3.70435 22.5 4.5 22.5H16.5C17.2956 22.5 18.0587 22.1839 18.6213 21.6213C19.1839 21.0587 19.5 20.2956 19.5 19.5V14.5C19.5 14.2348 19.3946 13.9804 19.2071 13.7929C19.0196 13.6053 18.7652 13.5 18.5 13.5ZM4.5 20.5C4.23478 20.5 3.98043 20.3946 3.79289 20.2071C3.60536 20.0195 3.5 19.7652 3.5 19.5V15.93L6.4 13C6.54691 12.86 6.74206 12.7819 6.945 12.7819C7.14794 12.7819 7.34309 12.86 7.49 13L10.66 16.17L15 20.5H4.5ZM17.5 19.5C17.4917 19.6902 17.4292 19.874 17.32 20.03L12.81 15.52L13.51 14.82C13.6562 14.6746 13.8539 14.5931 14.06 14.5931C14.2661 14.5931 14.4638 14.6746 14.61 14.82L17.5 17.72V19.5Z" fill="#414853"/>
</svg>
