<svg width="24" height="24" viewBox="0 0 24 24" fill="none" xmlns="http://www.w3.org/2000/svg">
<path d="M21.7368 3.751L19.3169 1.33105C19.2241 1.23817 19.1138 1.1645 18.9925 1.11423C18.8712 1.06396 18.7412 1.03809 18.6099 1.03809C18.4785 1.03809 18.3485 1.06396 18.2272 1.11423C18.1059 1.1645 17.9957 1.23817 17.9028 1.33105L13.3228 5.91113C13.1352 6.09863 13.0298 6.35294 13.0297 6.61813V9.03809C13.0298 9.3033 13.1351 9.55765 13.3227 9.74518C13.5102 9.93272 13.7645 10.0381 14.0297 10.0381H16.4502C16.7154 10.038 16.9697 9.93263 17.1572 9.74509L21.7368 5.165C21.8297 5.07217 21.9034 4.96195 21.9536 4.84064C22.0039 4.71933 22.0298 4.58931 22.0298 4.458C22.0298 4.32669 22.0039 4.19667 21.9536 4.07536C21.9034 3.95405 21.8297 3.84383 21.7368 3.751ZM16.0361 8.03809H15.0298V7.03223L18.6099 3.45215L19.6157 4.458L16.0361 8.03809ZM19 11C18.7348 11 18.4804 11.1054 18.2929 11.2929C18.1054 11.4804 18 11.7348 18 12V14.3916L16.5195 12.9111C15.9983 12.3909 15.2919 12.0987 14.5554 12.0987C13.819 12.0987 13.1126 12.3909 12.5913 12.9111L11.8933 13.6091L9.40723 11.123C8.88656 10.6031 8.18085 10.3111 7.44507 10.3111C6.70929 10.3111 6.00358 10.6031 5.48291 11.123L4 12.606V7C4.00034 6.73489 4.10581 6.48074 4.29327 6.29327C4.48073 6.10581 4.73489 6.00035 5 6H11C11.2652 6 11.5196 5.89464 11.7071 5.70711C11.8946 5.51957 12 5.26522 12 5C12 4.73478 11.8946 4.48043 11.7071 4.29289C11.5196 4.10536 11.2652 4 11 4H5C4.20462 4.00087 3.44206 4.31722 2.87964 4.87964C2.31722 5.44206 2.00087 6.20462 2 7V19C2.00087 19.7954 2.31722 20.5579 2.87964 21.1204C3.44206 21.6828 4.20462 21.9991 5 22H17C17.7954 21.9991 18.5579 21.6828 19.1204 21.1204C19.6828 20.5579 19.9991 19.7954 20 19V12C20 11.7348 19.8946 11.4804 19.7071 11.2929C19.5196 11.1054 19.2652 11 19 11ZM5 20C4.73489 19.9997 4.48073 19.8942 4.29327 19.7067C4.10581 19.5193 4.00034 19.2651 4 19V15.4341L6.897 12.5371C7.04529 12.3974 7.24135 12.3196 7.4451 12.3196C7.64884 12.3196 7.8449 12.3974 7.99319 12.5371L11.1612 15.7042C11.1697 15.7134 11.1728 15.726 11.1816 15.7348L15.4471 20H5ZM18 19C17.995 19.1928 17.9328 19.3798 17.8212 19.5371L13.3074 15.0232L14.0054 14.3252C14.1515 14.1798 14.3493 14.0981 14.5554 14.0981C14.7616 14.0981 14.9593 14.1798 15.1055 14.3252L18 17.2197V19Z" fill="#414853"/>
</svg>
