<svg width="24" height="24" viewBox="0 0 24 24" fill="none" xmlns="http://www.w3.org/2000/svg">
<path d="M21.0557 12H19.0557C18.7904 12 18.5361 12.1054 18.3486 12.2929C18.161 12.4804 18.0557 12.7348 18.0557 13C18.0557 13.2652 18.161 13.5196 18.3486 13.7071C18.5361 13.8946 18.7904 14 19.0557 14V16H17.8714C17.9899 15.6798 18.0523 15.3415 18.0557 15C18.0558 14.3396 17.8379 13.6976 17.4359 13.1736C17.0339 12.6497 16.4702 12.273 15.8323 12.1021C15.1943 11.9313 14.5179 11.9757 13.9078 12.2285C13.2976 12.4813 12.788 12.9285 12.458 13.5005C12.3917 13.6143 12.3485 13.74 12.331 13.8705C12.3134 14.0011 12.3218 14.1338 12.3557 14.261C12.3896 14.3883 12.4482 14.5076 12.5283 14.6121C12.6084 14.7166 12.7084 14.8043 12.8225 14.8701C12.9365 14.9359 13.0625 14.9785 13.1931 14.9954C13.3237 15.0124 13.4563 15.0034 13.5834 14.969C13.7105 14.9346 13.8296 14.8754 13.9338 14.7948C14.0379 14.7142 14.1251 14.6139 14.1904 14.4995C14.2783 14.3477 14.4044 14.2217 14.5563 14.1341C14.7081 14.0464 14.8803 14.0002 15.0557 14C15.3209 14 15.5752 14.1054 15.7628 14.2929C15.9503 14.4804 16.0557 14.7348 16.0557 15C16.0557 15.2652 15.9503 15.5196 15.7628 15.7071C15.5752 15.8946 15.3209 16 15.0557 16C14.7904 16 14.5361 16.1054 14.3486 16.2929C14.161 16.4804 14.0557 16.7348 14.0557 17C14.0557 17.2652 14.161 17.5196 14.3486 17.7071C14.5361 17.8946 14.7904 18 15.0557 18C15.3209 18 15.5752 18.1054 15.7628 18.2929C15.9503 18.4804 16.0557 18.7348 16.0557 19C16.0557 19.2652 15.9503 19.5196 15.7628 19.7071C15.5752 19.8946 15.3209 20 15.0557 20C14.8803 19.9998 14.7081 19.9536 14.5563 19.8659C14.4044 19.7783 14.2783 19.6522 14.1904 19.5005C14.1252 19.3861 14.0379 19.2858 13.9338 19.2052C13.8296 19.1246 13.7106 19.0654 13.5834 19.031C13.4563 18.9966 13.3237 18.9876 13.1931 19.0045C13.0625 19.0215 12.9366 19.0641 12.8225 19.1299C12.7084 19.1957 12.6084 19.2834 12.5283 19.3879C12.4482 19.4924 12.3896 19.6117 12.3557 19.739C12.3218 19.8662 12.3134 19.9989 12.331 20.1294C12.3485 20.26 12.3917 20.3857 12.458 20.4995C12.7881 21.0715 13.2977 21.5186 13.9078 21.7715C14.5179 22.0243 15.1943 22.0687 15.8323 21.8978C16.4702 21.7269 17.0339 21.3503 17.4359 20.8264C17.8379 20.3024 18.0558 19.6604 18.0557 19C18.0523 18.6585 17.9899 18.3202 17.8714 18H19.0557V21C19.0557 21.2652 19.161 21.5196 19.3486 21.7071C19.5361 21.8946 19.7904 22 20.0557 22C20.3209 22 20.5752 21.8946 20.7628 21.7071C20.9503 21.5196 21.0557 21.2652 21.0557 21V14C21.3209 14 21.5752 13.8946 21.7628 13.7071C21.9503 13.5196 22.0557 13.2652 22.0557 13C22.0557 12.7348 21.9503 12.4804 21.7628 12.2929C21.5752 12.1054 21.3209 12 21.0557 12ZM9.08594 11.2427C9.1503 11.4999 9.3142 11.721 9.54157 11.8573C9.65415 11.9248 9.77892 11.9695 9.90877 11.9888C10.0386 12.0081 10.171 12.0016 10.2983 11.9697C10.4257 11.9379 10.5455 11.8812 10.651 11.803C10.7564 11.7249 10.8455 11.6267 10.913 11.5141C10.9805 11.4015 11.0252 11.2767 11.0444 11.1469C11.0637 11.017 11.0573 10.8847 11.0254 10.7573L9.26855 3.72755C9.14524 3.23411 8.86051 2.79607 8.45964 2.48305C8.05876 2.17003 7.56475 2 7.05615 2C6.54754 2 6.05353 2.17003 5.65266 2.48305C5.25179 2.79607 4.96706 3.23411 4.84375 3.72755L3.08594 10.7573C3.02158 11.0145 3.06202 11.2867 3.19836 11.5141C3.33471 11.7415 3.5558 11.9054 3.81298 11.9697C4.07017 12.0341 4.34239 11.9937 4.56976 11.8573C4.79713 11.721 4.96103 11.4999 5.02539 11.2427L5.58618 9H8.52545L9.08594 11.2427ZM6.0863 7L6.7832 4.2129C6.80433 4.15763 6.84173 4.11008 6.89047 4.07654C6.93921 4.04299 6.99698 4.02503 7.05615 4.02503C7.11531 4.02503 7.17309 4.04299 7.22182 4.07654C7.27056 4.11008 7.30797 4.15763 7.3291 4.2129L8.02563 7H6.0863ZM14.0557 7H15.0557C15.3208 7.00027 15.575 7.10571 15.7625 7.29319C15.95 7.48067 16.0554 7.73487 16.0557 8V9C16.0557 9.26522 16.161 9.51958 16.3486 9.70711C16.5361 9.89465 16.7904 10 17.0557 10C17.3209 10 17.5752 9.89465 17.7628 9.70711C17.9503 9.51958 18.0557 9.26522 18.0557 9V8C18.0548 7.20462 17.7384 6.44206 17.176 5.87964C16.6136 5.31722 15.851 5.00087 15.0557 5.00001H14.0557C13.7904 5.00001 13.5361 5.10536 13.3486 5.2929C13.161 5.48043 13.0557 5.73479 13.0557 6C13.0557 6.26522 13.161 6.51958 13.3486 6.70711C13.5361 6.89465 13.7904 7 14.0557 7ZM10.0557 16H9.05566C8.79052 15.9997 8.53632 15.8943 8.34884 15.7068C8.16137 15.5193 8.05592 15.2651 8.05566 15V14C8.05566 13.7348 7.9503 13.4804 7.76277 13.2929C7.57523 13.1054 7.32087 13 7.05566 13C6.79044 13 6.53609 13.1054 6.34855 13.2929C6.16102 13.4804 6.05566 13.7348 6.05566 14V15C6.05653 15.7954 6.37288 16.5579 6.9353 17.1204C7.49772 17.6828 8.26028 17.9991 9.05566 18H10.0557C10.3209 18 10.5752 17.8946 10.7628 17.7071C10.9503 17.5196 11.0557 17.2652 11.0557 17C11.0557 16.7348 10.9503 16.4804 10.7628 16.2929C10.5752 16.1054 10.3209 16 10.0557 16Z" fill="#414853"/>
</svg>
