<svg width="24" height="24" viewBox="0 0 24 24" fill="none" xmlns="http://www.w3.org/2000/svg">
<path d="M18.9702 19.7573L15.3491 5.27246C15.1875 4.62299 14.8131 4.04633 14.2855 3.63446C13.758 3.22258 13.1077 2.99923 12.4385 3H11.5615C10.8922 2.99923 10.2419 3.2226 9.71441 3.63447C9.18688 4.04634 8.81246 4.62299 8.65086 5.27246L5.02977 19.7573C4.96541 20.0146 5.0059 20.287 5.14234 20.5144C5.27878 20.7419 5.49999 20.9058 5.7573 20.9702C6.01462 21.0346 6.28696 20.9941 6.51442 20.8576C6.74188 20.7212 6.90583 20.5 6.97019 20.2427L8.2808 15H15.7192L17.0298 20.2427C17.0941 20.5 17.2581 20.7212 17.4855 20.8576C17.713 20.9941 17.9853 21.0346 18.2427 20.9702C18.5 20.9058 18.7212 20.7419 18.8576 20.5144C18.9941 20.287 19.0346 20.0146 18.9702 19.7573ZM8.7808 13L10.5913 5.75781C10.645 5.54123 10.7698 5.3489 10.9457 5.21154C11.1215 5.07418 11.3384 4.9997 11.5615 5H12.4385C12.6617 4.9997 12.8785 5.07418 13.0543 5.21154C13.2302 5.3489 13.355 5.54123 13.4087 5.75781L15.2192 13H8.7808Z" fill="#414853"/>
</svg>
