<svg width="24" height="24" viewBox="0 0 24 24" fill="none" xmlns="http://www.w3.org/2000/svg">
<path d="M18 12C17.7348 12 17.4804 12.1054 17.2929 12.2929C17.1054 12.4804 17 12.7348 17 13C16.9979 14.8559 16.2597 16.6351 14.9474 17.9474C13.6351 19.2598 11.8559 19.9979 10 20V11.1354L15.2168 9.97607C15.4752 9.91807 15.7 9.75996 15.8419 9.53642C15.9838 9.31288 16.0313 9.04218 15.9739 8.78369C15.9164 8.5252 15.7588 8.30005 15.5356 8.15761C15.3124 8.01518 15.0418 7.9671 14.7832 8.02393L10 9.08685V7.13538L15.2168 5.97607C15.3452 5.94785 15.4668 5.89457 15.5746 5.81929C15.6825 5.74401 15.7744 5.6482 15.8451 5.53735C15.9158 5.4265 15.964 5.30279 15.9869 5.1733C16.0097 5.0438 16.0068 4.91107 15.9783 4.78271C15.9498 4.65434 15.8962 4.53286 15.8207 4.42522C15.7452 4.31758 15.6491 4.22589 15.5381 4.15541C15.4271 4.08493 15.3033 4.03704 15.1738 4.01448C15.0442 3.99191 14.9115 3.99513 14.7832 4.02393L10 5.08685V3C10 2.73478 9.89464 2.48043 9.7071 2.29289C9.51957 2.10536 9.26521 2 9 2C8.73478 2 8.48043 2.10536 8.29289 2.29289C8.10535 2.48043 8 2.73478 8 3V5.53131L5.7832 6.02393C5.65477 6.05215 5.53316 6.10543 5.42535 6.18071C5.31754 6.25599 5.22564 6.3518 5.1549 6.46265C5.08417 6.5735 5.036 6.69721 5.01314 6.8267C4.99029 6.9562 4.9932 7.08893 5.02171 7.21729C5.05022 7.34566 5.10378 7.46714 5.1793 7.57478C5.25483 7.68242 5.35085 7.77411 5.46185 7.84459C5.57286 7.91507 5.69669 7.96296 5.82623 7.98552C5.95577 8.00809 6.0885 8.00487 6.2168 7.97607L8 7.57983V9.53131L5.7832 10.0239C5.65477 10.0522 5.53316 10.1054 5.42535 10.1807C5.31754 10.256 5.22564 10.3518 5.1549 10.4626C5.08417 10.5735 5.036 10.6972 5.01314 10.8267C4.99029 10.9562 4.9932 11.0889 5.02171 11.2173C5.05022 11.3457 5.10378 11.4671 5.1793 11.5748C5.25483 11.6824 5.35085 11.7741 5.46185 11.8446C5.57286 11.9151 5.69669 11.963 5.82623 11.9855C5.95577 12.0081 6.0885 12.0049 6.2168 11.9761L8 11.5798V21C8 21.2652 8.10535 21.5196 8.29289 21.7071C8.48043 21.8946 8.73478 22 9 22H10C12.3861 21.9972 14.6737 21.0481 16.3609 19.3609C18.0481 17.6737 18.9972 15.3861 19 13C19 12.7348 18.8946 12.4804 18.7071 12.2929C18.5196 12.1054 18.2652 12 18 12Z" fill="#414853"/>
</svg>
