<svg width="24" height="24" viewBox="0 0 24 24" fill="none" xmlns="http://www.w3.org/2000/svg">
<path d="M3.71 16.29C3.6149 16.199 3.50276 16.1276 3.38 16.08C3.13654 15.98 2.86346 15.98 2.62 16.08C2.49725 16.1276 2.38511 16.199 2.29 16.29C2.19896 16.3851 2.1276 16.4972 2.08 16.62C2.00342 16.8021 1.9825 17.0028 2.01988 17.1968C2.05725 17.3908 2.15125 17.5694 2.29 17.71C2.3872 17.7983 2.49882 17.8694 2.62 17.92C2.7397 17.9729 2.86913 18.0002 3 18.0002C3.13087 18.0002 3.2603 17.9729 3.38 17.92C3.50119 17.8694 3.6128 17.7983 3.71 17.71C3.84876 17.5694 3.94276 17.3908 3.98013 17.1968C4.01751 17.0028 3.99658 16.8021 3.92 16.62C3.87241 16.4972 3.80104 16.3851 3.71 16.29ZM7 8H21C21.2652 8 21.5196 7.89464 21.7071 7.70711C21.8946 7.51957 22 7.26522 22 7C22 6.73478 21.8946 6.48043 21.7071 6.29289C21.5196 6.10536 21.2652 6 21 6H7C6.73479 6 6.48043 6.10536 6.2929 6.29289C6.10536 6.48043 6 6.73478 6 7C6 7.26522 6.10536 7.51957 6.2929 7.70711C6.48043 7.89464 6.73479 8 7 8ZM3.71 11.29C3.56938 11.1512 3.39081 11.0572 3.19682 11.0199C3.00283 10.9825 2.80211 11.0034 2.62 11.08C2.49882 11.1306 2.3872 11.2017 2.29 11.29C2.19896 11.3851 2.1276 11.4972 2.08 11.62C2.0271 11.7397 1.99977 11.8691 1.99977 12C1.99977 12.1309 2.0271 12.2603 2.08 12.38C2.13065 12.5012 2.20167 12.6128 2.29 12.71C2.3872 12.7983 2.49882 12.8694 2.62 12.92C2.7397 12.9729 2.86913 13.0002 3 13.0002C3.13087 13.0002 3.2603 12.9729 3.38 12.92C3.50119 12.8694 3.6128 12.7983 3.71 12.71C3.79833 12.6128 3.86936 12.5012 3.92 12.38C3.97291 12.2603 4.00024 12.1309 4.00024 12C4.00024 11.8691 3.97291 11.7397 3.92 11.62C3.87241 11.4972 3.80104 11.3851 3.71 11.29ZM21 11H7C6.73479 11 6.48043 11.1054 6.2929 11.2929C6.10536 11.4804 6 11.7348 6 12C6 12.2652 6.10536 12.5196 6.2929 12.7071C6.48043 12.8946 6.73479 13 7 13H21C21.2652 13 21.5196 12.8946 21.7071 12.7071C21.8946 12.5196 22 12.2652 22 12C22 11.7348 21.8946 11.4804 21.7071 11.2929C21.5196 11.1054 21.2652 11 21 11ZM3.71 6.29C3.6149 6.19896 3.50276 6.12759 3.38 6.08C3.19789 6.00342 2.99718 5.9825 2.80319 6.01987C2.6092 6.05725 2.43063 6.15124 2.29 6.29C2.20167 6.3872 2.13065 6.49882 2.08 6.62C2.0271 6.7397 1.99977 6.86913 1.99977 7C1.99977 7.13087 2.0271 7.2603 2.08 7.38C2.13065 7.50119 2.20167 7.6128 2.29 7.71C2.3872 7.79833 2.49882 7.86936 2.62 7.92C2.80211 7.99658 3.00283 8.0175 3.19682 7.98013C3.39081 7.94275 3.56938 7.84876 3.71 7.71C3.79833 7.6128 3.86936 7.50119 3.92 7.38C3.97291 7.2603 4.00024 7.13087 4.00024 7C4.00024 6.86913 3.97291 6.7397 3.92 6.62C3.86936 6.49882 3.79833 6.3872 3.71 6.29ZM21 16H7C6.73479 16 6.48043 16.1054 6.2929 16.2929C6.10536 16.4804 6 16.7348 6 17C6 17.2652 6.10536 17.5196 6.2929 17.7071C6.48043 17.8946 6.73479 18 7 18H21C21.2652 18 21.5196 17.8946 21.7071 17.7071C21.8946 17.5196 22 17.2652 22 17C22 16.7348 21.8946 16.4804 21.7071 16.2929C21.5196 16.1054 21.2652 16 21 16Z" fill="#414853"/>
</svg>
