<svg width="24" height="24" viewBox="0 0 24 24" fill="none" xmlns="http://www.w3.org/2000/svg">
<path d="M15.2646 5.27441C14.1183 5.27396 12.9912 5.56841 11.9917 6.12946C10.9678 5.55717 9.81201 5.26254 8.63908 5.27479C7.46616 5.28704 6.31682 5.60576 5.30509 6.19931C4.29337 6.79286 3.45441 7.64063 2.87145 8.6585C2.2885 9.67637 1.98181 10.829 1.98181 12.002C1.98181 13.175 2.2885 14.3276 2.87145 15.3454C3.45441 16.3633 4.29337 17.2111 5.30509 17.8046C6.31682 18.3982 7.46616 18.7169 8.63908 18.7291C9.81201 18.7414 10.9678 18.4468 11.9917 17.8745C12.8891 18.3747 13.8891 18.6627 14.9151 18.7163C15.9411 18.7699 16.9658 18.5878 17.9104 18.1839C18.8551 17.7799 19.6947 17.165 20.3647 16.3861C21.0347 15.6073 21.5174 14.6853 21.7757 13.6909C22.034 12.6965 22.0611 11.6561 21.8548 10.6496C21.6485 9.64315 21.2144 8.69731 20.5857 7.8847C19.9571 7.07209 19.1506 6.4143 18.2282 5.96183C17.3058 5.50935 16.292 5.27422 15.2646 5.27446V5.27441ZM10.2371 16.457C9.74957 16.6314 9.23644 16.7235 8.71871 16.7295C7.46489 16.7295 6.26242 16.2314 5.37583 15.3449C4.48925 14.4583 3.99117 13.2558 3.99117 12.002C3.99117 10.7482 4.48925 9.54569 5.37583 8.65911C6.26242 7.77252 7.46489 7.27444 8.71871 7.27444C9.23645 7.28043 9.74958 7.37253 10.2371 7.54697C9.14225 8.77264 8.53708 10.3585 8.53708 12.002C8.53708 13.6454 9.14225 15.2313 10.2371 16.457V16.457ZM11.9917 15.3996C11.532 14.9611 11.166 14.4339 10.916 13.8499C10.666 13.2659 10.5371 12.6372 10.5371 12.002C10.5371 11.3667 10.666 10.738 10.916 10.154C11.166 9.56999 11.532 9.04279 11.9917 8.60431C12.4514 9.04279 12.8173 9.56999 13.0673 10.154C13.3173 10.738 13.4462 11.3667 13.4462 12.002C13.4462 12.6372 13.3173 13.2659 13.0673 13.8499C12.8173 14.4339 12.4514 14.9611 11.9917 15.3996ZM15.2646 16.7295C14.7469 16.7235 14.2337 16.6314 13.7462 16.457C14.8411 15.2313 15.4462 13.6454 15.4462 12.002C15.4462 10.3585 14.8411 8.77264 13.7462 7.54697C14.2337 7.37253 14.7469 7.28043 15.2646 7.27444C16.5184 7.27444 17.7209 7.77252 18.6075 8.65911C19.4941 9.54569 19.9921 10.7482 19.9921 12.002C19.9921 13.2558 19.4941 14.4583 18.6075 15.3449C17.7209 16.2314 16.5184 16.7295 15.2646 16.7295V16.7295Z" fill="#414853"/>
</svg>
