<svg width="24" height="24" viewBox="0 0 24 24" fill="none" xmlns="http://www.w3.org/2000/svg">
<path d="M20 21.0053H14.8157C14.8836 20.8135 14.9315 20.6152 14.9587 20.4136C16.4391 19.818 17.7088 18.7957 18.6065 17.4765C19.5042 16.1573 19.9892 14.601 20 13.0053C20.0029 10.9937 19.2426 9.05584 17.8726 7.58287L18.5098 6.94529C18.6196 6.83575 18.7022 6.70195 18.751 6.55467L19.459 4.4326C19.5178 4.25644 19.5264 4.06737 19.4838 3.8866C19.4412 3.70583 19.3491 3.5405 19.2178 3.40916L17.0957 1.28758C16.9645 1.1561 16.7992 1.06382 16.6184 1.02112C16.4376 0.978426 16.2485 0.986998 16.0723 1.04588L13.9512 1.7534C13.8039 1.80245 13.6702 1.88521 13.5605 1.9951L7.19824 8.35789C7.10536 8.4507 7.03168 8.56091 6.9814 8.68221C6.93113 8.80352 6.90525 8.93354 6.90525 9.06484C6.90524 9.19615 6.93111 9.32617 6.98137 9.44748C7.03163 9.56879 7.10531 9.679 7.19818 9.77183L5.78223 11.1875C5.68935 11.2803 5.61567 11.3905 5.5654 11.5118C5.51513 11.6332 5.48926 11.7632 5.48926 11.8945C5.48926 12.0258 5.51513 12.1559 5.5654 12.2772C5.61567 12.3985 5.68935 12.5087 5.78223 12.6015L7.9043 14.7226C7.99713 14.8155 8.10735 14.8892 8.22867 14.9395C8.34998 14.9897 8.48001 15.0156 8.61133 15.0156C8.74265 15.0156 8.87268 14.9897 8.99399 14.9395C9.11531 14.8892 9.22553 14.8155 9.31836 14.7226L10.7324 13.3086L10.7344 13.3106C10.8273 13.4034 10.9375 13.4771 11.0588 13.5274C11.1801 13.5777 11.3101 13.6035 11.4415 13.6035C11.5728 13.6035 11.7028 13.5777 11.8241 13.5274C11.9454 13.4771 12.0556 13.4034 12.1485 13.3106L16.4579 8.99849C17.4523 10.0959 18.002 11.5245 18 13.0053C17.9938 14.144 17.6662 15.2578 17.0551 16.2185C16.4439 17.1793 15.5739 17.948 14.5452 18.4362C14.2765 17.994 13.8972 17.6296 13.4448 17.3787C12.9923 17.1278 12.4822 16.9992 11.9649 17.0056C11.4476 17.0119 10.9408 17.153 10.4947 17.415C10.0485 17.6769 9.6783 18.0506 9.42059 18.4992C9.03141 18.3489 8.65684 18.1632 8.30159 17.9445C8.50284 17.8827 8.6791 17.7583 8.80472 17.5894C8.93035 17.4205 8.99876 17.2159 9 17.0053C9.00003 16.874 8.97419 16.744 8.92395 16.6226C8.87371 16.5013 8.80005 16.391 8.70718 16.2982C8.61432 16.2053 8.50407 16.1316 8.38272 16.0814C8.26138 16.0312 8.13133 16.0053 8 16.0053H4C3.73478 16.0053 3.48043 16.1107 3.29289 16.2982C3.10536 16.4858 3 16.7401 3 17.0053C3 17.2706 3.10536 17.5249 3.29289 17.7125C3.48043 17.9 3.73478 18.0053 4 18.0053H5.33142C6.33752 19.1348 7.61735 19.9863 9.04779 20.478C9.07697 20.6576 9.12267 20.8342 9.18433 21.0054H4C3.73478 21.0054 3.48043 21.1107 3.29289 21.2983C3.10536 21.4858 3 21.7402 3 22.0054C3 22.2706 3.10536 22.5249 3.29289 22.7125C3.48043 22.9 3.73478 23.0054 4 23.0054H20C20.2652 23.0054 20.5196 22.9 20.7071 22.7125C20.8946 22.5249 21 22.2706 21 22.0054C21 21.7402 20.8946 21.4858 20.7071 21.2983C20.5196 21.1107 20.2652 21.0054 20 21.0054V21.0053ZM8.61133 12.6015L7.90333 11.8945L8.61133 11.187L9.31833 11.8945L8.61133 12.6015ZM16.9287 5.69822L11.4414 11.189L9.31934 9.06498L14.8076 3.57621L16.1191 3.13871L17.3662 4.38627L16.9287 5.69822ZM12 21.0053C11.8022 21.0053 11.6089 20.9467 11.4444 20.8368C11.28 20.7269 11.1518 20.5708 11.0761 20.388C11.0004 20.2053 10.9806 20.0042 11.0192 19.8103C11.0578 19.6163 11.153 19.4381 11.2929 19.2982C11.4327 19.1584 11.6109 19.0631 11.8049 19.0246C11.9989 18.986 12.2 19.0058 12.3827 19.0815C12.5654 19.1572 12.7216 19.2853 12.8315 19.4498C12.9414 19.6142 13 19.8076 13 20.0053C12.9997 20.2705 12.8943 20.5247 12.7068 20.7122C12.5193 20.8996 12.2651 21.0051 12 21.0053Z" fill="#414853"/>
</svg>
