<svg width="24" height="24" viewBox="0 0 24 24" fill="none" xmlns="http://www.w3.org/2000/svg">
<path d="M21.85 17.47L16.85 9.47002C16.7603 9.32531 16.6351 9.20589 16.4864 9.12308C16.3376 9.04027 16.1702 8.9968 16 8.9968C15.8297 8.9968 15.6623 9.04027 15.5135 9.12308C15.3648 9.20589 15.2396 9.32531 15.15 9.47002L14.15 11.1L10.86 5.50002C10.7714 5.3508 10.6456 5.22718 10.4948 5.14132C10.344 5.05546 10.1735 5.01031 9.99997 5.01031C9.82645 5.01031 9.65592 5.05546 9.50514 5.14132C9.35436 5.22718 9.22851 5.3508 9.13997 5.50002L2.13997 17.5C2.05245 17.6516 2.00625 17.8235 2.00598 17.9985C2.00572 18.1735 2.05139 18.3456 2.13845 18.4974C2.22551 18.6493 2.35089 18.7756 2.50208 18.8638C2.65326 18.952 2.82494 18.999 2.99997 19H21C21.1786 19.0004 21.3541 18.9529 21.5082 18.8624C21.6623 18.7719 21.7894 18.6419 21.8761 18.4857C21.9629 18.3295 22.0062 18.1529 22.0016 17.9743C21.997 17.7957 21.9447 17.6215 21.85 17.47ZM10.45 17H4.73997L9.99997 8.00002L12.93 13L10.45 17ZM12.8 17L15 13.57L16 11.89L19.2 17H12.8Z" fill="#414853"/>
</svg>
