<svg width="24" height="24" viewBox="0 0 24 24" fill="none" xmlns="http://www.w3.org/2000/svg">
<path d="M12 7.32998C12.2652 7.32998 12.5195 7.22462 12.7071 7.03708C12.8946 6.84955 13 6.59519 13 6.32998V5.77998L19 4.27998V7.21998L14.7 8.29998C14.4347 8.3318 14.193 8.46768 14.028 8.67772C13.863 8.88776 13.7881 9.15476 13.82 9.41998C13.8518 9.68519 13.9877 9.9269 14.1977 10.0919C14.4077 10.257 14.6747 10.3318 14.94 10.3H15.18L20.24 8.99998H20.31L20.5 8.90998L20.65 8.80998C20.6985 8.76476 20.7421 8.71447 20.78 8.65998C20.819 8.61401 20.8525 8.56367 20.88 8.50998C20.9102 8.4539 20.9305 8.393 20.94 8.32998C20.9493 8.26698 20.9493 8.20297 20.94 8.13998C20.9746 8.10106 20.9957 8.05192 21 7.99998V2.99998C21.0045 2.84578 20.9733 2.69263 20.9088 2.5525C20.8443 2.41237 20.7482 2.28907 20.6281 2.19223C20.5081 2.09539 20.3672 2.02765 20.2166 1.99429C20.066 1.96094 19.9097 1.96289 19.76 1.99998L11.76 3.99998C11.5381 4.05473 11.3417 4.18382 11.2034 4.36577C11.0651 4.54772 10.9933 4.77154 11 4.99998V6.32998C11 6.59519 11.1053 6.84955 11.2929 7.03708C11.4804 7.22462 11.7347 7.32998 12 7.32998ZM21.71 20.33L12.71 11.33L3.70996 2.32998C3.51948 2.1826 3.2822 2.10892 3.04175 2.12247C2.80129 2.13602 2.5738 2.2359 2.40109 2.40375C2.22838 2.5716 2.12204 2.79614 2.10162 3.03611C2.08121 3.27608 2.14808 3.51536 2.28996 3.70998L11 12.41V15.35C10.5327 15.1218 10.0199 15.0021 9.49996 15C8.80772 15 8.13103 15.2052 7.55546 15.5898C6.97989 15.9744 6.53129 16.521 6.26638 17.1606C6.00147 17.8001 5.93216 18.5039 6.06721 19.1828C6.20226 19.8617 6.5356 20.4854 7.02508 20.9748C7.51457 21.4643 8.13821 21.7977 8.81714 21.9327C9.49607 22.0678 10.1998 21.9985 10.8393 21.7336C11.4789 21.4686 12.0255 21.02 12.4101 20.4445C12.7947 19.8689 13 19.1922 13 18.5V14.41L20.29 21.71C20.3829 21.8037 20.4935 21.8781 20.6154 21.9289C20.7372 21.9796 20.8679 22.0058 21 22.0058C21.132 22.0058 21.2627 21.9796 21.3845 21.9289C21.5064 21.8781 21.617 21.8037 21.71 21.71C21.8037 21.617 21.8781 21.5064 21.9288 21.3846C21.9796 21.2627 22.0058 21.132 22.0058 21C22.0058 20.868 21.9796 20.7373 21.9288 20.6154C21.8781 20.4935 21.8037 20.3829 21.71 20.29V20.33ZM9.49996 20C9.20328 20 8.91328 19.912 8.6666 19.7472C8.41993 19.5824 8.22767 19.3481 8.11414 19.074C8.00061 18.7999 7.9709 18.4983 8.02878 18.2073C8.08666 17.9164 8.22952 17.6491 8.4393 17.4393C8.64908 17.2295 8.91635 17.0867 9.20732 17.0288C9.49829 16.9709 9.79989 17.0006 10.074 17.1142C10.3481 17.2277 10.5823 17.4199 10.7472 17.6666C10.912 17.9133 11 18.2033 11 18.5C11 18.8978 10.8419 19.2793 10.5606 19.5606C10.2793 19.8419 9.89778 20 9.49996 20Z" fill="#414853"/>
</svg>
