<svg width="24" height="24" viewBox="0 0 24 24" fill="none" xmlns="http://www.w3.org/2000/svg">
<path d="M20 4.00001C20.1966 3.9992 20.3886 3.94046 20.5519 3.83115C20.7153 3.72184 20.8429 3.5668 20.9186 3.3854C20.9944 3.20401 21.015 3.00431 20.9779 2.81127C20.9408 2.61822 20.8476 2.44039 20.71 2.30001C20.617 2.20628 20.5064 2.13189 20.3846 2.08112C20.2627 2.03035 20.132 2.00421 20 2.00421C19.868 2.00421 19.7373 2.03035 19.6154 2.08112C19.4936 2.13189 19.383 2.20628 19.29 2.30001C19.2001 2.39216 19.1287 2.50082 19.08 2.62001C19.024 2.73869 18.9966 2.86883 19 3.00001C19 3.26523 19.1054 3.51958 19.2929 3.70712C19.4804 3.89465 19.7348 4.00001 20 4.00001ZM20 13C19.7348 13 19.4804 13.1054 19.2929 13.2929C19.1054 13.4804 19 13.7348 19 14V14.39L17.52 12.91C17.2626 12.6509 16.9564 12.4453 16.6192 12.3049C16.2819 12.1646 15.9203 12.0924 15.555 12.0924C15.1897 12.0924 14.8281 12.1646 14.4908 12.3049C14.1536 12.4453 13.8474 12.6509 13.59 12.91L12.89 13.61L10.41 11.12C9.87897 10.6179 9.17585 10.3381 8.445 10.3381C7.71415 10.3381 7.01103 10.6179 6.48 11.12L5 12.6V7.00001C5 6.73479 5.10536 6.48044 5.29289 6.2929C5.48043 6.10537 5.73478 6.00001 6 6.00001H16C16.2652 6.00001 16.5196 5.89465 16.7071 5.70712C16.8946 5.51958 17 5.26523 17 5.00001C17 4.73479 16.8946 4.48044 16.7071 4.2929C16.5196 4.10537 16.2652 4.00001 16 4.00001H6C5.20435 4.00001 4.44129 4.31608 3.87868 4.87869C3.31607 5.4413 3 6.20436 3 7.00001V19C3 19.7957 3.31607 20.5587 3.87868 21.1213C4.44129 21.6839 5.20435 22 6 22H18C18.7956 22 19.5587 21.6839 20.1213 21.1213C20.6839 20.5587 21 19.7957 21 19V14C21 13.7348 20.8946 13.4804 20.7071 13.2929C20.5196 13.1054 20.2652 13 20 13ZM6 20C5.73478 20 5.48043 19.8947 5.29289 19.7071C5.10536 19.5196 5 19.2652 5 19V15.43L7.9 12.53C8.04691 12.39 8.24206 12.3119 8.445 12.3119C8.64794 12.3119 8.84309 12.39 8.99 12.53L12.16 15.7L16.45 20H6ZM19 19C18.9917 19.1902 18.9292 19.3741 18.82 19.53L14.31 15L15.01 14.3C15.1562 14.1547 15.3539 14.0731 15.56 14.0731C15.7661 14.0731 15.9638 14.1547 16.11 14.3L19 17.22V19ZM20 5.00001C19.7348 5.00001 19.4804 5.10537 19.2929 5.2929C19.1054 5.48044 19 5.73479 19 6.00001V10C19 10.2652 19.1054 10.5196 19.2929 10.7071C19.4804 10.8947 19.7348 11 20 11C20.2652 11 20.5196 10.8947 20.7071 10.7071C20.8946 10.5196 21 10.2652 21 10V6.00001C21 5.73479 20.8946 5.48044 20.7071 5.2929C20.5196 5.10537 20.2652 5.00001 20 5.00001Z" fill="#414853"/>
</svg>
