<svg width="24" height="24" viewBox="0 0 24 24" fill="none" xmlns="http://www.w3.org/2000/svg">
<path d="M21.87 11.5L17.37 3.71003C17.2819 3.55743 17.155 3.43081 17.0023 3.34301C16.8495 3.2552 16.6762 3.20933 16.5 3.21003H7.5C7.32379 3.20933 7.15052 3.2552 6.99775 3.34301C6.84497 3.43081 6.7181 3.55743 6.63 3.71003L2.13 11.5C2.04223 11.652 1.99603 11.8245 1.99603 12C1.99603 12.1756 2.04223 12.348 2.13 12.5L6.63 20.29C6.7181 20.4426 6.84497 20.5693 6.99775 20.6571C7.15052 20.7449 7.32379 20.7907 7.5 20.79H16.5C16.6762 20.7907 16.8495 20.7449 17.0023 20.6571C17.155 20.5693 17.2819 20.4426 17.37 20.29L21.87 12.5C21.9578 12.348 22.004 12.1756 22.004 12C22.004 11.8245 21.9578 11.652 21.87 11.5ZM15.87 18.79H8.08L4.15 12L8.08 5.21003H15.92L19.85 12L15.87 18.79Z" fill="#414853"/>
</svg>
