<svg width="24" height="24" viewBox="0 0 24 24" fill="none" xmlns="http://www.w3.org/2000/svg">
<path d="M14.4101 16.8672C13.7279 17.3674 12.8827 17.5933 12.0419 17.5C11.2022 17.5935 10.358 17.368 9.67671 16.8681C9.48892 16.6817 9.23491 16.5772 8.97026 16.5776C8.70562 16.578 8.45191 16.6832 8.26465 16.8702C8.0774 17.0572 7.97185 17.3107 7.97111 17.5754C7.97037 17.84 8.0745 18.0942 8.26071 18.2822C8.77778 18.7273 9.37874 19.0644 10.0282 19.2735C10.6776 19.4827 11.3623 19.5597 12.0419 19.5C12.7216 19.5594 13.4064 19.4824 14.0559 19.2734C14.7054 19.0645 15.3066 18.7278 15.8242 18.2832C15.9175 18.1904 15.9916 18.0801 16.0422 17.9587C16.0929 17.8372 16.1191 17.707 16.1193 17.5754C16.1195 17.4438 16.0938 17.3135 16.0436 17.1919C15.9934 17.0702 15.9197 16.9597 15.8267 16.8666C15.7337 16.7735 15.6233 16.6996 15.5017 16.6492C15.3802 16.5989 15.2499 16.573 15.1183 16.573C14.9867 16.5731 14.8564 16.5991 14.7349 16.6496C14.6134 16.7 14.503 16.774 14.4101 16.8672L14.4101 16.8672ZM9.20044 15.0016C9.39822 15.0016 9.59154 14.9429 9.75596 14.8329C9.92037 14.723 10.0485 14.5668 10.1241 14.384C10.1998 14.2013 10.2195 14.0002 10.1809 13.8062C10.1422 13.6123 10.0469 13.4341 9.90703 13.2943C9.76714 13.1545 9.58893 13.0593 9.39493 13.0208C9.20094 12.9823 8.99988 13.0021 8.81718 13.0779C8.63448 13.1536 8.47834 13.2818 8.3685 13.4463C8.25867 13.6108 8.20008 13.8041 8.20014 14.0019C8.20043 14.2671 8.30593 14.5213 8.49348 14.7087C8.68102 14.8962 8.93529 15.0015 9.20044 15.0016ZM15.2004 13.0016C15.0027 13.0016 14.8093 13.0602 14.6448 13.17C14.4803 13.2798 14.3521 13.436 14.2764 13.6187C14.2006 13.8014 14.1808 14.0024 14.2193 14.1964C14.2578 14.3904 14.353 14.5686 14.4928 14.7085C14.6326 14.8484 14.8108 14.9437 15.0048 14.9824C15.1987 15.021 15.3998 15.0013 15.5825 14.9256C15.7653 14.85 15.9215 14.7219 16.0314 14.5574C16.1414 14.393 16.2001 14.1997 16.2001 14.0019C16.1999 13.7368 16.0945 13.4826 15.9071 13.2951C15.7197 13.1076 15.4655 13.0021 15.2004 13.0016ZM22.9999 11.7802C23.0018 10.9872 22.7536 10.2137 22.2906 9.56981C21.8276 8.92591 21.1734 8.44433 20.4211 8.19353C19.6687 7.94274 18.8564 7.93549 18.0997 8.17283C17.343 8.41016 16.6803 8.87999 16.2059 9.51554C15.2064 9.26109 14.1853 9.10088 13.1559 9.03703L14.0117 3.33203L16.0992 4.04187C16.1087 4.83599 16.4331 5.59387 17.001 6.14902C17.5689 6.70418 18.3339 7.01121 19.1281 7.00269C19.9222 6.99416 20.6805 6.67078 21.2364 6.10356C21.7922 5.53635 22.1002 4.77168 22.0927 3.97754V3.95506C22.0736 3.16958 21.75 2.42226 21.1903 1.87089C20.6305 1.31951 19.8784 1.00723 19.0927 0.999978C18.6419 1.00335 18.1978 1.10906 17.7938 1.30914C17.3898 1.50922 17.0365 1.79844 16.7606 2.15498L13.5224 1.05369C13.3838 1.00626 13.2365 0.989894 13.0909 1.00574C12.9452 1.02159 12.8049 1.06927 12.6797 1.1454C12.5546 1.22153 12.4477 1.32425 12.3667 1.44628C12.2857 1.56831 12.2325 1.70666 12.2109 1.85154L11.1344 9.02698C10.0072 9.07633 8.88802 9.24002 7.79394 9.51554C7.21461 8.73411 6.35549 8.20704 5.39638 8.04464C4.43727 7.88225 3.45253 8.09712 2.64824 8.64428C1.84396 9.19144 1.28248 10.0285 1.08132 10.9802C0.880167 11.9319 1.05492 12.9246 1.56902 13.7504C1.20055 14.4433 1.00529 15.2152 0.999939 16C0.999939 19.9248 5.83194 23 11.9999 23C18.1679 23 22.9999 19.9248 22.9999 16C22.9946 15.2154 22.7995 14.4439 22.4313 13.7511C22.7987 13.159 22.9955 12.477 22.9999 11.7802ZM19.0927 2.99998C19.2905 2.99998 19.4838 3.05863 19.6483 3.16851C19.8127 3.27839 19.9409 3.43457 20.0166 3.61729C20.0923 3.80002 20.1121 4.00109 20.0735 4.19507C20.0349 4.38905 19.9397 4.56723 19.7998 4.70708C19.66 4.84694 19.4818 4.94218 19.2878 4.98076C19.0938 5.01935 18.8928 4.99955 18.71 4.92386C18.5273 4.84817 18.3711 4.72 18.2612 4.55555C18.1514 4.3911 18.0927 4.19776 18.0927 3.99998C18.097 3.7361 18.2038 3.48424 18.3904 3.29763C18.577 3.11102 18.8288 3.00428 19.0927 2.99998ZM4.78021 9.99998C5.09099 10.0038 5.39521 10.0899 5.66193 10.2495C4.69668 10.6646 3.80304 11.2295 3.01404 11.9234C3.01004 11.8755 2.99994 11.8284 2.99994 11.7802C3.00054 11.3083 3.1883 10.8558 3.52203 10.5221C3.85577 10.1883 4.30824 10.0006 4.78021 9.99998ZM11.9999 21C7.12103 21 2.99994 18.71 2.99994 16C2.99994 13.29 7.12103 11 11.9999 11C16.8788 11 20.9999 13.29 20.9999 16C20.9999 18.71 16.8788 21 11.9999 21ZM20.9858 11.9234C20.1968 11.2295 19.3032 10.6646 18.3379 10.2495C18.6047 10.0899 18.9089 10.0038 19.2197 9.99998C19.6916 10.0006 20.1441 10.1883 20.4778 10.5221C20.8116 10.8558 20.9993 11.3083 20.9999 11.7802C20.9999 11.8283 20.9899 11.8756 20.9858 11.9234Z" fill="#414853"/>
</svg>
