<svg width="24" height="24" viewBox="0 0 24 24" fill="none" xmlns="http://www.w3.org/2000/svg">
<path d="M13 12C12.4067 12 11.8266 12.176 11.3333 12.5056C10.8399 12.8353 10.4554 13.3038 10.2284 13.852C10.0013 14.4001 9.9419 15.0033 10.0577 15.5853C10.1734 16.1672 10.4591 16.7018 10.8787 17.1213C11.2982 17.5409 11.8328 17.8266 12.4147 17.9424C12.9967 18.0581 13.5999 17.9987 14.1481 17.7717C14.6962 17.5446 15.1648 17.1601 15.4944 16.6667C15.8241 16.1734 16 15.5934 16 15C15.9991 14.2046 15.6828 13.4421 15.1204 12.8797C14.5579 12.3172 13.7954 12.0009 13 12ZM13 16C12.8022 16 12.6089 15.9414 12.4444 15.8315C12.28 15.7216 12.1518 15.5654 12.0761 15.3827C12.0004 15.2 11.9806 14.9989 12.0192 14.8049C12.0578 14.6109 12.153 14.4328 12.2929 14.2929C12.4328 14.1531 12.6109 14.0578 12.8049 14.0192C12.9989 13.9806 13.2 14.0005 13.3827 14.0761C13.5654 14.1518 13.7216 14.28 13.8315 14.4444C13.9414 14.6089 14 14.8022 14 15C13.9997 15.2651 13.8942 15.5193 13.7067 15.7067C13.5193 15.8942 13.2651 15.9997 13 16ZM18.8003 7.60012L16 5.50014V3.00002H17C17.2652 3.00002 17.5196 2.89466 17.7071 2.70713C17.8947 2.51959 18 2.26524 18 2.00002C18 1.7348 17.8947 1.48045 17.7071 1.29291C17.5196 1.10538 17.2652 1.00002 17 1.00002H8.65675C7.99994 0.998221 7.34929 1.12672 6.74248 1.37808C6.13567 1.62944 5.58474 1.99866 5.12159 2.46438L4.29301 3.29302C4.19878 3.38556 4.12381 3.49584 4.07245 3.61751C4.02108 3.73918 3.99432 3.86983 3.99372 4.00189C3.99313 4.13396 4.0187 4.26484 4.06896 4.38697C4.11923 4.5091 4.19319 4.62006 4.28657 4.71345C4.37996 4.80684 4.49092 4.8808 4.61305 4.93106C4.73518 4.98133 4.86606 5.0069 4.99813 5.0063C5.1302 5.0057 5.26084 4.97895 5.38251 4.92758C5.50418 4.87621 5.61447 4.80125 5.70701 4.70702L6.53562 3.87841C7.09958 3.31798 7.86168 3.00239 8.65675 3.00002H10V5.50008L7.19923 7.60008C6.82768 7.88043 6.52608 8.24298 6.31803 8.65934C6.10998 9.0757 6.00113 9.53457 6.00001 10V22C6.00001 22.2652 6.10536 22.5196 6.2929 22.7071C6.48044 22.8947 6.73479 23 7.00001 23H19C19.2652 23 19.5196 22.8947 19.7071 22.7071C19.8947 22.5196 20 22.2652 20 22V10C19.9989 9.53453 19.89 9.07561 19.6819 8.65925C19.4737 8.24288 19.172 7.88037 18.8003 7.60012ZM12 3.00002H14V5.00002H12V3.00002ZM18 21H8.00001V10C8.00038 9.84481 8.03667 9.69179 8.10605 9.55295C8.17543 9.41411 8.27601 9.29321 8.39991 9.19973L11.3335 7.00002H14.6665L17.5996 9.19973C17.7237 9.29311 17.8244 9.41397 17.8938 9.55283C17.9633 9.69168 17.9997 9.84475 18 10V21Z" fill="#414853"/>
</svg>
