<svg width="24" height="24" viewBox="0 0 24 24" fill="none" xmlns="http://www.w3.org/2000/svg">
<path d="M14 11H13V10C13 9.73478 12.8946 9.48043 12.7071 9.29289C12.5196 9.10536 12.2652 9 12 9C11.7348 9 11.4804 9.10536 11.2929 9.29289C11.1054 9.48043 11 9.73478 11 10V11H10C9.73478 11 9.48043 11.1054 9.29289 11.2929C9.10536 11.4804 9 11.7348 9 12C9 12.2652 9.10536 12.5196 9.29289 12.7071C9.48043 12.8946 9.73478 13 10 13H11V14C11 14.2652 11.1054 14.5196 11.2929 14.7071C11.4804 14.8946 11.7348 15 12 15C12.2652 15 12.5196 14.8946 12.7071 14.7071C12.8946 14.5196 13 14.2652 13 14V13H14C14.2652 13 14.5196 12.8946 14.7071 12.7071C14.8946 12.5196 15 12.2652 15 12C15 11.7348 14.8946 11.4804 14.7071 11.2929C14.5196 11.1054 14.2652 11 14 11ZM19.6309 3.6499C19.5151 3.5565 19.3801 3.48989 19.2356 3.45485C19.0911 3.41982 18.9406 3.41723 18.7949 3.44727C17.7262 3.67315 16.6225 3.67725 15.5521 3.45929C14.4818 3.24134 13.4676 2.80599 12.5723 2.18018C12.4045 2.0629 12.2047 2 12 2C11.7953 2 11.5955 2.0629 11.4277 2.18018C10.5326 2.80624 9.51835 3.24176 8.44795 3.45972C7.37754 3.67768 6.27378 3.67344 5.20508 3.44727C5.05949 3.41671 4.90892 3.41903 4.76433 3.45405C4.61975 3.48908 4.48481 3.55593 4.36935 3.64973C4.25389 3.74353 4.16081 3.86192 4.09692 3.99626C4.03302 4.1306 3.99991 4.27751 4 4.42627V11.8833C4.00148 13.3156 4.34406 14.7269 4.9994 16.0005C5.65474 17.274 6.60398 18.3732 7.76855 19.207L11.419 21.814C11.5886 21.935 11.7917 22 12 22C12.2084 22 12.4115 21.935 12.5811 21.814L16.2315 19.2066C17.3961 18.3729 18.3454 17.2738 19.0007 16.0003C19.656 14.7268 19.9986 13.3155 20 11.8833V4.4263C20 4.2776 19.9669 4.13076 19.903 3.99646C19.8392 3.86216 19.7462 3.74377 19.6309 3.6499ZM18 11.8833C17.9987 12.9972 17.7323 14.0947 17.2227 15.0852C16.713 16.0756 15.9749 16.9305 15.0693 17.5791L12 19.771L8.93066 17.5796C8.02511 16.9309 7.28701 16.0759 6.7774 15.0854C6.26779 14.0948 6.00131 12.9972 6 11.8833V5.583C8.09677 5.76523 10.1973 5.27821 12 4.19188C13.8027 5.27821 15.9032 5.76523 18 5.583V11.8833Z" fill="#414853"/>
</svg>
