<svg width="24" height="24" viewBox="0 0 24 24" fill="none" xmlns="http://www.w3.org/2000/svg">
<path d="M21.71 7.38006L16.62 2.29006C16.4326 2.10381 16.1792 1.99927 15.915 1.99927C15.6508 1.99927 15.3974 2.10381 15.21 2.29006C15.1163 2.38302 15.0419 2.49362 14.9911 2.61548C14.9403 2.73734 14.9142 2.86805 14.9142 3.00006C14.9142 3.13207 14.9403 3.26278 14.9911 3.38464C15.0419 3.5065 15.1163 3.6171 15.21 3.71006L17 5.54006L11.58 11.0001L10.58 10.0001C10.3013 9.72038 9.9701 9.49847 9.60545 9.34705C9.24079 9.19564 8.84984 9.11769 8.45499 9.11769C8.06015 9.11769 7.66919 9.19564 7.30454 9.34705C6.93988 9.49847 6.6087 9.72038 6.32999 10.0001L2.87999 13.4201C2.60014 13.6996 2.37833 14.0316 2.2273 14.3972C2.07628 14.7627 1.99902 15.1545 1.99999 15.5501V19.0001C1.99999 19.7957 2.31606 20.5588 2.87867 21.1214C3.44128 21.684 4.20434 22.0001 4.99999 22.0001H8.44999C8.84551 22.001 9.23732 21.9238 9.60287 21.7728C9.96842 21.6217 10.3005 21.3999 10.58 21.1201L14 17.6901C14.2797 17.4114 14.5016 17.0802 14.653 16.7155C14.8044 16.3509 14.8824 15.9599 14.8824 15.5651C14.8824 15.1702 14.8044 14.7793 14.653 14.4146C14.5016 14.0499 14.2797 13.7188 14 13.4401L13 12.4401L18.46 7.00006L20.29 8.83006C20.383 8.92379 20.4936 8.99818 20.6154 9.04895C20.7373 9.09972 20.868 9.12586 21 9.12586C21.132 9.12586 21.2627 9.09972 21.3846 9.04895C21.5064 8.99818 21.617 8.92379 21.71 8.83006C21.8083 8.73664 21.8866 8.62419 21.9401 8.49955C21.9937 8.37492 22.0212 8.2407 22.0212 8.10506C22.0212 7.96942 21.9937 7.8352 21.9401 7.71057C21.8866 7.58593 21.8083 7.47348 21.71 7.38006ZM12.6 16.2701L9.15999 19.7101C9.06655 19.8027 8.95574 19.8761 8.8339 19.9258C8.71206 19.9756 8.5816 20.0008 8.44999 20.0001H4.99999C4.73478 20.0001 4.48042 19.8947 4.29289 19.7072C4.10535 19.5196 3.99999 19.2653 3.99999 19.0001V15.5501C3.99923 15.4185 4.02446 15.288 4.07422 15.1662C4.12399 15.0443 4.19731 14.9335 4.28999 14.8401L7.72999 11.4001C7.91736 11.2138 8.17081 11.1093 8.43499 11.1093C8.69918 11.1093 8.95263 11.2138 9.13999 11.4001L10.14 12.4001L9.24999 13.3001C9.06374 13.4874 8.9592 13.7409 8.9592 14.0051C8.9592 14.2692 9.06374 14.5227 9.24999 14.7101C9.34813 14.8077 9.46546 14.8838 9.59456 14.9338C9.72366 14.9837 9.86172 15.0063 9.99999 15.0001C10.2623 14.999 10.5137 14.8948 10.7 14.7101L11.6 13.8201L12.6 14.8201C12.6983 14.9135 12.7766 15.0259 12.8301 15.1506C12.8837 15.2752 12.9112 15.4094 12.9112 15.5451C12.9112 15.6807 12.8837 15.8149 12.8301 15.9396C12.7766 16.0642 12.6983 16.1766 12.6 16.2701Z" fill="#414853"/>
</svg>
