<svg width="24" height="24" viewBox="0 0 24 24" fill="none" xmlns="http://www.w3.org/2000/svg">
<path d="M16 5H13V3C13 2.73478 12.8946 2.48043 12.7071 2.29289C12.5195 2.10536 12.2652 2 12 2C11.7348 2 11.4804 2.10536 11.2929 2.29289C11.1053 2.48043 11 2.73478 11 3V5H5.99998C5.84977 5.00069 5.70165 5.03521 5.56662 5.101C5.43158 5.16679 5.3131 5.26215 5.21998 5.38L3.21998 7.88C3.08047 8.05655 3.00458 8.27499 3.00458 8.5C3.00458 8.72501 3.08047 8.94345 3.21998 9.12L5.21998 11.62C5.3131 11.7379 5.43158 11.8332 5.56662 11.899C5.70165 11.9648 5.84977 11.9993 5.99998 12H11V20H8.99998C8.73476 20 8.48041 20.1054 8.29287 20.2929C8.10533 20.4804 7.99998 20.7348 7.99998 21C7.99998 21.2652 8.10533 21.5196 8.29287 21.7071C8.48041 21.8946 8.73476 22 8.99998 22H15C15.2652 22 15.5195 21.8946 15.7071 21.7071C15.8946 21.5196 16 21.2652 16 21C16 20.7348 15.8946 20.4804 15.7071 20.2929C15.5195 20.1054 15.2652 20 15 20H13V12H16C16.2652 12 16.5195 11.8946 16.7071 11.7071C16.8946 11.5196 17 11.2652 17 11V6C17 5.73478 16.8946 5.48043 16.7071 5.29289C16.5195 5.10536 16.2652 5 16 5ZM15 10H6.47998L5.27998 8.5L6.47998 7H15V10Z" fill="#414853"/>
</svg>
