<svg width="24" height="24" viewBox="0 0 24 24" fill="none" xmlns="http://www.w3.org/2000/svg">
<path d="M21.9733 6.68079C21.9721 6.32058 21.939 5.96119 21.8746 5.60679C21.8027 5.17355 21.6659 4.75362 21.4689 4.36113C21.2532 3.94866 20.9724 3.57372 20.6372 3.25077C20.131 2.75525 19.5056 2.39843 18.8215 2.2147C18.1932 2.0624 17.5477 1.99354 16.9015 2.00987L16.8978 2H7.09906L7.09851 2.00989C6.73094 2.007 6.36347 2.02344 5.99762 2.05914C5.59671 2.10188 5.20208 2.19073 4.82153 2.32391C4.19453 2.56035 3.63213 2.94131 3.17997 3.43586C2.72781 3.93041 2.39864 4.52461 2.21918 5.17023C2.06797 5.79342 1.9991 6.43374 2.01434 7.07483L2.00775 16.913V16.9139C2.0065 17.3594 2.03676 17.8044 2.09833 18.2456C2.1652 18.7125 2.30322 19.1663 2.50757 19.5914C2.7958 20.1586 3.2062 20.655 3.70923 21.0447C4.06854 21.331 4.47559 21.5516 4.91162 21.6964C5.55173 21.8943 6.21852 21.9922 6.88849 21.9869C7.30786 21.9895 7.72693 22 8.14649 21.9982C11.1931 21.9854 14.2398 22.0202 17.2866 21.9794C17.689 21.9706 18.09 21.928 18.4854 21.852C19.2327 21.7205 19.9282 21.3821 20.493 20.8754C21.1583 20.297 21.6228 19.5224 21.8195 18.6631C21.9407 18.0877 21.9986 17.5008 21.9922 16.9129V16.7957C21.9922 16.7502 21.9749 6.81219 21.9733 6.68079ZM19.2972 15.9306C19.1694 16.23 18.5232 16.4782 17.4293 16.6472C17.3267 16.663 17.2834 16.829 17.2242 17.1007C17.1998 17.2128 17.1749 17.3228 17.1408 17.4384C17.1306 17.4871 17.103 17.5304 17.0632 17.5602C17.0234 17.59 16.9741 17.6042 16.9245 17.6002H16.9074C16.8026 17.5965 16.6985 17.5833 16.5961 17.5609C16.3263 17.5044 16.0514 17.4753 15.7758 17.474C15.5775 17.4745 15.3797 17.4912 15.1841 17.524C14.7716 17.6285 14.3878 17.8245 14.0613 18.0975C13.5093 18.5688 12.8157 18.8422 12.0906 18.8743C12.0491 18.8743 12.0095 18.8728 11.9794 18.8713C11.9555 18.8734 11.9309 18.8743 11.9061 18.8743C11.1815 18.8424 10.4883 18.5692 9.93665 18.0981C9.6098 17.8248 9.22565 17.6285 8.81265 17.5239C8.61718 17.4911 8.41936 17.4744 8.22116 17.4739C7.94527 17.4768 7.67041 17.5079 7.40085 17.5667C7.29861 17.5905 7.1945 17.6054 7.08969 17.6113C7.03689 17.6174 6.98374 17.6036 6.94055 17.5726C6.89736 17.5416 6.86722 17.4957 6.85599 17.4438C6.8215 17.3267 6.79678 17.2132 6.77292 17.1039C6.71323 16.8308 6.66992 16.6641 6.56772 16.6483C5.474 16.4795 4.82782 16.231 4.69916 15.93C4.68604 15.8999 4.67835 15.8678 4.67645 15.835C4.67403 15.7917 4.68767 15.7491 4.71477 15.7153C4.74187 15.6815 4.7805 15.6589 4.82324 15.6519C5.72769 15.4881 6.54269 15.0035 7.11859 14.2871C7.43559 13.9203 7.69916 13.5106 7.90149 13.0701L7.90549 13.0617C7.96507 12.9641 8.00264 12.8548 8.01556 12.7412C8.02849 12.6277 8.01646 12.5127 7.98032 12.4043C7.83939 12.072 7.37271 11.9239 7.06393 11.8259C6.98715 11.8017 6.91452 11.7787 6.85666 11.7556C6.58292 11.6475 6.13278 11.4191 6.19272 11.1038C6.23864 10.985 6.32055 10.8836 6.42698 10.8136C6.53341 10.7437 6.65903 10.7088 6.78628 10.7138C6.84807 10.7124 6.9094 10.7246 6.96591 10.7497C7.19637 10.8677 7.44963 10.9346 7.70834 10.9457C7.86211 10.9566 8.01447 10.9101 8.13583 10.815C8.12778 10.6691 8.119 10.5232 8.10947 10.3774C7.96884 9.39162 8.02892 8.38763 8.2861 7.4257C8.58849 6.73525 9.08756 6.14917 9.721 5.74063C10.3544 5.33208 11.0942 5.11917 11.8479 5.12848L12.1426 5.12573C12.8974 5.11611 13.6383 5.32898 14.2728 5.73777C14.9074 6.14657 15.4075 6.7332 15.7108 7.42444C15.968 8.38725 16.028 9.39209 15.8872 10.3787L15.8842 10.4264C15.8756 10.5621 15.8677 10.6905 15.8609 10.8149C15.9711 10.902 16.1083 10.9479 16.2487 10.9446C16.4924 10.9263 16.73 10.8601 16.9481 10.7498C17.0204 10.7185 17.0985 10.703 17.1772 10.7044C17.2666 10.704 17.3552 10.721 17.4382 10.7543L17.4423 10.7559C17.5361 10.7782 17.6212 10.828 17.6866 10.8989C17.752 10.9698 17.7948 11.0586 17.8094 11.1539C17.8122 11.3067 17.6986 11.5351 17.1401 11.7557C17.0829 11.7784 17.0099 11.8015 16.9328 11.826C16.6238 11.9241 16.1575 12.0721 16.0165 12.4042C15.9803 12.5125 15.9683 12.6275 15.9812 12.7411C15.9941 12.8546 16.0317 12.9639 16.0914 13.0614L16.0954 13.07C16.3748 13.7084 16.7981 14.2736 17.3321 14.7215C17.8661 15.1693 18.4963 15.4877 19.1737 15.6517C19.2164 15.6588 19.255 15.6814 19.2821 15.7152C19.3092 15.749 19.3228 15.7916 19.3204 15.8348C19.3184 15.8679 19.3106 15.9003 19.2972 15.9306Z" fill="#414853"/>
</svg>
