<svg width="24" height="24" viewBox="0 0 24 24" fill="none" xmlns="http://www.w3.org/2000/svg">
<path d="M8.5 17H5.91406L6.20706 16.707C6.39262 16.5191 6.4963 16.2654 6.49547 16.0013C6.49463 15.7372 6.38934 15.4841 6.20259 15.2974C6.01585 15.1107 5.7628 15.0054 5.49871 15.0046C5.23461 15.0037 4.98091 15.1074 4.793 15.293L2.7933 17.2927C2.60648 17.4807 2.50163 17.735 2.50163 18C2.50163 18.2651 2.60648 18.5194 2.7933 18.7074L4.793 20.707C4.98109 20.8917 5.23451 20.9947 5.49812 20.9935C5.76174 20.9923 6.01422 20.887 6.20063 20.7006C6.38703 20.5142 6.49228 20.2617 6.49348 19.9981C6.49467 19.7345 6.39171 19.4811 6.207 19.293L5.91406 19H8.5C8.76522 19 9.01957 18.8946 9.20711 18.7071C9.39464 18.5196 9.5 18.2652 9.5 18C9.5 17.7348 9.39464 17.4804 9.20711 17.2929C9.01957 17.1054 8.76522 17 8.5 17ZM21.2067 17.2927L19.207 15.293C19.0189 15.1083 18.7655 15.0053 18.5019 15.0065C18.2383 15.0077 17.9858 15.113 17.7994 15.2994C17.613 15.4858 17.5077 15.7383 17.5065 16.0019C17.5053 16.2655 17.6083 16.5189 17.793 16.707L18.086 17H15.5C15.2348 17 14.9804 17.1054 14.7929 17.2929C14.6054 17.4804 14.5 17.7348 14.5 18C14.5 18.2652 14.6054 18.5196 14.7929 18.7071C14.9804 18.8946 15.2348 19 15.5 19H18.0859L17.7929 19.293C17.6991 19.3856 17.6246 19.4959 17.5736 19.6175C17.5225 19.739 17.496 19.8695 17.4956 20.0013C17.4952 20.1332 17.5209 20.2638 17.5711 20.3857C17.6214 20.5075 17.6953 20.6183 17.7885 20.7115C17.8817 20.8047 17.9925 20.8786 18.1144 20.9288C18.2362 20.9791 18.3669 21.0048 18.4987 21.0043C18.6305 21.0039 18.761 20.9774 18.8825 20.9264C19.0041 20.8754 19.1144 20.8008 19.207 20.707L21.2067 18.7073C21.3935 18.5193 21.4984 18.265 21.4984 18C21.4984 17.7349 21.3935 17.4806 21.2067 17.2926L21.2067 17.2927ZM20.6403 9.77179C21.1913 9.14291 21.4966 8.33614 21.5 7.5C21.5 6.57174 21.1313 5.6815 20.4749 5.02513C19.8185 4.36875 18.9283 4 18 4C17.0717 4 16.1815 4.36875 15.5251 5.02513C14.8687 5.6815 14.5 6.57174 14.5 7.5C14.5034 8.33614 14.8087 9.14291 15.3597 9.77179C14.6397 10.2182 14.0453 10.8406 13.6324 11.5804C13.2196 12.3201 13.0019 13.1528 13 14C13 14.2652 13.1054 14.5196 13.2929 14.7071C13.4804 14.8946 13.7348 15 14 15C14.2652 15 14.5196 14.8946 14.7071 14.7071C14.8946 14.5196 15 14.2652 15 14C15 13.2044 15.3161 12.4413 15.8787 11.8787C16.4413 11.3161 17.2044 11 18 11C18.7956 11 19.5587 11.3161 20.1213 11.8787C20.6839 12.4413 21 13.2044 21 14C21 14.2652 21.1054 14.5196 21.2929 14.7071C21.4804 14.8946 21.7348 15 22 15C22.2652 15 22.5196 14.8946 22.7071 14.7071C22.8946 14.5196 23 14.2652 23 14C22.9981 13.1528 22.7804 12.3201 22.3676 11.5804C21.9547 10.8406 21.3603 10.2182 20.6403 9.77179ZM18 9C17.7033 9 17.4133 8.91203 17.1666 8.7472C16.92 8.58238 16.7277 8.34811 16.6142 8.07403C16.5007 7.79994 16.4709 7.49834 16.5288 7.20736C16.5867 6.91639 16.7296 6.64912 16.9393 6.43934C17.1491 6.22956 17.4164 6.0867 17.7074 6.02882C17.9983 5.97094 18.2999 6.00065 18.574 6.11418C18.8481 6.22771 19.0824 6.41997 19.2472 6.66664C19.412 6.91332 19.5 7.20333 19.5 7.5C19.4996 7.89769 19.3414 8.27897 19.0602 8.56018C18.779 8.84139 18.3977 8.99957 18 9ZM8.64026 9.77179C9.1913 9.14291 9.49662 8.33614 9.5 7.5C9.5 6.57174 9.13125 5.6815 8.47487 5.02513C7.8185 4.36875 6.92826 4 6 4C5.07174 4 4.1815 4.36875 3.52513 5.02513C2.86875 5.6815 2.5 6.57174 2.5 7.5C2.50338 8.33614 2.8087 9.14291 3.35974 9.77179C2.63973 10.2182 2.04527 10.8406 1.63242 11.5804C1.21957 12.3201 1.00192 13.1528 1 14C1 14.2652 1.10536 14.5196 1.29289 14.7071C1.48043 14.8946 1.73478 15 2 15C2.26522 15 2.51957 14.8946 2.70711 14.7071C2.89464 14.5196 3 14.2652 3 14C3 13.2044 3.31607 12.4413 3.87868 11.8787C4.44129 11.3161 5.20435 11 6 11C6.79565 11 7.55871 11.3161 8.12132 11.8787C8.68393 12.4413 9 13.2044 9 14C9 14.2652 9.10536 14.5196 9.29289 14.7071C9.48043 14.8946 9.73478 15 10 15C10.2652 15 10.5196 14.8946 10.7071 14.7071C10.8946 14.5196 11 14.2652 11 14C10.9981 13.1528 10.7804 12.3201 10.3676 11.5804C9.95473 10.8406 9.36027 10.2182 8.64026 9.77179ZM6 9C5.70333 9 5.41332 8.91203 5.16664 8.7472C4.91997 8.58238 4.72771 8.34811 4.61418 8.07403C4.50065 7.79994 4.47094 7.49834 4.52882 7.20736C4.5867 6.91639 4.72956 6.64912 4.93934 6.43934C5.14912 6.22956 5.41639 6.0867 5.70736 6.02882C5.99834 5.97094 6.29994 6.00065 6.57403 6.11418C6.84811 6.22771 7.08238 6.41997 7.2472 6.66664C7.41203 6.91332 7.5 7.20333 7.5 7.5C7.49957 7.89769 7.34139 8.27897 7.06018 8.56018C6.77897 8.84139 6.39769 8.99957 6 9Z" fill="#414853"/>
</svg>
