<svg width="24" height="24" viewBox="0 0 24 24" fill="none" xmlns="http://www.w3.org/2000/svg">
<path d="M11.06 20.1C10.813 19.9859 10.5918 19.8226 10.41 19.62C10.0872 19.308 9.8556 18.9139 9.74002 18.48C9.51751 17.6785 9.06148 16.9614 8.43002 16.42C8.55203 15.8333 8.52438 15.2253 8.34961 14.6521C8.17485 14.0789 7.8586 13.5589 7.43002 13.14C6.86412 12.4907 6.06554 12.0901 5.20673 12.0246C4.34793 11.9591 3.49783 12.234 2.84002 12.79C2.28344 13.4495 2.00822 14.3012 2.07369 15.1616C2.13916 16.0221 2.54007 16.8224 3.19002 17.39C3.78405 17.9954 4.56053 18.389 5.40002 18.51H5.76002C6.30147 18.5117 6.83217 18.359 7.29002 18.07C7.53866 18.3299 7.71455 18.6507 7.80002 19C8.01554 19.7613 8.4297 20.4516 9.00002 21C9.34543 21.3613 9.7516 21.6592 10.2 21.88C10.3372 21.9464 10.4877 21.9806 10.64 21.98C10.8667 21.981 11.087 21.9048 11.2648 21.7641C11.4425 21.6234 11.5672 21.4265 11.6184 21.2056C11.6695 20.9848 11.6441 20.7531 11.5463 20.5486C11.4485 20.3441 11.2841 20.1788 11.08 20.08L11.06 20.1ZM6.32002 16.33C6.22423 16.4108 6.11195 16.4696 5.99103 16.5024C5.87012 16.5352 5.7435 16.5413 5.62002 16.52C5.21828 16.4708 4.84484 16.2876 4.56002 16C3.99002 15.44 3.83002 14.61 4.20002 14.23C4.35509 14.0956 4.55491 14.0243 4.76002 14.03C5.22642 14.0393 5.67098 14.2294 6.00002 14.56C6.29864 14.8405 6.49265 15.2144 6.55002 15.62C6.56748 15.748 6.55587 15.8784 6.51606 16.0013C6.47624 16.1242 6.40923 16.2366 6.32002 16.33ZM21.32 10.21C20.9716 10.0935 20.6585 9.89054 20.41 9.62002C20.0872 9.30798 19.8556 8.91385 19.74 8.48002C19.5175 7.67855 19.0615 6.96144 18.43 6.42002C18.5458 5.82912 18.5103 5.21852 18.3267 4.64504C18.1431 4.07156 17.8175 3.55383 17.38 3.14002C16.8141 2.49072 16.0155 2.09006 15.1567 2.02458C14.2979 1.95909 13.4478 2.23403 12.79 2.79002C12.2334 3.44947 11.9582 4.3012 12.0237 5.16165C12.0892 6.0221 12.4901 6.82238 13.14 7.39002C13.7471 8.00526 14.5428 8.39955 15.4 8.51002H15.76C16.3015 8.51167 16.8322 8.35905 17.29 8.07002C17.5387 8.32992 17.7146 8.65065 17.8 9.00002C18.019 9.75982 18.4327 10.4492 19 11C19.4746 11.4878 20.0568 11.8576 20.7 12.08C20.8041 12.1105 20.9116 12.1273 21.02 12.13C21.2297 12.1306 21.4342 12.0652 21.6047 11.9432C21.7751 11.8212 21.9029 11.6486 21.97 11.45C22.0455 11.1994 22.0197 10.9291 21.8982 10.6973C21.7767 10.4655 21.5691 10.2905 21.32 10.21ZM16.32 6.33002C16.2242 6.41077 16.1119 6.46961 15.991 6.50243C15.8701 6.53525 15.7435 6.54125 15.62 6.52002C15.2183 6.4708 14.8448 6.2876 14.56 6.00002C13.99 5.44002 13.83 4.61002 14.2 4.23002C14.3551 4.09564 14.5549 4.02428 14.76 4.03002C15.2264 4.03934 15.671 4.22935 16 4.56002C16.2986 4.84047 16.4927 5.2144 16.55 5.62002C16.5675 5.74804 16.5559 5.87836 16.5161 6.00127C16.4762 6.12419 16.4092 6.23656 16.32 6.33002ZM21.71 20.45C21.5138 19.67 21.1098 18.9577 20.5411 18.389C19.9723 17.8202 19.2601 17.4162 18.48 17.22C17.9539 17.0708 17.4751 16.7883 17.09 16.4C16.7009 16.0229 16.4239 15.5452 16.29 15.02C16.0728 14.2384 15.6548 13.5272 15.0777 12.957C14.5005 12.3869 13.7843 11.9777 13 11.77C12.4747 11.6366 11.9969 11.3596 11.62 10.97C11.2285 10.5891 10.9484 10.1085 10.81 9.58002C10.6228 8.89193 10.2807 8.25574 9.81002 7.72002C9.9696 7.23698 10.0341 6.7276 10 6.22002C9.86316 5.15531 9.36968 4.16835 8.60002 3.42002C7.848 2.64094 6.85373 2.14028 5.78002 2.00002C5.27141 1.94903 4.75783 2.01235 4.27684 2.18537C3.79585 2.35839 3.35961 2.63672 3.00002 3.00002C2.63672 3.35961 2.35839 3.79585 2.18537 4.27684C2.01235 4.75783 1.94903 5.27141 2.00002 5.78002C2.13689 6.84474 2.63037 7.8317 3.40002 8.58002C4.15205 9.3591 5.14632 9.85976 6.22002 10H6.65002C7.36321 10.0154 8.06309 9.80547 8.65002 9.40002C8.78771 9.62016 8.89217 9.8594 8.96002 10.11C9.1955 10.9701 9.65152 11.7538 10.2829 12.3834C10.9144 13.0131 11.6993 13.4669 12.56 13.7C12.999 13.8205 13.3989 14.0537 13.7199 14.3765C14.0409 14.6992 14.2719 15.1004 14.39 15.54C14.6231 16.4024 15.0781 17.1886 15.7098 17.8203C16.3414 18.4519 17.1276 18.907 17.99 19.14C18.4278 19.2631 18.825 19.5001 19.1413 19.8269C19.4575 20.1536 19.6814 20.5585 19.79 21C19.8299 21.1577 19.8834 21.3116 19.95 21.46C20.0337 21.6216 20.1599 21.7572 20.3149 21.8524C20.47 21.9475 20.6481 21.9986 20.83 22C20.9817 21.9946 21.1309 21.9606 21.27 21.9C21.51 21.7873 21.6954 21.5838 21.7854 21.3344C21.8754 21.085 21.8627 20.8101 21.75 20.57C21.75 20.57 21.72 20.47 21.71 20.45ZM7.64002 7.64002C7.00002 8.27002 5.72002 8.05002 4.83002 7.17002C4.38138 6.74107 4.08919 6.1743 4.00002 5.56002C3.96659 5.34657 3.98063 5.12838 4.04112 4.92097C4.10161 4.71356 4.20708 4.52203 4.35002 4.36002C4.62251 4.11229 4.98216 3.98282 5.35002 4.00002C6.04385 4.03196 6.69892 4.32907 7.18002 4.83002C7.62499 5.26042 7.91358 5.82703 8.00002 6.44002C8.03212 6.65421 8.0165 6.87285 7.95426 7.0803C7.89203 7.28774 7.78472 7.47887 7.64002 7.64002Z" fill="#414853"/>
</svg>
