<svg width="24" height="24" viewBox="0 0 24 24" fill="none" xmlns="http://www.w3.org/2000/svg">
<path d="M5.1 16C4.8 15.5 4.2 15.4 3.7 15.6C3.2 15.9 3.1 16.5 3.3 17C3.6 17.5 4.2 17.6 4.7 17.4C5.2 17.1 5.3 16.5 5.1 16ZM4.7 6.6C4.2 6.4 3.6 6.5 3.3 7C3.1 7.5 3.2 8.1 3.7 8.4C4.2 8.6 4.8 8.5 5.1 8C5.3 7.5 5.2 6.9 4.7 6.6ZM20.3 8.4C20.8 8.1 20.9 7.5 20.7 7C20.4 6.5 19.8 6.4 19.3 6.6C18.8 6.9 18.7 7.5 18.9 8C19.2 8.5 19.8 8.6 20.3 8.4ZM4 12C4 11.4 3.6 11 3 11C2.4 11 2 11.4 2 12C2 12.6 2.4 13 3 13C3.6 13 4 12.6 4 12ZM7.2 18.8C6.7 18.9 6.3 19.5 6.5 20C6.6 20.5 7.2 20.9 7.7 20.7C8.2 20.6 8.6 20 8.4 19.5C8.3 19 7.8 18.7 7.2 18.8ZM21 11C20.4 11 20 11.4 20 12C20 12.6 20.4 13 21 13C21.6 13 22 12.6 22 12C22 11.4 21.6 11 21 11ZM20.3 15.6C19.8 15.3 19.2 15.5 18.9 16C18.6 16.5 18.8 17.1 19.3 17.4C19.8 17.7 20.4 17.5 20.7 17C20.9 16.5 20.8 15.9 20.3 15.6ZM17 3.3C16.5 3 15.9 3.2 15.6 3.7C15.3 4.2 15.5 4.8 16 5.1C16.5 5.4 17.1 5.2 17.4 4.7C17.6 4.2 17.5 3.6 17 3.3ZM16.8 18.8C16.3 18.7 15.7 19 15.6 19.5C15.5 20 15.8 20.6 16.3 20.7C16.8 20.8 17.4 20.5 17.5 20C17.6 19.5 17.3 19 16.8 18.8ZM12 20C11.4 20 11 20.4 11 21C11 21.6 11.4 22 12 22C12.6 22 13 21.6 13 21C13 20.4 12.6 20 12 20ZM12 2C11.4 2 11 2.4 11 3C11 3.6 11.4 4 12 4C12.6 4 13 3.6 13 3C13 2.4 12.6 2 12 2Z" fill="#414853"/>
</svg>
