<svg width="24" height="24" viewBox="0 0 24 24" fill="none" xmlns="http://www.w3.org/2000/svg">
<path d="M19 8C18.293 7.99823 17.6082 8.24685 17.067 8.70179C16.5257 9.15673 16.1631 9.7886 16.0433 10.4854C15.9235 11.1822 16.0542 11.8989 16.4124 12.5085C16.7706 13.1181 17.333 13.5812 18 13.8157V15.5C18 16.6935 17.5259 17.8381 16.682 18.682C15.8381 19.5259 14.6935 20 13.5 20C12.3065 20 11.1619 19.5259 10.318 18.682C9.47412 17.8381 9.00001 16.6935 9.00001 15.5V14.4805L12.124 11.9819C12.7108 11.5146 13.1843 10.9207 13.5091 10.2446C13.834 9.56853 14.0018 8.82773 14 8.07764V3C14 2.73478 13.8947 2.48043 13.7071 2.29289C13.5196 2.10536 13.2652 2 13 2H11C10.7348 2 10.4804 2.10536 10.2929 2.29289C10.1054 2.48043 10 2.73478 10 3C10 3.26522 10.1054 3.51957 10.2929 3.70711C10.4804 3.89464 10.7348 4 11 4H12V8.07764C12.0011 8.52771 11.9004 8.97221 11.7055 9.3779C11.5106 9.78359 11.2266 10.14 10.8745 10.4204L8.00001 12.7192L5.12601 10.4204C4.77383 10.1401 4.48961 9.78373 4.29462 9.37802C4.09963 8.97232 3.99891 8.52777 4.00001 8.07764V4H5.00001C5.26523 4 5.51958 3.89464 5.70712 3.70711C5.89466 3.51957 6.00001 3.26522 6.00001 3C6.00001 2.73478 5.89466 2.48043 5.70712 2.29289C5.51958 2.10536 5.26523 2 5.00001 2H3.00001C2.7348 2 2.48044 2.10536 2.29291 2.29289C2.10537 2.48043 2.00001 2.73478 2.00001 3V8.07764C1.9982 8.82778 2.16605 9.56863 2.491 10.2447C2.81595 10.9208 3.28959 11.5147 3.87647 11.9819L7.00001 14.4804V15.5C7.00001 17.2239 7.68483 18.8772 8.90382 20.0962C10.1228 21.3152 11.7761 22 13.5 22C15.2239 22 16.8772 21.3152 18.0962 20.0962C19.3152 18.8772 20 17.2239 20 15.5V13.8157C20.667 13.5812 21.2295 13.1181 21.5876 12.5085C21.9458 11.899 22.0765 11.1822 21.9567 10.4854C21.8369 9.78864 21.4743 9.15676 20.9331 8.70182C20.3918 8.24687 19.707 7.99824 19 8ZM19 12C18.8022 12 18.6089 11.9414 18.4444 11.8315C18.28 11.7216 18.1518 11.5654 18.0761 11.3827C18.0004 11.2 17.9806 10.9989 18.0192 10.8049C18.0578 10.6109 18.1531 10.4327 18.2929 10.2929C18.4328 10.153 18.6109 10.0578 18.8049 10.0192C18.9989 9.98063 19.2 10.0004 19.3827 10.0761C19.5654 10.1518 19.7216 10.28 19.8315 10.4444C19.9414 10.6089 20 10.8022 20 11C19.9997 11.2651 19.8942 11.5193 19.7067 11.7067C19.5193 11.8942 19.2651 11.9997 19 12Z" fill="#414853"/>
</svg>
