<svg width="24" height="24" viewBox="0 0 24 24" fill="none" xmlns="http://www.w3.org/2000/svg">
<path d="M19 8C18.293 7.99823 17.6082 8.24685 17.0669 8.70179C16.5257 9.15673 16.1631 9.7886 16.0433 10.4854C15.9234 11.1822 16.0542 11.8989 16.4124 12.5085C16.7706 13.1181 17.333 13.5812 18 13.8157V15.5C18 16.6935 17.5259 17.8381 16.682 18.682C15.8381 19.5259 14.6935 20 13.5 20C12.3065 20 11.1619 19.5259 10.318 18.682C9.47411 17.8381 9 16.6935 9 15.5V14.9097C10.3966 14.6727 11.6645 13.9496 12.5795 12.8681C13.4944 11.7867 13.9976 10.4166 14 9V3C14 2.73478 13.8946 2.48043 13.7071 2.29289C13.5196 2.10536 13.2652 2 13 2H11C10.7348 2 10.4804 2.10536 10.2929 2.29289C10.1054 2.48043 10 2.73478 10 3C10 3.26522 10.1054 3.51957 10.2929 3.70711C10.4804 3.89464 10.7348 4 11 4H12V9C12 10.0609 11.5786 11.0783 10.8284 11.8284C10.0783 12.5786 9.06087 13 8 13C6.93913 13 5.92172 12.5786 5.17157 11.8284C4.42143 11.0783 4 10.0609 4 9V4H5C5.26522 4 5.51957 3.89464 5.70711 3.70711C5.89464 3.51957 6 3.26522 6 3C6 2.73478 5.89464 2.48043 5.70711 2.29289C5.51957 2.10536 5.26522 2 5 2H3C2.73478 2 2.48043 2.10536 2.29289 2.29289C2.10536 2.48043 2 2.73478 2 3V9C2.00241 10.4166 2.50557 11.7867 3.42055 12.8681C4.33552 13.9496 5.60338 14.6727 7 14.9097V15.5C7 17.2239 7.68482 18.8772 8.90381 20.0962C10.1228 21.3152 11.7761 22 13.5 22C15.2239 22 16.8772 21.3152 18.0962 20.0962C19.3152 18.8772 20 17.2239 20 15.5V13.8157C20.667 13.5812 21.2294 13.1181 21.5876 12.5085C21.9458 11.899 22.0765 11.1822 21.9567 10.4854C21.8369 9.78864 21.4743 9.15676 20.933 8.70182C20.3918 8.24687 19.707 7.99824 19 8ZM19 12C18.8022 12 18.6089 11.9414 18.4444 11.8315C18.28 11.7216 18.1518 11.5654 18.0761 11.3827C18.0004 11.2 17.9806 10.9989 18.0192 10.8049C18.0578 10.6109 18.153 10.4327 18.2929 10.2929C18.4327 10.153 18.6109 10.0578 18.8049 10.0192C18.9989 9.98063 19.2 10.0004 19.3827 10.0761C19.5654 10.1518 19.7216 10.28 19.8315 10.4444C19.9414 10.6089 20 10.8022 20 11C19.9997 11.2651 19.8942 11.5193 19.7067 11.7067C19.5193 11.8942 19.2651 11.9997 19 12Z" fill="#414853"/>
</svg>
