<svg width="24" height="24" viewBox="0 0 24 24" fill="none" xmlns="http://www.w3.org/2000/svg">
<path d="M17 9.28003C17.3956 9.28003 17.7822 9.16273 18.1111 8.94297C18.44 8.72321 18.6964 8.41085 18.8478 8.0454C18.9991 7.67995 19.0387 7.27781 18.9616 6.88985C18.8844 6.50189 18.6939 6.14552 18.4142 5.86582C18.1345 5.58611 17.7781 5.39563 17.3902 5.31846C17.0022 5.24129 16.6001 5.2809 16.2346 5.43227C15.8692 5.58365 15.5568 5.83999 15.3371 6.16889C15.1173 6.49779 15 6.88447 15 7.28003C15 7.81046 15.2107 8.31917 15.5858 8.69424C15.9609 9.06932 16.4696 9.28003 17 9.28003ZM2.71 13.92C2.90816 13.9834 3.09918 14.0672 3.28 14.17C3.90193 14.5338 4.60948 14.7256 5.33 14.7256C6.05053 14.7256 6.75807 14.5338 7.38 14.17C7.77108 13.9511 8.21179 13.8361 8.66 13.8361C9.10821 13.8361 9.54892 13.9511 9.94 14.17L10.15 14.27C10.7568 14.5654 11.4266 14.708 12.1011 14.6854C12.7756 14.6627 13.4344 14.4755 14.02 14.14C14.4111 13.9211 14.8518 13.8061 15.3 13.8061C15.7482 13.8061 16.1889 13.9211 16.58 14.14C17.2137 14.5022 17.9301 14.6951 18.66 14.7C19.3643 14.6927 20.0543 14.4995 20.66 14.14C20.8408 14.0372 21.0318 13.9534 21.23 13.89C21.3778 13.8799 21.5215 13.837 21.6507 13.7645C21.7799 13.692 21.8914 13.5917 21.9771 13.4708C22.0628 13.35 22.1205 13.2116 22.1462 13.0657C22.1719 12.9198 22.1648 12.77 22.1255 12.6271C22.0862 12.4843 22.0156 12.3519 21.919 12.2397C21.8223 12.1275 21.7018 12.0381 21.5664 11.9781C21.4309 11.9181 21.2838 11.8889 21.1357 11.8927C20.9876 11.8965 20.8422 11.9332 20.71 12C20.3611 12.1083 20.0256 12.2559 19.71 12.44C19.3908 12.6243 19.0286 12.7214 18.66 12.7214C18.2914 12.7214 17.9292 12.6243 17.61 12.44C16.9173 12.0492 16.1354 11.8439 15.34 11.8439C14.5446 11.8439 13.7627 12.0492 13.07 12.44C12.9759 12.486 12.8791 12.5261 12.78 12.56L14.34 11C14.3758 10.9537 14.406 10.9034 14.43 10.85C14.4752 10.8008 14.5154 10.7472 14.55 10.69C14.5547 10.6268 14.5547 10.5633 14.55 10.5C14.5557 10.4368 14.5557 10.3732 14.55 10.31C14.5548 10.2501 14.5548 10.1899 14.55 10.13C14.5557 10.0668 14.5557 10.0032 14.55 9.94003C14.5204 9.88124 14.487 9.82446 14.45 9.77003C14.424 9.71243 14.3904 9.65861 14.35 9.61003L11.28 6.28003C11.1992 6.19198 11.1047 6.11767 11 6.06003C10.9303 6.0508 10.8597 6.0508 10.79 6.06003C10.7337 6.05088 10.6763 6.05088 10.62 6.06003C10.4869 6.00647 10.3428 5.98588 10.2 6.00003L6.66 7.32003C6.41076 7.41029 6.20756 7.59582 6.09505 7.83584C5.98255 8.07585 5.96994 8.35072 6.06 8.60003C6.15026 8.84927 6.33579 9.05247 6.57581 9.16498C6.81582 9.27748 7.09069 9.29009 7.34 9.20003L10.27 8.13003L12.27 10.25L10.37 12.15C9.7334 11.9026 9.04986 11.7993 8.36857 11.8477C7.68728 11.8962 7.0252 12.095 6.43 12.43C6.11076 12.6143 5.74863 12.7114 5.38 12.7114C5.01137 12.7114 4.64924 12.6143 4.33 12.43C4.01442 12.2459 3.67893 12.0983 3.33 11.99C3.20205 11.9423 3.06568 11.9213 2.92929 11.9283C2.79291 11.9352 2.6594 11.9701 2.53699 12.0306C2.41459 12.0912 2.30589 12.1762 2.21759 12.2804C2.12929 12.3845 2.06326 12.5057 2.02358 12.6364C1.9839 12.7671 1.97141 12.9045 1.98687 13.0402C2.00233 13.1758 2.04542 13.3069 2.11348 13.4253C2.18154 13.5437 2.27313 13.6469 2.3826 13.7286C2.49208 13.8102 2.61711 13.8686 2.75 13.9L2.71 13.92ZM20.71 17.01C20.3611 17.1183 20.0256 17.2659 19.71 17.45C19.3908 17.6343 19.0286 17.7314 18.66 17.7314C18.2914 17.7314 17.9292 17.6343 17.61 17.45C16.9173 17.0592 16.1354 16.8539 15.34 16.8539C14.5446 16.8539 13.7627 17.0592 13.07 17.45C12.7481 17.6371 12.3823 17.7356 12.01 17.7356C11.6377 17.7356 11.2719 17.6371 10.95 17.45C10.2573 17.0592 9.47537 16.8539 8.68 16.8539C7.88464 16.8539 7.10274 17.0592 6.41 17.45C6.09076 17.6343 5.72863 17.7314 5.36 17.7314C4.99137 17.7314 4.62924 17.6343 4.31 17.45C3.99442 17.2659 3.65893 17.1183 3.31 17.01C3.18205 16.9623 3.04568 16.9413 2.90929 16.9483C2.77291 16.9552 2.6394 16.9901 2.51699 17.0506C2.39459 17.1112 2.28589 17.1962 2.19759 17.3004C2.10929 17.4045 2.04326 17.5257 2.00358 17.6564C1.9639 17.7871 1.95141 17.9245 1.96687 18.0602C1.98233 18.1958 2.02542 18.3269 2.09348 18.4453C2.16154 18.5637 2.25313 18.6669 2.3626 18.7486C2.47208 18.8302 2.59711 18.8886 2.73 18.92C2.92816 18.9834 3.11918 19.0672 3.3 19.17C3.92193 19.5338 4.62948 19.7256 5.35 19.7256C6.07053 19.7256 6.77807 19.5338 7.4 19.17C7.79108 18.9511 8.23179 18.8361 8.68 18.8361C9.12821 18.8361 9.56892 18.9511 9.96 19.17C10.5873 19.5287 11.2974 19.7174 12.02 19.7174C12.7426 19.7174 13.4527 19.5287 14.08 19.17C14.4711 18.9511 14.9118 18.8361 15.36 18.8361C15.8082 18.8361 16.2489 18.9511 16.64 19.17C17.2737 19.5322 17.9901 19.7251 18.72 19.73C19.4243 19.7227 20.1143 19.5295 20.72 19.17C20.9008 19.0672 21.0918 18.9834 21.29 18.92C21.4161 18.8819 21.5334 18.8194 21.6353 18.736C21.7372 18.6525 21.8217 18.5499 21.8839 18.4338C21.9461 18.3177 21.9848 18.1905 21.9979 18.0595C22.011 17.9284 21.9981 17.7961 21.96 17.67C21.9219 17.544 21.8594 17.4266 21.7759 17.3247C21.6925 17.2228 21.5898 17.1384 21.4738 17.0761C21.3577 17.0139 21.2305 16.9752 21.0995 16.9621C20.9684 16.9491 20.8361 16.9619 20.71 17V17.01Z" fill="#414853"/>
</svg>
