<svg width="24" height="24" viewBox="0 0 24 24" fill="none" xmlns="http://www.w3.org/2000/svg">
<path d="M21.71 2.28994C21.617 2.19621 21.5064 2.12182 21.3846 2.07105C21.2627 2.02028 21.132 1.99414 21 1.99414C20.868 1.99414 20.7373 2.02028 20.6154 2.07105C20.4936 2.12182 20.383 2.19621 20.29 2.28994L18.17 4.40994L17.46 3.70994C17.2726 3.52369 17.0192 3.41915 16.755 3.41915C16.4908 3.41915 16.2374 3.52369 16.05 3.70994L14.64 5.11994L13.93 4.40994C13.837 4.31621 13.7264 4.24182 13.6046 4.19105C13.4827 4.14028 13.352 4.11414 13.22 4.11414C13.088 4.11414 12.9573 4.14028 12.8354 4.19105C12.7136 4.24182 12.603 4.31621 12.51 4.40994L4.74 12.1899L4 11.4899C3.80591 11.3543 3.56998 11.2919 3.3342 11.3139C3.09843 11.3359 2.87812 11.4409 2.71249 11.6101C2.54686 11.7794 2.44666 12.0019 2.42972 12.2381C2.41279 12.4743 2.48021 12.7088 2.62 12.8999L6.15 16.4399L4.42 18.1799L3.71 17.4599C3.5217 17.2716 3.2663 17.1658 3 17.1658C2.7337 17.1658 2.47831 17.2716 2.29 17.4599C2.1017 17.6482 1.99591 17.9036 1.99591 18.1699C1.99591 18.4362 2.1017 18.6916 2.29 18.8799L5.12 21.7099C5.21344 21.8026 5.32426 21.8759 5.4461 21.9257C5.56793 21.9755 5.6984 22.0007 5.83 21.9999C5.96161 22.0007 6.09207 21.9755 6.21391 21.9257C6.33575 21.8759 6.44656 21.8026 6.54 21.7099C6.63373 21.617 6.70813 21.5064 6.75889 21.3845C6.80966 21.2627 6.8358 21.132 6.8358 20.9999C6.8358 20.8679 6.80966 20.7372 6.75889 20.6154C6.70813 20.4935 6.63373 20.3829 6.54 20.2899L5.83 19.5899L7.57 17.8499L11.1 21.3799C11.1926 21.4744 11.3031 21.5496 11.4249 21.6011C11.5468 21.6526 11.6777 21.6794 11.81 21.6799C12.0078 21.6791 12.2009 21.6197 12.3648 21.5091C12.5288 21.3985 12.6563 21.2418 12.7313 21.0588C12.8062 20.8758 12.8252 20.6746 12.7858 20.4808C12.7464 20.287 12.6504 20.1092 12.51 19.9699L11.81 19.2599L19.59 11.4899C19.6837 11.397 19.7581 11.2864 19.8089 11.1645C19.8597 11.0427 19.8858 10.912 19.8858 10.7799C19.8858 10.6479 19.8597 10.5172 19.8089 10.3954C19.7581 10.2735 19.6837 10.1629 19.59 10.0699L18.88 9.35994L20.29 7.99994C20.4763 7.81258 20.5808 7.55912 20.5808 7.29494C20.5808 7.03075 20.4763 6.7773 20.29 6.58994L19.59 5.87994L21.71 3.75994C21.8115 3.6663 21.8925 3.55264 21.9479 3.42615C22.0033 3.29965 22.0319 3.16304 22.0319 3.02494C22.0319 2.88684 22.0033 2.75023 21.9479 2.62373C21.8925 2.49723 21.8115 2.38358 21.71 2.28994ZM7.57 14.9999L6.15 13.6099L7.56 12.1899L9 13.6099L7.57 14.9999ZM10.39 17.8299L9 16.4399L10.39 14.9999L11.81 16.4199L10.39 17.8299ZM13.22 14.9999L9 10.7799L13.24 6.53994L13.95 7.23994L17.48 10.7799L13.22 14.9999ZM17.46 7.99994L16.05 6.53994L16.76 5.82994L17.46 6.52994L18.16 7.22994L17.46 7.99994Z" fill="#414853"/>
</svg>
