<svg width="24" height="24" viewBox="0 0 24 24" fill="none" xmlns="http://www.w3.org/2000/svg">
<path d="M20.54 3.46C19.8402 2.762 18.9493 2.28706 17.9797 2.09515C17.0102 1.90325 16.0055 2.00301 15.0926 2.38181C14.1797 2.76062 13.3996 3.40149 12.8507 4.22346C12.3019 5.04544 12.0089 6.01163 12.0089 7C12.0089 7.98837 12.3019 8.95457 12.8507 9.77654C13.3996 10.5985 14.1797 11.2394 15.0926 11.6182C16.0055 11.997 17.0102 12.0968 17.9797 11.9049C18.9493 11.7129 19.8402 11.238 20.54 10.54C21.0056 10.0755 21.3751 9.52379 21.6271 8.91634C21.8792 8.30889 22.0089 7.65768 22.0089 7C22.0089 6.34233 21.8792 5.69112 21.6271 5.08367C21.3751 4.47621 21.0056 3.92446 20.54 3.46ZM14.88 4.88C15.4421 4.31723 16.2046 4.0007 17 4C17.4436 4.00413 17.8808 4.10659 18.28 4.3L14.28 8.3C14.0131 7.73809 13.9274 7.1071 14.0349 6.49438C14.1424 5.88165 14.4377 5.31749 14.88 4.88ZM19.12 9.12C18.6818 9.55471 18.1201 9.84367 17.5117 9.94747C16.9032 10.0513 16.2775 9.96485 15.72 9.7L19.72 5.7C19.9869 6.26191 20.0726 6.8929 19.9651 7.50563C19.8576 8.11835 19.5623 8.68251 19.12 9.12ZM8 10C7.2189 9.99688 6.44489 10.1481 5.72241 10.445C4.99993 10.7419 4.34322 11.1786 3.79 11.73C2.94343 12.5657 2.36437 13.6342 2.12639 14.7997C1.88841 15.9652 2.00226 17.1751 2.45345 18.2758C2.90465 19.3765 3.67285 20.3182 4.66043 20.9813C5.64802 21.6444 6.81044 21.999 8 22C9.54204 21.9992 11.0246 21.4048 12.14 20.34L12.26 20.26C12.281 20.2219 12.3044 20.1852 12.33 20.15C13.143 19.3011 13.6887 18.2322 13.8995 17.0759C14.1102 15.9195 13.9767 14.7268 13.5155 13.6457C13.0543 12.5646 12.2857 11.6427 11.3052 10.9946C10.3247 10.3465 9.17537 10.0006 8 10ZM5.17 18.83C4.55109 18.2042 4.15586 17.3917 4.04558 16.5185C3.9353 15.6453 4.11611 14.76 4.56 14L10 19.44C9.23996 19.8839 8.35474 20.0647 7.48151 19.9544C6.60828 19.8441 5.79581 19.4489 5.17 18.83ZM11.44 18L6 12.56C6.60573 12.2005 7.29565 12.0073 8 12C8.7001 12.0042 9.38683 12.1921 9.99156 12.5449C10.5963 12.8977 11.0978 13.403 11.4461 14.0104C11.7943 14.6178 11.977 15.3059 11.9759 16.006C11.9749 16.7061 11.7901 17.3937 11.44 18Z" fill="#414853"/>
</svg>
