<svg width="24" height="24" viewBox="0 0 24 24" fill="none" xmlns="http://www.w3.org/2000/svg">
<path d="M22.2598 20.3569C21.1076 18.9838 20.4836 17.2445 20.5 15.4521V7.99268C20.5 4.68408 18.2568 1.99268 15.5 1.99268H6.5C3.74316 1.99268 1.5 4.68408 1.5 7.99268C1.5 11.3013 3.74316 13.9927 6.5 13.9927H9.5V15.4521C9.4838 17.7215 10.2782 19.922 11.7402 21.6577C11.8342 21.7673 11.9507 21.8553 12.0819 21.9156C12.213 21.976 12.3556 22.0073 12.5 22.0073H21.5C21.6912 22.0072 21.8783 21.9524 22.0393 21.8492C22.2002 21.7461 22.3282 21.599 22.4082 21.4253C22.4881 21.2517 22.5166 21.0588 22.4903 20.8694C22.464 20.6801 22.384 20.5022 22.2598 20.3569ZM6.5 11.9927C4.8457 11.9927 3.5 10.1982 3.5 7.99268C3.5 5.78712 4.8457 3.99268 6.5 3.99268C8.1543 3.99268 9.5 5.78711 9.5 7.99268C9.5 10.1982 8.1543 11.9927 6.5 11.9927ZM12.979 20.0073C12.0067 18.6887 11.4878 17.0905 11.5 15.4521V8.45215C11.5 8.42395 11.4862 8.40027 11.484 8.37268C11.4907 8.2464 11.5 8.12097 11.5 7.99268C11.5133 6.55598 11.0631 5.15327 10.2162 3.99268H15.5C17.1543 3.99268 18.5 5.78711 18.5 7.99268V15.4521C18.4948 17.0391 18.8785 18.6031 19.6177 20.0073H12.979ZM6.5 6.74286C6.20318 6.77954 5.93245 6.9308 5.74562 7.16435C5.55878 7.39789 5.47064 7.69522 5.5 7.99286C5.47064 8.29049 5.55878 8.58782 5.74562 8.82136C5.93245 9.05491 6.20318 9.20617 6.5 9.24286C6.79682 9.20617 7.06755 9.05491 7.25438 8.82136C7.44122 8.58782 7.52936 8.29049 7.5 7.99286C7.52936 7.69522 7.44122 7.39789 7.25438 7.16435C7.06755 6.9308 6.79682 6.77954 6.5 6.74286Z" fill="#414853"/>
</svg>
