<svg width="24" height="24" viewBox="0 0 24 24" fill="none" xmlns="http://www.w3.org/2000/svg">
<path d="M14.49 10.8599C14.8249 10.3989 15.0258 9.85423 15.0705 9.28614C15.1152 8.71805 15.0019 8.14867 14.7432 7.64094C14.4844 7.13321 14.0904 6.70692 13.6045 6.40919C13.1186 6.11145 12.5598 5.95388 11.99 5.95388C11.4202 5.95388 10.8614 6.11145 10.3755 6.40919C9.88965 6.70692 9.49557 7.13321 9.23685 7.64094C8.97812 8.14867 8.86484 8.71805 8.90951 9.28614C8.95419 9.85423 9.15509 10.3989 9.49 10.8599C9.06518 11.1307 8.68696 11.4684 8.37 11.8599C8.28727 11.967 8.22643 12.0892 8.19095 12.2198C8.15547 12.3503 8.14606 12.4866 8.16323 12.6208C8.18041 12.7549 8.22385 12.8844 8.29107 13.0018C8.35829 13.1192 8.44798 13.2222 8.555 13.3049C8.66203 13.3877 8.78431 13.4485 8.91485 13.484C9.04539 13.5195 9.18164 13.5289 9.31582 13.5117C9.45 13.4945 9.57948 13.4511 9.69687 13.3839C9.81427 13.3167 9.91727 13.227 10 13.1199C10.2442 12.8095 10.5555 12.5583 10.9105 12.3852C11.2655 12.212 11.655 12.1213 12.05 12.1199C12.445 12.1213 12.8345 12.212 13.1895 12.3852C13.5445 12.5583 13.8558 12.8095 14.1 13.1199C14.1941 13.236 14.313 13.3294 14.448 13.3935C14.583 13.4575 14.7306 13.4905 14.88 13.4899C15.0675 13.4891 15.2509 13.4355 15.4094 13.3354C15.5679 13.2353 15.6951 13.0927 15.7764 12.9238C15.8577 12.7549 15.8899 12.5665 15.8694 12.3802C15.8488 12.1938 15.7762 12.017 15.66 11.8699C15.3288 11.4706 14.9334 11.1293 14.49 10.8599ZM12 10.1299C11.7862 10.1298 11.5771 10.0668 11.3988 9.94866C11.2205 9.83056 11.0809 9.66264 10.9974 9.46578C10.9138 9.26893 10.89 9.05185 10.9289 8.84158C10.9679 8.6313 11.0678 8.43712 11.2162 8.28321C11.3647 8.12929 11.5552 8.02245 11.7639 7.97599C11.9726 7.92952 12.1904 7.94548 12.3902 8.02188C12.5899 8.09828 12.7627 8.23174 12.8872 8.40565C13.0116 8.57957 13.0822 8.78624 13.09 8.99994C13.0954 9.14641 13.0712 9.29247 13.0188 9.42936C12.9664 9.56626 12.887 9.69119 12.7852 9.79668C12.6835 9.90217 12.5615 9.98606 12.4266 10.0433C12.2917 10.1006 12.1466 10.13 12 10.1299ZM20.46 9.62994C20.3196 8.16886 19.8032 6.76903 18.9612 5.56676C18.1191 4.3645 16.9801 3.40077 15.655 2.76944C14.3299 2.1381 12.8639 1.86066 11.3997 1.96415C9.93555 2.06763 8.52314 2.5485 7.3 3.35994C6.2492 4.06259 5.36706 4.98924 4.71695 6.07333C4.06684 7.15743 3.6649 8.37205 3.54 9.62994C3.41749 10.8796 3.57468 12.1409 4.00017 13.3222C4.42567 14.5036 5.1088 15.5754 6 16.4599L11.3 21.7699C11.393 21.8637 11.5036 21.9381 11.6254 21.9888C11.7473 22.0396 11.878 22.0657 12.01 22.0657C12.142 22.0657 12.2727 22.0396 12.3946 21.9888C12.5164 21.9381 12.627 21.8637 12.72 21.7699L18 16.4599C18.8912 15.5754 19.5743 14.5036 19.9998 13.3222C20.4253 12.1409 20.5825 10.8796 20.46 9.62994ZM16.6 15.0499L12 19.6499L7.4 15.0499C6.72209 14.372 6.20281 13.5523 5.87947 12.6497C5.55614 11.7471 5.43679 10.7841 5.53 9.82994C5.62382 8.86105 5.93177 7.9251 6.43157 7.08979C6.93138 6.25447 7.61056 5.54065 8.42 4.99994C9.48095 4.29518 10.7263 3.91924 12 3.91924C13.2737 3.91924 14.5191 4.29518 15.58 4.99994C16.387 5.53856 17.0647 6.24922 17.5644 7.08088C18.064 7.91254 18.3733 8.84454 18.47 9.80994C18.5663 10.7674 18.4484 11.7342 18.125 12.6405C17.8016 13.5468 17.2807 14.3698 16.6 15.0499Z" fill="#414853"/>
</svg>
