<svg width="24" height="24" viewBox="0 0 24 24" fill="none" xmlns="http://www.w3.org/2000/svg">
<path d="M20 16.18V7.82004C20.4797 7.65293 20.9091 7.36676 21.2479 6.98836C21.5867 6.60996 21.824 6.15172 21.9373 5.6566C22.0507 5.16147 22.0365 4.64566 21.896 4.15753C21.7556 3.66939 21.4935 3.22491 21.1343 2.86574C20.7752 2.50657 20.3307 2.24448 19.8425 2.10403C19.3544 1.96358 18.8386 1.94937 18.3435 2.06273C17.8483 2.17609 17.3901 2.41331 17.0117 2.75216C16.6333 3.09101 16.3471 3.52038 16.18 4.00004H7.82001C7.6529 3.52038 7.36673 3.09101 6.98833 2.75216C6.60993 2.41331 6.15169 2.17609 5.65657 2.06273C5.16144 1.94937 4.64563 1.96358 4.1575 2.10403C3.66936 2.24448 3.22488 2.50657 2.86571 2.86574C2.50654 3.22491 2.24445 3.66939 2.104 4.15753C1.96355 4.64566 1.94934 5.16147 2.0627 5.6566C2.17606 6.15172 2.41328 6.60996 2.75213 6.98836C3.09097 7.36676 3.52035 7.65293 4.00001 7.82004V16.18C3.52035 16.3472 3.09097 16.6333 2.75213 17.0117C2.41328 17.3901 2.17606 17.8484 2.0627 18.3435C1.94934 18.8386 1.96355 19.3544 2.104 19.8426C2.24445 20.3307 2.50654 20.7752 2.86571 21.1343C3.22488 21.4935 3.66936 21.7556 4.1575 21.8961C4.64563 22.0365 5.16144 22.0507 5.65657 21.9374C6.15169 21.824 6.60993 21.5868 6.98833 21.2479C7.36673 20.9091 7.6529 20.4797 7.82001 20H16.18C16.3471 20.4797 16.6333 20.9091 17.0117 21.2479C17.3901 21.5868 17.8483 21.824 18.3435 21.9374C18.8386 22.0507 19.3544 22.0365 19.8425 21.8961C20.3307 21.7556 20.7752 21.4935 21.1343 21.1343C21.4935 20.7752 21.7556 20.3307 21.896 19.8426C22.0365 19.3544 22.0507 18.8386 21.9373 18.3435C21.824 17.8484 21.5867 17.3901 21.2479 17.0117C20.9091 16.6333 20.4797 16.3472 20 16.18ZM19 4.00004C19.1978 4.00004 19.3911 4.05869 19.5556 4.16858C19.72 4.27846 19.8482 4.43464 19.9239 4.61736C19.9996 4.80009 20.0194 5.00115 19.9808 5.19514C19.9422 5.38912 19.847 5.5673 19.7071 5.70715C19.5673 5.847 19.3891 5.94225 19.1951 5.98083C19.0011 6.01942 18.8001 5.99961 18.6173 5.92392C18.4346 5.84824 18.2784 5.72006 18.1685 5.55561C18.0587 5.39117 18 5.19783 18 5.00004C18 4.73483 18.1054 4.48047 18.2929 4.29294C18.4804 4.1054 18.7348 4.00004 19 4.00004ZM5.00001 4.00004C5.1978 4.00004 5.39114 4.05869 5.55558 4.16858C5.72003 4.27846 5.84821 4.43464 5.92389 4.61736C5.99958 4.80009 6.01938 5.00115 5.9808 5.19514C5.94221 5.38912 5.84697 5.5673 5.70712 5.70715C5.56727 5.847 5.38909 5.94225 5.1951 5.98083C5.00112 6.01942 4.80006 5.99961 4.61733 5.92392C4.4346 5.84824 4.27843 5.72006 4.16854 5.55561C4.05866 5.39117 4.00001 5.19783 4.00001 5.00004C4.00001 4.73483 4.10537 4.48047 4.29291 4.29294C4.48044 4.1054 4.7348 4.00004 5.00001 4.00004ZM5.00001 20C4.80223 20 4.60889 19.9414 4.44444 19.8315C4.27999 19.7216 4.15182 19.5655 4.07613 19.3827C4.00045 19.2 3.98064 18.9989 4.01923 18.805C4.05781 18.611 4.15306 18.4328 4.29291 18.2929C4.43276 18.1531 4.61094 18.0578 4.80492 18.0193C4.9989 17.9807 5.19997 18.0005 5.3827 18.0762C5.56542 18.1519 5.7216 18.28 5.83148 18.4445C5.94137 18.6089 6.00001 18.8023 6.00001 19C6.00001 19.2653 5.89466 19.5196 5.70712 19.7072C5.51958 19.8947 5.26523 20 5.00001 20ZM16.18 18H7.82001C7.6707 17.5806 7.42991 17.1997 7.11511 16.8849C6.80032 16.5702 6.41941 16.3294 6.00001 16.18V7.82004C6.41941 7.67073 6.80032 7.42994 7.11511 7.11514C7.42991 6.80035 7.6707 6.41944 7.82001 6.00004H16.18C16.3293 6.41944 16.5701 6.80035 16.8849 7.11514C17.1997 7.42994 17.5806 7.67073 18 7.82004V16.18C17.5806 16.3294 17.1997 16.5702 16.8849 16.8849C16.5701 17.1997 16.3293 17.5806 16.18 18ZM19 20C18.8022 20 18.6089 19.9414 18.4444 19.8315C18.28 19.7216 18.1518 19.5655 18.0761 19.3827C18.0004 19.2 17.9806 18.9989 18.0192 18.805C18.0578 18.611 18.1531 18.4328 18.2929 18.2929C18.4328 18.1531 18.6109 18.0578 18.8049 18.0193C18.9989 17.9807 19.2 18.0005 19.3827 18.0762C19.5654 18.1519 19.7216 18.28 19.8315 18.4445C19.9414 18.6089 20 18.8023 20 19C20 19.2653 19.8947 19.5196 19.7071 19.7072C19.5196 19.8947 19.2652 20 19 20Z" fill="#414853"/>
</svg>
