<svg width="24" height="24" viewBox="0 0 24 24" fill="none" xmlns="http://www.w3.org/2000/svg">
<path d="M10.21 17.29C10.0167 17.1115 9.76317 17.0124 9.50004 17.0124C9.23691 17.0124 8.98343 17.1115 8.79008 17.29C8.69962 17.3854 8.62833 17.4973 8.58008 17.6196C8.52727 17.7394 8.5 17.8688 8.5 17.9997C8.5 18.1306 8.52727 18.2601 8.58008 18.3798C8.63078 18.501 8.7018 18.6126 8.79008 18.7099C8.92995 18.8509 9.10864 18.9471 9.30336 18.9861C9.49809 19.0252 9.70004 19.0054 9.88346 18.9292C10.0669 18.8531 10.2235 18.724 10.3333 18.5585C10.4431 18.393 10.5011 18.1986 10.5 18C10.4984 17.8692 10.4712 17.74 10.4199 17.6196C10.3692 17.4986 10.2982 17.3871 10.21 17.29ZM9.5 9C8.9737 9.00096 8.45685 9.13994 8.00104 9.40306C7.54523 9.66618 7.16639 10.0442 6.90234 10.4995C6.7696 10.729 6.73345 11.0018 6.80185 11.2579C6.87026 11.514 7.0376 11.7325 7.26708 11.8652C7.49655 11.998 7.76936 12.0341 8.02548 11.9657C8.28161 11.8973 8.50007 11.73 8.63281 11.5005C8.72045 11.3483 8.84662 11.2219 8.99862 11.1339C9.15063 11.0459 9.32312 10.9995 9.49875 10.9994C9.67437 10.9992 9.84695 11.0453 9.99912 11.133C10.1513 11.2206 10.2777 11.3469 10.3656 11.4989C10.4535 11.6509 10.4999 11.8234 10.5 11.9991C10.5001 12.1747 10.454 12.3472 10.3662 12.4994C10.2785 12.6515 10.1523 12.7779 10.0002 12.8658C9.84815 12.9536 9.67563 12.9999 9.5 13C9.36867 13 9.23862 13.0258 9.11728 13.0761C8.99593 13.1263 8.88568 13.2 8.79282 13.2928C8.69995 13.3857 8.62629 13.4959 8.57605 13.6173C8.52581 13.7386 8.49997 13.8687 8.5 14V15C8.5 15.2652 8.60536 15.5196 8.79289 15.7071C8.98043 15.8946 9.23478 16 9.5 16C9.76522 16 10.0196 15.8946 10.2071 15.7071C10.3946 15.5196 10.5 15.2652 10.5 15V14.8157C11.167 14.5812 11.7294 14.1181 12.0876 13.5085C12.4458 12.899 12.5765 12.1822 12.4567 11.4854C12.3369 10.7886 11.9743 10.1568 11.433 9.70182C10.8918 9.24687 10.207 8.99824 9.5 9ZM21.5254 6.14941C21.3805 6.05973 21.215 6.00861 21.0448 6.00092C20.8745 5.99323 20.7051 6.02922 20.5527 6.10547L16.9886 7.88747C16.9602 7.11324 16.6331 6.38009 16.0759 5.84176C15.5187 5.30344 14.7748 5.00177 14 5H5C4.20462 5.00087 3.44206 5.31722 2.87964 5.87964C2.31722 6.44206 2.00087 7.20462 2 8V14C2.00087 14.7954 2.31722 15.5579 2.87964 16.1204C3.44206 16.6828 4.20462 16.9991 5 17H6C6.26522 17 6.51957 16.8946 6.70711 16.7071C6.89464 16.5196 7 16.2652 7 16C7 15.7348 6.89464 15.4804 6.70711 15.2929C6.51957 15.1054 6.26522 15 6 15H5C4.73486 14.9997 4.48066 14.8943 4.29319 14.7068C4.10571 14.5193 4.00026 14.2651 4 14V8C4.00026 7.73486 4.10571 7.48066 4.29319 7.29319C4.48066 7.10571 4.73486 7.00026 5 7H14C14.2651 7.00026 14.5193 7.10571 14.7068 7.29319C14.8943 7.48066 14.9997 7.73486 15 8V14C14.9997 14.2651 14.8943 14.5193 14.7068 14.7068C14.5193 14.8943 14.2651 14.9997 14 15H13.5C13.2348 15 12.9804 15.1054 12.7929 15.2929C12.6054 15.4804 12.5 15.7348 12.5 16C12.5 16.2652 12.6054 16.5196 12.7929 16.7071C12.9804 16.8946 13.2348 17 13.5 17H14C14.7748 16.9982 15.5187 16.6966 16.0759 16.1582C16.6331 15.6199 16.9602 14.8867 16.9886 14.1125L20.5527 15.8945C20.7052 15.9706 20.8746 16.0065 21.0449 15.9988C21.2151 15.9911 21.3806 15.94 21.5256 15.8504C21.6705 15.7608 21.7902 15.6357 21.8732 15.4868C21.9563 15.338 21.9999 15.1704 22 15V7C22 6.82952 21.9564 6.66187 21.8733 6.513C21.7902 6.36412 21.6705 6.23896 21.5254 6.14941ZM20 13.3818L17 11.8818V10.1182L20 8.61816V13.3818Z" fill="#414853"/>
</svg>
