<svg width="24" height="24" viewBox="0 0 24 24" fill="none" xmlns="http://www.w3.org/2000/svg">
<path d="M17 8.60996L16 2.83996C15.9617 2.60334 15.8396 2.38835 15.6561 2.23417C15.4725 2.07999 15.2397 1.99688 15 1.99996H9.00002C8.76033 1.99688 8.5275 2.07999 8.34395 2.23417C8.16041 2.38835 8.03835 2.60334 8.00002 2.83996L7.00002 8.60996C6.31638 9.60829 5.95056 10.79 5.95056 12C5.95056 13.2099 6.31638 14.3916 7.00002 15.39L8.00002 21.16C8.03835 21.3966 8.16041 21.6116 8.34395 21.7657C8.5275 21.9199 8.76033 22.003 9.00002 22H15C15.2397 22.003 15.4725 21.9199 15.6561 21.7657C15.8396 21.6116 15.9617 21.3966 16 21.16L17 15.39C17.6836 14.3916 18.0495 13.2099 18.0495 12C18.0495 10.79 17.6836 9.60829 17 8.60996ZM9.85002 3.99996H14.15L14.59 6.58996C13.7814 6.20301 12.8964 6.00216 12 6.00216C11.1036 6.00216 10.2186 6.20301 9.41002 6.58996L9.85002 3.99996ZM14.15 20H9.85002L9.41002 17.41C10.2186 17.7969 11.1036 17.9978 12 17.9978C12.8964 17.9978 13.7814 17.7969 14.59 17.41L14.15 20ZM12 16C11.2089 16 10.4355 15.7654 9.77774 15.3258C9.11994 14.8863 8.60725 14.2616 8.3045 13.5307C8.00175 12.7998 7.92253 11.9955 8.07687 11.2196C8.23122 10.4437 8.61218 9.73094 9.17159 9.17153C9.731 8.61212 10.4437 8.23116 11.2197 8.07682C11.9956 7.92248 12.7998 8.00169 13.5308 8.30444C14.2617 8.60719 14.8864 9.11988 15.3259 9.77768C15.7654 10.4355 16 11.2088 16 12C16 13.0608 15.5786 14.0782 14.8284 14.8284C14.0783 15.5785 13.0609 16 12 16Z" fill="#414853"/>
</svg>
