<svg width="24" height="24" viewBox="0 0 24 24" fill="none" xmlns="http://www.w3.org/2000/svg">
<path d="M18.08 7.00004C17.9486 6.98911 17.8163 7.00427 17.6908 7.04465C17.5653 7.08504 17.449 7.14985 17.3486 7.23535C17.2482 7.32086 17.1658 7.42538 17.1059 7.54288C17.0461 7.66039 17.0101 7.78857 17 7.92004L16.65 12.47C16.1876 12.3269 15.7728 12.0607 15.45 11.7C15.3562 11.5936 15.2408 11.5084 15.1115 11.45C14.9822 11.3917 14.8419 11.3615 14.7 11.3615C14.5582 11.3615 14.4179 11.3917 14.2886 11.45C14.1593 11.5084 14.0439 11.5936 13.95 11.7C13.7018 11.9698 13.4004 12.185 13.0647 12.3323C12.7291 12.4796 12.3666 12.5556 12 12.5556C11.6335 12.5556 11.271 12.4796 10.9353 12.3323C10.5997 12.185 10.2982 11.9698 10.05 11.7C9.95619 11.5936 9.84078 11.5084 9.71147 11.45C9.58215 11.3917 9.4419 11.3615 9.30003 11.3615C9.15815 11.3615 9.0179 11.3917 8.88859 11.45C8.75928 11.5084 8.64387 11.5936 8.55003 11.7C8.22625 12.0596 7.81179 12.3255 7.35003 12.47L7.00003 7.92004C6.98993 7.78857 6.95394 7.66039 6.89411 7.54288C6.83428 7.42538 6.75181 7.32086 6.65143 7.23535C6.55105 7.14985 6.43475 7.08504 6.30923 7.04465C6.1837 7.00427 6.05143 6.98911 5.92003 7.00004C5.78855 7.01014 5.66037 7.04613 5.54287 7.10596C5.42536 7.16579 5.32085 7.24826 5.23534 7.34864C5.14983 7.44902 5.08502 7.56532 5.04464 7.69084C5.00425 7.81636 4.98909 7.94864 5.00003 8.08004L5.86003 19.23C5.91809 19.9852 6.25961 20.6904 6.81605 21.2042C7.37249 21.718 8.10267 22.0023 8.86003 22H15.16C15.9174 22.0023 16.6476 21.718 17.204 21.2042C17.7604 20.6904 18.102 19.9852 18.16 19.23L19 8.08004C19.011 7.94864 18.9958 7.81636 18.9554 7.69084C18.915 7.56532 18.8502 7.44902 18.7647 7.34864C18.6792 7.24826 18.5747 7.16579 18.4572 7.10596C18.3397 7.04613 18.2115 7.01014 18.08 7.00004ZM16.14 19.08C16.1199 19.3312 16.0057 19.5654 15.8203 19.736C15.6349 19.9065 15.3919 20.0008 15.14 20H8.85003C8.59811 20.0008 8.35516 19.9065 8.16977 19.736C7.98437 19.5654 7.87018 19.3312 7.85003 19.08L7.50003 14.5C8.14837 14.3645 8.76138 14.0955 9.30003 13.71C10.0887 14.2707 11.0324 14.5719 12 14.5719C12.9677 14.5719 13.9113 14.2707 14.7 13.71C15.2387 14.0955 15.8517 14.3645 16.5 14.5L16.14 19.08ZM12 10C12.8612 9.99741 13.6863 9.65415 14.2952 9.04523C14.9041 8.4363 15.2474 7.61118 15.25 6.75004C15.25 4.00004 12.67 2.24004 12.56 2.17004C12.3947 2.05827 12.1996 1.99854 12 1.99854C11.8004 1.99854 11.6054 2.05827 11.44 2.17004C11.33 2.25004 8.75003 4.00004 8.75003 6.75004C8.75266 7.61118 9.09592 8.4363 9.70484 9.04523C10.3138 9.65415 11.1389 9.99741 12 10ZM12 4.30004C12.7237 4.91977 13.173 5.80042 13.25 6.75004C13.25 7.08156 13.1183 7.39951 12.8839 7.63393C12.6495 7.86835 12.3315 8.00004 12 8.00004C11.6685 8.00004 11.3506 7.86835 11.1161 7.63393C10.8817 7.39951 10.75 7.08156 10.75 6.75004C10.8323 5.80192 11.2807 4.92314 12 4.30004Z" fill="#414853"/>
</svg>
