<svg width="24" height="24" viewBox="0 0 24 24" fill="none" xmlns="http://www.w3.org/2000/svg">
<path d="M12 2C10.0222 1.99998 8.08872 2.58647 6.44419 3.6853C4.79967 4.78413 3.51791 6.34594 2.76103 8.17323C2.00414 10.0005 1.80611 12.0112 2.19198 13.9511C2.57786 15.8909 3.5303 17.6728 4.92886 19.0713C6.32743 20.4698 8.10931 21.4222 10.0492 21.8081C11.989 22.1939 13.9997 21.9958 15.827 21.2389C17.6543 20.482 19.216 19.2002 20.3148 17.5556C21.4136 15.9111 22.0001 13.9776 22 11.9998C21.997 9.34854 20.9424 6.80678 19.0677 4.93211C17.193 3.05744 14.6512 2.00296 12 2ZM3.00928 11.9998C3.00829 10.7389 3.27355 9.49203 3.78772 8.34076L8.07654 20.0913C6.55736 19.3544 5.27637 18.2047 4.38022 16.7737C3.48406 15.3427 3.00895 13.6882 3.00928 11.9998ZM12 20.9912C11.1402 20.9912 10.2848 20.8679 9.46 20.6249L12.1579 12.7862L14.9212 20.3575C14.9392 20.4006 14.9608 20.442 14.9856 20.4814C14.0265 20.8194 13.0169 20.9917 12 20.9912ZM13.239 7.78436C13.7803 7.75592 14.2681 7.69897 14.2681 7.69897C14.3653 7.68999 14.455 7.64313 14.518 7.56852C14.5809 7.4939 14.612 7.39752 14.6044 7.3002C14.5969 7.20288 14.5514 7.11243 14.4777 7.04839C14.404 6.98436 14.3081 6.95188 14.2107 6.95797C14.2107 6.95797 12.7544 7.07229 11.8142 7.07229C10.9309 7.07229 9.4464 6.95797 9.4464 6.95797C9.34912 6.95218 9.25345 6.98482 9.18001 7.04888C9.10656 7.11294 9.06122 7.20329 9.05375 7.30046C9.04627 7.39763 9.07726 7.49384 9.14005 7.56838C9.20283 7.64292 9.29238 7.68982 9.3894 7.69897C9.3894 7.69897 9.8479 7.75592 10.3324 7.78436L11.7332 11.6224L9.76515 17.5232L6.49133 7.78436C7.033 7.75592 7.52026 7.699 7.52026 7.699C7.61739 7.68992 7.70705 7.64301 7.7699 7.5684C7.83275 7.49379 7.86374 7.39747 7.8562 7.30021C7.84865 7.20295 7.80317 7.11256 7.72956 7.04853C7.65596 6.98451 7.56014 6.952 7.46277 6.958C7.46277 6.958 6.00684 7.07232 5.06665 7.07232C4.89795 7.07232 4.69897 7.06817 4.48804 7.06139C5.20285 5.97352 6.14543 5.05389 7.25058 4.3661C8.35573 3.67831 9.59709 3.23877 10.8888 3.07789C12.1805 2.917 13.4918 3.0386 14.7319 3.43428C15.972 3.82996 17.1113 4.49028 18.0712 5.36957C18.0325 5.36719 17.9946 5.36237 17.9548 5.36237C17.5433 5.37463 17.1534 5.5494 16.8705 5.84844C16.5875 6.14748 16.4345 6.54644 16.445 6.958C16.5393 7.7289 16.8449 8.45871 17.3282 9.0667C17.8007 9.80837 18.0573 10.6669 18.0694 11.5463C17.976 12.5419 17.7458 13.5199 17.3853 14.4528L16.4883 17.4491L13.239 7.78436ZM16.52 19.771L19.2661 11.8313C19.702 10.8128 19.9342 9.71877 19.9498 8.611C19.9504 8.30181 19.9302 7.99293 19.8894 7.68644C21.013 9.74267 21.2895 12.1563 20.6602 14.4134C20.0309 16.6705 18.5454 18.5928 16.52 19.771Z" fill="#414853"/>
</svg>
