<svg width="24" height="24" viewBox="0 0 24 24" fill="none" xmlns="http://www.w3.org/2000/svg">
<path d="M14.71 7.29C14.617 7.19627 14.5064 7.12188 14.3846 7.07111C14.2627 7.02034 14.132 6.9942 14 6.9942C13.868 6.9942 13.7373 7.02034 13.6154 7.07111C13.4936 7.12188 13.383 7.19627 13.29 7.29L11 9.59L8.71 7.29C8.61676 7.19676 8.50607 7.1228 8.38425 7.07234C8.26243 7.02188 8.13186 6.99591 8 6.99591C7.86814 6.99591 7.73757 7.02188 7.61575 7.07234C7.49393 7.1228 7.38324 7.19676 7.29 7.29C7.19676 7.38324 7.1228 7.49393 7.07234 7.61575C7.02188 7.73757 6.99591 7.86814 6.99591 8C6.99591 8.13186 7.02188 8.26243 7.07234 8.38425C7.1228 8.50607 7.19676 8.61676 7.29 8.71L9.59 11L7.29 13.29C7.19627 13.383 7.12188 13.4936 7.07111 13.6154C7.02034 13.7373 6.9942 13.868 6.9942 14C6.9942 14.132 7.02034 14.2627 7.07111 14.3846C7.12188 14.5064 7.19627 14.617 7.29 14.71C7.38296 14.8037 7.49356 14.8781 7.61542 14.9289C7.73728 14.9797 7.86799 15.0058 8 15.0058C8.13201 15.0058 8.26272 14.9797 8.38458 14.9289C8.50644 14.8781 8.61704 14.8037 8.71 14.71L11 12.41L13.29 14.71C13.383 14.8037 13.4936 14.8781 13.6154 14.9289C13.7373 14.9797 13.868 15.0058 14 15.0058C14.132 15.0058 14.2627 14.9797 14.3846 14.9289C14.5064 14.8781 14.617 14.8037 14.71 14.71C14.8037 14.617 14.8781 14.5064 14.9289 14.3846C14.9797 14.2627 15.0058 14.132 15.0058 14C15.0058 13.868 14.9797 13.7373 14.9289 13.6154C14.8781 13.4936 14.8037 13.383 14.71 13.29L12.41 11L14.71 8.71C14.8037 8.61704 14.8781 8.50644 14.9289 8.38458C14.9797 8.26272 15.0058 8.13201 15.0058 8C15.0058 7.86799 14.9797 7.73728 14.9289 7.61542C14.8781 7.49356 14.8037 7.38296 14.71 7.29ZM7 18C6.20435 18 5.44129 17.6839 4.87868 17.1213C4.31607 16.5587 4 15.7956 4 15V7C4 6.20435 4.31607 5.44129 4.87868 4.87868C5.44129 4.31607 6.20435 4 7 4C7.26522 4 7.51957 3.89464 7.70711 3.70711C7.89464 3.51957 8 3.26522 8 3C8 2.73478 7.89464 2.48043 7.70711 2.29289C7.51957 2.10536 7.26522 2 7 2C5.67392 2 4.40215 2.52678 3.46447 3.46447C2.52678 4.40215 2 5.67392 2 7V15C2 16.3261 2.52678 17.5979 3.46447 18.5355C4.40215 19.4732 5.67392 20 7 20C7.26522 20 7.51957 19.8946 7.70711 19.7071C7.89464 19.5196 8 19.2652 8 19C8 18.7348 7.89464 18.4804 7.70711 18.2929C7.51957 18.1054 7.26522 18 7 18ZM18 7V13C18 13.2652 18.1054 13.5196 18.2929 13.7071C18.4804 13.8946 18.7348 14 19 14C19.2652 14 19.5196 13.8946 19.7071 13.7071C19.8946 13.5196 20 13.2652 20 13V7C20 5.67392 19.4732 4.40215 18.5355 3.46447C17.5979 2.52678 16.3261 2 15 2C14.7348 2 14.4804 2.10536 14.2929 2.29289C14.1054 2.48043 14 2.73478 14 3C14 3.26522 14.1054 3.51957 14.2929 3.70711C14.4804 3.89464 14.7348 4 15 4C15.7956 4 16.5587 4.31607 17.1213 4.87868C17.6839 5.44129 18 6.20435 18 7ZM21 18H20V17C20 16.7348 19.8946 16.4804 19.7071 16.2929C19.5196 16.1054 19.2652 16 19 16C18.7348 16 18.4804 16.1054 18.2929 16.2929C18.1054 16.4804 18 16.7348 18 17V18H17C16.7348 18 16.4804 18.1054 16.2929 18.2929C16.1054 18.4804 16 18.7348 16 19C16 19.2652 16.1054 19.5196 16.2929 19.7071C16.4804 19.8946 16.7348 20 17 20H18V21C18 21.2652 18.1054 21.5196 18.2929 21.7071C18.4804 21.8946 18.7348 22 19 22C19.2652 22 19.5196 21.8946 19.7071 21.7071C19.8946 21.5196 20 21.2652 20 21V20H21C21.2652 20 21.5196 19.8946 21.7071 19.7071C21.8946 19.5196 22 19.2652 22 19C22 18.7348 21.8946 18.4804 21.7071 18.2929C21.5196 18.1054 21.2652 18 21 18Z" fill="#414853"/>
</svg>
